  0
SECTION
  2
BLOCKS
  0
ENDSEC
  0
SECTION
  2
ENTITIES
  0
LINE
  8
0
 10
-22.57
 20
-35.226
 11
-22.5641
 21
-35.4144
  0
LINE
  8
0
 10
-22.5641
 20
-35.4144
 11
-22.5463
 21
-35.602
  0
LINE
  8
0
 10
-22.5463
 20
-35.602
 11
-22.5169
 21
-35.7881
  0
LINE
  8
0
 10
-22.5169
 20
-35.7881
 11
-22.4757
 21
-35.9721
  0
LINE
  8
0
 10
-22.4757
 20
-35.9721
 11
-22.4232
 21
-36.153
  0
LINE
  8
0
 10
-22.4232
 20
-36.153
 11
-22.3593
 21
-36.3304
  0
LINE
  8
0
 10
-22.3593
 20
-36.3304
 11
-22.2845
 21
-36.5033
  0
LINE
  8
0
 10
-22.2845
 20
-36.5033
 11
-22.1989
 21
-36.6712
  0
LINE
  8
0
 10
-22.1989
 20
-36.6712
 11
-22.103
 21
-36.8335
  0
LINE
  8
0
 10
-22.103
 20
-36.8335
 11
-21.997
 21
-36.9893
  0
LINE
  8
0
 10
-21.997
 20
-36.9893
 11
-21.8815
 21
-37.1383
  0
LINE
  8
0
 10
-21.8815
 20
-37.1383
 11
-21.7569
 21
-37.2796
  0
LINE
  8
0
 10
-21.7569
 20
-37.2796
 11
-21.6236
 21
-37.4129
  0
LINE
  8
0
 10
-21.6236
 20
-37.4129
 11
-21.4823
 21
-37.5375
  0
LINE
  8
0
 10
-21.4823
 20
-37.5375
 11
-21.3333
 21
-37.653
  0
LINE
  8
0
 10
-21.3333
 20
-37.653
 11
-21.1775
 21
-37.759
  0
LINE
  8
0
 10
-21.1775
 20
-37.759
 11
-21.0153
 21
-37.8549
  0
LINE
  8
0
 10
-21.0153
 20
-37.8549
 11
-20.8473
 21
-37.9405
  0
LINE
  8
0
 10
-20.8473
 20
-37.9405
 11
-20.6744
 21
-38.0153
  0
LINE
  8
0
 10
-20.6744
 20
-38.0153
 11
-20.497
 21
-38.0792
  0
LINE
  8
0
 10
-20.497
 20
-38.0792
 11
-20.3161
 21
-38.1317
  0
LINE
  8
0
 10
-20.3161
 20
-38.1317
 11
-20.1321
 21
-38.1729
  0
LINE
  8
0
 10
-20.1321
 20
-38.1729
 11
-19.946
 21
-38.2023
  0
LINE
  8
0
 10
-19.946
 20
-38.2023
 11
-19.7584
 21
-38.2201
  0
LINE
  8
0
 10
-19.7584
 20
-38.2201
 11
-19.57
 21
-38.226
  0
LINE
  8
0
 10
-19.57
 20
-38.226
 11
19.57
 21
-38.226
  0
LINE
  8
0
 10
19.57
 20
-38.226
 11
19.7584
 21
-38.2201
  0
LINE
  8
0
 10
19.7584
 20
-38.2201
 11
19.946
 21
-38.2023
  0
LINE
  8
0
 10
19.946
 20
-38.2023
 11
20.1321
 21
-38.1729
  0
LINE
  8
0
 10
20.1321
 20
-38.1729
 11
20.3161
 21
-38.1317
  0
LINE
  8
0
 10
20.3161
 20
-38.1317
 11
20.497
 21
-38.0792
  0
LINE
  8
0
 10
20.497
 20
-38.0792
 11
20.6744
 21
-38.0153
  0
LINE
  8
0
 10
20.6744
 20
-38.0153
 11
20.8473
 21
-37.9405
  0
LINE
  8
0
 10
20.8473
 20
-37.9405
 11
21.0153
 21
-37.8549
  0
LINE
  8
0
 10
21.0153
 20
-37.8549
 11
21.1775
 21
-37.759
  0
LINE
  8
0
 10
21.1775
 20
-37.759
 11
21.3333
 21
-37.653
  0
LINE
  8
0
 10
21.3333
 20
-37.653
 11
21.4823
 21
-37.5375
  0
LINE
  8
0
 10
21.4823
 20
-37.5375
 11
21.6236
 21
-37.4129
  0
LINE
  8
0
 10
21.6236
 20
-37.4129
 11
21.7569
 21
-37.2796
  0
LINE
  8
0
 10
21.7569
 20
-37.2796
 11
21.8815
 21
-37.1383
  0
LINE
  8
0
 10
21.8815
 20
-37.1383
 11
21.997
 21
-36.9893
  0
LINE
  8
0
 10
21.997
 20
-36.9893
 11
22.103
 21
-36.8335
  0
LINE
  8
0
 10
22.103
 20
-36.8335
 11
22.1989
 21
-36.6712
  0
LINE
  8
0
 10
22.1989
 20
-36.6712
 11
22.2845
 21
-36.5033
  0
LINE
  8
0
 10
22.2845
 20
-36.5033
 11
22.3593
 21
-36.3304
  0
LINE
  8
0
 10
22.3593
 20
-36.3304
 11
22.4232
 21
-36.153
  0
LINE
  8
0
 10
22.4232
 20
-36.153
 11
22.4757
 21
-35.9721
  0
LINE
  8
0
 10
22.4757
 20
-35.9721
 11
22.5169
 21
-35.7881
  0
LINE
  8
0
 10
22.5169
 20
-35.7881
 11
22.5463
 21
-35.602
  0
LINE
  8
0
 10
22.5463
 20
-35.602
 11
22.5641
 21
-35.4144
  0
LINE
  8
0
 10
22.5641
 20
-35.4144
 11
22.57
 21
-35.226
  0
LINE
  8
0
 10
22.57
 20
-35.226
 11
22.57
 21
35.226
  0
LINE
  8
0
 10
22.57
 20
35.226
 11
22.5641
 21
35.4144
  0
LINE
  8
0
 10
22.5641
 20
35.4144
 11
22.5463
 21
35.602
  0
LINE
  8
0
 10
22.5463
 20
35.602
 11
22.5169
 21
35.7881
  0
LINE
  8
0
 10
22.5169
 20
35.7881
 11
22.4757
 21
35.9721
  0
LINE
  8
0
 10
22.4757
 20
35.9721
 11
22.4232
 21
36.153
  0
LINE
  8
0
 10
22.4232
 20
36.153
 11
22.3593
 21
36.3304
  0
LINE
  8
0
 10
22.3593
 20
36.3304
 11
22.2845
 21
36.5033
  0
LINE
  8
0
 10
22.2845
 20
36.5033
 11
22.1989
 21
36.6712
  0
LINE
  8
0
 10
22.1989
 20
36.6712
 11
22.103
 21
36.8335
  0
LINE
  8
0
 10
22.103
 20
36.8335
 11
21.997
 21
36.9893
  0
LINE
  8
0
 10
21.997
 20
36.9893
 11
21.8815
 21
37.1383
  0
LINE
  8
0
 10
21.8815
 20
37.1383
 11
21.7569
 21
37.2796
  0
LINE
  8
0
 10
21.7569
 20
37.2796
 11
21.6236
 21
37.4129
  0
LINE
  8
0
 10
21.6236
 20
37.4129
 11
21.4823
 21
37.5375
  0
LINE
  8
0
 10
21.4823
 20
37.5375
 11
21.3333
 21
37.653
  0
LINE
  8
0
 10
21.3333
 20
37.653
 11
21.1775
 21
37.759
  0
LINE
  8
0
 10
21.1775
 20
37.759
 11
21.0153
 21
37.8549
  0
LINE
  8
0
 10
21.0153
 20
37.8549
 11
20.8473
 21
37.9405
  0
LINE
  8
0
 10
20.8473
 20
37.9405
 11
20.6744
 21
38.0153
  0
LINE
  8
0
 10
20.6744
 20
38.0153
 11
20.497
 21
38.0792
  0
LINE
  8
0
 10
20.497
 20
38.0792
 11
20.3161
 21
38.1317
  0
LINE
  8
0
 10
20.3161
 20
38.1317
 11
20.1321
 21
38.1729
  0
LINE
  8
0
 10
20.1321
 20
38.1729
 11
19.946
 21
38.2023
  0
LINE
  8
0
 10
19.946
 20
38.2023
 11
19.7584
 21
38.2201
  0
LINE
  8
0
 10
19.7584
 20
38.2201
 11
19.57
 21
38.226
  0
LINE
  8
0
 10
19.57
 20
38.226
 11
-19.57
 21
38.226
  0
LINE
  8
0
 10
-19.57
 20
38.226
 11
-19.7584
 21
38.2201
  0
LINE
  8
0
 10
-19.7584
 20
38.2201
 11
-19.946
 21
38.2023
  0
LINE
  8
0
 10
-19.946
 20
38.2023
 11
-20.1321
 21
38.1729
  0
LINE
  8
0
 10
-20.1321
 20
38.1729
 11
-20.3161
 21
38.1317
  0
LINE
  8
0
 10
-20.3161
 20
38.1317
 11
-20.497
 21
38.0792
  0
LINE
  8
0
 10
-20.497
 20
38.0792
 11
-20.6744
 21
38.0153
  0
LINE
  8
0
 10
-20.6744
 20
38.0153
 11
-20.8473
 21
37.9405
  0
LINE
  8
0
 10
-20.8473
 20
37.9405
 11
-21.0153
 21
37.8549
  0
LINE
  8
0
 10
-21.0153
 20
37.8549
 11
-21.1775
 21
37.759
  0
LINE
  8
0
 10
-21.1775
 20
37.759
 11
-21.3333
 21
37.653
  0
LINE
  8
0
 10
-21.3333
 20
37.653
 11
-21.4823
 21
37.5375
  0
LINE
  8
0
 10
-21.4823
 20
37.5375
 11
-21.6236
 21
37.4129
  0
LINE
  8
0
 10
-21.6236
 20
37.4129
 11
-21.7569
 21
37.2796
  0
LINE
  8
0
 10
-21.7569
 20
37.2796
 11
-21.8815
 21
37.1383
  0
LINE
  8
0
 10
-21.8815
 20
37.1383
 11
-21.997
 21
36.9893
  0
LINE
  8
0
 10
-21.997
 20
36.9893
 11
-22.103
 21
36.8335
  0
LINE
  8
0
 10
-22.103
 20
36.8335
 11
-22.1989
 21
36.6712
  0
LINE
  8
0
 10
-22.1989
 20
36.6712
 11
-22.2845
 21
36.5033
  0
LINE
  8
0
 10
-22.2845
 20
36.5033
 11
-22.3593
 21
36.3304
  0
LINE
  8
0
 10
-22.3593
 20
36.3304
 11
-22.4232
 21
36.153
  0
LINE
  8
0
 10
-22.4232
 20
36.153
 11
-22.4757
 21
35.9721
  0
LINE
  8
0
 10
-22.4757
 20
35.9721
 11
-22.5169
 21
35.7881
  0
LINE
  8
0
 10
-22.5169
 20
35.7881
 11
-22.5463
 21
35.602
  0
LINE
  8
0
 10
-22.5463
 20
35.602
 11
-22.5641
 21
35.4144
  0
LINE
  8
0
 10
-22.5641
 20
35.4144
 11
-22.57
 21
35.226
  0
LINE
  8
0
 10
-22.57
 20
35.226
 11
-22.57
 21
-35.226
  0
ENDSEC
  0
SECTION
  2
OBJECTS
  0
DICTIONARY
  0
ENDSEC
  0
EOF
