  0
SECTION
  2
BLOCKS
  0
ENDSEC
  0
SECTION
  2
ENTITIES
  0
LINE
  8
0
 10
21.6778
 20
-39.755
 11
21.7403
 21
-39.7491
  0
LINE
  8
0
 10
21.7403
 20
-39.7491
 11
21.8024
 21
-39.7393
  0
LINE
  8
0
 10
21.8024
 20
-39.7393
 11
21.8637
 21
-39.7256
  0
LINE
  8
0
 10
21.8637
 20
-39.7256
 11
21.924
 21
-39.7081
  0
LINE
  8
0
 10
21.924
 20
-39.7081
 11
21.9831
 21
-39.6868
  0
LINE
  8
0
 10
21.9831
 20
-39.6868
 11
22.0408
 21
-39.6618
  0
LINE
  8
0
 10
22.0408
 20
-39.6618
 11
22.0967
 21
-39.6333
  0
LINE
  8
0
 10
22.0967
 20
-39.6333
 11
22.1508
 21
-39.6013
  0
LINE
  8
0
 10
22.1508
 20
-39.6013
 11
22.2028
 21
-39.566
  0
LINE
  8
0
 10
22.2028
 20
-39.566
 11
22.2524
 21
-39.5275
  0
LINE
  8
0
 10
22.2524
 20
-39.5275
 11
22.2995
 21
-39.486
  0
LINE
  8
0
 10
22.2995
 20
-39.486
 11
22.344
 21
-39.4415
  0
LINE
  8
0
 10
22.344
 20
-39.4415
 11
22.3855
 21
-39.3944
  0
LINE
  8
0
 10
22.3855
 20
-39.3944
 11
22.424
 21
-39.3448
  0
LINE
  8
0
 10
22.424
 20
-39.3448
 11
22.4593
 21
-39.2928
  0
LINE
  8
0
 10
22.4593
 20
-39.2928
 11
22.4913
 21
-39.2387
  0
LINE
  8
0
 10
22.4913
 20
-39.2387
 11
22.5198
 21
-39.1828
  0
LINE
  8
0
 10
22.5198
 20
-39.1828
 11
22.5448
 21
-39.1251
  0
LINE
  8
0
 10
22.5448
 20
-39.1251
 11
22.5661
 21
-39.066
  0
LINE
  8
0
 10
22.5661
 20
-39.066
 11
22.5836
 21
-39.0057
  0
LINE
  8
0
 10
22.5836
 20
-39.0057
 11
22.5973
 21
-38.9444
  0
LINE
  8
0
 10
22.5973
 20
-38.9444
 11
22.6071
 21
-38.8823
  0
LINE
  8
0
 10
22.6071
 20
-38.8823
 11
22.613
 21
-38.8198
  0
LINE
  8
0
 10
22.613
 20
-38.8198
 11
22.615
 21
-38.757
  0
LINE
  8
0
 10
22.615
 20
-38.757
 11
22.615
 21
38.757
  0
LINE
  8
0
 10
22.615
 20
38.757
 11
22.613
 21
38.8198
  0
LINE
  8
0
 10
22.613
 20
38.8198
 11
22.6071
 21
38.8823
  0
LINE
  8
0
 10
22.6071
 20
38.8823
 11
22.5973
 21
38.9444
  0
LINE
  8
0
 10
22.5973
 20
38.9444
 11
22.5836
 21
39.0057
  0
LINE
  8
0
 10
22.5836
 20
39.0057
 11
22.5661
 21
39.066
  0
LINE
  8
0
 10
22.5661
 20
39.066
 11
22.5448
 21
39.1251
  0
LINE
  8
0
 10
22.5448
 20
39.1251
 11
22.5198
 21
39.1828
  0
LINE
  8
0
 10
22.5198
 20
39.1828
 11
22.4913
 21
39.2387
  0
LINE
  8
0
 10
22.4913
 20
39.2387
 11
22.4593
 21
39.2928
  0
LINE
  8
0
 10
22.4593
 20
39.2928
 11
22.424
 21
39.3448
  0
LINE
  8
0
 10
22.424
 20
39.3448
 11
22.3855
 21
39.3944
  0
LINE
  8
0
 10
22.3855
 20
39.3944
 11
22.344
 21
39.4415
  0
LINE
  8
0
 10
22.344
 20
39.4415
 11
22.2995
 21
39.486
  0
LINE
  8
0
 10
22.2995
 20
39.486
 11
22.2524
 21
39.5275
  0
LINE
  8
0
 10
22.2524
 20
39.5275
 11
22.2028
 21
39.566
  0
LINE
  8
0
 10
22.2028
 20
39.566
 11
22.1508
 21
39.6013
  0
LINE
  8
0
 10
22.1508
 20
39.6013
 11
22.0967
 21
39.6333
  0
LINE
  8
0
 10
22.0967
 20
39.6333
 11
22.0408
 21
39.6618
  0
LINE
  8
0
 10
22.0408
 20
39.6618
 11
21.9831
 21
39.6868
  0
LINE
  8
0
 10
21.9831
 20
39.6868
 11
21.924
 21
39.7081
  0
LINE
  8
0
 10
21.924
 20
39.7081
 11
21.8637
 21
39.7256
  0
LINE
  8
0
 10
21.8637
 20
39.7256
 11
21.8024
 21
39.7393
  0
LINE
  8
0
 10
21.8024
 20
39.7393
 11
21.7403
 21
39.7491
  0
LINE
  8
0
 10
21.7403
 20
39.7491
 11
21.6778
 21
39.755
  0
LINE
  8
0
 10
21.6778
 20
39.755
 11
21.615
 21
39.757
  0
LINE
  8
0
 10
21.615
 20
39.757
 11
-21.615
 21
39.757
  0
LINE
  8
0
 10
-21.615
 20
39.757
 11
-21.6778
 21
39.755
  0
LINE
  8
0
 10
-21.6778
 20
39.755
 11
-21.7403
 21
39.7491
  0
LINE
  8
0
 10
-21.7403
 20
39.7491
 11
-21.8024
 21
39.7393
  0
LINE
  8
0
 10
-21.8024
 20
39.7393
 11
-21.8637
 21
39.7256
  0
LINE
  8
0
 10
-21.8637
 20
39.7256
 11
-21.924
 21
39.7081
  0
LINE
  8
0
 10
-21.924
 20
39.7081
 11
-21.9831
 21
39.6868
  0
LINE
  8
0
 10
-21.9831
 20
39.6868
 11
-22.0408
 21
39.6618
  0
LINE
  8
0
 10
-22.0408
 20
39.6618
 11
-22.0967
 21
39.6333
  0
LINE
  8
0
 10
-22.0967
 20
39.6333
 11
-22.1508
 21
39.6013
  0
LINE
  8
0
 10
-22.1508
 20
39.6013
 11
-22.2028
 21
39.566
  0
LINE
  8
0
 10
-22.2028
 20
39.566
 11
-22.2524
 21
39.5275
  0
LINE
  8
0
 10
-22.2524
 20
39.5275
 11
-22.2995
 21
39.486
  0
LINE
  8
0
 10
-22.2995
 20
39.486
 11
-22.344
 21
39.4415
  0
LINE
  8
0
 10
-22.344
 20
39.4415
 11
-22.3855
 21
39.3944
  0
LINE
  8
0
 10
-22.3855
 20
39.3944
 11
-22.424
 21
39.3448
  0
LINE
  8
0
 10
-22.424
 20
39.3448
 11
-22.4593
 21
39.2928
  0
LINE
  8
0
 10
-22.4593
 20
39.2928
 11
-22.4913
 21
39.2387
  0
LINE
  8
0
 10
-22.4913
 20
39.2387
 11
-22.5198
 21
39.1828
  0
LINE
  8
0
 10
-22.5198
 20
39.1828
 11
-22.5448
 21
39.1251
  0
LINE
  8
0
 10
-22.5448
 20
39.1251
 11
-22.5661
 21
39.066
  0
LINE
  8
0
 10
-22.5661
 20
39.066
 11
-22.5836
 21
39.0057
  0
LINE
  8
0
 10
-22.5836
 20
39.0057
 11
-22.5973
 21
38.9444
  0
LINE
  8
0
 10
-22.5973
 20
38.9444
 11
-22.6071
 21
38.8823
  0
LINE
  8
0
 10
-22.6071
 20
38.8823
 11
-22.613
 21
38.8198
  0
LINE
  8
0
 10
-22.613
 20
38.8198
 11
-22.615
 21
38.757
  0
LINE
  8
0
 10
-22.615
 20
38.757
 11
-22.615
 21
-38.757
  0
LINE
  8
0
 10
-22.615
 20
-38.757
 11
-22.613
 21
-38.8198
  0
LINE
  8
0
 10
-22.613
 20
-38.8198
 11
-22.6071
 21
-38.8823
  0
LINE
  8
0
 10
-22.6071
 20
-38.8823
 11
-22.5973
 21
-38.9444
  0
LINE
  8
0
 10
-22.5973
 20
-38.9444
 11
-22.5836
 21
-39.0057
  0
LINE
  8
0
 10
-22.5836
 20
-39.0057
 11
-22.5661
 21
-39.066
  0
LINE
  8
0
 10
-22.5661
 20
-39.066
 11
-22.5448
 21
-39.1251
  0
LINE
  8
0
 10
-22.5448
 20
-39.1251
 11
-22.5198
 21
-39.1828
  0
LINE
  8
0
 10
-22.5198
 20
-39.1828
 11
-22.4913
 21
-39.2387
  0
LINE
  8
0
 10
-22.4913
 20
-39.2387
 11
-22.4593
 21
-39.2928
  0
LINE
  8
0
 10
-22.4593
 20
-39.2928
 11
-22.424
 21
-39.3448
  0
LINE
  8
0
 10
-22.424
 20
-39.3448
 11
-22.3855
 21
-39.3944
  0
LINE
  8
0
 10
-22.3855
 20
-39.3944
 11
-22.344
 21
-39.4415
  0
LINE
  8
0
 10
-22.344
 20
-39.4415
 11
-22.2995
 21
-39.486
  0
LINE
  8
0
 10
-22.2995
 20
-39.486
 11
-22.2524
 21
-39.5275
  0
LINE
  8
0
 10
-22.2524
 20
-39.5275
 11
-22.2028
 21
-39.566
  0
LINE
  8
0
 10
-22.2028
 20
-39.566
 11
-22.1508
 21
-39.6013
  0
LINE
  8
0
 10
-22.1508
 20
-39.6013
 11
-22.0967
 21
-39.6333
  0
LINE
  8
0
 10
-22.0967
 20
-39.6333
 11
-22.0408
 21
-39.6618
  0
LINE
  8
0
 10
-22.0408
 20
-39.6618
 11
-21.9831
 21
-39.6868
  0
LINE
  8
0
 10
-21.9831
 20
-39.6868
 11
-21.924
 21
-39.7081
  0
LINE
  8
0
 10
-21.924
 20
-39.7081
 11
-21.8637
 21
-39.7256
  0
LINE
  8
0
 10
-21.8637
 20
-39.7256
 11
-21.8024
 21
-39.7393
  0
LINE
  8
0
 10
-21.8024
 20
-39.7393
 11
-21.7403
 21
-39.7491
  0
LINE
  8
0
 10
-21.7403
 20
-39.7491
 11
-21.6778
 21
-39.755
  0
LINE
  8
0
 10
-21.6778
 20
-39.755
 11
-21.615
 21
-39.757
  0
LINE
  8
0
 10
-21.615
 20
-39.757
 11
21.615
 21
-39.757
  0
LINE
  8
0
 10
21.615
 20
-39.757
 11
21.6778
 21
-39.755
  0
LINE
  8
0
 10
19.0457
 20
33.0387
 11
18.9269
 21
33.05
  0
LINE
  8
0
 10
18.9269
 20
33.05
 11
18.809
 21
33.0686
  0
LINE
  8
0
 10
18.809
 20
33.0686
 11
18.6925
 21
33.0947
  0
LINE
  8
0
 10
18.6925
 20
33.0947
 11
18.5779
 21
33.128
  0
LINE
  8
0
 10
18.5779
 20
33.128
 11
18.4656
 21
33.1684
  0
LINE
  8
0
 10
18.4656
 20
33.1684
 11
18.356
 21
33.2158
  0
LINE
  8
0
 10
18.356
 20
33.2158
 11
18.2497
 21
33.27
  0
LINE
  8
0
 10
18.2497
 20
33.27
 11
18.1469
 21
33.3308
  0
LINE
  8
0
 10
18.1469
 20
33.3308
 11
18.0482
 21
33.3979
  0
LINE
  8
0
 10
18.0482
 20
33.3979
 11
17.9539
 21
33.471
  0
LINE
  8
0
 10
17.9539
 20
33.471
 11
17.8643
 21
33.55
  0
LINE
  8
0
 10
17.8643
 20
33.55
 11
17.78
 21
33.6344
  0
LINE
  8
0
 10
17.78
 20
33.6344
 11
17.701
 21
33.7239
  0
LINE
  8
0
 10
17.701
 20
33.7239
 11
17.6279
 21
33.8182
  0
LINE
  8
0
 10
17.6279
 20
33.8182
 11
17.5608
 21
33.9169
  0
LINE
  8
0
 10
17.5608
 20
33.9169
 11
17.5
 21
34.0197
  0
LINE
  8
0
 10
17.5
 20
34.0197
 11
17.4458
 21
34.126
  0
LINE
  8
0
 10
17.4458
 20
34.126
 11
17.3984
 21
34.2355
  0
LINE
  8
0
 10
17.3984
 20
34.2355
 11
17.358
 21
34.3479
  0
LINE
  8
0
 10
17.358
 20
34.3479
 11
17.3247
 21
34.4625
  0
LINE
  8
0
 10
17.3247
 20
34.4625
 11
17.2986
 21
34.579
  0
LINE
  8
0
 10
17.2986
 20
34.579
 11
17.28
 21
34.6969
  0
LINE
  8
0
 10
17.28
 20
34.6969
 11
17.2687
 21
34.8157
  0
LINE
  8
0
 10
17.2687
 20
34.8157
 11
17.265
 21
34.935
  0
LINE
  8
0
 10
17.265
 20
34.935
 11
17.2687
 21
35.0543
  0
LINE
  8
0
 10
17.2687
 20
35.0543
 11
17.28
 21
35.1731
  0
LINE
  8
0
 10
17.28
 20
35.1731
 11
17.2986
 21
35.291
  0
LINE
  8
0
 10
17.2986
 20
35.291
 11
17.3247
 21
35.4075
  0
LINE
  8
0
 10
17.3247
 20
35.4075
 11
17.358
 21
35.5221
  0
LINE
  8
0
 10
17.358
 20
35.5221
 11
17.3984
 21
35.6344
  0
LINE
  8
0
 10
17.3984
 20
35.6344
 11
17.4458
 21
35.744
  0
LINE
  8
0
 10
17.4458
 20
35.744
 11
17.5
 21
35.8503
  0
LINE
  8
0
 10
17.5
 20
35.8503
 11
17.5608
 21
35.9531
  0
LINE
  8
0
 10
17.5608
 20
35.9531
 11
17.6279
 21
36.0518
  0
LINE
  8
0
 10
17.6279
 20
36.0518
 11
17.701
 21
36.1461
  0
LINE
  8
0
 10
17.701
 20
36.1461
 11
17.78
 21
36.2356
  0
LINE
  8
0
 10
17.78
 20
36.2356
 11
17.8643
 21
36.32
  0
LINE
  8
0
 10
17.8643
 20
36.32
 11
17.9539
 21
36.399
  0
LINE
  8
0
 10
17.9539
 20
36.399
 11
18.0482
 21
36.4721
  0
LINE
  8
0
 10
18.0482
 20
36.4721
 11
18.1469
 21
36.5392
  0
LINE
  8
0
 10
18.1469
 20
36.5392
 11
18.2497
 21
36.6
  0
LINE
  8
0
 10
18.2497
 20
36.6
 11
18.356
 21
36.6542
  0
LINE
  8
0
 10
18.356
 20
36.6542
 11
18.4656
 21
36.7016
  0
LINE
  8
0
 10
18.4656
 20
36.7016
 11
18.5779
 21
36.742
  0
LINE
  8
0
 10
18.5779
 20
36.742
 11
18.6925
 21
36.7753
  0
LINE
  8
0
 10
18.6925
 20
36.7753
 11
18.809
 21
36.8013
  0
LINE
  8
0
 10
18.809
 20
36.8013
 11
18.9269
 21
36.82
  0
LINE
  8
0
 10
18.9269
 20
36.82
 11
19.0457
 21
36.8312
  0
LINE
  8
0
 10
19.0457
 20
36.8312
 11
19.165
 21
36.835
  0
LINE
  8
0
 10
19.165
 20
36.835
 11
19.2843
 21
36.8312
  0
LINE
  8
0
 10
19.2843
 20
36.8312
 11
19.4031
 21
36.82
  0
LINE
  8
0
 10
19.4031
 20
36.82
 11
19.521
 21
36.8013
  0
LINE
  8
0
 10
19.521
 20
36.8013
 11
19.6375
 21
36.7753
  0
LINE
  8
0
 10
19.6375
 20
36.7753
 11
19.7521
 21
36.742
  0
LINE
  8
0
 10
19.7521
 20
36.742
 11
19.8644
 21
36.7016
  0
LINE
  8
0
 10
19.8644
 20
36.7016
 11
19.974
 21
36.6542
  0
LINE
  8
0
 10
19.974
 20
36.6542
 11
20.0803
 21
36.6
  0
LINE
  8
0
 10
20.0803
 20
36.6
 11
20.1831
 21
36.5392
  0
LINE
  8
0
 10
20.1831
 20
36.5392
 11
20.2818
 21
36.4721
  0
LINE
  8
0
 10
20.2818
 20
36.4721
 11
20.3761
 21
36.399
  0
LINE
  8
0
 10
20.3761
 20
36.399
 11
20.4656
 21
36.32
  0
LINE
  8
0
 10
20.4656
 20
36.32
 11
20.55
 21
36.2356
  0
LINE
  8
0
 10
20.55
 20
36.2356
 11
20.629
 21
36.1461
  0
LINE
  8
0
 10
20.629
 20
36.1461
 11
20.7021
 21
36.0518
  0
LINE
  8
0
 10
20.7021
 20
36.0518
 11
20.7692
 21
35.9531
  0
LINE
  8
0
 10
20.7692
 20
35.9531
 11
20.83
 21
35.8503
  0
LINE
  8
0
 10
20.83
 20
35.8503
 11
20.8842
 21
35.744
  0
LINE
  8
0
 10
20.8842
 20
35.744
 11
20.9316
 21
35.6344
  0
LINE
  8
0
 10
20.9316
 20
35.6344
 11
20.972
 21
35.5221
  0
LINE
  8
0
 10
20.972
 20
35.5221
 11
21.0053
 21
35.4075
  0
LINE
  8
0
 10
21.0053
 20
35.4075
 11
21.0313
 21
35.291
  0
LINE
  8
0
 10
21.0313
 20
35.291
 11
21.05
 21
35.1731
  0
LINE
  8
0
 10
21.05
 20
35.1731
 11
21.0612
 21
35.0543
  0
LINE
  8
0
 10
21.0612
 20
35.0543
 11
21.065
 21
34.935
  0
LINE
  8
0
 10
21.065
 20
34.935
 11
21.0612
 21
34.8157
  0
LINE
  8
0
 10
21.0612
 20
34.8157
 11
21.05
 21
34.6969
  0
LINE
  8
0
 10
21.05
 20
34.6969
 11
21.0313
 21
34.579
  0
LINE
  8
0
 10
21.0313
 20
34.579
 11
21.0053
 21
34.4625
  0
LINE
  8
0
 10
21.0053
 20
34.4625
 11
20.972
 21
34.3479
  0
LINE
  8
0
 10
20.972
 20
34.3479
 11
20.9316
 21
34.2355
  0
LINE
  8
0
 10
20.9316
 20
34.2355
 11
20.8842
 21
34.126
  0
LINE
  8
0
 10
20.8842
 20
34.126
 11
20.83
 21
34.0197
  0
LINE
  8
0
 10
20.83
 20
34.0197
 11
20.7692
 21
33.9169
  0
LINE
  8
0
 10
20.7692
 20
33.9169
 11
20.7021
 21
33.8182
  0
LINE
  8
0
 10
20.7021
 20
33.8182
 11
20.629
 21
33.7239
  0
LINE
  8
0
 10
20.629
 20
33.7239
 11
20.55
 21
33.6344
  0
LINE
  8
0
 10
20.55
 20
33.6344
 11
20.4656
 21
33.55
  0
LINE
  8
0
 10
20.4656
 20
33.55
 11
20.3761
 21
33.471
  0
LINE
  8
0
 10
20.3761
 20
33.471
 11
20.2818
 21
33.3979
  0
LINE
  8
0
 10
20.2818
 20
33.3979
 11
20.1831
 21
33.3308
  0
LINE
  8
0
 10
20.1831
 20
33.3308
 11
20.0803
 21
33.27
  0
LINE
  8
0
 10
20.0803
 20
33.27
 11
19.974
 21
33.2158
  0
LINE
  8
0
 10
19.974
 20
33.2158
 11
19.8644
 21
33.1684
  0
LINE
  8
0
 10
19.8644
 20
33.1684
 11
19.7521
 21
33.128
  0
LINE
  8
0
 10
19.7521
 20
33.128
 11
19.6375
 21
33.0947
  0
LINE
  8
0
 10
19.6375
 20
33.0947
 11
19.521
 21
33.0686
  0
LINE
  8
0
 10
19.521
 20
33.0686
 11
19.4031
 21
33.05
  0
LINE
  8
0
 10
19.4031
 20
33.05
 11
19.2843
 21
33.0387
  0
LINE
  8
0
 10
19.2843
 20
33.0387
 11
19.165
 21
33.035
  0
LINE
  8
0
 10
19.165
 20
33.035
 11
19.0457
 21
33.0387
  0
LINE
  8
0
 10
-19.2843
 20
33.0387
 11
-19.4031
 21
33.05
  0
LINE
  8
0
 10
-19.4031
 20
33.05
 11
-19.521
 21
33.0686
  0
LINE
  8
0
 10
-19.521
 20
33.0686
 11
-19.6375
 21
33.0947
  0
LINE
  8
0
 10
-19.6375
 20
33.0947
 11
-19.7521
 21
33.128
  0
LINE
  8
0
 10
-19.7521
 20
33.128
 11
-19.8644
 21
33.1684
  0
LINE
  8
0
 10
-19.8644
 20
33.1684
 11
-19.974
 21
33.2158
  0
LINE
  8
0
 10
-19.974
 20
33.2158
 11
-20.0803
 21
33.27
  0
LINE
  8
0
 10
-20.0803
 20
33.27
 11
-20.1831
 21
33.3308
  0
LINE
  8
0
 10
-20.1831
 20
33.3308
 11
-20.2818
 21
33.3979
  0
LINE
  8
0
 10
-20.2818
 20
33.3979
 11
-20.3761
 21
33.471
  0
LINE
  8
0
 10
-20.3761
 20
33.471
 11
-20.4656
 21
33.55
  0
LINE
  8
0
 10
-20.4656
 20
33.55
 11
-20.55
 21
33.6344
  0
LINE
  8
0
 10
-20.55
 20
33.6344
 11
-20.629
 21
33.7239
  0
LINE
  8
0
 10
-20.629
 20
33.7239
 11
-20.7021
 21
33.8182
  0
LINE
  8
0
 10
-20.7021
 20
33.8182
 11
-20.7692
 21
33.9169
  0
LINE
  8
0
 10
-20.7692
 20
33.9169
 11
-20.83
 21
34.0197
  0
LINE
  8
0
 10
-20.83
 20
34.0197
 11
-20.8842
 21
34.126
  0
LINE
  8
0
 10
-20.8842
 20
34.126
 11
-20.9316
 21
34.2355
  0
LINE
  8
0
 10
-20.9316
 20
34.2355
 11
-20.972
 21
34.3479
  0
LINE
  8
0
 10
-20.972
 20
34.3479
 11
-21.0053
 21
34.4625
  0
LINE
  8
0
 10
-21.0053
 20
34.4625
 11
-21.0313
 21
34.579
  0
LINE
  8
0
 10
-21.0313
 20
34.579
 11
-21.05
 21
34.6969
  0
LINE
  8
0
 10
-21.05
 20
34.6969
 11
-21.0612
 21
34.8157
  0
LINE
  8
0
 10
-21.0612
 20
34.8157
 11
-21.065
 21
34.935
  0
LINE
  8
0
 10
-21.065
 20
34.935
 11
-21.0612
 21
35.0543
  0
LINE
  8
0
 10
-21.0612
 20
35.0543
 11
-21.05
 21
35.1731
  0
LINE
  8
0
 10
-21.05
 20
35.1731
 11
-21.0313
 21
35.291
  0
LINE
  8
0
 10
-21.0313
 20
35.291
 11
-21.0053
 21
35.4075
  0
LINE
  8
0
 10
-21.0053
 20
35.4075
 11
-20.972
 21
35.5221
  0
LINE
  8
0
 10
-20.972
 20
35.5221
 11
-20.9316
 21
35.6344
  0
LINE
  8
0
 10
-20.9316
 20
35.6344
 11
-20.8842
 21
35.744
  0
LINE
  8
0
 10
-20.8842
 20
35.744
 11
-20.83
 21
35.8503
  0
LINE
  8
0
 10
-20.83
 20
35.8503
 11
-20.7692
 21
35.9531
  0
LINE
  8
0
 10
-20.7692
 20
35.9531
 11
-20.7021
 21
36.0518
  0
LINE
  8
0
 10
-20.7021
 20
36.0518
 11
-20.629
 21
36.1461
  0
LINE
  8
0
 10
-20.629
 20
36.1461
 11
-20.55
 21
36.2356
  0
LINE
  8
0
 10
-20.55
 20
36.2356
 11
-20.4656
 21
36.32
  0
LINE
  8
0
 10
-20.4656
 20
36.32
 11
-20.3761
 21
36.399
  0
LINE
  8
0
 10
-20.3761
 20
36.399
 11
-20.2818
 21
36.4721
  0
LINE
  8
0
 10
-20.2818
 20
36.4721
 11
-20.1831
 21
36.5392
  0
LINE
  8
0
 10
-20.1831
 20
36.5392
 11
-20.0803
 21
36.6
  0
LINE
  8
0
 10
-20.0803
 20
36.6
 11
-19.974
 21
36.6542
  0
LINE
  8
0
 10
-19.974
 20
36.6542
 11
-19.8644
 21
36.7016
  0
LINE
  8
0
 10
-19.8644
 20
36.7016
 11
-19.7521
 21
36.742
  0
LINE
  8
0
 10
-19.7521
 20
36.742
 11
-19.6375
 21
36.7753
  0
LINE
  8
0
 10
-19.6375
 20
36.7753
 11
-19.521
 21
36.8013
  0
LINE
  8
0
 10
-19.521
 20
36.8013
 11
-19.4031
 21
36.82
  0
LINE
  8
0
 10
-19.4031
 20
36.82
 11
-19.2843
 21
36.8312
  0
LINE
  8
0
 10
-19.2843
 20
36.8312
 11
-19.165
 21
36.835
  0
LINE
  8
0
 10
-19.165
 20
36.835
 11
-19.0457
 21
36.8312
  0
LINE
  8
0
 10
-19.0457
 20
36.8312
 11
-18.9269
 21
36.82
  0
LINE
  8
0
 10
-18.9269
 20
36.82
 11
-18.809
 21
36.8013
  0
LINE
  8
0
 10
-18.809
 20
36.8013
 11
-18.6925
 21
36.7753
  0
LINE
  8
0
 10
-18.6925
 20
36.7753
 11
-18.5779
 21
36.742
  0
LINE
  8
0
 10
-18.5779
 20
36.742
 11
-18.4656
 21
36.7016
  0
LINE
  8
0
 10
-18.4656
 20
36.7016
 11
-18.356
 21
36.6542
  0
LINE
  8
0
 10
-18.356
 20
36.6542
 11
-18.2497
 21
36.6
  0
LINE
  8
0
 10
-18.2497
 20
36.6
 11
-18.1469
 21
36.5392
  0
LINE
  8
0
 10
-18.1469
 20
36.5392
 11
-18.0482
 21
36.4721
  0
LINE
  8
0
 10
-18.0482
 20
36.4721
 11
-17.9539
 21
36.399
  0
LINE
  8
0
 10
-17.9539
 20
36.399
 11
-17.8643
 21
36.32
  0
LINE
  8
0
 10
-17.8643
 20
36.32
 11
-17.78
 21
36.2356
  0
LINE
  8
0
 10
-17.78
 20
36.2356
 11
-17.701
 21
36.1461
  0
LINE
  8
0
 10
-17.701
 20
36.1461
 11
-17.6279
 21
36.0518
  0
LINE
  8
0
 10
-17.6279
 20
36.0518
 11
-17.5608
 21
35.9531
  0
LINE
  8
0
 10
-17.5608
 20
35.9531
 11
-17.5
 21
35.8503
  0
LINE
  8
0
 10
-17.5
 20
35.8503
 11
-17.4458
 21
35.744
  0
LINE
  8
0
 10
-17.4458
 20
35.744
 11
-17.3984
 21
35.6344
  0
LINE
  8
0
 10
-17.3984
 20
35.6344
 11
-17.358
 21
35.5221
  0
LINE
  8
0
 10
-17.358
 20
35.5221
 11
-17.3247
 21
35.4075
  0
LINE
  8
0
 10
-17.3247
 20
35.4075
 11
-17.2986
 21
35.291
  0
LINE
  8
0
 10
-17.2986
 20
35.291
 11
-17.28
 21
35.1731
  0
LINE
  8
0
 10
-17.28
 20
35.1731
 11
-17.2687
 21
35.0543
  0
LINE
  8
0
 10
-17.2687
 20
35.0543
 11
-17.265
 21
34.935
  0
LINE
  8
0
 10
-17.265
 20
34.935
 11
-17.2687
 21
34.8157
  0
LINE
  8
0
 10
-17.2687
 20
34.8157
 11
-17.28
 21
34.6969
  0
LINE
  8
0
 10
-17.28
 20
34.6969
 11
-17.2986
 21
34.579
  0
LINE
  8
0
 10
-17.2986
 20
34.579
 11
-17.3247
 21
34.4625
  0
LINE
  8
0
 10
-17.3247
 20
34.4625
 11
-17.358
 21
34.3479
  0
LINE
  8
0
 10
-17.358
 20
34.3479
 11
-17.3984
 21
34.2355
  0
LINE
  8
0
 10
-17.3984
 20
34.2355
 11
-17.4458
 21
34.126
  0
LINE
  8
0
 10
-17.4458
 20
34.126
 11
-17.5
 21
34.0197
  0
LINE
  8
0
 10
-17.5
 20
34.0197
 11
-17.5608
 21
33.9169
  0
LINE
  8
0
 10
-17.5608
 20
33.9169
 11
-17.6279
 21
33.8182
  0
LINE
  8
0
 10
-17.6279
 20
33.8182
 11
-17.701
 21
33.7239
  0
LINE
  8
0
 10
-17.701
 20
33.7239
 11
-17.78
 21
33.6344
  0
LINE
  8
0
 10
-17.78
 20
33.6344
 11
-17.8643
 21
33.55
  0
LINE
  8
0
 10
-17.8643
 20
33.55
 11
-17.9539
 21
33.471
  0
LINE
  8
0
 10
-17.9539
 20
33.471
 11
-18.0482
 21
33.3979
  0
LINE
  8
0
 10
-18.0482
 20
33.3979
 11
-18.1469
 21
33.3308
  0
LINE
  8
0
 10
-18.1469
 20
33.3308
 11
-18.2497
 21
33.27
  0
LINE
  8
0
 10
-18.2497
 20
33.27
 11
-18.356
 21
33.2158
  0
LINE
  8
0
 10
-18.356
 20
33.2158
 11
-18.4656
 21
33.1684
  0
LINE
  8
0
 10
-18.4656
 20
33.1684
 11
-18.5779
 21
33.128
  0
LINE
  8
0
 10
-18.5779
 20
33.128
 11
-18.6925
 21
33.0947
  0
LINE
  8
0
 10
-18.6925
 20
33.0947
 11
-18.809
 21
33.0686
  0
LINE
  8
0
 10
-18.809
 20
33.0686
 11
-18.9269
 21
33.05
  0
LINE
  8
0
 10
-18.9269
 20
33.05
 11
-19.0457
 21
33.0387
  0
LINE
  8
0
 10
-19.0457
 20
33.0387
 11
-19.165
 21
33.035
  0
LINE
  8
0
 10
-19.165
 20
33.035
 11
-19.2843
 21
33.0387
  0
LINE
  8
0
 10
-7.36499
 20
18.707
 11
-7.38383
 21
18.7076
  0
LINE
  8
0
 10
-7.38383
 20
18.7076
 11
-7.40259
 21
18.7094
  0
LINE
  8
0
 10
-7.40259
 20
18.7094
 11
-7.4212
 21
18.7123
  0
LINE
  8
0
 10
-7.4212
 20
18.7123
 11
-7.43961
 21
18.7164
  0
LINE
  8
0
 10
-7.43961
 20
18.7164
 11
-7.4577
 21
18.7217
  0
LINE
  8
0
 10
-7.4577
 20
18.7217
 11
-7.47543
 21
18.7281
  0
LINE
  8
0
 10
-7.47543
 20
18.7281
 11
-7.49272
 21
18.7355
  0
LINE
  8
0
 10
-7.49272
 20
18.7355
 11
-7.50952
 21
18.7441
  0
LINE
  8
0
 10
-7.50952
 20
18.7441
 11
-7.52574
 21
18.7537
  0
LINE
  8
0
 10
-7.52574
 20
18.7537
 11
-7.54132
 21
18.7643
  0
LINE
  8
0
 10
-7.54132
 20
18.7643
 11
-7.55621
 21
18.7758
  0
LINE
  8
0
 10
-7.55621
 20
18.7758
 11
-7.57036
 21
18.7883
  0
LINE
  8
0
 10
-7.57036
 20
18.7883
 11
-7.58368
 21
18.8016
  0
LINE
  8
0
 10
-7.58368
 20
18.8016
 11
-7.59615
 21
18.8158
  0
LINE
  8
0
 10
-7.59615
 20
18.8158
 11
-7.6077
 21
18.8307
  0
LINE
  8
0
 10
-7.6077
 20
18.8307
 11
-7.61829
 21
18.8462
  0
LINE
  8
0
 10
-7.61829
 20
18.8462
 11
-7.62788
 21
18.8625
  0
LINE
  8
0
 10
-7.62788
 20
18.8625
 11
-7.63644
 21
18.8793
  0
LINE
  8
0
 10
-7.63644
 20
18.8793
 11
-7.64392
 21
18.8966
  0
LINE
  8
0
 10
-7.64392
 20
18.8966
 11
-7.65031
 21
18.9143
  0
LINE
  8
0
 10
-7.65031
 20
18.9143
 11
-7.65556
 21
18.9324
  0
LINE
  8
0
 10
-7.65556
 20
18.9324
 11
-7.65968
 21
18.9508
  0
LINE
  8
0
 10
-7.65968
 20
18.9508
 11
-7.66263
 21
18.9694
  0
LINE
  8
0
 10
-7.66263
 20
18.9694
 11
-7.6644
 21
18.9882
  0
LINE
  8
0
 10
-7.6644
 20
18.9882
 11
-7.66499
 21
19.007
  0
LINE
  8
0
 10
-7.66499
 20
19.007
 11
-7.66499
 21
33.007
  0
LINE
  8
0
 10
-7.66499
 20
33.007
 11
-7.6644
 21
33.0258
  0
LINE
  8
0
 10
-7.6644
 20
33.0258
 11
-7.66263
 21
33.0446
  0
LINE
  8
0
 10
-7.66263
 20
33.0446
 11
-7.65968
 21
33.0632
  0
LINE
  8
0
 10
-7.65968
 20
33.0632
 11
-7.65556
 21
33.0816
  0
LINE
  8
0
 10
-7.65556
 20
33.0816
 11
-7.65031
 21
33.0997
  0
LINE
  8
0
 10
-7.65031
 20
33.0997
 11
-7.64392
 21
33.1174
  0
LINE
  8
0
 10
-7.64392
 20
33.1174
 11
-7.63644
 21
33.1347
  0
LINE
  8
0
 10
-7.63644
 20
33.1347
 11
-7.62788
 21
33.1515
  0
LINE
  8
0
 10
-7.62788
 20
33.1515
 11
-7.61829
 21
33.1677
  0
LINE
  8
0
 10
-7.61829
 20
33.1677
 11
-7.6077
 21
33.1833
  0
LINE
  8
0
 10
-7.6077
 20
33.1833
 11
-7.59615
 21
33.1982
  0
LINE
  8
0
 10
-7.59615
 20
33.1982
 11
-7.58368
 21
33.2124
  0
LINE
  8
0
 10
-7.58368
 20
33.2124
 11
-7.57036
 21
33.2257
  0
LINE
  8
0
 10
-7.57036
 20
33.2257
 11
-7.55621
 21
33.2381
  0
LINE
  8
0
 10
-7.55621
 20
33.2381
 11
-7.54132
 21
33.2497
  0
LINE
  8
0
 10
-7.54132
 20
33.2497
 11
-7.52574
 21
33.2603
  0
LINE
  8
0
 10
-7.52574
 20
33.2603
 11
-7.50952
 21
33.2699
  0
LINE
  8
0
 10
-7.50952
 20
33.2699
 11
-7.49272
 21
33.2784
  0
LINE
  8
0
 10
-7.49272
 20
33.2784
 11
-7.47543
 21
33.2859
  0
LINE
  8
0
 10
-7.47543
 20
33.2859
 11
-7.4577
 21
33.2923
  0
LINE
  8
0
 10
-7.4577
 20
33.2923
 11
-7.43961
 21
33.2976
  0
LINE
  8
0
 10
-7.43961
 20
33.2976
 11
-7.4212
 21
33.3017
  0
LINE
  8
0
 10
-7.4212
 20
33.3017
 11
-7.40259
 21
33.3046
  0
LINE
  8
0
 10
-7.40259
 20
33.3046
 11
-7.38383
 21
33.3064
  0
LINE
  8
0
 10
-7.38383
 20
33.3064
 11
-7.36499
 21
33.307
  0
LINE
  8
0
 10
-7.36499
 20
33.307
 11
6.63499
 21
33.307
  0
LINE
  8
0
 10
6.63499
 20
33.307
 11
6.65382
 21
33.3064
  0
LINE
  8
0
 10
6.65382
 20
33.3064
 11
6.67259
 21
33.3046
  0
LINE
  8
0
 10
6.67259
 20
33.3046
 11
6.69121
 21
33.3017
  0
LINE
  8
0
 10
6.69121
 20
33.3017
 11
6.70959
 21
33.2976
  0
LINE
  8
0
 10
6.70959
 20
33.2976
 11
6.72769
 21
33.2923
  0
LINE
  8
0
 10
6.72769
 20
33.2923
 11
6.74542
 21
33.2859
  0
LINE
  8
0
 10
6.74542
 20
33.2859
 11
6.76273
 21
33.2784
  0
LINE
  8
0
 10
6.76273
 20
33.2784
 11
6.77953
 21
33.2699
  0
LINE
  8
0
 10
6.77953
 20
33.2699
 11
6.79575
 21
33.2603
  0
LINE
  8
0
 10
6.79575
 20
33.2603
 11
6.81133
 21
33.2497
  0
LINE
  8
0
 10
6.81133
 20
33.2497
 11
6.82622
 21
33.2381
  0
LINE
  8
0
 10
6.82622
 20
33.2381
 11
6.84036
 21
33.2257
  0
LINE
  8
0
 10
6.84036
 20
33.2257
 11
6.85368
 21
33.2124
  0
LINE
  8
0
 10
6.85368
 20
33.2124
 11
6.86615
 21
33.1982
  0
LINE
  8
0
 10
6.86615
 20
33.1982
 11
6.8777
 21
33.1833
  0
LINE
  8
0
 10
6.8777
 20
33.1833
 11
6.88829
 21
33.1677
  0
LINE
  8
0
 10
6.88829
 20
33.1677
 11
6.89789
 21
33.1515
  0
LINE
  8
0
 10
6.89789
 20
33.1515
 11
6.90643
 21
33.1347
  0
LINE
  8
0
 10
6.90643
 20
33.1347
 11
6.91393
 21
33.1174
  0
LINE
  8
0
 10
6.91393
 20
33.1174
 11
6.9203
 21
33.0997
  0
LINE
  8
0
 10
6.9203
 20
33.0997
 11
6.92557
 21
33.0816
  0
LINE
  8
0
 10
6.92557
 20
33.0816
 11
6.92967
 21
33.0632
  0
LINE
  8
0
 10
6.92967
 20
33.0632
 11
6.93263
 21
33.0446
  0
LINE
  8
0
 10
6.93263
 20
33.0446
 11
6.9344
 21
33.0258
  0
LINE
  8
0
 10
6.9344
 20
33.0258
 11
6.935
 21
33.007
  0
LINE
  8
0
 10
6.935
 20
33.007
 11
6.935
 21
19.007
  0
LINE
  8
0
 10
6.935
 20
19.007
 11
6.9344
 21
18.9882
  0
LINE
  8
0
 10
6.9344
 20
18.9882
 11
6.93263
 21
18.9694
  0
LINE
  8
0
 10
6.93263
 20
18.9694
 11
6.92967
 21
18.9508
  0
LINE
  8
0
 10
6.92967
 20
18.9508
 11
6.92557
 21
18.9324
  0
LINE
  8
0
 10
6.92557
 20
18.9324
 11
6.9203
 21
18.9143
  0
LINE
  8
0
 10
6.9203
 20
18.9143
 11
6.91393
 21
18.8966
  0
LINE
  8
0
 10
6.91393
 20
18.8966
 11
6.90643
 21
18.8793
  0
LINE
  8
0
 10
6.90643
 20
18.8793
 11
6.89789
 21
18.8625
  0
LINE
  8
0
 10
6.89789
 20
18.8625
 11
6.88829
 21
18.8462
  0
LINE
  8
0
 10
6.88829
 20
18.8462
 11
6.8777
 21
18.8307
  0
LINE
  8
0
 10
6.8777
 20
18.8307
 11
6.86615
 21
18.8158
  0
LINE
  8
0
 10
6.86615
 20
18.8158
 11
6.85368
 21
18.8016
  0
LINE
  8
0
 10
6.85368
 20
18.8016
 11
6.84036
 21
18.7883
  0
LINE
  8
0
 10
6.84036
 20
18.7883
 11
6.82622
 21
18.7758
  0
LINE
  8
0
 10
6.82622
 20
18.7758
 11
6.81133
 21
18.7643
  0
LINE
  8
0
 10
6.81133
 20
18.7643
 11
6.79575
 21
18.7537
  0
LINE
  8
0
 10
6.79575
 20
18.7537
 11
6.77953
 21
18.7441
  0
LINE
  8
0
 10
6.77953
 20
18.7441
 11
6.76273
 21
18.7355
  0
LINE
  8
0
 10
6.76273
 20
18.7355
 11
6.74542
 21
18.7281
  0
LINE
  8
0
 10
6.74542
 20
18.7281
 11
6.72769
 21
18.7217
  0
LINE
  8
0
 10
6.72769
 20
18.7217
 11
6.70959
 21
18.7164
  0
LINE
  8
0
 10
6.70959
 20
18.7164
 11
6.69121
 21
18.7123
  0
LINE
  8
0
 10
6.69121
 20
18.7123
 11
6.67259
 21
18.7094
  0
LINE
  8
0
 10
6.67259
 20
18.7094
 11
6.65382
 21
18.7076
  0
LINE
  8
0
 10
6.65382
 20
18.7076
 11
6.63499
 21
18.707
  0
LINE
  8
0
 10
6.63499
 20
18.707
 11
-7.36499
 21
18.707
  0
LINE
  8
0
 10
-17.615
 20
-1.79301
 11
-17.6338
 21
-1.79242
  0
LINE
  8
0
 10
-17.6338
 20
-1.79242
 11
-17.6526
 21
-1.79065
  0
LINE
  8
0
 10
-17.6526
 20
-1.79065
 11
-17.6712
 21
-1.78769
  0
LINE
  8
0
 10
-17.6712
 20
-1.78769
 11
-17.6896
 21
-1.78358
  0
LINE
  8
0
 10
-17.6896
 20
-1.78358
 11
-17.7077
 21
-1.77832
  0
LINE
  8
0
 10
-17.7077
 20
-1.77832
 11
-17.7254
 21
-1.77194
  0
LINE
  8
0
 10
-17.7254
 20
-1.77194
 11
-17.7427
 21
-1.76445
  0
LINE
  8
0
 10
-17.7427
 20
-1.76445
 11
-17.7595
 21
-1.75591
  0
LINE
  8
0
 10
-17.7595
 20
-1.75591
 11
-17.7757
 21
-1.74631
  0
LINE
  8
0
 10
-17.7757
 20
-1.74631
 11
-17.7913
 21
-1.73572
  0
LINE
  8
0
 10
-17.7913
 20
-1.73572
 11
-17.8062
 21
-1.72417
  0
LINE
  8
0
 10
-17.8062
 20
-1.72417
 11
-17.8204
 21
-1.7117
  0
LINE
  8
0
 10
-17.8204
 20
-1.7117
 11
-17.8337
 21
-1.69836
  0
LINE
  8
0
 10
-17.8337
 20
-1.69836
 11
-17.8461
 21
-1.68423
  0
LINE
  8
0
 10
-17.8461
 20
-1.68423
 11
-17.8577
 21
-1.66934
  0
LINE
  8
0
 10
-17.8577
 20
-1.66934
 11
-17.8683
 21
-1.65376
  0
LINE
  8
0
 10
-17.8683
 20
-1.65376
 11
-17.8779
 21
-1.63753
  0
LINE
  8
0
 10
-17.8779
 20
-1.63753
 11
-17.8864
 21
-1.62074
  0
LINE
  8
0
 10
-17.8864
 20
-1.62074
 11
-17.8939
 21
-1.60344
  0
LINE
  8
0
 10
-17.8939
 20
-1.60344
 11
-17.9003
 21
-1.58571
  0
LINE
  8
0
 10
-17.9003
 20
-1.58571
 11
-17.9056
 21
-1.56761
  0
LINE
  8
0
 10
-17.9056
 20
-1.56761
 11
-17.9097
 21
-1.54922
  0
LINE
  8
0
 10
-17.9097
 20
-1.54922
 11
-17.9126
 21
-1.53061
  0
LINE
  8
0
 10
-17.9126
 20
-1.53061
 11
-17.9144
 21
-1.51184
  0
LINE
  8
0
 10
-17.9144
 20
-1.51184
 11
-17.915
 21
-1.49301
  0
LINE
  8
0
 10
-17.915
 20
-1.49301
 11
-17.915
 21
12.507
  0
LINE
  8
0
 10
-17.915
 20
12.507
 11
-17.9144
 21
12.5258
  0
LINE
  8
0
 10
-17.9144
 20
12.5258
 11
-17.9126
 21
12.5446
  0
LINE
  8
0
 10
-17.9126
 20
12.5446
 11
-17.9097
 21
12.5632
  0
LINE
  8
0
 10
-17.9097
 20
12.5632
 11
-17.9056
 21
12.5816
  0
LINE
  8
0
 10
-17.9056
 20
12.5816
 11
-17.9003
 21
12.5997
  0
LINE
  8
0
 10
-17.9003
 20
12.5997
 11
-17.8939
 21
12.6174
  0
LINE
  8
0
 10
-17.8939
 20
12.6174
 11
-17.8864
 21
12.6347
  0
LINE
  8
0
 10
-17.8864
 20
12.6347
 11
-17.8779
 21
12.6515
  0
LINE
  8
0
 10
-17.8779
 20
12.6515
 11
-17.8683
 21
12.6677
  0
LINE
  8
0
 10
-17.8683
 20
12.6677
 11
-17.8577
 21
12.6833
  0
LINE
  8
0
 10
-17.8577
 20
12.6833
 11
-17.8461
 21
12.6982
  0
LINE
  8
0
 10
-17.8461
 20
12.6982
 11
-17.8337
 21
12.7124
  0
LINE
  8
0
 10
-17.8337
 20
12.7124
 11
-17.8204
 21
12.7257
  0
LINE
  8
0
 10
-17.8204
 20
12.7257
 11
-17.8062
 21
12.7381
  0
LINE
  8
0
 10
-17.8062
 20
12.7381
 11
-17.7913
 21
12.7497
  0
LINE
  8
0
 10
-17.7913
 20
12.7497
 11
-17.7757
 21
12.7603
  0
LINE
  8
0
 10
-17.7757
 20
12.7603
 11
-17.7595
 21
12.7699
  0
LINE
  8
0
 10
-17.7595
 20
12.7699
 11
-17.7427
 21
12.7784
  0
LINE
  8
0
 10
-17.7427
 20
12.7784
 11
-17.7254
 21
12.7859
  0
LINE
  8
0
 10
-17.7254
 20
12.7859
 11
-17.7077
 21
12.7923
  0
LINE
  8
0
 10
-17.7077
 20
12.7923
 11
-17.6896
 21
12.7976
  0
LINE
  8
0
 10
-17.6896
 20
12.7976
 11
-17.6712
 21
12.8017
  0
LINE
  8
0
 10
-17.6712
 20
12.8017
 11
-17.6526
 21
12.8046
  0
LINE
  8
0
 10
-17.6526
 20
12.8046
 11
-17.6338
 21
12.8064
  0
LINE
  8
0
 10
-17.6338
 20
12.8064
 11
-17.615
 21
12.807
  0
LINE
  8
0
 10
-17.615
 20
12.807
 11
-3.61499
 21
12.807
  0
LINE
  8
0
 10
-3.61499
 20
12.807
 11
-3.59616
 21
12.8064
  0
LINE
  8
0
 10
-3.59616
 20
12.8064
 11
-3.57739
 21
12.8046
  0
LINE
  8
0
 10
-3.57739
 20
12.8046
 11
-3.55878
 21
12.8017
  0
LINE
  8
0
 10
-3.55878
 20
12.8017
 11
-3.54039
 21
12.7976
  0
LINE
  8
0
 10
-3.54039
 20
12.7976
 11
-3.52229
 21
12.7923
  0
LINE
  8
0
 10
-3.52229
 20
12.7923
 11
-3.50456
 21
12.7859
  0
LINE
  8
0
 10
-3.50456
 20
12.7859
 11
-3.48726
 21
12.7784
  0
LINE
  8
0
 10
-3.48726
 20
12.7784
 11
-3.47046
 21
12.7699
  0
LINE
  8
0
 10
-3.47046
 20
12.7699
 11
-3.45424
 21
12.7603
  0
LINE
  8
0
 10
-3.45424
 20
12.7603
 11
-3.43866
 21
12.7497
  0
LINE
  8
0
 10
-3.43866
 20
12.7497
 11
-3.42377
 21
12.7381
  0
LINE
  8
0
 10
-3.42377
 20
12.7381
 11
-3.40962
 21
12.7257
  0
LINE
  8
0
 10
-3.40962
 20
12.7257
 11
-3.3963
 21
12.7124
  0
LINE
  8
0
 10
-3.3963
 20
12.7124
 11
-3.38383
 21
12.6982
  0
LINE
  8
0
 10
-3.38383
 20
12.6982
 11
-3.37228
 21
12.6833
  0
LINE
  8
0
 10
-3.37228
 20
12.6833
 11
-3.36169
 21
12.6677
  0
LINE
  8
0
 10
-3.36169
 20
12.6677
 11
-3.3521
 21
12.6515
  0
LINE
  8
0
 10
-3.3521
 20
12.6515
 11
-3.34355
 21
12.6347
  0
LINE
  8
0
 10
-3.34355
 20
12.6347
 11
-3.33606
 21
12.6174
  0
LINE
  8
0
 10
-3.33606
 20
12.6174
 11
-3.32968
 21
12.5997
  0
LINE
  8
0
 10
-3.32968
 20
12.5997
 11
-3.32442
 21
12.5816
  0
LINE
  8
0
 10
-3.32442
 20
12.5816
 11
-3.32031
 21
12.5632
  0
LINE
  8
0
 10
-3.32031
 20
12.5632
 11
-3.31735
 21
12.5446
  0
LINE
  8
0
 10
-3.31735
 20
12.5446
 11
-3.31558
 21
12.5258
  0
LINE
  8
0
 10
-3.31558
 20
12.5258
 11
-3.31499
 21
12.507
  0
LINE
  8
0
 10
-3.31499
 20
12.507
 11
-3.31499
 21
-1.49301
  0
LINE
  8
0
 10
-3.31499
 20
-1.49301
 11
-3.31558
 21
-1.51184
  0
LINE
  8
0
 10
-3.31558
 20
-1.51184
 11
-3.31735
 21
-1.53061
  0
LINE
  8
0
 10
-3.31735
 20
-1.53061
 11
-3.32031
 21
-1.54922
  0
LINE
  8
0
 10
-3.32031
 20
-1.54922
 11
-3.32442
 21
-1.56761
  0
LINE
  8
0
 10
-3.32442
 20
-1.56761
 11
-3.32968
 21
-1.58571
  0
LINE
  8
0
 10
-3.32968
 20
-1.58571
 11
-3.33606
 21
-1.60344
  0
LINE
  8
0
 10
-3.33606
 20
-1.60344
 11
-3.34355
 21
-1.62074
  0
LINE
  8
0
 10
-3.34355
 20
-1.62074
 11
-3.3521
 21
-1.63753
  0
LINE
  8
0
 10
-3.3521
 20
-1.63753
 11
-3.36169
 21
-1.65376
  0
LINE
  8
0
 10
-3.36169
 20
-1.65376
 11
-3.37228
 21
-1.66934
  0
LINE
  8
0
 10
-3.37228
 20
-1.66934
 11
-3.38383
 21
-1.68423
  0
LINE
  8
0
 10
-3.38383
 20
-1.68423
 11
-3.3963
 21
-1.69836
  0
LINE
  8
0
 10
-3.3963
 20
-1.69836
 11
-3.40962
 21
-1.7117
  0
LINE
  8
0
 10
-3.40962
 20
-1.7117
 11
-3.42377
 21
-1.72417
  0
LINE
  8
0
 10
-3.42377
 20
-1.72417
 11
-3.43866
 21
-1.73572
  0
LINE
  8
0
 10
-3.43866
 20
-1.73572
 11
-3.45424
 21
-1.74631
  0
LINE
  8
0
 10
-3.45424
 20
-1.74631
 11
-3.47046
 21
-1.75591
  0
LINE
  8
0
 10
-3.47046
 20
-1.75591
 11
-3.48726
 21
-1.76445
  0
LINE
  8
0
 10
-3.48726
 20
-1.76445
 11
-3.50456
 21
-1.77194
  0
LINE
  8
0
 10
-3.50456
 20
-1.77194
 11
-3.52229
 21
-1.77832
  0
LINE
  8
0
 10
-3.52229
 20
-1.77832
 11
-3.54039
 21
-1.78358
  0
LINE
  8
0
 10
-3.54039
 20
-1.78358
 11
-3.55878
 21
-1.78769
  0
LINE
  8
0
 10
-3.55878
 20
-1.78769
 11
-3.57739
 21
-1.79065
  0
LINE
  8
0
 10
-3.57739
 20
-1.79065
 11
-3.59616
 21
-1.79242
  0
LINE
  8
0
 10
-3.59616
 20
-1.79242
 11
-3.61499
 21
-1.79301
  0
LINE
  8
0
 10
-3.61499
 20
-1.79301
 11
-17.615
 21
-1.79301
  0
LINE
  8
0
 10
2.88499
 20
-1.79301
 11
2.86615
 21
-1.79242
  0
LINE
  8
0
 10
2.86615
 20
-1.79242
 11
2.8474
 21
-1.79065
  0
LINE
  8
0
 10
2.8474
 20
-1.79065
 11
2.82878
 21
-1.78769
  0
LINE
  8
0
 10
2.82878
 20
-1.78769
 11
2.81038
 21
-1.78358
  0
LINE
  8
0
 10
2.81038
 20
-1.78358
 11
2.79228
 21
-1.77832
  0
LINE
  8
0
 10
2.79228
 20
-1.77832
 11
2.77455
 21
-1.77194
  0
LINE
  8
0
 10
2.77455
 20
-1.77194
 11
2.75726
 21
-1.76445
  0
LINE
  8
0
 10
2.75726
 20
-1.76445
 11
2.74046
 21
-1.75591
  0
LINE
  8
0
 10
2.74046
 20
-1.75591
 11
2.72424
 21
-1.74631
  0
LINE
  8
0
 10
2.72424
 20
-1.74631
 11
2.70866
 21
-1.73572
  0
LINE
  8
0
 10
2.70866
 20
-1.73572
 11
2.69377
 21
-1.72417
  0
LINE
  8
0
 10
2.69377
 20
-1.72417
 11
2.67963
 21
-1.7117
  0
LINE
  8
0
 10
2.67963
 20
-1.7117
 11
2.66631
 21
-1.69836
  0
LINE
  8
0
 10
2.66631
 20
-1.69836
 11
2.65384
 21
-1.68423
  0
LINE
  8
0
 10
2.65384
 20
-1.68423
 11
2.64229
 21
-1.66934
  0
LINE
  8
0
 10
2.64229
 20
-1.66934
 11
2.6317
 21
-1.65376
  0
LINE
  8
0
 10
2.6317
 20
-1.65376
 11
2.6221
 21
-1.63753
  0
LINE
  8
0
 10
2.6221
 20
-1.63753
 11
2.61354
 21
-1.62074
  0
LINE
  8
0
 10
2.61354
 20
-1.62074
 11
2.60606
 21
-1.60344
  0
LINE
  8
0
 10
2.60606
 20
-1.60344
 11
2.59967
 21
-1.58571
  0
LINE
  8
0
 10
2.59967
 20
-1.58571
 11
2.59442
 21
-1.56761
  0
LINE
  8
0
 10
2.59442
 20
-1.56761
 11
2.5903
 21
-1.54922
  0
LINE
  8
0
 10
2.5903
 20
-1.54922
 11
2.58736
 21
-1.53061
  0
LINE
  8
0
 10
2.58736
 20
-1.53061
 11
2.58559
 21
-1.51184
  0
LINE
  8
0
 10
2.58559
 20
-1.51184
 11
2.58499
 21
-1.49301
  0
LINE
  8
0
 10
2.58499
 20
-1.49301
 11
2.58499
 21
12.507
  0
LINE
  8
0
 10
2.58499
 20
12.507
 11
2.58559
 21
12.5258
  0
LINE
  8
0
 10
2.58559
 20
12.5258
 11
2.58736
 21
12.5446
  0
LINE
  8
0
 10
2.58736
 20
12.5446
 11
2.5903
 21
12.5632
  0
LINE
  8
0
 10
2.5903
 20
12.5632
 11
2.59442
 21
12.5816
  0
LINE
  8
0
 10
2.59442
 20
12.5816
 11
2.59967
 21
12.5997
  0
LINE
  8
0
 10
2.59967
 20
12.5997
 11
2.60606
 21
12.6174
  0
LINE
  8
0
 10
2.60606
 20
12.6174
 11
2.61354
 21
12.6347
  0
LINE
  8
0
 10
2.61354
 20
12.6347
 11
2.6221
 21
12.6515
  0
LINE
  8
0
 10
2.6221
 20
12.6515
 11
2.6317
 21
12.6677
  0
LINE
  8
0
 10
2.6317
 20
12.6677
 11
2.64229
 21
12.6833
  0
LINE
  8
0
 10
2.64229
 20
12.6833
 11
2.65384
 21
12.6982
  0
LINE
  8
0
 10
2.65384
 20
12.6982
 11
2.66631
 21
12.7124
  0
LINE
  8
0
 10
2.66631
 20
12.7124
 11
2.67963
 21
12.7257
  0
LINE
  8
0
 10
2.67963
 20
12.7257
 11
2.69377
 21
12.7381
  0
LINE
  8
0
 10
2.69377
 20
12.7381
 11
2.70866
 21
12.7497
  0
LINE
  8
0
 10
2.70866
 20
12.7497
 11
2.72424
 21
12.7603
  0
LINE
  8
0
 10
2.72424
 20
12.7603
 11
2.74046
 21
12.7699
  0
LINE
  8
0
 10
2.74046
 20
12.7699
 11
2.75726
 21
12.7784
  0
LINE
  8
0
 10
2.75726
 20
12.7784
 11
2.77455
 21
12.7859
  0
LINE
  8
0
 10
2.77455
 20
12.7859
 11
2.79228
 21
12.7923
  0
LINE
  8
0
 10
2.79228
 20
12.7923
 11
2.81038
 21
12.7976
  0
LINE
  8
0
 10
2.81038
 20
12.7976
 11
2.82878
 21
12.8017
  0
LINE
  8
0
 10
2.82878
 20
12.8017
 11
2.8474
 21
12.8046
  0
LINE
  8
0
 10
2.8474
 20
12.8046
 11
2.86615
 21
12.8064
  0
LINE
  8
0
 10
2.86615
 20
12.8064
 11
2.88499
 21
12.807
  0
LINE
  8
0
 10
2.88499
 20
12.807
 11
16.885
 21
12.807
  0
LINE
  8
0
 10
16.885
 20
12.807
 11
16.9038
 21
12.8064
  0
LINE
  8
0
 10
16.9038
 20
12.8064
 11
16.9226
 21
12.8046
  0
LINE
  8
0
 10
16.9226
 20
12.8046
 11
16.9412
 21
12.8017
  0
LINE
  8
0
 10
16.9412
 20
12.8017
 11
16.9596
 21
12.7976
  0
LINE
  8
0
 10
16.9596
 20
12.7976
 11
16.9777
 21
12.7923
  0
LINE
  8
0
 10
16.9777
 20
12.7923
 11
16.9954
 21
12.7859
  0
LINE
  8
0
 10
16.9954
 20
12.7859
 11
17.0127
 21
12.7784
  0
LINE
  8
0
 10
17.0127
 20
12.7784
 11
17.0295
 21
12.7699
  0
LINE
  8
0
 10
17.0295
 20
12.7699
 11
17.0457
 21
12.7603
  0
LINE
  8
0
 10
17.0457
 20
12.7603
 11
17.0613
 21
12.7497
  0
LINE
  8
0
 10
17.0613
 20
12.7497
 11
17.0762
 21
12.7381
  0
LINE
  8
0
 10
17.0762
 20
12.7381
 11
17.0904
 21
12.7257
  0
LINE
  8
0
 10
17.0904
 20
12.7257
 11
17.1037
 21
12.7124
  0
LINE
  8
0
 10
17.1037
 20
12.7124
 11
17.1161
 21
12.6982
  0
LINE
  8
0
 10
17.1161
 20
12.6982
 11
17.1277
 21
12.6833
  0
LINE
  8
0
 10
17.1277
 20
12.6833
 11
17.1383
 21
12.6677
  0
LINE
  8
0
 10
17.1383
 20
12.6677
 11
17.1479
 21
12.6515
  0
LINE
  8
0
 10
17.1479
 20
12.6515
 11
17.1564
 21
12.6347
  0
LINE
  8
0
 10
17.1564
 20
12.6347
 11
17.1639
 21
12.6174
  0
LINE
  8
0
 10
17.1639
 20
12.6174
 11
17.1703
 21
12.5997
  0
LINE
  8
0
 10
17.1703
 20
12.5997
 11
17.1756
 21
12.5816
  0
LINE
  8
0
 10
17.1756
 20
12.5816
 11
17.1797
 21
12.5632
  0
LINE
  8
0
 10
17.1797
 20
12.5632
 11
17.1826
 21
12.5446
  0
LINE
  8
0
 10
17.1826
 20
12.5446
 11
17.1844
 21
12.5258
  0
LINE
  8
0
 10
17.1844
 20
12.5258
 11
17.185
 21
12.507
  0
LINE
  8
0
 10
17.185
 20
12.507
 11
17.185
 21
-1.49301
  0
LINE
  8
0
 10
17.185
 20
-1.49301
 11
17.1844
 21
-1.51184
  0
LINE
  8
0
 10
17.1844
 20
-1.51184
 11
17.1826
 21
-1.53061
  0
LINE
  8
0
 10
17.1826
 20
-1.53061
 11
17.1797
 21
-1.54922
  0
LINE
  8
0
 10
17.1797
 20
-1.54922
 11
17.1756
 21
-1.56761
  0
LINE
  8
0
 10
17.1756
 20
-1.56761
 11
17.1703
 21
-1.58571
  0
LINE
  8
0
 10
17.1703
 20
-1.58571
 11
17.1639
 21
-1.60344
  0
LINE
  8
0
 10
17.1639
 20
-1.60344
 11
17.1564
 21
-1.62074
  0
LINE
  8
0
 10
17.1564
 20
-1.62074
 11
17.1479
 21
-1.63753
  0
LINE
  8
0
 10
17.1479
 20
-1.63753
 11
17.1383
 21
-1.65376
  0
LINE
  8
0
 10
17.1383
 20
-1.65376
 11
17.1277
 21
-1.66934
  0
LINE
  8
0
 10
17.1277
 20
-1.66934
 11
17.1161
 21
-1.68423
  0
LINE
  8
0
 10
17.1161
 20
-1.68423
 11
17.1037
 21
-1.69836
  0
LINE
  8
0
 10
17.1037
 20
-1.69836
 11
17.0904
 21
-1.7117
  0
LINE
  8
0
 10
17.0904
 20
-1.7117
 11
17.0762
 21
-1.72417
  0
LINE
  8
0
 10
17.0762
 20
-1.72417
 11
17.0613
 21
-1.73572
  0
LINE
  8
0
 10
17.0613
 20
-1.73572
 11
17.0457
 21
-1.74631
  0
LINE
  8
0
 10
17.0457
 20
-1.74631
 11
17.0295
 21
-1.75591
  0
LINE
  8
0
 10
17.0295
 20
-1.75591
 11
17.0127
 21
-1.76445
  0
LINE
  8
0
 10
17.0127
 20
-1.76445
 11
16.9954
 21
-1.77194
  0
LINE
  8
0
 10
16.9954
 20
-1.77194
 11
16.9777
 21
-1.77832
  0
LINE
  8
0
 10
16.9777
 20
-1.77832
 11
16.9596
 21
-1.78358
  0
LINE
  8
0
 10
16.9596
 20
-1.78358
 11
16.9412
 21
-1.78769
  0
LINE
  8
0
 10
16.9412
 20
-1.78769
 11
16.9226
 21
-1.79065
  0
LINE
  8
0
 10
16.9226
 20
-1.79065
 11
16.9038
 21
-1.79242
  0
LINE
  8
0
 10
16.9038
 20
-1.79242
 11
16.885
 21
-1.79301
  0
LINE
  8
0
 10
16.885
 20
-1.79301
 11
2.88499
 21
-1.79301
  0
LINE
  8
0
 10
-6.75
 20
-29.3785
 11
-6.81279
 21
-29.3765
  0
LINE
  8
0
 10
-6.81279
 20
-29.3765
 11
-6.87532
 21
-29.3706
  0
LINE
  8
0
 10
-6.87532
 20
-29.3706
 11
-6.93738
 21
-29.3608
  0
LINE
  8
0
 10
-6.93738
 20
-29.3608
 11
-6.99869
 21
-29.3471
  0
LINE
  8
0
 10
-6.99869
 20
-29.3471
 11
-7.05901
 21
-29.3295
  0
LINE
  8
0
 10
-7.05901
 20
-29.3295
 11
-7.11812
 21
-29.3083
  0
LINE
  8
0
 10
-7.11812
 20
-29.3083
 11
-7.17577
 21
-29.2833
  0
LINE
  8
0
 10
-7.17577
 20
-29.2833
 11
-7.23175
 21
-29.2548
  0
LINE
  8
0
 10
-7.23175
 20
-29.2548
 11
-7.28581
 21
-29.2228
  0
LINE
  8
0
 10
-7.28581
 20
-29.2228
 11
-7.33778
 21
-29.1875
  0
LINE
  8
0
 10
-7.33778
 20
-29.1875
 11
-7.38742
 21
-29.149
  0
LINE
  8
0
 10
-7.38742
 20
-29.149
 11
-7.43454
 21
-29.1075
  0
LINE
  8
0
 10
-7.43454
 20
-29.1075
 11
-7.47896
 21
-29.063
  0
LINE
  8
0
 10
-7.47896
 20
-29.063
 11
-7.52051
 21
-29.0159
  0
LINE
  8
0
 10
-7.52051
 20
-29.0159
 11
-7.55901
 21
-28.9663
  0
LINE
  8
0
 10
-7.55901
 20
-28.9663
 11
-7.59431
 21
-28.9143
  0
LINE
  8
0
 10
-7.59431
 20
-28.9143
 11
-7.6263
 21
-28.8602
  0
LINE
  8
0
 10
-7.6263
 20
-28.8602
 11
-7.65482
 21
-28.8043
  0
LINE
  8
0
 10
-7.65482
 20
-28.8043
 11
-7.67976
 21
-28.7466
  0
LINE
  8
0
 10
-7.67976
 20
-28.7466
 11
-7.70105
 21
-28.6875
  0
LINE
  8
0
 10
-7.70105
 20
-28.6875
 11
-7.71858
 21
-28.6272
  0
LINE
  8
0
 10
-7.71858
 20
-28.6272
 11
-7.73228
 21
-28.5659
  0
LINE
  8
0
 10
-7.73228
 20
-28.5659
 11
-7.74211
 21
-28.5038
  0
LINE
  8
0
 10
-7.74211
 20
-28.5038
 11
-7.74802
 21
-28.4413
  0
LINE
  8
0
 10
-7.74802
 20
-28.4413
 11
-7.75
 21
-28.3785
  0
LINE
  8
0
 10
-7.75
 20
-28.3785
 11
-7.75
 21
-15.3785
  0
LINE
  8
0
 10
-7.75
 20
-15.3785
 11
-7.74802
 21
-15.3157
  0
LINE
  8
0
 10
-7.74802
 20
-15.3157
 11
-7.74211
 21
-15.2532
  0
LINE
  8
0
 10
-7.74211
 20
-15.2532
 11
-7.73228
 21
-15.1911
  0
LINE
  8
0
 10
-7.73228
 20
-15.1911
 11
-7.71858
 21
-15.1298
  0
LINE
  8
0
 10
-7.71858
 20
-15.1298
 11
-7.70105
 21
-15.0695
  0
LINE
  8
0
 10
-7.70105
 20
-15.0695
 11
-7.67976
 21
-15.0104
  0
LINE
  8
0
 10
-7.67976
 20
-15.0104
 11
-7.65482
 21
-14.9527
  0
LINE
  8
0
 10
-7.65482
 20
-14.9527
 11
-7.6263
 21
-14.8967
  0
LINE
  8
0
 10
-7.6263
 20
-14.8967
 11
-7.59431
 21
-14.8427
  0
LINE
  8
0
 10
-7.59431
 20
-14.8427
 11
-7.55901
 21
-14.7907
  0
LINE
  8
0
 10
-7.55901
 20
-14.7907
 11
-7.52051
 21
-14.7411
  0
LINE
  8
0
 10
-7.52051
 20
-14.7411
 11
-7.47896
 21
-14.694
  0
LINE
  8
0
 10
-7.47896
 20
-14.694
 11
-7.43454
 21
-14.6495
  0
LINE
  8
0
 10
-7.43454
 20
-14.6495
 11
-7.38742
 21
-14.608
  0
LINE
  8
0
 10
-7.38742
 20
-14.608
 11
-7.33778
 21
-14.5695
  0
LINE
  8
0
 10
-7.33778
 20
-14.5695
 11
-7.28581
 21
-14.5342
  0
LINE
  8
0
 10
-7.28581
 20
-14.5342
 11
-7.23175
 21
-14.5022
  0
LINE
  8
0
 10
-7.23175
 20
-14.5022
 11
-7.17577
 21
-14.4737
  0
LINE
  8
0
 10
-7.17577
 20
-14.4737
 11
-7.11812
 21
-14.4487
  0
LINE
  8
0
 10
-7.11812
 20
-14.4487
 11
-7.05901
 21
-14.4274
  0
LINE
  8
0
 10
-7.05901
 20
-14.4274
 11
-6.99869
 21
-14.4099
  0
LINE
  8
0
 10
-6.99869
 20
-14.4099
 11
-6.93738
 21
-14.3962
  0
LINE
  8
0
 10
-6.93738
 20
-14.3962
 11
-6.87532
 21
-14.3864
  0
LINE
  8
0
 10
-6.87532
 20
-14.3864
 11
-6.81279
 21
-14.3805
  0
LINE
  8
0
 10
-6.81279
 20
-14.3805
 11
-6.75
 21
-14.3785
  0
LINE
  8
0
 10
-6.75
 20
-14.3785
 11
-3.75
 21
-14.3785
  0
LINE
  8
0
 10
-3.75
 20
-14.3785
 11
-3.75
 21
-9.68924
  0
LINE
  8
0
 10
-3.75
 20
-9.68924
 11
-3.74802
 21
-9.62645
  0
LINE
  8
0
 10
-3.74802
 20
-9.62645
 11
-3.74211
 21
-9.56392
  0
LINE
  8
0
 10
-3.74211
 20
-9.56392
 11
-3.73228
 21
-9.50186
  0
LINE
  8
0
 10
-3.73228
 20
-9.50186
 11
-3.71858
 21
-9.44055
  0
LINE
  8
0
 10
-3.71858
 20
-9.44055
 11
-3.70105
 21
-9.38023
  0
LINE
  8
0
 10
-3.70105
 20
-9.38023
 11
-3.67976
 21
-9.32112
  0
LINE
  8
0
 10
-3.67976
 20
-9.32112
 11
-3.65482
 21
-9.26347
  0
LINE
  8
0
 10
-3.65482
 20
-9.26347
 11
-3.6263
 21
-9.20749
  0
LINE
  8
0
 10
-3.6263
 20
-9.20749
 11
-3.59431
 21
-9.15343
  0
LINE
  8
0
 10
-3.59431
 20
-9.15343
 11
-3.55901
 21
-9.10146
  0
LINE
  8
0
 10
-3.55901
 20
-9.10146
 11
-3.52051
 21
-9.05182
  0
LINE
  8
0
 10
-3.52051
 20
-9.05182
 11
-3.47896
 21
-9.0047
  0
LINE
  8
0
 10
-3.47896
 20
-9.0047
 11
-3.43454
 21
-8.96028
  0
LINE
  8
0
 10
-3.43454
 20
-8.96028
 11
-3.38742
 21
-8.91873
  0
LINE
  8
0
 10
-3.38742
 20
-8.91873
 11
-3.33778
 21
-8.88023
  0
LINE
  8
0
 10
-3.33778
 20
-8.88023
 11
-3.28581
 21
-8.84492
  0
LINE
  8
0
 10
-3.28581
 20
-8.84492
 11
-3.23175
 21
-8.81294
  0
LINE
  8
0
 10
-3.23175
 20
-8.81294
 11
-3.17577
 21
-8.78442
  0
LINE
  8
0
 10
-3.17577
 20
-8.78442
 11
-3.11812
 21
-8.75948
  0
LINE
  8
0
 10
-3.11812
 20
-8.75948
 11
-3.05901
 21
-8.73819
  0
LINE
  8
0
 10
-3.05901
 20
-8.73819
 11
-2.99869
 21
-8.72066
  0
LINE
  8
0
 10
-2.99869
 20
-8.72066
 11
-2.93738
 21
-8.70695
  0
LINE
  8
0
 10
-2.93738
 20
-8.70695
 11
-2.87532
 21
-8.69713
  0
LINE
  8
0
 10
-2.87532
 20
-8.69713
 11
-2.81279
 21
-8.69122
  0
LINE
  8
0
 10
-2.81279
 20
-8.69122
 11
-2.75
 21
-8.68924
  0
LINE
  8
0
 10
-2.75
 20
-8.68924
 11
4.25
 21
-8.68924
  0
LINE
  8
0
 10
4.25
 20
-8.68924
 11
4.31279
 21
-8.69122
  0
LINE
  8
0
 10
4.31279
 20
-8.69122
 11
4.37532
 21
-8.69713
  0
LINE
  8
0
 10
4.37532
 20
-8.69713
 11
4.43738
 21
-8.70695
  0
LINE
  8
0
 10
4.43738
 20
-8.70695
 11
4.49869
 21
-8.72066
  0
LINE
  8
0
 10
4.49869
 20
-8.72066
 11
4.55901
 21
-8.73819
  0
LINE
  8
0
 10
4.55901
 20
-8.73819
 11
4.61812
 21
-8.75948
  0
LINE
  8
0
 10
4.61812
 20
-8.75948
 11
4.67577
 21
-8.78442
  0
LINE
  8
0
 10
4.67577
 20
-8.78442
 11
4.73175
 21
-8.81294
  0
LINE
  8
0
 10
4.73175
 20
-8.81294
 11
4.78581
 21
-8.84492
  0
LINE
  8
0
 10
4.78581
 20
-8.84492
 11
4.83778
 21
-8.88023
  0
LINE
  8
0
 10
4.83778
 20
-8.88023
 11
4.88742
 21
-8.91873
  0
LINE
  8
0
 10
4.88742
 20
-8.91873
 11
4.93454
 21
-8.96028
  0
LINE
  8
0
 10
4.93454
 20
-8.96028
 11
4.97896
 21
-9.0047
  0
LINE
  8
0
 10
4.97896
 20
-9.0047
 11
5.02051
 21
-9.05182
  0
LINE
  8
0
 10
5.02051
 20
-9.05182
 11
5.05901
 21
-9.10146
  0
LINE
  8
0
 10
5.05901
 20
-9.10146
 11
5.09431
 21
-9.15343
  0
LINE
  8
0
 10
5.09431
 20
-9.15343
 11
5.1263
 21
-9.20749
  0
LINE
  8
0
 10
5.1263
 20
-9.20749
 11
5.15482
 21
-9.26347
  0
LINE
  8
0
 10
5.15482
 20
-9.26347
 11
5.17976
 21
-9.32112
  0
LINE
  8
0
 10
5.17976
 20
-9.32112
 11
5.20105
 21
-9.38023
  0
LINE
  8
0
 10
5.20105
 20
-9.38023
 11
5.21858
 21
-9.44055
  0
LINE
  8
0
 10
5.21858
 20
-9.44055
 11
5.23228
 21
-9.50186
  0
LINE
  8
0
 10
5.23228
 20
-9.50186
 11
5.24211
 21
-9.56392
  0
LINE
  8
0
 10
5.24211
 20
-9.56392
 11
5.24802
 21
-9.62645
  0
LINE
  8
0
 10
5.24802
 20
-9.62645
 11
5.25
 21
-9.68924
  0
LINE
  8
0
 10
5.25
 20
-9.68924
 11
5.25
 21
-14.3785
  0
LINE
  8
0
 10
5.25
 20
-14.3785
 11
8.25
 21
-14.3785
  0
LINE
  8
0
 10
8.25
 20
-14.3785
 11
8.31279
 21
-14.3805
  0
LINE
  8
0
 10
8.31279
 20
-14.3805
 11
8.37532
 21
-14.3864
  0
LINE
  8
0
 10
8.37532
 20
-14.3864
 11
8.43738
 21
-14.3962
  0
LINE
  8
0
 10
8.43738
 20
-14.3962
 11
8.49869
 21
-14.4099
  0
LINE
  8
0
 10
8.49869
 20
-14.4099
 11
8.55901
 21
-14.4274
  0
LINE
  8
0
 10
8.55901
 20
-14.4274
 11
8.61812
 21
-14.4487
  0
LINE
  8
0
 10
8.61812
 20
-14.4487
 11
8.67577
 21
-14.4737
  0
LINE
  8
0
 10
8.67577
 20
-14.4737
 11
8.73175
 21
-14.5022
  0
LINE
  8
0
 10
8.73175
 20
-14.5022
 11
8.78581
 21
-14.5342
  0
LINE
  8
0
 10
8.78581
 20
-14.5342
 11
8.83778
 21
-14.5695
  0
LINE
  8
0
 10
8.83778
 20
-14.5695
 11
8.88742
 21
-14.608
  0
LINE
  8
0
 10
8.88742
 20
-14.608
 11
8.93454
 21
-14.6495
  0
LINE
  8
0
 10
8.93454
 20
-14.6495
 11
8.97896
 21
-14.694
  0
LINE
  8
0
 10
8.97896
 20
-14.694
 11
9.02051
 21
-14.7411
  0
LINE
  8
0
 10
9.02051
 20
-14.7411
 11
9.05901
 21
-14.7907
  0
LINE
  8
0
 10
9.05901
 20
-14.7907
 11
9.09431
 21
-14.8427
  0
LINE
  8
0
 10
9.09431
 20
-14.8427
 11
9.1263
 21
-14.8967
  0
LINE
  8
0
 10
9.1263
 20
-14.8967
 11
9.15482
 21
-14.9527
  0
LINE
  8
0
 10
9.15482
 20
-14.9527
 11
9.17976
 21
-15.0104
  0
LINE
  8
0
 10
9.17976
 20
-15.0104
 11
9.20105
 21
-15.0695
  0
LINE
  8
0
 10
9.20105
 20
-15.0695
 11
9.21858
 21
-15.1298
  0
LINE
  8
0
 10
9.21858
 20
-15.1298
 11
9.23228
 21
-15.1911
  0
LINE
  8
0
 10
9.23228
 20
-15.1911
 11
9.24211
 21
-15.2532
  0
LINE
  8
0
 10
9.24211
 20
-15.2532
 11
9.24802
 21
-15.3157
  0
LINE
  8
0
 10
9.24802
 20
-15.3157
 11
9.25
 21
-15.3785
  0
LINE
  8
0
 10
9.25
 20
-15.3785
 11
9.25
 21
-28.3785
  0
LINE
  8
0
 10
9.25
 20
-28.3785
 11
9.24802
 21
-28.4413
  0
LINE
  8
0
 10
9.24802
 20
-28.4413
 11
9.24211
 21
-28.5038
  0
LINE
  8
0
 10
9.24211
 20
-28.5038
 11
9.23228
 21
-28.5659
  0
LINE
  8
0
 10
9.23228
 20
-28.5659
 11
9.21858
 21
-28.6272
  0
LINE
  8
0
 10
9.21858
 20
-28.6272
 11
9.20105
 21
-28.6875
  0
LINE
  8
0
 10
9.20105
 20
-28.6875
 11
9.17976
 21
-28.7466
  0
LINE
  8
0
 10
9.17976
 20
-28.7466
 11
9.15482
 21
-28.8043
  0
LINE
  8
0
 10
9.15482
 20
-28.8043
 11
9.1263
 21
-28.8602
  0
LINE
  8
0
 10
9.1263
 20
-28.8602
 11
9.09431
 21
-28.9143
  0
LINE
  8
0
 10
9.09431
 20
-28.9143
 11
9.05901
 21
-28.9663
  0
LINE
  8
0
 10
9.05901
 20
-28.9663
 11
9.02051
 21
-29.0159
  0
LINE
  8
0
 10
9.02051
 20
-29.0159
 11
8.97896
 21
-29.063
  0
LINE
  8
0
 10
8.97896
 20
-29.063
 11
8.93454
 21
-29.1075
  0
LINE
  8
0
 10
8.93454
 20
-29.1075
 11
8.88742
 21
-29.149
  0
LINE
  8
0
 10
8.88742
 20
-29.149
 11
8.83778
 21
-29.1875
  0
LINE
  8
0
 10
8.83778
 20
-29.1875
 11
8.78581
 21
-29.2228
  0
LINE
  8
0
 10
8.78581
 20
-29.2228
 11
8.73175
 21
-29.2548
  0
LINE
  8
0
 10
8.73175
 20
-29.2548
 11
8.67577
 21
-29.2833
  0
LINE
  8
0
 10
8.67577
 20
-29.2833
 11
8.61812
 21
-29.3083
  0
LINE
  8
0
 10
8.61812
 20
-29.3083
 11
8.55901
 21
-29.3295
  0
LINE
  8
0
 10
8.55901
 20
-29.3295
 11
8.49869
 21
-29.3471
  0
LINE
  8
0
 10
8.49869
 20
-29.3471
 11
8.43738
 21
-29.3608
  0
LINE
  8
0
 10
8.43738
 20
-29.3608
 11
8.37532
 21
-29.3706
  0
LINE
  8
0
 10
8.37532
 20
-29.3706
 11
8.31279
 21
-29.3765
  0
LINE
  8
0
 10
8.31279
 20
-29.3765
 11
8.25
 21
-29.3785
  0
LINE
  8
0
 10
8.25
 20
-29.3785
 11
-6.75
 21
-29.3785
  0
LINE
  8
0
 10
-19.2843
 20
-36.8312
 11
-19.4031
 21
-36.82
  0
LINE
  8
0
 10
-19.4031
 20
-36.82
 11
-19.521
 21
-36.8013
  0
LINE
  8
0
 10
-19.521
 20
-36.8013
 11
-19.6375
 21
-36.7753
  0
LINE
  8
0
 10
-19.6375
 20
-36.7753
 11
-19.7521
 21
-36.742
  0
LINE
  8
0
 10
-19.7521
 20
-36.742
 11
-19.8644
 21
-36.7016
  0
LINE
  8
0
 10
-19.8644
 20
-36.7016
 11
-19.974
 21
-36.6542
  0
LINE
  8
0
 10
-19.974
 20
-36.6542
 11
-20.0803
 21
-36.6
  0
LINE
  8
0
 10
-20.0803
 20
-36.6
 11
-20.1831
 21
-36.5392
  0
LINE
  8
0
 10
-20.1831
 20
-36.5392
 11
-20.2818
 21
-36.4721
  0
LINE
  8
0
 10
-20.2818
 20
-36.4721
 11
-20.3761
 21
-36.399
  0
LINE
  8
0
 10
-20.3761
 20
-36.399
 11
-20.4656
 21
-36.32
  0
LINE
  8
0
 10
-20.4656
 20
-36.32
 11
-20.55
 21
-36.2356
  0
LINE
  8
0
 10
-20.55
 20
-36.2356
 11
-20.629
 21
-36.1461
  0
LINE
  8
0
 10
-20.629
 20
-36.1461
 11
-20.7021
 21
-36.0518
  0
LINE
  8
0
 10
-20.7021
 20
-36.0518
 11
-20.7692
 21
-35.9531
  0
LINE
  8
0
 10
-20.7692
 20
-35.9531
 11
-20.83
 21
-35.8503
  0
LINE
  8
0
 10
-20.83
 20
-35.8503
 11
-20.8842
 21
-35.744
  0
LINE
  8
0
 10
-20.8842
 20
-35.744
 11
-20.9316
 21
-35.6344
  0
LINE
  8
0
 10
-20.9316
 20
-35.6344
 11
-20.972
 21
-35.5221
  0
LINE
  8
0
 10
-20.972
 20
-35.5221
 11
-21.0053
 21
-35.4075
  0
LINE
  8
0
 10
-21.0053
 20
-35.4075
 11
-21.0313
 21
-35.291
  0
LINE
  8
0
 10
-21.0313
 20
-35.291
 11
-21.05
 21
-35.1731
  0
LINE
  8
0
 10
-21.05
 20
-35.1731
 11
-21.0612
 21
-35.0543
  0
LINE
  8
0
 10
-21.0612
 20
-35.0543
 11
-21.065
 21
-34.935
  0
LINE
  8
0
 10
-21.065
 20
-34.935
 11
-21.0612
 21
-34.8157
  0
LINE
  8
0
 10
-21.0612
 20
-34.8157
 11
-21.05
 21
-34.6969
  0
LINE
  8
0
 10
-21.05
 20
-34.6969
 11
-21.0313
 21
-34.579
  0
LINE
  8
0
 10
-21.0313
 20
-34.579
 11
-21.0053
 21
-34.4625
  0
LINE
  8
0
 10
-21.0053
 20
-34.4625
 11
-20.972
 21
-34.3479
  0
LINE
  8
0
 10
-20.972
 20
-34.3479
 11
-20.9316
 21
-34.2355
  0
LINE
  8
0
 10
-20.9316
 20
-34.2355
 11
-20.8842
 21
-34.126
  0
LINE
  8
0
 10
-20.8842
 20
-34.126
 11
-20.83
 21
-34.0197
  0
LINE
  8
0
 10
-20.83
 20
-34.0197
 11
-20.7692
 21
-33.9169
  0
LINE
  8
0
 10
-20.7692
 20
-33.9169
 11
-20.7021
 21
-33.8182
  0
LINE
  8
0
 10
-20.7021
 20
-33.8182
 11
-20.629
 21
-33.7239
  0
LINE
  8
0
 10
-20.629
 20
-33.7239
 11
-20.55
 21
-33.6344
  0
LINE
  8
0
 10
-20.55
 20
-33.6344
 11
-20.4656
 21
-33.55
  0
LINE
  8
0
 10
-20.4656
 20
-33.55
 11
-20.3761
 21
-33.471
  0
LINE
  8
0
 10
-20.3761
 20
-33.471
 11
-20.2818
 21
-33.3979
  0
LINE
  8
0
 10
-20.2818
 20
-33.3979
 11
-20.1831
 21
-33.3308
  0
LINE
  8
0
 10
-20.1831
 20
-33.3308
 11
-20.0803
 21
-33.27
  0
LINE
  8
0
 10
-20.0803
 20
-33.27
 11
-19.974
 21
-33.2158
  0
LINE
  8
0
 10
-19.974
 20
-33.2158
 11
-19.8644
 21
-33.1684
  0
LINE
  8
0
 10
-19.8644
 20
-33.1684
 11
-19.7521
 21
-33.128
  0
LINE
  8
0
 10
-19.7521
 20
-33.128
 11
-19.6375
 21
-33.0947
  0
LINE
  8
0
 10
-19.6375
 20
-33.0947
 11
-19.521
 21
-33.0686
  0
LINE
  8
0
 10
-19.521
 20
-33.0686
 11
-19.4031
 21
-33.05
  0
LINE
  8
0
 10
-19.4031
 20
-33.05
 11
-19.2843
 21
-33.0387
  0
LINE
  8
0
 10
-19.2843
 20
-33.0387
 11
-19.165
 21
-33.035
  0
LINE
  8
0
 10
-19.165
 20
-33.035
 11
-19.0457
 21
-33.0387
  0
LINE
  8
0
 10
-19.0457
 20
-33.0387
 11
-18.9269
 21
-33.05
  0
LINE
  8
0
 10
-18.9269
 20
-33.05
 11
-18.809
 21
-33.0686
  0
LINE
  8
0
 10
-18.809
 20
-33.0686
 11
-18.6925
 21
-33.0947
  0
LINE
  8
0
 10
-18.6925
 20
-33.0947
 11
-18.5779
 21
-33.128
  0
LINE
  8
0
 10
-18.5779
 20
-33.128
 11
-18.4656
 21
-33.1684
  0
LINE
  8
0
 10
-18.4656
 20
-33.1684
 11
-18.356
 21
-33.2158
  0
LINE
  8
0
 10
-18.356
 20
-33.2158
 11
-18.2497
 21
-33.27
  0
LINE
  8
0
 10
-18.2497
 20
-33.27
 11
-18.1469
 21
-33.3308
  0
LINE
  8
0
 10
-18.1469
 20
-33.3308
 11
-18.0482
 21
-33.3979
  0
LINE
  8
0
 10
-18.0482
 20
-33.3979
 11
-17.9539
 21
-33.471
  0
LINE
  8
0
 10
-17.9539
 20
-33.471
 11
-17.8643
 21
-33.55
  0
LINE
  8
0
 10
-17.8643
 20
-33.55
 11
-17.78
 21
-33.6344
  0
LINE
  8
0
 10
-17.78
 20
-33.6344
 11
-17.701
 21
-33.7239
  0
LINE
  8
0
 10
-17.701
 20
-33.7239
 11
-17.6279
 21
-33.8182
  0
LINE
  8
0
 10
-17.6279
 20
-33.8182
 11
-17.5608
 21
-33.9169
  0
LINE
  8
0
 10
-17.5608
 20
-33.9169
 11
-17.5
 21
-34.0197
  0
LINE
  8
0
 10
-17.5
 20
-34.0197
 11
-17.4458
 21
-34.126
  0
LINE
  8
0
 10
-17.4458
 20
-34.126
 11
-17.3984
 21
-34.2355
  0
LINE
  8
0
 10
-17.3984
 20
-34.2355
 11
-17.358
 21
-34.3479
  0
LINE
  8
0
 10
-17.358
 20
-34.3479
 11
-17.3247
 21
-34.4625
  0
LINE
  8
0
 10
-17.3247
 20
-34.4625
 11
-17.2986
 21
-34.579
  0
LINE
  8
0
 10
-17.2986
 20
-34.579
 11
-17.28
 21
-34.6969
  0
LINE
  8
0
 10
-17.28
 20
-34.6969
 11
-17.2687
 21
-34.8157
  0
LINE
  8
0
 10
-17.2687
 20
-34.8157
 11
-17.265
 21
-34.935
  0
LINE
  8
0
 10
-17.265
 20
-34.935
 11
-17.2687
 21
-35.0543
  0
LINE
  8
0
 10
-17.2687
 20
-35.0543
 11
-17.28
 21
-35.1731
  0
LINE
  8
0
 10
-17.28
 20
-35.1731
 11
-17.2986
 21
-35.291
  0
LINE
  8
0
 10
-17.2986
 20
-35.291
 11
-17.3247
 21
-35.4075
  0
LINE
  8
0
 10
-17.3247
 20
-35.4075
 11
-17.358
 21
-35.5221
  0
LINE
  8
0
 10
-17.358
 20
-35.5221
 11
-17.3984
 21
-35.6344
  0
LINE
  8
0
 10
-17.3984
 20
-35.6344
 11
-17.4458
 21
-35.744
  0
LINE
  8
0
 10
-17.4458
 20
-35.744
 11
-17.5
 21
-35.8503
  0
LINE
  8
0
 10
-17.5
 20
-35.8503
 11
-17.5608
 21
-35.9531
  0
LINE
  8
0
 10
-17.5608
 20
-35.9531
 11
-17.6279
 21
-36.0518
  0
LINE
  8
0
 10
-17.6279
 20
-36.0518
 11
-17.701
 21
-36.1461
  0
LINE
  8
0
 10
-17.701
 20
-36.1461
 11
-17.78
 21
-36.2356
  0
LINE
  8
0
 10
-17.78
 20
-36.2356
 11
-17.8643
 21
-36.32
  0
LINE
  8
0
 10
-17.8643
 20
-36.32
 11
-17.9539
 21
-36.399
  0
LINE
  8
0
 10
-17.9539
 20
-36.399
 11
-18.0482
 21
-36.4721
  0
LINE
  8
0
 10
-18.0482
 20
-36.4721
 11
-18.1469
 21
-36.5392
  0
LINE
  8
0
 10
-18.1469
 20
-36.5392
 11
-18.2497
 21
-36.6
  0
LINE
  8
0
 10
-18.2497
 20
-36.6
 11
-18.356
 21
-36.6542
  0
LINE
  8
0
 10
-18.356
 20
-36.6542
 11
-18.4656
 21
-36.7016
  0
LINE
  8
0
 10
-18.4656
 20
-36.7016
 11
-18.5779
 21
-36.742
  0
LINE
  8
0
 10
-18.5779
 20
-36.742
 11
-18.6925
 21
-36.7753
  0
LINE
  8
0
 10
-18.6925
 20
-36.7753
 11
-18.809
 21
-36.8013
  0
LINE
  8
0
 10
-18.809
 20
-36.8013
 11
-18.9269
 21
-36.82
  0
LINE
  8
0
 10
-18.9269
 20
-36.82
 11
-19.0457
 21
-36.8312
  0
LINE
  8
0
 10
-19.0457
 20
-36.8312
 11
-19.165
 21
-36.835
  0
LINE
  8
0
 10
-19.165
 20
-36.835
 11
-19.2843
 21
-36.8312
  0
LINE
  8
0
 10
19.0457
 20
-36.8312
 11
18.9269
 21
-36.82
  0
LINE
  8
0
 10
18.9269
 20
-36.82
 11
18.809
 21
-36.8013
  0
LINE
  8
0
 10
18.809
 20
-36.8013
 11
18.6925
 21
-36.7753
  0
LINE
  8
0
 10
18.6925
 20
-36.7753
 11
18.5779
 21
-36.742
  0
LINE
  8
0
 10
18.5779
 20
-36.742
 11
18.4656
 21
-36.7016
  0
LINE
  8
0
 10
18.4656
 20
-36.7016
 11
18.356
 21
-36.6542
  0
LINE
  8
0
 10
18.356
 20
-36.6542
 11
18.2497
 21
-36.6
  0
LINE
  8
0
 10
18.2497
 20
-36.6
 11
18.1469
 21
-36.5392
  0
LINE
  8
0
 10
18.1469
 20
-36.5392
 11
18.0482
 21
-36.4721
  0
LINE
  8
0
 10
18.0482
 20
-36.4721
 11
17.9539
 21
-36.399
  0
LINE
  8
0
 10
17.9539
 20
-36.399
 11
17.8643
 21
-36.32
  0
LINE
  8
0
 10
17.8643
 20
-36.32
 11
17.78
 21
-36.2356
  0
LINE
  8
0
 10
17.78
 20
-36.2356
 11
17.701
 21
-36.1461
  0
LINE
  8
0
 10
17.701
 20
-36.1461
 11
17.6279
 21
-36.0518
  0
LINE
  8
0
 10
17.6279
 20
-36.0518
 11
17.5608
 21
-35.9531
  0
LINE
  8
0
 10
17.5608
 20
-35.9531
 11
17.5
 21
-35.8503
  0
LINE
  8
0
 10
17.5
 20
-35.8503
 11
17.4458
 21
-35.744
  0
LINE
  8
0
 10
17.4458
 20
-35.744
 11
17.3984
 21
-35.6344
  0
LINE
  8
0
 10
17.3984
 20
-35.6344
 11
17.358
 21
-35.5221
  0
LINE
  8
0
 10
17.358
 20
-35.5221
 11
17.3247
 21
-35.4075
  0
LINE
  8
0
 10
17.3247
 20
-35.4075
 11
17.2986
 21
-35.291
  0
LINE
  8
0
 10
17.2986
 20
-35.291
 11
17.28
 21
-35.1731
  0
LINE
  8
0
 10
17.28
 20
-35.1731
 11
17.2687
 21
-35.0543
  0
LINE
  8
0
 10
17.2687
 20
-35.0543
 11
17.265
 21
-34.935
  0
LINE
  8
0
 10
17.265
 20
-34.935
 11
17.2687
 21
-34.8157
  0
LINE
  8
0
 10
17.2687
 20
-34.8157
 11
17.28
 21
-34.6969
  0
LINE
  8
0
 10
17.28
 20
-34.6969
 11
17.2986
 21
-34.579
  0
LINE
  8
0
 10
17.2986
 20
-34.579
 11
17.3247
 21
-34.4625
  0
LINE
  8
0
 10
17.3247
 20
-34.4625
 11
17.358
 21
-34.3479
  0
LINE
  8
0
 10
17.358
 20
-34.3479
 11
17.3984
 21
-34.2355
  0
LINE
  8
0
 10
17.3984
 20
-34.2355
 11
17.4458
 21
-34.126
  0
LINE
  8
0
 10
17.4458
 20
-34.126
 11
17.5
 21
-34.0197
  0
LINE
  8
0
 10
17.5
 20
-34.0197
 11
17.5608
 21
-33.9169
  0
LINE
  8
0
 10
17.5608
 20
-33.9169
 11
17.6279
 21
-33.8182
  0
LINE
  8
0
 10
17.6279
 20
-33.8182
 11
17.701
 21
-33.7239
  0
LINE
  8
0
 10
17.701
 20
-33.7239
 11
17.78
 21
-33.6344
  0
LINE
  8
0
 10
17.78
 20
-33.6344
 11
17.8643
 21
-33.55
  0
LINE
  8
0
 10
17.8643
 20
-33.55
 11
17.9539
 21
-33.471
  0
LINE
  8
0
 10
17.9539
 20
-33.471
 11
18.0482
 21
-33.3979
  0
LINE
  8
0
 10
18.0482
 20
-33.3979
 11
18.1469
 21
-33.3308
  0
LINE
  8
0
 10
18.1469
 20
-33.3308
 11
18.2497
 21
-33.27
  0
LINE
  8
0
 10
18.2497
 20
-33.27
 11
18.356
 21
-33.2158
  0
LINE
  8
0
 10
18.356
 20
-33.2158
 11
18.4656
 21
-33.1684
  0
LINE
  8
0
 10
18.4656
 20
-33.1684
 11
18.5779
 21
-33.128
  0
LINE
  8
0
 10
18.5779
 20
-33.128
 11
18.6925
 21
-33.0947
  0
LINE
  8
0
 10
18.6925
 20
-33.0947
 11
18.809
 21
-33.0686
  0
LINE
  8
0
 10
18.809
 20
-33.0686
 11
18.9269
 21
-33.05
  0
LINE
  8
0
 10
18.9269
 20
-33.05
 11
19.0457
 21
-33.0387
  0
LINE
  8
0
 10
19.0457
 20
-33.0387
 11
19.165
 21
-33.035
  0
LINE
  8
0
 10
19.165
 20
-33.035
 11
19.2843
 21
-33.0387
  0
LINE
  8
0
 10
19.2843
 20
-33.0387
 11
19.4031
 21
-33.05
  0
LINE
  8
0
 10
19.4031
 20
-33.05
 11
19.521
 21
-33.0686
  0
LINE
  8
0
 10
19.521
 20
-33.0686
 11
19.6375
 21
-33.0947
  0
LINE
  8
0
 10
19.6375
 20
-33.0947
 11
19.7521
 21
-33.128
  0
LINE
  8
0
 10
19.7521
 20
-33.128
 11
19.8644
 21
-33.1684
  0
LINE
  8
0
 10
19.8644
 20
-33.1684
 11
19.974
 21
-33.2158
  0
LINE
  8
0
 10
19.974
 20
-33.2158
 11
20.0803
 21
-33.27
  0
LINE
  8
0
 10
20.0803
 20
-33.27
 11
20.1831
 21
-33.3308
  0
LINE
  8
0
 10
20.1831
 20
-33.3308
 11
20.2818
 21
-33.3979
  0
LINE
  8
0
 10
20.2818
 20
-33.3979
 11
20.3761
 21
-33.471
  0
LINE
  8
0
 10
20.3761
 20
-33.471
 11
20.4656
 21
-33.55
  0
LINE
  8
0
 10
20.4656
 20
-33.55
 11
20.55
 21
-33.6344
  0
LINE
  8
0
 10
20.55
 20
-33.6344
 11
20.629
 21
-33.7239
  0
LINE
  8
0
 10
20.629
 20
-33.7239
 11
20.7021
 21
-33.8182
  0
LINE
  8
0
 10
20.7021
 20
-33.8182
 11
20.7692
 21
-33.9169
  0
LINE
  8
0
 10
20.7692
 20
-33.9169
 11
20.83
 21
-34.0197
  0
LINE
  8
0
 10
20.83
 20
-34.0197
 11
20.8842
 21
-34.126
  0
LINE
  8
0
 10
20.8842
 20
-34.126
 11
20.9316
 21
-34.2355
  0
LINE
  8
0
 10
20.9316
 20
-34.2355
 11
20.972
 21
-34.3479
  0
LINE
  8
0
 10
20.972
 20
-34.3479
 11
21.0053
 21
-34.4625
  0
LINE
  8
0
 10
21.0053
 20
-34.4625
 11
21.0313
 21
-34.579
  0
LINE
  8
0
 10
21.0313
 20
-34.579
 11
21.05
 21
-34.6969
  0
LINE
  8
0
 10
21.05
 20
-34.6969
 11
21.0612
 21
-34.8157
  0
LINE
  8
0
 10
21.0612
 20
-34.8157
 11
21.065
 21
-34.935
  0
LINE
  8
0
 10
21.065
 20
-34.935
 11
21.0612
 21
-35.0543
  0
LINE
  8
0
 10
21.0612
 20
-35.0543
 11
21.05
 21
-35.1731
  0
LINE
  8
0
 10
21.05
 20
-35.1731
 11
21.0313
 21
-35.291
  0
LINE
  8
0
 10
21.0313
 20
-35.291
 11
21.0053
 21
-35.4075
  0
LINE
  8
0
 10
21.0053
 20
-35.4075
 11
20.972
 21
-35.5221
  0
LINE
  8
0
 10
20.972
 20
-35.5221
 11
20.9316
 21
-35.6344
  0
LINE
  8
0
 10
20.9316
 20
-35.6344
 11
20.8842
 21
-35.744
  0
LINE
  8
0
 10
20.8842
 20
-35.744
 11
20.83
 21
-35.8503
  0
LINE
  8
0
 10
20.83
 20
-35.8503
 11
20.7692
 21
-35.9531
  0
LINE
  8
0
 10
20.7692
 20
-35.9531
 11
20.7021
 21
-36.0518
  0
LINE
  8
0
 10
20.7021
 20
-36.0518
 11
20.629
 21
-36.1461
  0
LINE
  8
0
 10
20.629
 20
-36.1461
 11
20.55
 21
-36.2356
  0
LINE
  8
0
 10
20.55
 20
-36.2356
 11
20.4656
 21
-36.32
  0
LINE
  8
0
 10
20.4656
 20
-36.32
 11
20.3761
 21
-36.399
  0
LINE
  8
0
 10
20.3761
 20
-36.399
 11
20.2818
 21
-36.4721
  0
LINE
  8
0
 10
20.2818
 20
-36.4721
 11
20.1831
 21
-36.5392
  0
LINE
  8
0
 10
20.1831
 20
-36.5392
 11
20.0803
 21
-36.6
  0
LINE
  8
0
 10
20.0803
 20
-36.6
 11
19.974
 21
-36.6542
  0
LINE
  8
0
 10
19.974
 20
-36.6542
 11
19.8644
 21
-36.7016
  0
LINE
  8
0
 10
19.8644
 20
-36.7016
 11
19.7521
 21
-36.742
  0
LINE
  8
0
 10
19.7521
 20
-36.742
 11
19.6375
 21
-36.7753
  0
LINE
  8
0
 10
19.6375
 20
-36.7753
 11
19.521
 21
-36.8013
  0
LINE
  8
0
 10
19.521
 20
-36.8013
 11
19.4031
 21
-36.82
  0
LINE
  8
0
 10
19.4031
 20
-36.82
 11
19.2843
 21
-36.8312
  0
LINE
  8
0
 10
19.2843
 20
-36.8312
 11
19.165
 21
-36.835
  0
LINE
  8
0
 10
19.165
 20
-36.835
 11
19.0457
 21
-36.8312
  0
ENDSEC
  0
SECTION
  2
OBJECTS
  0
DICTIONARY
  0
ENDSEC
  0
EOF
