  0
SECTION
  2
BLOCKS
  0
ENDSEC
  0
SECTION
  2
ENTITIES
  0
LINE
  8
0
 10
20.2584
 20
-38.9701
 11
20.446
 21
-38.9523
  0
LINE
  8
0
 10
20.446
 20
-38.9523
 11
20.6321
 21
-38.9229
  0
LINE
  8
0
 10
20.6321
 20
-38.9229
 11
20.8161
 21
-38.8817
  0
LINE
  8
0
 10
20.8161
 20
-38.8817
 11
20.997
 21
-38.8292
  0
LINE
  8
0
 10
20.997
 20
-38.8292
 11
21.1744
 21
-38.7653
  0
LINE
  8
0
 10
21.1744
 20
-38.7653
 11
21.3473
 21
-38.6905
  0
LINE
  8
0
 10
21.3473
 20
-38.6905
 11
21.5153
 21
-38.6049
  0
LINE
  8
0
 10
21.5153
 20
-38.6049
 11
21.6775
 21
-38.509
  0
LINE
  8
0
 10
21.6775
 20
-38.509
 11
21.8333
 21
-38.403
  0
LINE
  8
0
 10
21.8333
 20
-38.403
 11
21.9823
 21
-38.2875
  0
LINE
  8
0
 10
21.9823
 20
-38.2875
 11
22.1236
 21
-38.1629
  0
LINE
  8
0
 10
22.1236
 20
-38.1629
 11
22.2569
 21
-38.0296
  0
LINE
  8
0
 10
22.2569
 20
-38.0296
 11
22.3815
 21
-37.8883
  0
LINE
  8
0
 10
22.3815
 20
-37.8883
 11
22.497
 21
-37.7393
  0
LINE
  8
0
 10
22.497
 20
-37.7393
 11
22.603
 21
-37.5835
  0
LINE
  8
0
 10
22.603
 20
-37.5835
 11
22.6989
 21
-37.4212
  0
LINE
  8
0
 10
22.6989
 20
-37.4212
 11
22.7845
 21
-37.2533
  0
LINE
  8
0
 10
22.7845
 20
-37.2533
 11
22.8593
 21
-37.0804
  0
LINE
  8
0
 10
22.8593
 20
-37.0804
 11
22.9232
 21
-36.903
  0
LINE
  8
0
 10
22.9232
 20
-36.903
 11
22.9757
 21
-36.7221
  0
LINE
  8
0
 10
22.9757
 20
-36.7221
 11
23.0169
 21
-36.5381
  0
LINE
  8
0
 10
23.0169
 20
-36.5381
 11
23.0463
 21
-36.352
  0
LINE
  8
0
 10
23.0463
 20
-36.352
 11
23.0641
 21
-36.1644
  0
LINE
  8
0
 10
23.0641
 20
-36.1644
 11
23.07
 21
-35.976
  0
LINE
  8
0
 10
23.07
 20
-35.976
 11
23.07
 21
35.976
  0
LINE
  8
0
 10
23.07
 20
35.976
 11
23.0641
 21
36.1644
  0
LINE
  8
0
 10
23.0641
 20
36.1644
 11
23.0463
 21
36.352
  0
LINE
  8
0
 10
23.0463
 20
36.352
 11
23.0169
 21
36.5381
  0
LINE
  8
0
 10
23.0169
 20
36.5381
 11
22.9757
 21
36.7221
  0
LINE
  8
0
 10
22.9757
 20
36.7221
 11
22.9232
 21
36.903
  0
LINE
  8
0
 10
22.9232
 20
36.903
 11
22.8593
 21
37.0804
  0
LINE
  8
0
 10
22.8593
 20
37.0804
 11
22.7845
 21
37.2533
  0
LINE
  8
0
 10
22.7845
 20
37.2533
 11
22.6989
 21
37.4212
  0
LINE
  8
0
 10
22.6989
 20
37.4212
 11
22.603
 21
37.5835
  0
LINE
  8
0
 10
22.603
 20
37.5835
 11
22.497
 21
37.7393
  0
LINE
  8
0
 10
22.497
 20
37.7393
 11
22.3815
 21
37.8883
  0
LINE
  8
0
 10
22.3815
 20
37.8883
 11
22.2569
 21
38.0296
  0
LINE
  8
0
 10
22.2569
 20
38.0296
 11
22.1236
 21
38.1629
  0
LINE
  8
0
 10
22.1236
 20
38.1629
 11
21.9823
 21
38.2875
  0
LINE
  8
0
 10
21.9823
 20
38.2875
 11
21.8333
 21
38.403
  0
LINE
  8
0
 10
21.8333
 20
38.403
 11
21.6775
 21
38.509
  0
LINE
  8
0
 10
21.6775
 20
38.509
 11
21.5153
 21
38.6049
  0
LINE
  8
0
 10
21.5153
 20
38.6049
 11
21.3473
 21
38.6905
  0
LINE
  8
0
 10
21.3473
 20
38.6905
 11
21.1744
 21
38.7653
  0
LINE
  8
0
 10
21.1744
 20
38.7653
 11
20.997
 21
38.8292
  0
LINE
  8
0
 10
20.997
 20
38.8292
 11
20.8161
 21
38.8817
  0
LINE
  8
0
 10
20.8161
 20
38.8817
 11
20.6321
 21
38.9229
  0
LINE
  8
0
 10
20.6321
 20
38.9229
 11
20.446
 21
38.9523
  0
LINE
  8
0
 10
20.446
 20
38.9523
 11
20.2584
 21
38.9701
  0
LINE
  8
0
 10
20.2584
 20
38.9701
 11
20.07
 21
38.976
  0
LINE
  8
0
 10
20.07
 20
38.976
 11
-20.07
 21
38.976
  0
LINE
  8
0
 10
-20.07
 20
38.976
 11
-20.2584
 21
38.9701
  0
LINE
  8
0
 10
-20.2584
 20
38.9701
 11
-20.446
 21
38.9523
  0
LINE
  8
0
 10
-20.446
 20
38.9523
 11
-20.6321
 21
38.9229
  0
LINE
  8
0
 10
-20.6321
 20
38.9229
 11
-20.8161
 21
38.8817
  0
LINE
  8
0
 10
-20.8161
 20
38.8817
 11
-20.997
 21
38.8292
  0
LINE
  8
0
 10
-20.997
 20
38.8292
 11
-21.1744
 21
38.7653
  0
LINE
  8
0
 10
-21.1744
 20
38.7653
 11
-21.3473
 21
38.6905
  0
LINE
  8
0
 10
-21.3473
 20
38.6905
 11
-21.5153
 21
38.6049
  0
LINE
  8
0
 10
-21.5153
 20
38.6049
 11
-21.6775
 21
38.509
  0
LINE
  8
0
 10
-21.6775
 20
38.509
 11
-21.8333
 21
38.403
  0
LINE
  8
0
 10
-21.8333
 20
38.403
 11
-21.9823
 21
38.2875
  0
LINE
  8
0
 10
-21.9823
 20
38.2875
 11
-22.1236
 21
38.1629
  0
LINE
  8
0
 10
-22.1236
 20
38.1629
 11
-22.2569
 21
38.0296
  0
LINE
  8
0
 10
-22.2569
 20
38.0296
 11
-22.3815
 21
37.8883
  0
LINE
  8
0
 10
-22.3815
 20
37.8883
 11
-22.497
 21
37.7393
  0
LINE
  8
0
 10
-22.497
 20
37.7393
 11
-22.603
 21
37.5835
  0
LINE
  8
0
 10
-22.603
 20
37.5835
 11
-22.6989
 21
37.4212
  0
LINE
  8
0
 10
-22.6989
 20
37.4212
 11
-22.7845
 21
37.2533
  0
LINE
  8
0
 10
-22.7845
 20
37.2533
 11
-22.8593
 21
37.0804
  0
LINE
  8
0
 10
-22.8593
 20
37.0804
 11
-22.9232
 21
36.903
  0
LINE
  8
0
 10
-22.9232
 20
36.903
 11
-22.9757
 21
36.7221
  0
LINE
  8
0
 10
-22.9757
 20
36.7221
 11
-23.0169
 21
36.5381
  0
LINE
  8
0
 10
-23.0169
 20
36.5381
 11
-23.0463
 21
36.352
  0
LINE
  8
0
 10
-23.0463
 20
36.352
 11
-23.0641
 21
36.1644
  0
LINE
  8
0
 10
-23.0641
 20
36.1644
 11
-23.07
 21
35.976
  0
LINE
  8
0
 10
-23.07
 20
35.976
 11
-23.07
 21
-35.976
  0
LINE
  8
0
 10
-23.07
 20
-35.976
 11
-23.0641
 21
-36.1644
  0
LINE
  8
0
 10
-23.0641
 20
-36.1644
 11
-23.0463
 21
-36.352
  0
LINE
  8
0
 10
-23.0463
 20
-36.352
 11
-23.0169
 21
-36.5381
  0
LINE
  8
0
 10
-23.0169
 20
-36.5381
 11
-22.9757
 21
-36.7221
  0
LINE
  8
0
 10
-22.9757
 20
-36.7221
 11
-22.9232
 21
-36.903
  0
LINE
  8
0
 10
-22.9232
 20
-36.903
 11
-22.8593
 21
-37.0804
  0
LINE
  8
0
 10
-22.8593
 20
-37.0804
 11
-22.7845
 21
-37.2533
  0
LINE
  8
0
 10
-22.7845
 20
-37.2533
 11
-22.6989
 21
-37.4212
  0
LINE
  8
0
 10
-22.6989
 20
-37.4212
 11
-22.603
 21
-37.5835
  0
LINE
  8
0
 10
-22.603
 20
-37.5835
 11
-22.497
 21
-37.7393
  0
LINE
  8
0
 10
-22.497
 20
-37.7393
 11
-22.3815
 21
-37.8883
  0
LINE
  8
0
 10
-22.3815
 20
-37.8883
 11
-22.2569
 21
-38.0296
  0
LINE
  8
0
 10
-22.2569
 20
-38.0296
 11
-22.1236
 21
-38.1629
  0
LINE
  8
0
 10
-22.1236
 20
-38.1629
 11
-21.9823
 21
-38.2875
  0
LINE
  8
0
 10
-21.9823
 20
-38.2875
 11
-21.8333
 21
-38.403
  0
LINE
  8
0
 10
-21.8333
 20
-38.403
 11
-21.6775
 21
-38.509
  0
LINE
  8
0
 10
-21.6775
 20
-38.509
 11
-21.5153
 21
-38.6049
  0
LINE
  8
0
 10
-21.5153
 20
-38.6049
 11
-21.3473
 21
-38.6905
  0
LINE
  8
0
 10
-21.3473
 20
-38.6905
 11
-21.1744
 21
-38.7653
  0
LINE
  8
0
 10
-21.1744
 20
-38.7653
 11
-20.997
 21
-38.8292
  0
LINE
  8
0
 10
-20.997
 20
-38.8292
 11
-20.8161
 21
-38.8817
  0
LINE
  8
0
 10
-20.8161
 20
-38.8817
 11
-20.6321
 21
-38.9229
  0
LINE
  8
0
 10
-20.6321
 20
-38.9229
 11
-20.446
 21
-38.9523
  0
LINE
  8
0
 10
-20.446
 20
-38.9523
 11
-20.2584
 21
-38.9701
  0
LINE
  8
0
 10
-20.2584
 20
-38.9701
 11
-20.07
 21
-38.976
  0
LINE
  8
0
 10
-20.07
 20
-38.976
 11
-5
 21
-38.976
  0
LINE
  8
0
 10
-5
 20
-38.976
 11
-5
 21
-34.476
  0
LINE
  8
0
 10
-5
 20
-34.476
 11
-4.99802
 21
-34.4132
  0
LINE
  8
0
 10
-4.99802
 20
-34.4132
 11
-4.99211
 21
-34.3507
  0
LINE
  8
0
 10
-4.99211
 20
-34.3507
 11
-4.98228
 21
-34.2886
  0
LINE
  8
0
 10
-4.98228
 20
-34.2886
 11
-4.96858
 21
-34.2273
  0
LINE
  8
0
 10
-4.96858
 20
-34.2273
 11
-4.95105
 21
-34.167
  0
LINE
  8
0
 10
-4.95105
 20
-34.167
 11
-4.92976
 21
-34.1079
  0
LINE
  8
0
 10
-4.92976
 20
-34.1079
 11
-4.90482
 21
-34.0502
  0
LINE
  8
0
 10
-4.90482
 20
-34.0502
 11
-4.8763
 21
-33.9942
  0
LINE
  8
0
 10
-4.8763
 20
-33.9942
 11
-4.84431
 21
-33.9402
  0
LINE
  8
0
 10
-4.84431
 20
-33.9402
 11
-4.80901
 21
-33.8882
  0
LINE
  8
0
 10
-4.80901
 20
-33.8882
 11
-4.77051
 21
-33.8386
  0
LINE
  8
0
 10
-4.77051
 20
-33.8386
 11
-4.72896
 21
-33.7915
  0
LINE
  8
0
 10
-4.72896
 20
-33.7915
 11
-4.68454
 21
-33.747
  0
LINE
  8
0
 10
-4.68454
 20
-33.747
 11
-4.63742
 21
-33.7055
  0
LINE
  8
0
 10
-4.63742
 20
-33.7055
 11
-4.58778
 21
-33.667
  0
LINE
  8
0
 10
-4.58778
 20
-33.667
 11
-4.53581
 21
-33.6317
  0
LINE
  8
0
 10
-4.53581
 20
-33.6317
 11
-4.48175
 21
-33.5997
  0
LINE
  8
0
 10
-4.48175
 20
-33.5997
 11
-4.42577
 21
-33.5712
  0
LINE
  8
0
 10
-4.42577
 20
-33.5712
 11
-4.36812
 21
-33.5462
  0
LINE
  8
0
 10
-4.36812
 20
-33.5462
 11
-4.30901
 21
-33.5249
  0
LINE
  8
0
 10
-4.30901
 20
-33.5249
 11
-4.24869
 21
-33.5074
  0
LINE
  8
0
 10
-4.24869
 20
-33.5074
 11
-4.18738
 21
-33.4937
  0
LINE
  8
0
 10
-4.18738
 20
-33.4937
 11
-4.12532
 21
-33.4839
  0
LINE
  8
0
 10
-4.12532
 20
-33.4839
 11
-4.06279
 21
-33.478
  0
LINE
  8
0
 10
-4.06279
 20
-33.478
 11
-4
 21
-33.476
  0
LINE
  8
0
 10
-4
 20
-33.476
 11
4
 21
-33.476
  0
LINE
  8
0
 10
4
 20
-33.476
 11
4.06279
 21
-33.478
  0
LINE
  8
0
 10
4.06279
 20
-33.478
 11
4.12532
 21
-33.4839
  0
LINE
  8
0
 10
4.12532
 20
-33.4839
 11
4.18738
 21
-33.4937
  0
LINE
  8
0
 10
4.18738
 20
-33.4937
 11
4.24869
 21
-33.5074
  0
LINE
  8
0
 10
4.24869
 20
-33.5074
 11
4.30901
 21
-33.5249
  0
LINE
  8
0
 10
4.30901
 20
-33.5249
 11
4.36812
 21
-33.5462
  0
LINE
  8
0
 10
4.36812
 20
-33.5462
 11
4.42577
 21
-33.5712
  0
LINE
  8
0
 10
4.42577
 20
-33.5712
 11
4.48175
 21
-33.5997
  0
LINE
  8
0
 10
4.48175
 20
-33.5997
 11
4.53581
 21
-33.6317
  0
LINE
  8
0
 10
4.53581
 20
-33.6317
 11
4.58778
 21
-33.667
  0
LINE
  8
0
 10
4.58778
 20
-33.667
 11
4.63742
 21
-33.7055
  0
LINE
  8
0
 10
4.63742
 20
-33.7055
 11
4.68454
 21
-33.747
  0
LINE
  8
0
 10
4.68454
 20
-33.747
 11
4.72896
 21
-33.7915
  0
LINE
  8
0
 10
4.72896
 20
-33.7915
 11
4.77051
 21
-33.8386
  0
LINE
  8
0
 10
4.77051
 20
-33.8386
 11
4.80901
 21
-33.8882
  0
LINE
  8
0
 10
4.80901
 20
-33.8882
 11
4.84431
 21
-33.9402
  0
LINE
  8
0
 10
4.84431
 20
-33.9402
 11
4.8763
 21
-33.9942
  0
LINE
  8
0
 10
4.8763
 20
-33.9942
 11
4.90482
 21
-34.0502
  0
LINE
  8
0
 10
4.90482
 20
-34.0502
 11
4.92976
 21
-34.1079
  0
LINE
  8
0
 10
4.92976
 20
-34.1079
 11
4.95105
 21
-34.167
  0
LINE
  8
0
 10
4.95105
 20
-34.167
 11
4.96858
 21
-34.2273
  0
LINE
  8
0
 10
4.96858
 20
-34.2273
 11
4.98228
 21
-34.2886
  0
LINE
  8
0
 10
4.98228
 20
-34.2886
 11
4.99211
 21
-34.3507
  0
LINE
  8
0
 10
4.99211
 20
-34.3507
 11
4.99802
 21
-34.4132
  0
LINE
  8
0
 10
4.99802
 20
-34.4132
 11
5
 21
-34.476
  0
LINE
  8
0
 10
5
 20
-34.476
 11
5
 21
-38.976
  0
LINE
  8
0
 10
5
 20
-38.976
 11
20.07
 21
-38.976
  0
LINE
  8
0
 10
20.07
 20
-38.976
 11
20.2584
 21
-38.9701
  0
LINE
  8
0
 10
19.9758
 20
34.479
 11
19.882
 21
34.4878
  0
LINE
  8
0
 10
19.882
 20
34.4878
 11
19.7889
 21
34.5026
  0
LINE
  8
0
 10
19.7889
 20
34.5026
 11
19.697
 21
34.5231
  0
LINE
  8
0
 10
19.697
 20
34.5231
 11
19.6065
 21
34.5494
  0
LINE
  8
0
 10
19.6065
 20
34.5494
 11
19.5178
 21
34.5813
  0
LINE
  8
0
 10
19.5178
 20
34.5813
 11
19.4313
 21
34.6188
  0
LINE
  8
0
 10
19.4313
 20
34.6188
 11
19.3474
 21
34.6615
  0
LINE
  8
0
 10
19.3474
 20
34.6615
 11
19.2663
 21
34.7095
  0
LINE
  8
0
 10
19.2663
 20
34.7095
 11
19.1883
 21
34.7625
  0
LINE
  8
0
 10
19.1883
 20
34.7625
 11
19.1139
 21
34.8202
  0
LINE
  8
0
 10
19.1139
 20
34.8202
 11
19.0432
 21
34.8825
  0
LINE
  8
0
 10
19.0432
 20
34.8825
 11
18.9765
 21
34.9492
  0
LINE
  8
0
 10
18.9765
 20
34.9492
 11
18.9142
 21
35.0199
  0
LINE
  8
0
 10
18.9142
 20
35.0199
 11
18.8565
 21
35.0943
  0
LINE
  8
0
 10
18.8565
 20
35.0943
 11
18.8035
 21
35.1723
  0
LINE
  8
0
 10
18.8035
 20
35.1723
 11
18.7555
 21
35.2534
  0
LINE
  8
0
 10
18.7555
 20
35.2534
 11
18.7128
 21
35.3373
  0
LINE
  8
0
 10
18.7128
 20
35.3373
 11
18.6753
 21
35.4238
  0
LINE
  8
0
 10
18.6753
 20
35.4238
 11
18.6434
 21
35.5125
  0
LINE
  8
0
 10
18.6434
 20
35.5125
 11
18.6171
 21
35.603
  0
LINE
  8
0
 10
18.6171
 20
35.603
 11
18.5966
 21
35.6949
  0
LINE
  8
0
 10
18.5966
 20
35.6949
 11
18.5818
 21
35.788
  0
LINE
  8
0
 10
18.5818
 20
35.788
 11
18.573
 21
35.8818
  0
LINE
  8
0
 10
18.573
 20
35.8818
 11
18.57
 21
35.976
  0
LINE
  8
0
 10
18.57
 20
35.976
 11
18.573
 21
36.0702
  0
LINE
  8
0
 10
18.573
 20
36.0702
 11
18.5818
 21
36.164
  0
LINE
  8
0
 10
18.5818
 20
36.164
 11
18.5966
 21
36.2571
  0
LINE
  8
0
 10
18.5966
 20
36.2571
 11
18.6171
 21
36.349
  0
LINE
  8
0
 10
18.6171
 20
36.349
 11
18.6434
 21
36.4395
  0
LINE
  8
0
 10
18.6434
 20
36.4395
 11
18.6753
 21
36.5282
  0
LINE
  8
0
 10
18.6753
 20
36.5282
 11
18.7128
 21
36.6147
  0
LINE
  8
0
 10
18.7128
 20
36.6147
 11
18.7555
 21
36.6986
  0
LINE
  8
0
 10
18.7555
 20
36.6986
 11
18.8035
 21
36.7797
  0
LINE
  8
0
 10
18.8035
 20
36.7797
 11
18.8565
 21
36.8577
  0
LINE
  8
0
 10
18.8565
 20
36.8577
 11
18.9142
 21
36.9321
  0
LINE
  8
0
 10
18.9142
 20
36.9321
 11
18.9765
 21
37.0028
  0
LINE
  8
0
 10
18.9765
 20
37.0028
 11
19.0432
 21
37.0694
  0
LINE
  8
0
 10
19.0432
 20
37.0694
 11
19.1139
 21
37.1318
  0
LINE
  8
0
 10
19.1139
 20
37.1318
 11
19.1883
 21
37.1895
  0
LINE
  8
0
 10
19.1883
 20
37.1895
 11
19.2663
 21
37.2425
  0
LINE
  8
0
 10
19.2663
 20
37.2425
 11
19.3474
 21
37.2905
  0
LINE
  8
0
 10
19.3474
 20
37.2905
 11
19.4313
 21
37.3332
  0
LINE
  8
0
 10
19.4313
 20
37.3332
 11
19.5178
 21
37.3707
  0
LINE
  8
0
 10
19.5178
 20
37.3707
 11
19.6065
 21
37.4026
  0
LINE
  8
0
 10
19.6065
 20
37.4026
 11
19.697
 21
37.4289
  0
LINE
  8
0
 10
19.697
 20
37.4289
 11
19.7889
 21
37.4494
  0
LINE
  8
0
 10
19.7889
 20
37.4494
 11
19.882
 21
37.4642
  0
LINE
  8
0
 10
19.882
 20
37.4642
 11
19.9758
 21
37.473
  0
LINE
  8
0
 10
19.9758
 20
37.473
 11
20.07
 21
37.476
  0
LINE
  8
0
 10
20.07
 20
37.476
 11
20.1642
 21
37.473
  0
LINE
  8
0
 10
20.1642
 20
37.473
 11
20.258
 21
37.4642
  0
LINE
  8
0
 10
20.258
 20
37.4642
 11
20.3511
 21
37.4494
  0
LINE
  8
0
 10
20.3511
 20
37.4494
 11
20.443
 21
37.4289
  0
LINE
  8
0
 10
20.443
 20
37.4289
 11
20.5335
 21
37.4026
  0
LINE
  8
0
 10
20.5335
 20
37.4026
 11
20.6222
 21
37.3707
  0
LINE
  8
0
 10
20.6222
 20
37.3707
 11
20.7087
 21
37.3332
  0
LINE
  8
0
 10
20.7087
 20
37.3332
 11
20.7926
 21
37.2905
  0
LINE
  8
0
 10
20.7926
 20
37.2905
 11
20.8737
 21
37.2425
  0
LINE
  8
0
 10
20.8737
 20
37.2425
 11
20.9517
 21
37.1895
  0
LINE
  8
0
 10
20.9517
 20
37.1895
 11
21.0261
 21
37.1318
  0
LINE
  8
0
 10
21.0261
 20
37.1318
 11
21.0968
 21
37.0694
  0
LINE
  8
0
 10
21.0968
 20
37.0694
 11
21.1635
 21
37.0028
  0
LINE
  8
0
 10
21.1635
 20
37.0028
 11
21.2258
 21
36.9321
  0
LINE
  8
0
 10
21.2258
 20
36.9321
 11
21.2835
 21
36.8577
  0
LINE
  8
0
 10
21.2835
 20
36.8577
 11
21.3365
 21
36.7797
  0
LINE
  8
0
 10
21.3365
 20
36.7797
 11
21.3844
 21
36.6986
  0
LINE
  8
0
 10
21.3844
 20
36.6986
 11
21.4272
 21
36.6147
  0
LINE
  8
0
 10
21.4272
 20
36.6147
 11
21.4647
 21
36.5282
  0
LINE
  8
0
 10
21.4647
 20
36.5282
 11
21.4966
 21
36.4395
  0
LINE
  8
0
 10
21.4966
 20
36.4395
 11
21.5229
 21
36.349
  0
LINE
  8
0
 10
21.5229
 20
36.349
 11
21.5434
 21
36.2571
  0
LINE
  8
0
 10
21.5434
 20
36.2571
 11
21.5582
 21
36.164
  0
LINE
  8
0
 10
21.5582
 20
36.164
 11
21.567
 21
36.0702
  0
LINE
  8
0
 10
21.567
 20
36.0702
 11
21.57
 21
35.976
  0
LINE
  8
0
 10
21.57
 20
35.976
 11
21.567
 21
35.8818
  0
LINE
  8
0
 10
21.567
 20
35.8818
 11
21.5582
 21
35.788
  0
LINE
  8
0
 10
21.5582
 20
35.788
 11
21.5434
 21
35.6949
  0
LINE
  8
0
 10
21.5434
 20
35.6949
 11
21.5229
 21
35.603
  0
LINE
  8
0
 10
21.5229
 20
35.603
 11
21.4966
 21
35.5125
  0
LINE
  8
0
 10
21.4966
 20
35.5125
 11
21.4647
 21
35.4238
  0
LINE
  8
0
 10
21.4647
 20
35.4238
 11
21.4272
 21
35.3373
  0
LINE
  8
0
 10
21.4272
 20
35.3373
 11
21.3844
 21
35.2534
  0
LINE
  8
0
 10
21.3844
 20
35.2534
 11
21.3365
 21
35.1723
  0
LINE
  8
0
 10
21.3365
 20
35.1723
 11
21.2835
 21
35.0943
  0
LINE
  8
0
 10
21.2835
 20
35.0943
 11
21.2258
 21
35.0199
  0
LINE
  8
0
 10
21.2258
 20
35.0199
 11
21.1635
 21
34.9492
  0
LINE
  8
0
 10
21.1635
 20
34.9492
 11
21.0968
 21
34.8825
  0
LINE
  8
0
 10
21.0968
 20
34.8825
 11
21.0261
 21
34.8202
  0
LINE
  8
0
 10
21.0261
 20
34.8202
 11
20.9517
 21
34.7625
  0
LINE
  8
0
 10
20.9517
 20
34.7625
 11
20.8737
 21
34.7095
  0
LINE
  8
0
 10
20.8737
 20
34.7095
 11
20.7926
 21
34.6615
  0
LINE
  8
0
 10
20.7926
 20
34.6615
 11
20.7087
 21
34.6188
  0
LINE
  8
0
 10
20.7087
 20
34.6188
 11
20.6222
 21
34.5813
  0
LINE
  8
0
 10
20.6222
 20
34.5813
 11
20.5335
 21
34.5494
  0
LINE
  8
0
 10
20.5335
 20
34.5494
 11
20.443
 21
34.5231
  0
LINE
  8
0
 10
20.443
 20
34.5231
 11
20.3511
 21
34.5026
  0
LINE
  8
0
 10
20.3511
 20
34.5026
 11
20.258
 21
34.4878
  0
LINE
  8
0
 10
20.258
 20
34.4878
 11
20.1642
 21
34.479
  0
LINE
  8
0
 10
20.1642
 20
34.479
 11
20.07
 21
34.476
  0
LINE
  8
0
 10
20.07
 20
34.476
 11
19.9758
 21
34.479
  0
LINE
  8
0
 10
-20.1642
 20
34.479
 11
-20.258
 21
34.4878
  0
LINE
  8
0
 10
-20.258
 20
34.4878
 11
-20.3511
 21
34.5026
  0
LINE
  8
0
 10
-20.3511
 20
34.5026
 11
-20.443
 21
34.5231
  0
LINE
  8
0
 10
-20.443
 20
34.5231
 11
-20.5335
 21
34.5494
  0
LINE
  8
0
 10
-20.5335
 20
34.5494
 11
-20.6222
 21
34.5813
  0
LINE
  8
0
 10
-20.6222
 20
34.5813
 11
-20.7087
 21
34.6188
  0
LINE
  8
0
 10
-20.7087
 20
34.6188
 11
-20.7926
 21
34.6615
  0
LINE
  8
0
 10
-20.7926
 20
34.6615
 11
-20.8737
 21
34.7095
  0
LINE
  8
0
 10
-20.8737
 20
34.7095
 11
-20.9517
 21
34.7625
  0
LINE
  8
0
 10
-20.9517
 20
34.7625
 11
-21.0261
 21
34.8202
  0
LINE
  8
0
 10
-21.0261
 20
34.8202
 11
-21.0968
 21
34.8825
  0
LINE
  8
0
 10
-21.0968
 20
34.8825
 11
-21.1635
 21
34.9492
  0
LINE
  8
0
 10
-21.1635
 20
34.9492
 11
-21.2258
 21
35.0199
  0
LINE
  8
0
 10
-21.2258
 20
35.0199
 11
-21.2835
 21
35.0943
  0
LINE
  8
0
 10
-21.2835
 20
35.0943
 11
-21.3365
 21
35.1723
  0
LINE
  8
0
 10
-21.3365
 20
35.1723
 11
-21.3844
 21
35.2534
  0
LINE
  8
0
 10
-21.3844
 20
35.2534
 11
-21.4272
 21
35.3373
  0
LINE
  8
0
 10
-21.4272
 20
35.3373
 11
-21.4647
 21
35.4238
  0
LINE
  8
0
 10
-21.4647
 20
35.4238
 11
-21.4966
 21
35.5125
  0
LINE
  8
0
 10
-21.4966
 20
35.5125
 11
-21.5229
 21
35.603
  0
LINE
  8
0
 10
-21.5229
 20
35.603
 11
-21.5434
 21
35.6949
  0
LINE
  8
0
 10
-21.5434
 20
35.6949
 11
-21.5582
 21
35.788
  0
LINE
  8
0
 10
-21.5582
 20
35.788
 11
-21.567
 21
35.8818
  0
LINE
  8
0
 10
-21.567
 20
35.8818
 11
-21.57
 21
35.976
  0
LINE
  8
0
 10
-21.57
 20
35.976
 11
-21.567
 21
36.0702
  0
LINE
  8
0
 10
-21.567
 20
36.0702
 11
-21.5582
 21
36.164
  0
LINE
  8
0
 10
-21.5582
 20
36.164
 11
-21.5434
 21
36.2571
  0
LINE
  8
0
 10
-21.5434
 20
36.2571
 11
-21.5229
 21
36.349
  0
LINE
  8
0
 10
-21.5229
 20
36.349
 11
-21.4966
 21
36.4395
  0
LINE
  8
0
 10
-21.4966
 20
36.4395
 11
-21.4647
 21
36.5282
  0
LINE
  8
0
 10
-21.4647
 20
36.5282
 11
-21.4272
 21
36.6147
  0
LINE
  8
0
 10
-21.4272
 20
36.6147
 11
-21.3844
 21
36.6986
  0
LINE
  8
0
 10
-21.3844
 20
36.6986
 11
-21.3365
 21
36.7797
  0
LINE
  8
0
 10
-21.3365
 20
36.7797
 11
-21.2835
 21
36.8577
  0
LINE
  8
0
 10
-21.2835
 20
36.8577
 11
-21.2258
 21
36.9321
  0
LINE
  8
0
 10
-21.2258
 20
36.9321
 11
-21.1635
 21
37.0028
  0
LINE
  8
0
 10
-21.1635
 20
37.0028
 11
-21.0968
 21
37.0694
  0
LINE
  8
0
 10
-21.0968
 20
37.0694
 11
-21.0261
 21
37.1318
  0
LINE
  8
0
 10
-21.0261
 20
37.1318
 11
-20.9517
 21
37.1895
  0
LINE
  8
0
 10
-20.9517
 20
37.1895
 11
-20.8737
 21
37.2425
  0
LINE
  8
0
 10
-20.8737
 20
37.2425
 11
-20.7926
 21
37.2905
  0
LINE
  8
0
 10
-20.7926
 20
37.2905
 11
-20.7087
 21
37.3332
  0
LINE
  8
0
 10
-20.7087
 20
37.3332
 11
-20.6222
 21
37.3707
  0
LINE
  8
0
 10
-20.6222
 20
37.3707
 11
-20.5335
 21
37.4026
  0
LINE
  8
0
 10
-20.5335
 20
37.4026
 11
-20.443
 21
37.4289
  0
LINE
  8
0
 10
-20.443
 20
37.4289
 11
-20.3511
 21
37.4494
  0
LINE
  8
0
 10
-20.3511
 20
37.4494
 11
-20.258
 21
37.4642
  0
LINE
  8
0
 10
-20.258
 20
37.4642
 11
-20.1642
 21
37.473
  0
LINE
  8
0
 10
-20.1642
 20
37.473
 11
-20.07
 21
37.476
  0
LINE
  8
0
 10
-20.07
 20
37.476
 11
-19.9758
 21
37.473
  0
LINE
  8
0
 10
-19.9758
 20
37.473
 11
-19.882
 21
37.4642
  0
LINE
  8
0
 10
-19.882
 20
37.4642
 11
-19.7889
 21
37.4494
  0
LINE
  8
0
 10
-19.7889
 20
37.4494
 11
-19.697
 21
37.4289
  0
LINE
  8
0
 10
-19.697
 20
37.4289
 11
-19.6065
 21
37.4026
  0
LINE
  8
0
 10
-19.6065
 20
37.4026
 11
-19.5178
 21
37.3707
  0
LINE
  8
0
 10
-19.5178
 20
37.3707
 11
-19.4313
 21
37.3332
  0
LINE
  8
0
 10
-19.4313
 20
37.3332
 11
-19.3474
 21
37.2905
  0
LINE
  8
0
 10
-19.3474
 20
37.2905
 11
-19.2663
 21
37.2425
  0
LINE
  8
0
 10
-19.2663
 20
37.2425
 11
-19.1883
 21
37.1895
  0
LINE
  8
0
 10
-19.1883
 20
37.1895
 11
-19.1139
 21
37.1318
  0
LINE
  8
0
 10
-19.1139
 20
37.1318
 11
-19.0432
 21
37.0694
  0
LINE
  8
0
 10
-19.0432
 20
37.0694
 11
-18.9765
 21
37.0028
  0
LINE
  8
0
 10
-18.9765
 20
37.0028
 11
-18.9142
 21
36.9321
  0
LINE
  8
0
 10
-18.9142
 20
36.9321
 11
-18.8565
 21
36.8577
  0
LINE
  8
0
 10
-18.8565
 20
36.8577
 11
-18.8035
 21
36.7797
  0
LINE
  8
0
 10
-18.8035
 20
36.7797
 11
-18.7555
 21
36.6986
  0
LINE
  8
0
 10
-18.7555
 20
36.6986
 11
-18.7128
 21
36.6147
  0
LINE
  8
0
 10
-18.7128
 20
36.6147
 11
-18.6753
 21
36.5282
  0
LINE
  8
0
 10
-18.6753
 20
36.5282
 11
-18.6434
 21
36.4395
  0
LINE
  8
0
 10
-18.6434
 20
36.4395
 11
-18.6171
 21
36.349
  0
LINE
  8
0
 10
-18.6171
 20
36.349
 11
-18.5966
 21
36.2571
  0
LINE
  8
0
 10
-18.5966
 20
36.2571
 11
-18.5818
 21
36.164
  0
LINE
  8
0
 10
-18.5818
 20
36.164
 11
-18.573
 21
36.0702
  0
LINE
  8
0
 10
-18.573
 20
36.0702
 11
-18.57
 21
35.976
  0
LINE
  8
0
 10
-18.57
 20
35.976
 11
-18.573
 21
35.8818
  0
LINE
  8
0
 10
-18.573
 20
35.8818
 11
-18.5818
 21
35.788
  0
LINE
  8
0
 10
-18.5818
 20
35.788
 11
-18.5966
 21
35.6949
  0
LINE
  8
0
 10
-18.5966
 20
35.6949
 11
-18.6171
 21
35.603
  0
LINE
  8
0
 10
-18.6171
 20
35.603
 11
-18.6434
 21
35.5125
  0
LINE
  8
0
 10
-18.6434
 20
35.5125
 11
-18.6753
 21
35.4238
  0
LINE
  8
0
 10
-18.6753
 20
35.4238
 11
-18.7128
 21
35.3373
  0
LINE
  8
0
 10
-18.7128
 20
35.3373
 11
-18.7555
 21
35.2534
  0
LINE
  8
0
 10
-18.7555
 20
35.2534
 11
-18.8035
 21
35.1723
  0
LINE
  8
0
 10
-18.8035
 20
35.1723
 11
-18.8565
 21
35.0943
  0
LINE
  8
0
 10
-18.8565
 20
35.0943
 11
-18.9142
 21
35.0199
  0
LINE
  8
0
 10
-18.9142
 20
35.0199
 11
-18.9765
 21
34.9492
  0
LINE
  8
0
 10
-18.9765
 20
34.9492
 11
-19.0432
 21
34.8825
  0
LINE
  8
0
 10
-19.0432
 20
34.8825
 11
-19.1139
 21
34.8202
  0
LINE
  8
0
 10
-19.1139
 20
34.8202
 11
-19.1883
 21
34.7625
  0
LINE
  8
0
 10
-19.1883
 20
34.7625
 11
-19.2663
 21
34.7095
  0
LINE
  8
0
 10
-19.2663
 20
34.7095
 11
-19.3474
 21
34.6615
  0
LINE
  8
0
 10
-19.3474
 20
34.6615
 11
-19.4313
 21
34.6188
  0
LINE
  8
0
 10
-19.4313
 20
34.6188
 11
-19.5178
 21
34.5813
  0
LINE
  8
0
 10
-19.5178
 20
34.5813
 11
-19.6065
 21
34.5494
  0
LINE
  8
0
 10
-19.6065
 20
34.5494
 11
-19.697
 21
34.5231
  0
LINE
  8
0
 10
-19.697
 20
34.5231
 11
-19.7889
 21
34.5026
  0
LINE
  8
0
 10
-19.7889
 20
34.5026
 11
-19.882
 21
34.4878
  0
LINE
  8
0
 10
-19.882
 20
34.4878
 11
-19.9758
 21
34.479
  0
LINE
  8
0
 10
-19.9758
 20
34.479
 11
-20.07
 21
34.476
  0
LINE
  8
0
 10
-20.07
 20
34.476
 11
-20.1642
 21
34.479
  0
LINE
  8
0
 10
-8.06999
 20
17.676
 11
-8.08884
 21
17.6766
  0
LINE
  8
0
 10
-8.08884
 20
17.6766
 11
-8.10759
 21
17.6784
  0
LINE
  8
0
 10
-8.10759
 20
17.6784
 11
-8.12621
 21
17.6813
  0
LINE
  8
0
 10
-8.12621
 20
17.6813
 11
-8.14459
 21
17.6854
  0
LINE
  8
0
 10
-8.14459
 20
17.6854
 11
-8.1627
 21
17.6907
  0
LINE
  8
0
 10
-8.1627
 20
17.6907
 11
-8.18044
 21
17.6971
  0
LINE
  8
0
 10
-8.18044
 20
17.6971
 11
-8.19772
 21
17.7045
  0
LINE
  8
0
 10
-8.19772
 20
17.7045
 11
-8.21452
 21
17.7131
  0
LINE
  8
0
 10
-8.21452
 20
17.7131
 11
-8.23074
 21
17.7227
  0
LINE
  8
0
 10
-8.23074
 20
17.7227
 11
-8.24632
 21
17.7333
  0
LINE
  8
0
 10
-8.24632
 20
17.7333
 11
-8.26122
 21
17.7448
  0
LINE
  8
0
 10
-8.26122
 20
17.7448
 11
-8.27536
 21
17.7573
  0
LINE
  8
0
 10
-8.27536
 20
17.7573
 11
-8.28868
 21
17.7706
  0
LINE
  8
0
 10
-8.28868
 20
17.7706
 11
-8.30115
 21
17.7848
  0
LINE
  8
0
 10
-8.30115
 20
17.7848
 11
-8.3127
 21
17.7997
  0
LINE
  8
0
 10
-8.3127
 20
17.7997
 11
-8.32329
 21
17.8152
  0
LINE
  8
0
 10
-8.32329
 20
17.8152
 11
-8.33289
 21
17.8315
  0
LINE
  8
0
 10
-8.33289
 20
17.8315
 11
-8.34145
 21
17.8483
  0
LINE
  8
0
 10
-8.34145
 20
17.8483
 11
-8.34892
 21
17.8656
  0
LINE
  8
0
 10
-8.34892
 20
17.8656
 11
-8.35532
 21
17.8833
  0
LINE
  8
0
 10
-8.35532
 20
17.8833
 11
-8.36057
 21
17.9014
  0
LINE
  8
0
 10
-8.36057
 20
17.9014
 11
-8.36469
 21
17.9198
  0
LINE
  8
0
 10
-8.36469
 20
17.9198
 11
-8.36763
 21
17.9384
  0
LINE
  8
0
 10
-8.36763
 20
17.9384
 11
-8.3694
 21
17.9572
  0
LINE
  8
0
 10
-8.3694
 20
17.9572
 11
-8.37
 21
17.976
  0
LINE
  8
0
 10
-8.37
 20
17.976
 11
-8.37
 21
31.976
  0
LINE
  8
0
 10
-8.37
 20
31.976
 11
-8.3694
 21
31.9948
  0
LINE
  8
0
 10
-8.3694
 20
31.9948
 11
-8.36763
 21
32.0136
  0
LINE
  8
0
 10
-8.36763
 20
32.0136
 11
-8.36469
 21
32.0322
  0
LINE
  8
0
 10
-8.36469
 20
32.0322
 11
-8.36057
 21
32.0506
  0
LINE
  8
0
 10
-8.36057
 20
32.0506
 11
-8.35532
 21
32.0687
  0
LINE
  8
0
 10
-8.35532
 20
32.0687
 11
-8.34892
 21
32.0864
  0
LINE
  8
0
 10
-8.34892
 20
32.0864
 11
-8.34145
 21
32.1037
  0
LINE
  8
0
 10
-8.34145
 20
32.1037
 11
-8.33289
 21
32.1205
  0
LINE
  8
0
 10
-8.33289
 20
32.1205
 11
-8.32329
 21
32.1367
  0
LINE
  8
0
 10
-8.32329
 20
32.1367
 11
-8.3127
 21
32.1523
  0
LINE
  8
0
 10
-8.3127
 20
32.1523
 11
-8.30115
 21
32.1672
  0
LINE
  8
0
 10
-8.30115
 20
32.1672
 11
-8.28868
 21
32.1814
  0
LINE
  8
0
 10
-8.28868
 20
32.1814
 11
-8.27536
 21
32.1947
  0
LINE
  8
0
 10
-8.27536
 20
32.1947
 11
-8.26122
 21
32.2072
  0
LINE
  8
0
 10
-8.26122
 20
32.2072
 11
-8.24632
 21
32.2187
  0
LINE
  8
0
 10
-8.24632
 20
32.2187
 11
-8.23074
 21
32.2293
  0
LINE
  8
0
 10
-8.23074
 20
32.2293
 11
-8.21452
 21
32.2389
  0
LINE
  8
0
 10
-8.21452
 20
32.2389
 11
-8.19772
 21
32.2474
  0
LINE
  8
0
 10
-8.19772
 20
32.2474
 11
-8.18044
 21
32.2549
  0
LINE
  8
0
 10
-8.18044
 20
32.2549
 11
-8.1627
 21
32.2613
  0
LINE
  8
0
 10
-8.1627
 20
32.2613
 11
-8.14459
 21
32.2666
  0
LINE
  8
0
 10
-8.14459
 20
32.2666
 11
-8.12621
 21
32.2707
  0
LINE
  8
0
 10
-8.12621
 20
32.2707
 11
-8.10759
 21
32.2736
  0
LINE
  8
0
 10
-8.10759
 20
32.2736
 11
-8.08884
 21
32.2754
  0
LINE
  8
0
 10
-8.08884
 20
32.2754
 11
-8.06999
 21
32.276
  0
LINE
  8
0
 10
-8.06999
 20
32.276
 11
5.92999
 21
32.276
  0
LINE
  8
0
 10
5.92999
 20
32.276
 11
5.94882
 21
32.2754
  0
LINE
  8
0
 10
5.94882
 20
32.2754
 11
5.96759
 21
32.2736
  0
LINE
  8
0
 10
5.96759
 20
32.2736
 11
5.98621
 21
32.2707
  0
LINE
  8
0
 10
5.98621
 20
32.2707
 11
6.00459
 21
32.2666
  0
LINE
  8
0
 10
6.00459
 20
32.2666
 11
6.02271
 21
32.2613
  0
LINE
  8
0
 10
6.02271
 20
32.2613
 11
6.04044
 21
32.2549
  0
LINE
  8
0
 10
6.04044
 20
32.2549
 11
6.05772
 21
32.2474
  0
LINE
  8
0
 10
6.05772
 20
32.2474
 11
6.07452
 21
32.2389
  0
LINE
  8
0
 10
6.07452
 20
32.2389
 11
6.09074
 21
32.2293
  0
LINE
  8
0
 10
6.09074
 20
32.2293
 11
6.10632
 21
32.2187
  0
LINE
  8
0
 10
6.10632
 20
32.2187
 11
6.12122
 21
32.2072
  0
LINE
  8
0
 10
6.12122
 20
32.2072
 11
6.13536
 21
32.1947
  0
LINE
  8
0
 10
6.13536
 20
32.1947
 11
6.14868
 21
32.1814
  0
LINE
  8
0
 10
6.14868
 20
32.1814
 11
6.16115
 21
32.1672
  0
LINE
  8
0
 10
6.16115
 20
32.1672
 11
6.1727
 21
32.1523
  0
LINE
  8
0
 10
6.1727
 20
32.1523
 11
6.18329
 21
32.1367
  0
LINE
  8
0
 10
6.18329
 20
32.1367
 11
6.19289
 21
32.1205
  0
LINE
  8
0
 10
6.19289
 20
32.1205
 11
6.20145
 21
32.1037
  0
LINE
  8
0
 10
6.20145
 20
32.1037
 11
6.20892
 21
32.0864
  0
LINE
  8
0
 10
6.20892
 20
32.0864
 11
6.21532
 21
32.0687
  0
LINE
  8
0
 10
6.21532
 20
32.0687
 11
6.22057
 21
32.0506
  0
LINE
  8
0
 10
6.22057
 20
32.0506
 11
6.22469
 21
32.0322
  0
LINE
  8
0
 10
6.22469
 20
32.0322
 11
6.22763
 21
32.0136
  0
LINE
  8
0
 10
6.22763
 20
32.0136
 11
6.2294
 21
31.9948
  0
LINE
  8
0
 10
6.2294
 20
31.9948
 11
6.23
 21
31.976
  0
LINE
  8
0
 10
6.23
 20
31.976
 11
6.23
 21
17.976
  0
LINE
  8
0
 10
6.23
 20
17.976
 11
6.2294
 21
17.9572
  0
LINE
  8
0
 10
6.2294
 20
17.9572
 11
6.22763
 21
17.9384
  0
LINE
  8
0
 10
6.22763
 20
17.9384
 11
6.22469
 21
17.9198
  0
LINE
  8
0
 10
6.22469
 20
17.9198
 11
6.22057
 21
17.9014
  0
LINE
  8
0
 10
6.22057
 20
17.9014
 11
6.21532
 21
17.8833
  0
LINE
  8
0
 10
6.21532
 20
17.8833
 11
6.20892
 21
17.8656
  0
LINE
  8
0
 10
6.20892
 20
17.8656
 11
6.20145
 21
17.8483
  0
LINE
  8
0
 10
6.20145
 20
17.8483
 11
6.19289
 21
17.8315
  0
LINE
  8
0
 10
6.19289
 20
17.8315
 11
6.18329
 21
17.8152
  0
LINE
  8
0
 10
6.18329
 20
17.8152
 11
6.1727
 21
17.7997
  0
LINE
  8
0
 10
6.1727
 20
17.7997
 11
6.16115
 21
17.7848
  0
LINE
  8
0
 10
6.16115
 20
17.7848
 11
6.14868
 21
17.7706
  0
LINE
  8
0
 10
6.14868
 20
17.7706
 11
6.13536
 21
17.7573
  0
LINE
  8
0
 10
6.13536
 20
17.7573
 11
6.12122
 21
17.7448
  0
LINE
  8
0
 10
6.12122
 20
17.7448
 11
6.10632
 21
17.7333
  0
LINE
  8
0
 10
6.10632
 20
17.7333
 11
6.09074
 21
17.7227
  0
LINE
  8
0
 10
6.09074
 20
17.7227
 11
6.07452
 21
17.7131
  0
LINE
  8
0
 10
6.07452
 20
17.7131
 11
6.05772
 21
17.7045
  0
LINE
  8
0
 10
6.05772
 20
17.7045
 11
6.04044
 21
17.6971
  0
LINE
  8
0
 10
6.04044
 20
17.6971
 11
6.02271
 21
17.6907
  0
LINE
  8
0
 10
6.02271
 20
17.6907
 11
6.00459
 21
17.6854
  0
LINE
  8
0
 10
6.00459
 20
17.6854
 11
5.98621
 21
17.6813
  0
LINE
  8
0
 10
5.98621
 20
17.6813
 11
5.96759
 21
17.6784
  0
LINE
  8
0
 10
5.96759
 20
17.6784
 11
5.94882
 21
17.6766
  0
LINE
  8
0
 10
5.94882
 20
17.6766
 11
5.92999
 21
17.676
  0
LINE
  8
0
 10
5.92999
 20
17.676
 11
-8.06999
 21
17.676
  0
LINE
  8
0
 10
-17.57
 20
-1.32401
 11
-17.5888
 21
-1.32341
  0
LINE
  8
0
 10
-17.5888
 20
-1.32341
 11
-17.6076
 21
-1.32164
  0
LINE
  8
0
 10
-17.6076
 20
-1.32164
 11
-17.6262
 21
-1.3187
  0
LINE
  8
0
 10
-17.6262
 20
-1.3187
 11
-17.6446
 21
-1.31458
  0
LINE
  8
0
 10
-17.6446
 20
-1.31458
 11
-17.6627
 21
-1.30933
  0
LINE
  8
0
 10
-17.6627
 20
-1.30933
 11
-17.6804
 21
-1.30295
  0
LINE
  8
0
 10
-17.6804
 20
-1.30295
 11
-17.6977
 21
-1.29546
  0
LINE
  8
0
 10
-17.6977
 20
-1.29546
 11
-17.7145
 21
-1.2869
  0
LINE
  8
0
 10
-17.7145
 20
-1.2869
 11
-17.7307
 21
-1.27731
  0
LINE
  8
0
 10
-17.7307
 20
-1.27731
 11
-17.7463
 21
-1.26671
  0
LINE
  8
0
 10
-17.7463
 20
-1.26671
 11
-17.7612
 21
-1.25516
  0
LINE
  8
0
 10
-17.7612
 20
-1.25516
 11
-17.7754
 21
-1.24269
  0
LINE
  8
0
 10
-17.7754
 20
-1.24269
 11
-17.7887
 21
-1.22937
  0
LINE
  8
0
 10
-17.7887
 20
-1.22937
 11
-17.8011
 21
-1.21524
  0
LINE
  8
0
 10
-17.8011
 20
-1.21524
 11
-17.8127
 21
-1.20035
  0
LINE
  8
0
 10
-17.8127
 20
-1.20035
 11
-17.8233
 21
-1.18475
  0
LINE
  8
0
 10
-17.8233
 20
-1.18475
 11
-17.8329
 21
-1.16853
  0
LINE
  8
0
 10
-17.8329
 20
-1.16853
 11
-17.8414
 21
-1.15175
  0
LINE
  8
0
 10
-17.8414
 20
-1.15175
 11
-17.8489
 21
-1.13445
  0
LINE
  8
0
 10
-17.8489
 20
-1.13445
 11
-17.8553
 21
-1.11671
  0
LINE
  8
0
 10
-17.8553
 20
-1.11671
 11
-17.8606
 21
-1.09862
  0
LINE
  8
0
 10
-17.8606
 20
-1.09862
 11
-17.8647
 21
-1.08022
  0
LINE
  8
0
 10
-17.8647
 20
-1.08022
 11
-17.8676
 21
-1.06161
  0
LINE
  8
0
 10
-17.8676
 20
-1.06161
 11
-17.8694
 21
-1.04285
  0
LINE
  8
0
 10
-17.8694
 20
-1.04285
 11
-17.87
 21
-1.024
  0
LINE
  8
0
 10
-17.87
 20
-1.024
 11
-17.87
 21
12.976
  0
LINE
  8
0
 10
-17.87
 20
12.976
 11
-17.8694
 21
12.9948
  0
LINE
  8
0
 10
-17.8694
 20
12.9948
 11
-17.8676
 21
13.0136
  0
LINE
  8
0
 10
-17.8676
 20
13.0136
 11
-17.8647
 21
13.0322
  0
LINE
  8
0
 10
-17.8647
 20
13.0322
 11
-17.8606
 21
13.0506
  0
LINE
  8
0
 10
-17.8606
 20
13.0506
 11
-17.8553
 21
13.0687
  0
LINE
  8
0
 10
-17.8553
 20
13.0687
 11
-17.8489
 21
13.0864
  0
LINE
  8
0
 10
-17.8489
 20
13.0864
 11
-17.8414
 21
13.1037
  0
LINE
  8
0
 10
-17.8414
 20
13.1037
 11
-17.8329
 21
13.1205
  0
LINE
  8
0
 10
-17.8329
 20
13.1205
 11
-17.8233
 21
13.1367
  0
LINE
  8
0
 10
-17.8233
 20
13.1367
 11
-17.8127
 21
13.1523
  0
LINE
  8
0
 10
-17.8127
 20
13.1523
 11
-17.8011
 21
13.1672
  0
LINE
  8
0
 10
-17.8011
 20
13.1672
 11
-17.7887
 21
13.1814
  0
LINE
  8
0
 10
-17.7887
 20
13.1814
 11
-17.7754
 21
13.1947
  0
LINE
  8
0
 10
-17.7754
 20
13.1947
 11
-17.7612
 21
13.2072
  0
LINE
  8
0
 10
-17.7612
 20
13.2072
 11
-17.7463
 21
13.2187
  0
LINE
  8
0
 10
-17.7463
 20
13.2187
 11
-17.7307
 21
13.2293
  0
LINE
  8
0
 10
-17.7307
 20
13.2293
 11
-17.7145
 21
13.2389
  0
LINE
  8
0
 10
-17.7145
 20
13.2389
 11
-17.6977
 21
13.2474
  0
LINE
  8
0
 10
-17.6977
 20
13.2474
 11
-17.6804
 21
13.2549
  0
LINE
  8
0
 10
-17.6804
 20
13.2549
 11
-17.6627
 21
13.2613
  0
LINE
  8
0
 10
-17.6627
 20
13.2613
 11
-17.6446
 21
13.2666
  0
LINE
  8
0
 10
-17.6446
 20
13.2666
 11
-17.6262
 21
13.2707
  0
LINE
  8
0
 10
-17.6262
 20
13.2707
 11
-17.6076
 21
13.2736
  0
LINE
  8
0
 10
-17.6076
 20
13.2736
 11
-17.5888
 21
13.2754
  0
LINE
  8
0
 10
-17.5888
 20
13.2754
 11
-17.57
 21
13.276
  0
LINE
  8
0
 10
-17.57
 20
13.276
 11
-3.56999
 21
13.276
  0
LINE
  8
0
 10
-3.56999
 20
13.276
 11
-3.55116
 21
13.2754
  0
LINE
  8
0
 10
-3.55116
 20
13.2754
 11
-3.53239
 21
13.2736
  0
LINE
  8
0
 10
-3.53239
 20
13.2736
 11
-3.51378
 21
13.2707
  0
LINE
  8
0
 10
-3.51378
 20
13.2707
 11
-3.49539
 21
13.2666
  0
LINE
  8
0
 10
-3.49539
 20
13.2666
 11
-3.47728
 21
13.2613
  0
LINE
  8
0
 10
-3.47728
 20
13.2613
 11
-3.45955
 21
13.2549
  0
LINE
  8
0
 10
-3.45955
 20
13.2549
 11
-3.44226
 21
13.2474
  0
LINE
  8
0
 10
-3.44226
 20
13.2474
 11
-3.42546
 21
13.2389
  0
LINE
  8
0
 10
-3.42546
 20
13.2389
 11
-3.40924
 21
13.2293
  0
LINE
  8
0
 10
-3.40924
 20
13.2293
 11
-3.39366
 21
13.2187
  0
LINE
  8
0
 10
-3.39366
 20
13.2187
 11
-3.37877
 21
13.2072
  0
LINE
  8
0
 10
-3.37877
 20
13.2072
 11
-3.36462
 21
13.1947
  0
LINE
  8
0
 10
-3.36462
 20
13.1947
 11
-3.3513
 21
13.1814
  0
LINE
  8
0
 10
-3.3513
 20
13.1814
 11
-3.33884
 21
13.1672
  0
LINE
  8
0
 10
-3.33884
 20
13.1672
 11
-3.32729
 21
13.1523
  0
LINE
  8
0
 10
-3.32729
 20
13.1523
 11
-3.3167
 21
13.1367
  0
LINE
  8
0
 10
-3.3167
 20
13.1367
 11
-3.3071
 21
13.1205
  0
LINE
  8
0
 10
-3.3071
 20
13.1205
 11
-3.29854
 21
13.1037
  0
LINE
  8
0
 10
-3.29854
 20
13.1037
 11
-3.29106
 21
13.0864
  0
LINE
  8
0
 10
-3.29106
 20
13.0864
 11
-3.28467
 21
13.0687
  0
LINE
  8
0
 10
-3.28467
 20
13.0687
 11
-3.27942
 21
13.0506
  0
LINE
  8
0
 10
-3.27942
 20
13.0506
 11
-3.2753
 21
13.0322
  0
LINE
  8
0
 10
-3.2753
 20
13.0322
 11
-3.27235
 21
13.0136
  0
LINE
  8
0
 10
-3.27235
 20
13.0136
 11
-3.27058
 21
12.9948
  0
LINE
  8
0
 10
-3.27058
 20
12.9948
 11
-3.26999
 21
12.976
  0
LINE
  8
0
 10
-3.26999
 20
12.976
 11
-3.26999
 21
-1.024
  0
LINE
  8
0
 10
-3.26999
 20
-1.024
 11
-3.27058
 21
-1.04285
  0
LINE
  8
0
 10
-3.27058
 20
-1.04285
 11
-3.27235
 21
-1.06161
  0
LINE
  8
0
 10
-3.27235
 20
-1.06161
 11
-3.2753
 21
-1.08022
  0
LINE
  8
0
 10
-3.2753
 20
-1.08022
 11
-3.27942
 21
-1.09862
  0
LINE
  8
0
 10
-3.27942
 20
-1.09862
 11
-3.28467
 21
-1.11671
  0
LINE
  8
0
 10
-3.28467
 20
-1.11671
 11
-3.29106
 21
-1.13445
  0
LINE
  8
0
 10
-3.29106
 20
-1.13445
 11
-3.29854
 21
-1.15175
  0
LINE
  8
0
 10
-3.29854
 20
-1.15175
 11
-3.3071
 21
-1.16853
  0
LINE
  8
0
 10
-3.3071
 20
-1.16853
 11
-3.3167
 21
-1.18475
  0
LINE
  8
0
 10
-3.3167
 20
-1.18475
 11
-3.32729
 21
-1.20035
  0
LINE
  8
0
 10
-3.32729
 20
-1.20035
 11
-3.33884
 21
-1.21524
  0
LINE
  8
0
 10
-3.33884
 20
-1.21524
 11
-3.3513
 21
-1.22937
  0
LINE
  8
0
 10
-3.3513
 20
-1.22937
 11
-3.36462
 21
-1.24269
  0
LINE
  8
0
 10
-3.36462
 20
-1.24269
 11
-3.37877
 21
-1.25516
  0
LINE
  8
0
 10
-3.37877
 20
-1.25516
 11
-3.39366
 21
-1.26671
  0
LINE
  8
0
 10
-3.39366
 20
-1.26671
 11
-3.40924
 21
-1.27731
  0
LINE
  8
0
 10
-3.40924
 20
-1.27731
 11
-3.42546
 21
-1.2869
  0
LINE
  8
0
 10
-3.42546
 20
-1.2869
 11
-3.44226
 21
-1.29546
  0
LINE
  8
0
 10
-3.44226
 20
-1.29546
 11
-3.45955
 21
-1.30295
  0
LINE
  8
0
 10
-3.45955
 20
-1.30295
 11
-3.47728
 21
-1.30933
  0
LINE
  8
0
 10
-3.47728
 20
-1.30933
 11
-3.49539
 21
-1.31458
  0
LINE
  8
0
 10
-3.49539
 20
-1.31458
 11
-3.51378
 21
-1.3187
  0
LINE
  8
0
 10
-3.51378
 20
-1.3187
 11
-3.53239
 21
-1.32164
  0
LINE
  8
0
 10
-3.53239
 20
-1.32164
 11
-3.55116
 21
-1.32341
  0
LINE
  8
0
 10
-3.55116
 20
-1.32341
 11
-3.56999
 21
-1.32401
  0
LINE
  8
0
 10
-3.56999
 20
-1.32401
 11
-17.57
 21
-1.32401
  0
LINE
  8
0
 10
1.42999
 20
-1.32401
 11
1.41115
 21
-1.32341
  0
LINE
  8
0
 10
1.41115
 20
-1.32341
 11
1.3924
 21
-1.32164
  0
LINE
  8
0
 10
1.3924
 20
-1.32164
 11
1.37378
 21
-1.3187
  0
LINE
  8
0
 10
1.37378
 20
-1.3187
 11
1.35539
 21
-1.31458
  0
LINE
  8
0
 10
1.35539
 20
-1.31458
 11
1.33728
 21
-1.30933
  0
LINE
  8
0
 10
1.33728
 20
-1.30933
 11
1.31955
 21
-1.30295
  0
LINE
  8
0
 10
1.31955
 20
-1.30295
 11
1.30226
 21
-1.29546
  0
LINE
  8
0
 10
1.30226
 20
-1.29546
 11
1.28546
 21
-1.2869
  0
LINE
  8
0
 10
1.28546
 20
-1.2869
 11
1.26924
 21
-1.27731
  0
LINE
  8
0
 10
1.26924
 20
-1.27731
 11
1.25366
 21
-1.26671
  0
LINE
  8
0
 10
1.25366
 20
-1.26671
 11
1.23877
 21
-1.25516
  0
LINE
  8
0
 10
1.23877
 20
-1.25516
 11
1.22462
 21
-1.24269
  0
LINE
  8
0
 10
1.22462
 20
-1.24269
 11
1.2113
 21
-1.22937
  0
LINE
  8
0
 10
1.2113
 20
-1.22937
 11
1.19884
 21
-1.21524
  0
LINE
  8
0
 10
1.19884
 20
-1.21524
 11
1.18729
 21
-1.20035
  0
LINE
  8
0
 10
1.18729
 20
-1.20035
 11
1.1767
 21
-1.18475
  0
LINE
  8
0
 10
1.1767
 20
-1.18475
 11
1.1671
 21
-1.16853
  0
LINE
  8
0
 10
1.1671
 20
-1.16853
 11
1.15854
 21
-1.15175
  0
LINE
  8
0
 10
1.15854
 20
-1.15175
 11
1.15106
 21
-1.13445
  0
LINE
  8
0
 10
1.15106
 20
-1.13445
 11
1.14467
 21
-1.11671
  0
LINE
  8
0
 10
1.14467
 20
-1.11671
 11
1.13942
 21
-1.09862
  0
LINE
  8
0
 10
1.13942
 20
-1.09862
 11
1.1353
 21
-1.08022
  0
LINE
  8
0
 10
1.1353
 20
-1.08022
 11
1.13235
 21
-1.06161
  0
LINE
  8
0
 10
1.13235
 20
-1.06161
 11
1.13058
 21
-1.04285
  0
LINE
  8
0
 10
1.13058
 20
-1.04285
 11
1.12999
 21
-1.024
  0
LINE
  8
0
 10
1.12999
 20
-1.024
 11
1.12999
 21
12.976
  0
LINE
  8
0
 10
1.12999
 20
12.976
 11
1.13058
 21
12.9948
  0
LINE
  8
0
 10
1.13058
 20
12.9948
 11
1.13235
 21
13.0136
  0
LINE
  8
0
 10
1.13235
 20
13.0136
 11
1.1353
 21
13.0322
  0
LINE
  8
0
 10
1.1353
 20
13.0322
 11
1.13942
 21
13.0506
  0
LINE
  8
0
 10
1.13942
 20
13.0506
 11
1.14467
 21
13.0687
  0
LINE
  8
0
 10
1.14467
 20
13.0687
 11
1.15106
 21
13.0864
  0
LINE
  8
0
 10
1.15106
 20
13.0864
 11
1.15854
 21
13.1037
  0
LINE
  8
0
 10
1.15854
 20
13.1037
 11
1.1671
 21
13.1205
  0
LINE
  8
0
 10
1.1671
 20
13.1205
 11
1.1767
 21
13.1367
  0
LINE
  8
0
 10
1.1767
 20
13.1367
 11
1.18729
 21
13.1523
  0
LINE
  8
0
 10
1.18729
 20
13.1523
 11
1.19884
 21
13.1672
  0
LINE
  8
0
 10
1.19884
 20
13.1672
 11
1.2113
 21
13.1814
  0
LINE
  8
0
 10
1.2113
 20
13.1814
 11
1.22462
 21
13.1947
  0
LINE
  8
0
 10
1.22462
 20
13.1947
 11
1.23877
 21
13.2072
  0
LINE
  8
0
 10
1.23877
 20
13.2072
 11
1.25366
 21
13.2187
  0
LINE
  8
0
 10
1.25366
 20
13.2187
 11
1.26924
 21
13.2293
  0
LINE
  8
0
 10
1.26924
 20
13.2293
 11
1.28546
 21
13.2389
  0
LINE
  8
0
 10
1.28546
 20
13.2389
 11
1.30226
 21
13.2474
  0
LINE
  8
0
 10
1.30226
 20
13.2474
 11
1.31955
 21
13.2549
  0
LINE
  8
0
 10
1.31955
 20
13.2549
 11
1.33728
 21
13.2613
  0
LINE
  8
0
 10
1.33728
 20
13.2613
 11
1.35539
 21
13.2666
  0
LINE
  8
0
 10
1.35539
 20
13.2666
 11
1.37378
 21
13.2707
  0
LINE
  8
0
 10
1.37378
 20
13.2707
 11
1.3924
 21
13.2736
  0
LINE
  8
0
 10
1.3924
 20
13.2736
 11
1.41115
 21
13.2754
  0
LINE
  8
0
 10
1.41115
 20
13.2754
 11
1.42999
 21
13.276
  0
LINE
  8
0
 10
1.42999
 20
13.276
 11
15.43
 21
13.276
  0
LINE
  8
0
 10
15.43
 20
13.276
 11
15.4488
 21
13.2754
  0
LINE
  8
0
 10
15.4488
 20
13.2754
 11
15.4676
 21
13.2736
  0
LINE
  8
0
 10
15.4676
 20
13.2736
 11
15.4862
 21
13.2707
  0
LINE
  8
0
 10
15.4862
 20
13.2707
 11
15.5046
 21
13.2666
  0
LINE
  8
0
 10
15.5046
 20
13.2666
 11
15.5227
 21
13.2613
  0
LINE
  8
0
 10
15.5227
 20
13.2613
 11
15.5404
 21
13.2549
  0
LINE
  8
0
 10
15.5404
 20
13.2549
 11
15.5577
 21
13.2474
  0
LINE
  8
0
 10
15.5577
 20
13.2474
 11
15.5745
 21
13.2389
  0
LINE
  8
0
 10
15.5745
 20
13.2389
 11
15.5907
 21
13.2293
  0
LINE
  8
0
 10
15.5907
 20
13.2293
 11
15.6063
 21
13.2187
  0
LINE
  8
0
 10
15.6063
 20
13.2187
 11
15.6212
 21
13.2072
  0
LINE
  8
0
 10
15.6212
 20
13.2072
 11
15.6354
 21
13.1947
  0
LINE
  8
0
 10
15.6354
 20
13.1947
 11
15.6487
 21
13.1814
  0
LINE
  8
0
 10
15.6487
 20
13.1814
 11
15.6611
 21
13.1672
  0
LINE
  8
0
 10
15.6611
 20
13.1672
 11
15.6727
 21
13.1523
  0
LINE
  8
0
 10
15.6727
 20
13.1523
 11
15.6833
 21
13.1367
  0
LINE
  8
0
 10
15.6833
 20
13.1367
 11
15.6929
 21
13.1205
  0
LINE
  8
0
 10
15.6929
 20
13.1205
 11
15.7014
 21
13.1037
  0
LINE
  8
0
 10
15.7014
 20
13.1037
 11
15.7089
 21
13.0864
  0
LINE
  8
0
 10
15.7089
 20
13.0864
 11
15.7153
 21
13.0687
  0
LINE
  8
0
 10
15.7153
 20
13.0687
 11
15.7206
 21
13.0506
  0
LINE
  8
0
 10
15.7206
 20
13.0506
 11
15.7247
 21
13.0322
  0
LINE
  8
0
 10
15.7247
 20
13.0322
 11
15.7276
 21
13.0136
  0
LINE
  8
0
 10
15.7276
 20
13.0136
 11
15.7294
 21
12.9948
  0
LINE
  8
0
 10
15.7294
 20
12.9948
 11
15.73
 21
12.976
  0
LINE
  8
0
 10
15.73
 20
12.976
 11
15.73
 21
-1.024
  0
LINE
  8
0
 10
15.73
 20
-1.024
 11
15.7294
 21
-1.04285
  0
LINE
  8
0
 10
15.7294
 20
-1.04285
 11
15.7276
 21
-1.06161
  0
LINE
  8
0
 10
15.7276
 20
-1.06161
 11
15.7247
 21
-1.08022
  0
LINE
  8
0
 10
15.7247
 20
-1.08022
 11
15.7206
 21
-1.09862
  0
LINE
  8
0
 10
15.7206
 20
-1.09862
 11
15.7153
 21
-1.11671
  0
LINE
  8
0
 10
15.7153
 20
-1.11671
 11
15.7089
 21
-1.13445
  0
LINE
  8
0
 10
15.7089
 20
-1.13445
 11
15.7014
 21
-1.15175
  0
LINE
  8
0
 10
15.7014
 20
-1.15175
 11
15.6929
 21
-1.16853
  0
LINE
  8
0
 10
15.6929
 20
-1.16853
 11
15.6833
 21
-1.18475
  0
LINE
  8
0
 10
15.6833
 20
-1.18475
 11
15.6727
 21
-1.20035
  0
LINE
  8
0
 10
15.6727
 20
-1.20035
 11
15.6611
 21
-1.21524
  0
LINE
  8
0
 10
15.6611
 20
-1.21524
 11
15.6487
 21
-1.22937
  0
LINE
  8
0
 10
15.6487
 20
-1.22937
 11
15.6354
 21
-1.24269
  0
LINE
  8
0
 10
15.6354
 20
-1.24269
 11
15.6212
 21
-1.25516
  0
LINE
  8
0
 10
15.6212
 20
-1.25516
 11
15.6063
 21
-1.26671
  0
LINE
  8
0
 10
15.6063
 20
-1.26671
 11
15.5907
 21
-1.27731
  0
LINE
  8
0
 10
15.5907
 20
-1.27731
 11
15.5745
 21
-1.2869
  0
LINE
  8
0
 10
15.5745
 20
-1.2869
 11
15.5577
 21
-1.29546
  0
LINE
  8
0
 10
15.5577
 20
-1.29546
 11
15.5404
 21
-1.30295
  0
LINE
  8
0
 10
15.5404
 20
-1.30295
 11
15.5227
 21
-1.30933
  0
LINE
  8
0
 10
15.5227
 20
-1.30933
 11
15.5046
 21
-1.31458
  0
LINE
  8
0
 10
15.5046
 20
-1.31458
 11
15.4862
 21
-1.3187
  0
LINE
  8
0
 10
15.4862
 20
-1.3187
 11
15.4676
 21
-1.32164
  0
LINE
  8
0
 10
15.4676
 20
-1.32164
 11
15.4488
 21
-1.32341
  0
LINE
  8
0
 10
15.4488
 20
-1.32341
 11
15.43
 21
-1.32401
  0
LINE
  8
0
 10
15.43
 20
-1.32401
 11
1.42999
 21
-1.32401
  0
LINE
  8
0
 10
-7.5
 20
-26.988
 11
-7.56279
 21
-26.986
  0
LINE
  8
0
 10
-7.56279
 20
-26.986
 11
-7.62532
 21
-26.9801
  0
LINE
  8
0
 10
-7.62532
 20
-26.9801
 11
-7.68738
 21
-26.9703
  0
LINE
  8
0
 10
-7.68738
 20
-26.9703
 11
-7.74869
 21
-26.9566
  0
LINE
  8
0
 10
-7.74869
 20
-26.9566
 11
-7.80901
 21
-26.939
  0
LINE
  8
0
 10
-7.80901
 20
-26.939
 11
-7.86812
 21
-26.9178
  0
LINE
  8
0
 10
-7.86812
 20
-26.9178
 11
-7.92577
 21
-26.8928
  0
LINE
  8
0
 10
-7.92577
 20
-26.8928
 11
-7.98175
 21
-26.8643
  0
LINE
  8
0
 10
-7.98175
 20
-26.8643
 11
-8.03581
 21
-26.8323
  0
LINE
  8
0
 10
-8.03581
 20
-26.8323
 11
-8.08778
 21
-26.797
  0
LINE
  8
0
 10
-8.08778
 20
-26.797
 11
-8.13742
 21
-26.7585
  0
LINE
  8
0
 10
-8.13742
 20
-26.7585
 11
-8.18454
 21
-26.7169
  0
LINE
  8
0
 10
-8.18454
 20
-26.7169
 11
-8.22896
 21
-26.6725
  0
LINE
  8
0
 10
-8.22896
 20
-26.6725
 11
-8.27051
 21
-26.6254
  0
LINE
  8
0
 10
-8.27051
 20
-26.6254
 11
-8.30901
 21
-26.5758
  0
LINE
  8
0
 10
-8.30901
 20
-26.5758
 11
-8.34431
 21
-26.5238
  0
LINE
  8
0
 10
-8.34431
 20
-26.5238
 11
-8.3763
 21
-26.4697
  0
LINE
  8
0
 10
-8.3763
 20
-26.4697
 11
-8.40482
 21
-26.4138
  0
LINE
  8
0
 10
-8.40482
 20
-26.4138
 11
-8.42976
 21
-26.3561
  0
LINE
  8
0
 10
-8.42976
 20
-26.3561
 11
-8.45105
 21
-26.297
  0
LINE
  8
0
 10
-8.45105
 20
-26.297
 11
-8.46858
 21
-26.2367
  0
LINE
  8
0
 10
-8.46858
 20
-26.2367
 11
-8.48228
 21
-26.1754
  0
LINE
  8
0
 10
-8.48228
 20
-26.1754
 11
-8.49211
 21
-26.1133
  0
LINE
  8
0
 10
-8.49211
 20
-26.1133
 11
-8.49802
 21
-26.0508
  0
LINE
  8
0
 10
-8.49802
 20
-26.0508
 11
-8.5
 21
-25.988
  0
LINE
  8
0
 10
-8.5
 20
-25.988
 11
-8.5
 21
-12.988
  0
LINE
  8
0
 10
-8.5
 20
-12.988
 11
-8.49802
 21
-12.9252
  0
LINE
  8
0
 10
-8.49802
 20
-12.9252
 11
-8.49211
 21
-12.8627
  0
LINE
  8
0
 10
-8.49211
 20
-12.8627
 11
-8.48228
 21
-12.8006
  0
LINE
  8
0
 10
-8.48228
 20
-12.8006
 11
-8.46858
 21
-12.7393
  0
LINE
  8
0
 10
-8.46858
 20
-12.7393
 11
-8.45105
 21
-12.679
  0
LINE
  8
0
 10
-8.45105
 20
-12.679
 11
-8.42976
 21
-12.6199
  0
LINE
  8
0
 10
-8.42976
 20
-12.6199
 11
-8.40482
 21
-12.5622
  0
LINE
  8
0
 10
-8.40482
 20
-12.5622
 11
-8.3763
 21
-12.5062
  0
LINE
  8
0
 10
-8.3763
 20
-12.5062
 11
-8.34431
 21
-12.4522
  0
LINE
  8
0
 10
-8.34431
 20
-12.4522
 11
-8.30901
 21
-12.4002
  0
LINE
  8
0
 10
-8.30901
 20
-12.4002
 11
-8.27051
 21
-12.3506
  0
LINE
  8
0
 10
-8.27051
 20
-12.3506
 11
-8.22896
 21
-12.3035
  0
LINE
  8
0
 10
-8.22896
 20
-12.3035
 11
-8.18454
 21
-12.259
  0
LINE
  8
0
 10
-8.18454
 20
-12.259
 11
-8.13742
 21
-12.2175
  0
LINE
  8
0
 10
-8.13742
 20
-12.2175
 11
-8.08778
 21
-12.179
  0
LINE
  8
0
 10
-8.08778
 20
-12.179
 11
-8.03581
 21
-12.1437
  0
LINE
  8
0
 10
-8.03581
 20
-12.1437
 11
-7.98175
 21
-12.1117
  0
LINE
  8
0
 10
-7.98175
 20
-12.1117
 11
-7.92577
 21
-12.0832
  0
LINE
  8
0
 10
-7.92577
 20
-12.0832
 11
-7.86812
 21
-12.0582
  0
LINE
  8
0
 10
-7.86812
 20
-12.0582
 11
-7.80901
 21
-12.0369
  0
LINE
  8
0
 10
-7.80901
 20
-12.0369
 11
-7.74869
 21
-12.0194
  0
LINE
  8
0
 10
-7.74869
 20
-12.0194
 11
-7.68738
 21
-12.0057
  0
LINE
  8
0
 10
-7.68738
 20
-12.0057
 11
-7.62532
 21
-11.9959
  0
LINE
  8
0
 10
-7.62532
 20
-11.9959
 11
-7.56279
 21
-11.99
  0
LINE
  8
0
 10
-7.56279
 20
-11.99
 11
-7.5
 21
-11.988
  0
LINE
  8
0
 10
-7.5
 20
-11.988
 11
-4.5
 21
-11.988
  0
LINE
  8
0
 10
-4.5
 20
-11.988
 11
-4.5
 21
-7.99399
  0
LINE
  8
0
 10
-4.5
 20
-7.99399
 11
-4.49802
 21
-7.9312
  0
LINE
  8
0
 10
-4.49802
 20
-7.9312
 11
-4.49211
 21
-7.86867
  0
LINE
  8
0
 10
-4.49211
 20
-7.86867
 11
-4.48228
 21
-7.80661
  0
LINE
  8
0
 10
-4.48228
 20
-7.80661
 11
-4.46858
 21
-7.7453
  0
LINE
  8
0
 10
-4.46858
 20
-7.7453
 11
-4.45105
 21
-7.68498
  0
LINE
  8
0
 10
-4.45105
 20
-7.68498
 11
-4.42976
 21
-7.62587
  0
LINE
  8
0
 10
-4.42976
 20
-7.62587
 11
-4.40482
 21
-7.56822
  0
LINE
  8
0
 10
-4.40482
 20
-7.56822
 11
-4.3763
 21
-7.51224
  0
LINE
  8
0
 10
-4.3763
 20
-7.51224
 11
-4.34431
 21
-7.45818
  0
LINE
  8
0
 10
-4.34431
 20
-7.45818
 11
-4.30901
 21
-7.4062
  0
LINE
  8
0
 10
-4.30901
 20
-7.4062
 11
-4.27051
 21
-7.35657
  0
LINE
  8
0
 10
-4.27051
 20
-7.35657
 11
-4.22896
 21
-7.30945
  0
LINE
  8
0
 10
-4.22896
 20
-7.30945
 11
-4.18454
 21
-7.26503
  0
LINE
  8
0
 10
-4.18454
 20
-7.26503
 11
-4.13742
 21
-7.22348
  0
LINE
  8
0
 10
-4.13742
 20
-7.22348
 11
-4.08778
 21
-7.18498
  0
LINE
  8
0
 10
-4.08778
 20
-7.18498
 11
-4.03581
 21
-7.14967
  0
LINE
  8
0
 10
-4.03581
 20
-7.14967
 11
-3.98175
 21
-7.11769
  0
LINE
  8
0
 10
-3.98175
 20
-7.11769
 11
-3.92577
 21
-7.08917
  0
LINE
  8
0
 10
-3.92577
 20
-7.08917
 11
-3.86812
 21
-7.06422
  0
LINE
  8
0
 10
-3.86812
 20
-7.06422
 11
-3.80901
 21
-7.04294
  0
LINE
  8
0
 10
-3.80901
 20
-7.04294
 11
-3.74869
 21
-7.02541
  0
LINE
  8
0
 10
-3.74869
 20
-7.02541
 11
-3.68738
 21
-7.0117
  0
LINE
  8
0
 10
-3.68738
 20
-7.0117
 11
-3.62532
 21
-7.00188
  0
LINE
  8
0
 10
-3.62532
 20
-7.00188
 11
-3.56279
 21
-6.99597
  0
LINE
  8
0
 10
-3.56279
 20
-6.99597
 11
-3.5
 21
-6.99399
  0
LINE
  8
0
 10
-3.5
 20
-6.99399
 11
3.5
 21
-6.99399
  0
LINE
  8
0
 10
3.5
 20
-6.99399
 11
3.56279
 21
-6.99597
  0
LINE
  8
0
 10
3.56279
 20
-6.99597
 11
3.62532
 21
-7.00188
  0
LINE
  8
0
 10
3.62532
 20
-7.00188
 11
3.68738
 21
-7.0117
  0
LINE
  8
0
 10
3.68738
 20
-7.0117
 11
3.74869
 21
-7.02541
  0
LINE
  8
0
 10
3.74869
 20
-7.02541
 11
3.80901
 21
-7.04294
  0
LINE
  8
0
 10
3.80901
 20
-7.04294
 11
3.86812
 21
-7.06422
  0
LINE
  8
0
 10
3.86812
 20
-7.06422
 11
3.92577
 21
-7.08917
  0
LINE
  8
0
 10
3.92577
 20
-7.08917
 11
3.98175
 21
-7.11769
  0
LINE
  8
0
 10
3.98175
 20
-7.11769
 11
4.03581
 21
-7.14967
  0
LINE
  8
0
 10
4.03581
 20
-7.14967
 11
4.08778
 21
-7.18498
  0
LINE
  8
0
 10
4.08778
 20
-7.18498
 11
4.13742
 21
-7.22348
  0
LINE
  8
0
 10
4.13742
 20
-7.22348
 11
4.18454
 21
-7.26503
  0
LINE
  8
0
 10
4.18454
 20
-7.26503
 11
4.22896
 21
-7.30945
  0
LINE
  8
0
 10
4.22896
 20
-7.30945
 11
4.27051
 21
-7.35657
  0
LINE
  8
0
 10
4.27051
 20
-7.35657
 11
4.30901
 21
-7.4062
  0
LINE
  8
0
 10
4.30901
 20
-7.4062
 11
4.34431
 21
-7.45818
  0
LINE
  8
0
 10
4.34431
 20
-7.45818
 11
4.3763
 21
-7.51224
  0
LINE
  8
0
 10
4.3763
 20
-7.51224
 11
4.40482
 21
-7.56822
  0
LINE
  8
0
 10
4.40482
 20
-7.56822
 11
4.42976
 21
-7.62587
  0
LINE
  8
0
 10
4.42976
 20
-7.62587
 11
4.45105
 21
-7.68498
  0
LINE
  8
0
 10
4.45105
 20
-7.68498
 11
4.46858
 21
-7.7453
  0
LINE
  8
0
 10
4.46858
 20
-7.7453
 11
4.48228
 21
-7.80661
  0
LINE
  8
0
 10
4.48228
 20
-7.80661
 11
4.49211
 21
-7.86867
  0
LINE
  8
0
 10
4.49211
 20
-7.86867
 11
4.49802
 21
-7.9312
  0
LINE
  8
0
 10
4.49802
 20
-7.9312
 11
4.5
 21
-7.99399
  0
LINE
  8
0
 10
4.5
 20
-7.99399
 11
4.5
 21
-11.988
  0
LINE
  8
0
 10
4.5
 20
-11.988
 11
7.5
 21
-11.988
  0
LINE
  8
0
 10
7.5
 20
-11.988
 11
7.56279
 21
-11.99
  0
LINE
  8
0
 10
7.56279
 20
-11.99
 11
7.62532
 21
-11.9959
  0
LINE
  8
0
 10
7.62532
 20
-11.9959
 11
7.68738
 21
-12.0057
  0
LINE
  8
0
 10
7.68738
 20
-12.0057
 11
7.74869
 21
-12.0194
  0
LINE
  8
0
 10
7.74869
 20
-12.0194
 11
7.80901
 21
-12.0369
  0
LINE
  8
0
 10
7.80901
 20
-12.0369
 11
7.86812
 21
-12.0582
  0
LINE
  8
0
 10
7.86812
 20
-12.0582
 11
7.92577
 21
-12.0832
  0
LINE
  8
0
 10
7.92577
 20
-12.0832
 11
7.98175
 21
-12.1117
  0
LINE
  8
0
 10
7.98175
 20
-12.1117
 11
8.03581
 21
-12.1437
  0
LINE
  8
0
 10
8.03581
 20
-12.1437
 11
8.08778
 21
-12.179
  0
LINE
  8
0
 10
8.08778
 20
-12.179
 11
8.13742
 21
-12.2175
  0
LINE
  8
0
 10
8.13742
 20
-12.2175
 11
8.18454
 21
-12.259
  0
LINE
  8
0
 10
8.18454
 20
-12.259
 11
8.22896
 21
-12.3035
  0
LINE
  8
0
 10
8.22896
 20
-12.3035
 11
8.27051
 21
-12.3506
  0
LINE
  8
0
 10
8.27051
 20
-12.3506
 11
8.30901
 21
-12.4002
  0
LINE
  8
0
 10
8.30901
 20
-12.4002
 11
8.34431
 21
-12.4522
  0
LINE
  8
0
 10
8.34431
 20
-12.4522
 11
8.3763
 21
-12.5062
  0
LINE
  8
0
 10
8.3763
 20
-12.5062
 11
8.40482
 21
-12.5622
  0
LINE
  8
0
 10
8.40482
 20
-12.5622
 11
8.42976
 21
-12.6199
  0
LINE
  8
0
 10
8.42976
 20
-12.6199
 11
8.45105
 21
-12.679
  0
LINE
  8
0
 10
8.45105
 20
-12.679
 11
8.46858
 21
-12.7393
  0
LINE
  8
0
 10
8.46858
 20
-12.7393
 11
8.48228
 21
-12.8006
  0
LINE
  8
0
 10
8.48228
 20
-12.8006
 11
8.49211
 21
-12.8627
  0
LINE
  8
0
 10
8.49211
 20
-12.8627
 11
8.49802
 21
-12.9252
  0
LINE
  8
0
 10
8.49802
 20
-12.9252
 11
8.5
 21
-12.988
  0
LINE
  8
0
 10
8.5
 20
-12.988
 11
8.5
 21
-25.988
  0
LINE
  8
0
 10
8.5
 20
-25.988
 11
8.49802
 21
-26.0508
  0
LINE
  8
0
 10
8.49802
 20
-26.0508
 11
8.49211
 21
-26.1133
  0
LINE
  8
0
 10
8.49211
 20
-26.1133
 11
8.48228
 21
-26.1754
  0
LINE
  8
0
 10
8.48228
 20
-26.1754
 11
8.46858
 21
-26.2367
  0
LINE
  8
0
 10
8.46858
 20
-26.2367
 11
8.45105
 21
-26.297
  0
LINE
  8
0
 10
8.45105
 20
-26.297
 11
8.42976
 21
-26.3561
  0
LINE
  8
0
 10
8.42976
 20
-26.3561
 11
8.40482
 21
-26.4138
  0
LINE
  8
0
 10
8.40482
 20
-26.4138
 11
8.3763
 21
-26.4697
  0
LINE
  8
0
 10
8.3763
 20
-26.4697
 11
8.34431
 21
-26.5238
  0
LINE
  8
0
 10
8.34431
 20
-26.5238
 11
8.30901
 21
-26.5758
  0
LINE
  8
0
 10
8.30901
 20
-26.5758
 11
8.27051
 21
-26.6254
  0
LINE
  8
0
 10
8.27051
 20
-26.6254
 11
8.22896
 21
-26.6725
  0
LINE
  8
0
 10
8.22896
 20
-26.6725
 11
8.18454
 21
-26.7169
  0
LINE
  8
0
 10
8.18454
 20
-26.7169
 11
8.13742
 21
-26.7585
  0
LINE
  8
0
 10
8.13742
 20
-26.7585
 11
8.08778
 21
-26.797
  0
LINE
  8
0
 10
8.08778
 20
-26.797
 11
8.03581
 21
-26.8323
  0
LINE
  8
0
 10
8.03581
 20
-26.8323
 11
7.98175
 21
-26.8643
  0
LINE
  8
0
 10
7.98175
 20
-26.8643
 11
7.92577
 21
-26.8928
  0
LINE
  8
0
 10
7.92577
 20
-26.8928
 11
7.86812
 21
-26.9178
  0
LINE
  8
0
 10
7.86812
 20
-26.9178
 11
7.80901
 21
-26.939
  0
LINE
  8
0
 10
7.80901
 20
-26.939
 11
7.74869
 21
-26.9566
  0
LINE
  8
0
 10
7.74869
 20
-26.9566
 11
7.68738
 21
-26.9703
  0
LINE
  8
0
 10
7.68738
 20
-26.9703
 11
7.62532
 21
-26.9801
  0
LINE
  8
0
 10
7.62532
 20
-26.9801
 11
7.56279
 21
-26.986
  0
LINE
  8
0
 10
7.56279
 20
-26.986
 11
7.5
 21
-26.988
  0
LINE
  8
0
 10
7.5
 20
-26.988
 11
-7.5
 21
-26.988
  0
LINE
  8
0
 10
-20.1642
 20
-37.473
 11
-20.258
 21
-37.4642
  0
LINE
  8
0
 10
-20.258
 20
-37.4642
 11
-20.3511
 21
-37.4494
  0
LINE
  8
0
 10
-20.3511
 20
-37.4494
 11
-20.443
 21
-37.4289
  0
LINE
  8
0
 10
-20.443
 20
-37.4289
 11
-20.5335
 21
-37.4026
  0
LINE
  8
0
 10
-20.5335
 20
-37.4026
 11
-20.6222
 21
-37.3707
  0
LINE
  8
0
 10
-20.6222
 20
-37.3707
 11
-20.7087
 21
-37.3332
  0
LINE
  8
0
 10
-20.7087
 20
-37.3332
 11
-20.7926
 21
-37.2905
  0
LINE
  8
0
 10
-20.7926
 20
-37.2905
 11
-20.8737
 21
-37.2425
  0
LINE
  8
0
 10
-20.8737
 20
-37.2425
 11
-20.9517
 21
-37.1895
  0
LINE
  8
0
 10
-20.9517
 20
-37.1895
 11
-21.0261
 21
-37.1318
  0
LINE
  8
0
 10
-21.0261
 20
-37.1318
 11
-21.0968
 21
-37.0694
  0
LINE
  8
0
 10
-21.0968
 20
-37.0694
 11
-21.1635
 21
-37.0028
  0
LINE
  8
0
 10
-21.1635
 20
-37.0028
 11
-21.2258
 21
-36.9321
  0
LINE
  8
0
 10
-21.2258
 20
-36.9321
 11
-21.2835
 21
-36.8577
  0
LINE
  8
0
 10
-21.2835
 20
-36.8577
 11
-21.3365
 21
-36.7797
  0
LINE
  8
0
 10
-21.3365
 20
-36.7797
 11
-21.3844
 21
-36.6986
  0
LINE
  8
0
 10
-21.3844
 20
-36.6986
 11
-21.4272
 21
-36.6147
  0
LINE
  8
0
 10
-21.4272
 20
-36.6147
 11
-21.4647
 21
-36.5282
  0
LINE
  8
0
 10
-21.4647
 20
-36.5282
 11
-21.4966
 21
-36.4395
  0
LINE
  8
0
 10
-21.4966
 20
-36.4395
 11
-21.5229
 21
-36.349
  0
LINE
  8
0
 10
-21.5229
 20
-36.349
 11
-21.5434
 21
-36.2571
  0
LINE
  8
0
 10
-21.5434
 20
-36.2571
 11
-21.5582
 21
-36.164
  0
LINE
  8
0
 10
-21.5582
 20
-36.164
 11
-21.567
 21
-36.0702
  0
LINE
  8
0
 10
-21.567
 20
-36.0702
 11
-21.57
 21
-35.976
  0
LINE
  8
0
 10
-21.57
 20
-35.976
 11
-21.567
 21
-35.8818
  0
LINE
  8
0
 10
-21.567
 20
-35.8818
 11
-21.5582
 21
-35.788
  0
LINE
  8
0
 10
-21.5582
 20
-35.788
 11
-21.5434
 21
-35.6949
  0
LINE
  8
0
 10
-21.5434
 20
-35.6949
 11
-21.5229
 21
-35.603
  0
LINE
  8
0
 10
-21.5229
 20
-35.603
 11
-21.4966
 21
-35.5125
  0
LINE
  8
0
 10
-21.4966
 20
-35.5125
 11
-21.4647
 21
-35.4238
  0
LINE
  8
0
 10
-21.4647
 20
-35.4238
 11
-21.4272
 21
-35.3373
  0
LINE
  8
0
 10
-21.4272
 20
-35.3373
 11
-21.3844
 21
-35.2534
  0
LINE
  8
0
 10
-21.3844
 20
-35.2534
 11
-21.3365
 21
-35.1723
  0
LINE
  8
0
 10
-21.3365
 20
-35.1723
 11
-21.2835
 21
-35.0943
  0
LINE
  8
0
 10
-21.2835
 20
-35.0943
 11
-21.2258
 21
-35.0199
  0
LINE
  8
0
 10
-21.2258
 20
-35.0199
 11
-21.1635
 21
-34.9492
  0
LINE
  8
0
 10
-21.1635
 20
-34.9492
 11
-21.0968
 21
-34.8825
  0
LINE
  8
0
 10
-21.0968
 20
-34.8825
 11
-21.0261
 21
-34.8202
  0
LINE
  8
0
 10
-21.0261
 20
-34.8202
 11
-20.9517
 21
-34.7625
  0
LINE
  8
0
 10
-20.9517
 20
-34.7625
 11
-20.8737
 21
-34.7095
  0
LINE
  8
0
 10
-20.8737
 20
-34.7095
 11
-20.7926
 21
-34.6615
  0
LINE
  8
0
 10
-20.7926
 20
-34.6615
 11
-20.7087
 21
-34.6188
  0
LINE
  8
0
 10
-20.7087
 20
-34.6188
 11
-20.6222
 21
-34.5813
  0
LINE
  8
0
 10
-20.6222
 20
-34.5813
 11
-20.5335
 21
-34.5494
  0
LINE
  8
0
 10
-20.5335
 20
-34.5494
 11
-20.443
 21
-34.5231
  0
LINE
  8
0
 10
-20.443
 20
-34.5231
 11
-20.3511
 21
-34.5026
  0
LINE
  8
0
 10
-20.3511
 20
-34.5026
 11
-20.258
 21
-34.4878
  0
LINE
  8
0
 10
-20.258
 20
-34.4878
 11
-20.1642
 21
-34.479
  0
LINE
  8
0
 10
-20.1642
 20
-34.479
 11
-20.07
 21
-34.476
  0
LINE
  8
0
 10
-20.07
 20
-34.476
 11
-19.9758
 21
-34.479
  0
LINE
  8
0
 10
-19.9758
 20
-34.479
 11
-19.882
 21
-34.4878
  0
LINE
  8
0
 10
-19.882
 20
-34.4878
 11
-19.7889
 21
-34.5026
  0
LINE
  8
0
 10
-19.7889
 20
-34.5026
 11
-19.697
 21
-34.5231
  0
LINE
  8
0
 10
-19.697
 20
-34.5231
 11
-19.6065
 21
-34.5494
  0
LINE
  8
0
 10
-19.6065
 20
-34.5494
 11
-19.5178
 21
-34.5813
  0
LINE
  8
0
 10
-19.5178
 20
-34.5813
 11
-19.4313
 21
-34.6188
  0
LINE
  8
0
 10
-19.4313
 20
-34.6188
 11
-19.3474
 21
-34.6615
  0
LINE
  8
0
 10
-19.3474
 20
-34.6615
 11
-19.2663
 21
-34.7095
  0
LINE
  8
0
 10
-19.2663
 20
-34.7095
 11
-19.1883
 21
-34.7625
  0
LINE
  8
0
 10
-19.1883
 20
-34.7625
 11
-19.1139
 21
-34.8202
  0
LINE
  8
0
 10
-19.1139
 20
-34.8202
 11
-19.0432
 21
-34.8825
  0
LINE
  8
0
 10
-19.0432
 20
-34.8825
 11
-18.9765
 21
-34.9492
  0
LINE
  8
0
 10
-18.9765
 20
-34.9492
 11
-18.9142
 21
-35.0199
  0
LINE
  8
0
 10
-18.9142
 20
-35.0199
 11
-18.8565
 21
-35.0943
  0
LINE
  8
0
 10
-18.8565
 20
-35.0943
 11
-18.8035
 21
-35.1723
  0
LINE
  8
0
 10
-18.8035
 20
-35.1723
 11
-18.7555
 21
-35.2534
  0
LINE
  8
0
 10
-18.7555
 20
-35.2534
 11
-18.7128
 21
-35.3373
  0
LINE
  8
0
 10
-18.7128
 20
-35.3373
 11
-18.6753
 21
-35.4238
  0
LINE
  8
0
 10
-18.6753
 20
-35.4238
 11
-18.6434
 21
-35.5125
  0
LINE
  8
0
 10
-18.6434
 20
-35.5125
 11
-18.6171
 21
-35.603
  0
LINE
  8
0
 10
-18.6171
 20
-35.603
 11
-18.5966
 21
-35.6949
  0
LINE
  8
0
 10
-18.5966
 20
-35.6949
 11
-18.5818
 21
-35.788
  0
LINE
  8
0
 10
-18.5818
 20
-35.788
 11
-18.573
 21
-35.8818
  0
LINE
  8
0
 10
-18.573
 20
-35.8818
 11
-18.57
 21
-35.976
  0
LINE
  8
0
 10
-18.57
 20
-35.976
 11
-18.573
 21
-36.0702
  0
LINE
  8
0
 10
-18.573
 20
-36.0702
 11
-18.5818
 21
-36.164
  0
LINE
  8
0
 10
-18.5818
 20
-36.164
 11
-18.5966
 21
-36.2571
  0
LINE
  8
0
 10
-18.5966
 20
-36.2571
 11
-18.6171
 21
-36.349
  0
LINE
  8
0
 10
-18.6171
 20
-36.349
 11
-18.6434
 21
-36.4395
  0
LINE
  8
0
 10
-18.6434
 20
-36.4395
 11
-18.6753
 21
-36.5282
  0
LINE
  8
0
 10
-18.6753
 20
-36.5282
 11
-18.7128
 21
-36.6147
  0
LINE
  8
0
 10
-18.7128
 20
-36.6147
 11
-18.7555
 21
-36.6986
  0
LINE
  8
0
 10
-18.7555
 20
-36.6986
 11
-18.8035
 21
-36.7797
  0
LINE
  8
0
 10
-18.8035
 20
-36.7797
 11
-18.8565
 21
-36.8577
  0
LINE
  8
0
 10
-18.8565
 20
-36.8577
 11
-18.9142
 21
-36.9321
  0
LINE
  8
0
 10
-18.9142
 20
-36.9321
 11
-18.9765
 21
-37.0028
  0
LINE
  8
0
 10
-18.9765
 20
-37.0028
 11
-19.0432
 21
-37.0694
  0
LINE
  8
0
 10
-19.0432
 20
-37.0694
 11
-19.1139
 21
-37.1318
  0
LINE
  8
0
 10
-19.1139
 20
-37.1318
 11
-19.1883
 21
-37.1895
  0
LINE
  8
0
 10
-19.1883
 20
-37.1895
 11
-19.2663
 21
-37.2425
  0
LINE
  8
0
 10
-19.2663
 20
-37.2425
 11
-19.3474
 21
-37.2905
  0
LINE
  8
0
 10
-19.3474
 20
-37.2905
 11
-19.4313
 21
-37.3332
  0
LINE
  8
0
 10
-19.4313
 20
-37.3332
 11
-19.5178
 21
-37.3707
  0
LINE
  8
0
 10
-19.5178
 20
-37.3707
 11
-19.6065
 21
-37.4026
  0
LINE
  8
0
 10
-19.6065
 20
-37.4026
 11
-19.697
 21
-37.4289
  0
LINE
  8
0
 10
-19.697
 20
-37.4289
 11
-19.7889
 21
-37.4494
  0
LINE
  8
0
 10
-19.7889
 20
-37.4494
 11
-19.882
 21
-37.4642
  0
LINE
  8
0
 10
-19.882
 20
-37.4642
 11
-19.9758
 21
-37.473
  0
LINE
  8
0
 10
-19.9758
 20
-37.473
 11
-20.07
 21
-37.476
  0
LINE
  8
0
 10
-20.07
 20
-37.476
 11
-20.1642
 21
-37.473
  0
LINE
  8
0
 10
19.9758
 20
-37.473
 11
19.882
 21
-37.4642
  0
LINE
  8
0
 10
19.882
 20
-37.4642
 11
19.7889
 21
-37.4494
  0
LINE
  8
0
 10
19.7889
 20
-37.4494
 11
19.697
 21
-37.4289
  0
LINE
  8
0
 10
19.697
 20
-37.4289
 11
19.6065
 21
-37.4026
  0
LINE
  8
0
 10
19.6065
 20
-37.4026
 11
19.5178
 21
-37.3707
  0
LINE
  8
0
 10
19.5178
 20
-37.3707
 11
19.4313
 21
-37.3332
  0
LINE
  8
0
 10
19.4313
 20
-37.3332
 11
19.3474
 21
-37.2905
  0
LINE
  8
0
 10
19.3474
 20
-37.2905
 11
19.2663
 21
-37.2425
  0
LINE
  8
0
 10
19.2663
 20
-37.2425
 11
19.1883
 21
-37.1895
  0
LINE
  8
0
 10
19.1883
 20
-37.1895
 11
19.1139
 21
-37.1318
  0
LINE
  8
0
 10
19.1139
 20
-37.1318
 11
19.0432
 21
-37.0694
  0
LINE
  8
0
 10
19.0432
 20
-37.0694
 11
18.9765
 21
-37.0028
  0
LINE
  8
0
 10
18.9765
 20
-37.0028
 11
18.9142
 21
-36.9321
  0
LINE
  8
0
 10
18.9142
 20
-36.9321
 11
18.8565
 21
-36.8577
  0
LINE
  8
0
 10
18.8565
 20
-36.8577
 11
18.8035
 21
-36.7797
  0
LINE
  8
0
 10
18.8035
 20
-36.7797
 11
18.7555
 21
-36.6986
  0
LINE
  8
0
 10
18.7555
 20
-36.6986
 11
18.7128
 21
-36.6147
  0
LINE
  8
0
 10
18.7128
 20
-36.6147
 11
18.6753
 21
-36.5282
  0
LINE
  8
0
 10
18.6753
 20
-36.5282
 11
18.6434
 21
-36.4395
  0
LINE
  8
0
 10
18.6434
 20
-36.4395
 11
18.6171
 21
-36.349
  0
LINE
  8
0
 10
18.6171
 20
-36.349
 11
18.5966
 21
-36.2571
  0
LINE
  8
0
 10
18.5966
 20
-36.2571
 11
18.5818
 21
-36.164
  0
LINE
  8
0
 10
18.5818
 20
-36.164
 11
18.573
 21
-36.0702
  0
LINE
  8
0
 10
18.573
 20
-36.0702
 11
18.57
 21
-35.976
  0
LINE
  8
0
 10
18.57
 20
-35.976
 11
18.573
 21
-35.8818
  0
LINE
  8
0
 10
18.573
 20
-35.8818
 11
18.5818
 21
-35.788
  0
LINE
  8
0
 10
18.5818
 20
-35.788
 11
18.5966
 21
-35.6949
  0
LINE
  8
0
 10
18.5966
 20
-35.6949
 11
18.6171
 21
-35.603
  0
LINE
  8
0
 10
18.6171
 20
-35.603
 11
18.6434
 21
-35.5125
  0
LINE
  8
0
 10
18.6434
 20
-35.5125
 11
18.6753
 21
-35.4238
  0
LINE
  8
0
 10
18.6753
 20
-35.4238
 11
18.7128
 21
-35.3373
  0
LINE
  8
0
 10
18.7128
 20
-35.3373
 11
18.7555
 21
-35.2534
  0
LINE
  8
0
 10
18.7555
 20
-35.2534
 11
18.8035
 21
-35.1723
  0
LINE
  8
0
 10
18.8035
 20
-35.1723
 11
18.8565
 21
-35.0943
  0
LINE
  8
0
 10
18.8565
 20
-35.0943
 11
18.9142
 21
-35.0199
  0
LINE
  8
0
 10
18.9142
 20
-35.0199
 11
18.9765
 21
-34.9492
  0
LINE
  8
0
 10
18.9765
 20
-34.9492
 11
19.0432
 21
-34.8825
  0
LINE
  8
0
 10
19.0432
 20
-34.8825
 11
19.1139
 21
-34.8202
  0
LINE
  8
0
 10
19.1139
 20
-34.8202
 11
19.1883
 21
-34.7625
  0
LINE
  8
0
 10
19.1883
 20
-34.7625
 11
19.2663
 21
-34.7095
  0
LINE
  8
0
 10
19.2663
 20
-34.7095
 11
19.3474
 21
-34.6615
  0
LINE
  8
0
 10
19.3474
 20
-34.6615
 11
19.4313
 21
-34.6188
  0
LINE
  8
0
 10
19.4313
 20
-34.6188
 11
19.5178
 21
-34.5813
  0
LINE
  8
0
 10
19.5178
 20
-34.5813
 11
19.6065
 21
-34.5494
  0
LINE
  8
0
 10
19.6065
 20
-34.5494
 11
19.697
 21
-34.5231
  0
LINE
  8
0
 10
19.697
 20
-34.5231
 11
19.7889
 21
-34.5026
  0
LINE
  8
0
 10
19.7889
 20
-34.5026
 11
19.882
 21
-34.4878
  0
LINE
  8
0
 10
19.882
 20
-34.4878
 11
19.9758
 21
-34.479
  0
LINE
  8
0
 10
19.9758
 20
-34.479
 11
20.07
 21
-34.476
  0
LINE
  8
0
 10
20.07
 20
-34.476
 11
20.1642
 21
-34.479
  0
LINE
  8
0
 10
20.1642
 20
-34.479
 11
20.258
 21
-34.4878
  0
LINE
  8
0
 10
20.258
 20
-34.4878
 11
20.3511
 21
-34.5026
  0
LINE
  8
0
 10
20.3511
 20
-34.5026
 11
20.443
 21
-34.5231
  0
LINE
  8
0
 10
20.443
 20
-34.5231
 11
20.5335
 21
-34.5494
  0
LINE
  8
0
 10
20.5335
 20
-34.5494
 11
20.6222
 21
-34.5813
  0
LINE
  8
0
 10
20.6222
 20
-34.5813
 11
20.7087
 21
-34.6188
  0
LINE
  8
0
 10
20.7087
 20
-34.6188
 11
20.7926
 21
-34.6615
  0
LINE
  8
0
 10
20.7926
 20
-34.6615
 11
20.8737
 21
-34.7095
  0
LINE
  8
0
 10
20.8737
 20
-34.7095
 11
20.9517
 21
-34.7625
  0
LINE
  8
0
 10
20.9517
 20
-34.7625
 11
21.0261
 21
-34.8202
  0
LINE
  8
0
 10
21.0261
 20
-34.8202
 11
21.0968
 21
-34.8825
  0
LINE
  8
0
 10
21.0968
 20
-34.8825
 11
21.1635
 21
-34.9492
  0
LINE
  8
0
 10
21.1635
 20
-34.9492
 11
21.2258
 21
-35.0199
  0
LINE
  8
0
 10
21.2258
 20
-35.0199
 11
21.2835
 21
-35.0943
  0
LINE
  8
0
 10
21.2835
 20
-35.0943
 11
21.3365
 21
-35.1723
  0
LINE
  8
0
 10
21.3365
 20
-35.1723
 11
21.3844
 21
-35.2534
  0
LINE
  8
0
 10
21.3844
 20
-35.2534
 11
21.4272
 21
-35.3373
  0
LINE
  8
0
 10
21.4272
 20
-35.3373
 11
21.4647
 21
-35.4238
  0
LINE
  8
0
 10
21.4647
 20
-35.4238
 11
21.4966
 21
-35.5125
  0
LINE
  8
0
 10
21.4966
 20
-35.5125
 11
21.5229
 21
-35.603
  0
LINE
  8
0
 10
21.5229
 20
-35.603
 11
21.5434
 21
-35.6949
  0
LINE
  8
0
 10
21.5434
 20
-35.6949
 11
21.5582
 21
-35.788
  0
LINE
  8
0
 10
21.5582
 20
-35.788
 11
21.567
 21
-35.8818
  0
LINE
  8
0
 10
21.567
 20
-35.8818
 11
21.57
 21
-35.976
  0
LINE
  8
0
 10
21.57
 20
-35.976
 11
21.567
 21
-36.0702
  0
LINE
  8
0
 10
21.567
 20
-36.0702
 11
21.5582
 21
-36.164
  0
LINE
  8
0
 10
21.5582
 20
-36.164
 11
21.5434
 21
-36.2571
  0
LINE
  8
0
 10
21.5434
 20
-36.2571
 11
21.5229
 21
-36.349
  0
LINE
  8
0
 10
21.5229
 20
-36.349
 11
21.4966
 21
-36.4395
  0
LINE
  8
0
 10
21.4966
 20
-36.4395
 11
21.4647
 21
-36.5282
  0
LINE
  8
0
 10
21.4647
 20
-36.5282
 11
21.4272
 21
-36.6147
  0
LINE
  8
0
 10
21.4272
 20
-36.6147
 11
21.3844
 21
-36.6986
  0
LINE
  8
0
 10
21.3844
 20
-36.6986
 11
21.3365
 21
-36.7797
  0
LINE
  8
0
 10
21.3365
 20
-36.7797
 11
21.2835
 21
-36.8577
  0
LINE
  8
0
 10
21.2835
 20
-36.8577
 11
21.2258
 21
-36.9321
  0
LINE
  8
0
 10
21.2258
 20
-36.9321
 11
21.1635
 21
-37.0028
  0
LINE
  8
0
 10
21.1635
 20
-37.0028
 11
21.0968
 21
-37.0694
  0
LINE
  8
0
 10
21.0968
 20
-37.0694
 11
21.0261
 21
-37.1318
  0
LINE
  8
0
 10
21.0261
 20
-37.1318
 11
20.9517
 21
-37.1895
  0
LINE
  8
0
 10
20.9517
 20
-37.1895
 11
20.8737
 21
-37.2425
  0
LINE
  8
0
 10
20.8737
 20
-37.2425
 11
20.7926
 21
-37.2905
  0
LINE
  8
0
 10
20.7926
 20
-37.2905
 11
20.7087
 21
-37.3332
  0
LINE
  8
0
 10
20.7087
 20
-37.3332
 11
20.6222
 21
-37.3707
  0
LINE
  8
0
 10
20.6222
 20
-37.3707
 11
20.5335
 21
-37.4026
  0
LINE
  8
0
 10
20.5335
 20
-37.4026
 11
20.443
 21
-37.4289
  0
LINE
  8
0
 10
20.443
 20
-37.4289
 11
20.3511
 21
-37.4494
  0
LINE
  8
0
 10
20.3511
 20
-37.4494
 11
20.258
 21
-37.4642
  0
LINE
  8
0
 10
20.258
 20
-37.4642
 11
20.1642
 21
-37.473
  0
LINE
  8
0
 10
20.1642
 20
-37.473
 11
20.07
 21
-37.476
  0
LINE
  8
0
 10
20.07
 20
-37.476
 11
19.9758
 21
-37.473
  0
ENDSEC
  0
SECTION
  2
OBJECTS
  0
DICTIONARY
  0
ENDSEC
  0
EOF
