  0
SECTION
  2
BLOCKS
  0
ENDSEC
  0
SECTION
  2
ENTITIES
  0
LINE
  8
0
 10
19.7584
 20
-38.2201
 11
19.946
 21
-38.2023
  0
LINE
  8
0
 10
19.946
 20
-38.2023
 11
20.1321
 21
-38.1729
  0
LINE
  8
0
 10
20.1321
 20
-38.1729
 11
20.3161
 21
-38.1317
  0
LINE
  8
0
 10
20.3161
 20
-38.1317
 11
20.497
 21
-38.0792
  0
LINE
  8
0
 10
20.497
 20
-38.0792
 11
20.6744
 21
-38.0153
  0
LINE
  8
0
 10
20.6744
 20
-38.0153
 11
20.8473
 21
-37.9405
  0
LINE
  8
0
 10
20.8473
 20
-37.9405
 11
21.0153
 21
-37.8549
  0
LINE
  8
0
 10
21.0153
 20
-37.8549
 11
21.1775
 21
-37.759
  0
LINE
  8
0
 10
21.1775
 20
-37.759
 11
21.3333
 21
-37.653
  0
LINE
  8
0
 10
21.3333
 20
-37.653
 11
21.4823
 21
-37.5375
  0
LINE
  8
0
 10
21.4823
 20
-37.5375
 11
21.6236
 21
-37.4129
  0
LINE
  8
0
 10
21.6236
 20
-37.4129
 11
21.7569
 21
-37.2796
  0
LINE
  8
0
 10
21.7569
 20
-37.2796
 11
21.8815
 21
-37.1383
  0
LINE
  8
0
 10
21.8815
 20
-37.1383
 11
21.997
 21
-36.9893
  0
LINE
  8
0
 10
21.997
 20
-36.9893
 11
22.103
 21
-36.8335
  0
LINE
  8
0
 10
22.103
 20
-36.8335
 11
22.1989
 21
-36.6712
  0
LINE
  8
0
 10
22.1989
 20
-36.6712
 11
22.2845
 21
-36.5033
  0
LINE
  8
0
 10
22.2845
 20
-36.5033
 11
22.3593
 21
-36.3304
  0
LINE
  8
0
 10
22.3593
 20
-36.3304
 11
22.4232
 21
-36.153
  0
LINE
  8
0
 10
22.4232
 20
-36.153
 11
22.4757
 21
-35.9721
  0
LINE
  8
0
 10
22.4757
 20
-35.9721
 11
22.5169
 21
-35.7881
  0
LINE
  8
0
 10
22.5169
 20
-35.7881
 11
22.5463
 21
-35.602
  0
LINE
  8
0
 10
22.5463
 20
-35.602
 11
22.5641
 21
-35.4144
  0
LINE
  8
0
 10
22.5641
 20
-35.4144
 11
22.57
 21
-35.226
  0
LINE
  8
0
 10
22.57
 20
-35.226
 11
22.57
 21
35.226
  0
LINE
  8
0
 10
22.57
 20
35.226
 11
22.5641
 21
35.4144
  0
LINE
  8
0
 10
22.5641
 20
35.4144
 11
22.5463
 21
35.602
  0
LINE
  8
0
 10
22.5463
 20
35.602
 11
22.5169
 21
35.7881
  0
LINE
  8
0
 10
22.5169
 20
35.7881
 11
22.4757
 21
35.9721
  0
LINE
  8
0
 10
22.4757
 20
35.9721
 11
22.4232
 21
36.153
  0
LINE
  8
0
 10
22.4232
 20
36.153
 11
22.3593
 21
36.3304
  0
LINE
  8
0
 10
22.3593
 20
36.3304
 11
22.2845
 21
36.5033
  0
LINE
  8
0
 10
22.2845
 20
36.5033
 11
22.1989
 21
36.6712
  0
LINE
  8
0
 10
22.1989
 20
36.6712
 11
22.103
 21
36.8335
  0
LINE
  8
0
 10
22.103
 20
36.8335
 11
21.997
 21
36.9893
  0
LINE
  8
0
 10
21.997
 20
36.9893
 11
21.8815
 21
37.1383
  0
LINE
  8
0
 10
21.8815
 20
37.1383
 11
21.7569
 21
37.2796
  0
LINE
  8
0
 10
21.7569
 20
37.2796
 11
21.6236
 21
37.4129
  0
LINE
  8
0
 10
21.6236
 20
37.4129
 11
21.4823
 21
37.5375
  0
LINE
  8
0
 10
21.4823
 20
37.5375
 11
21.3333
 21
37.653
  0
LINE
  8
0
 10
21.3333
 20
37.653
 11
21.1775
 21
37.759
  0
LINE
  8
0
 10
21.1775
 20
37.759
 11
21.0153
 21
37.8549
  0
LINE
  8
0
 10
21.0153
 20
37.8549
 11
20.8473
 21
37.9405
  0
LINE
  8
0
 10
20.8473
 20
37.9405
 11
20.6744
 21
38.0153
  0
LINE
  8
0
 10
20.6744
 20
38.0153
 11
20.497
 21
38.0792
  0
LINE
  8
0
 10
20.497
 20
38.0792
 11
20.3161
 21
38.1317
  0
LINE
  8
0
 10
20.3161
 20
38.1317
 11
20.1321
 21
38.1729
  0
LINE
  8
0
 10
20.1321
 20
38.1729
 11
19.946
 21
38.2023
  0
LINE
  8
0
 10
19.946
 20
38.2023
 11
19.7584
 21
38.2201
  0
LINE
  8
0
 10
19.7584
 20
38.2201
 11
19.57
 21
38.226
  0
LINE
  8
0
 10
19.57
 20
38.226
 11
-19.57
 21
38.226
  0
LINE
  8
0
 10
-19.57
 20
38.226
 11
-19.7584
 21
38.2201
  0
LINE
  8
0
 10
-19.7584
 20
38.2201
 11
-19.946
 21
38.2023
  0
LINE
  8
0
 10
-19.946
 20
38.2023
 11
-20.1321
 21
38.1729
  0
LINE
  8
0
 10
-20.1321
 20
38.1729
 11
-20.3161
 21
38.1317
  0
LINE
  8
0
 10
-20.3161
 20
38.1317
 11
-20.497
 21
38.0792
  0
LINE
  8
0
 10
-20.497
 20
38.0792
 11
-20.6744
 21
38.0153
  0
LINE
  8
0
 10
-20.6744
 20
38.0153
 11
-20.8473
 21
37.9405
  0
LINE
  8
0
 10
-20.8473
 20
37.9405
 11
-21.0153
 21
37.8549
  0
LINE
  8
0
 10
-21.0153
 20
37.8549
 11
-21.1775
 21
37.759
  0
LINE
  8
0
 10
-21.1775
 20
37.759
 11
-21.3333
 21
37.653
  0
LINE
  8
0
 10
-21.3333
 20
37.653
 11
-21.4823
 21
37.5375
  0
LINE
  8
0
 10
-21.4823
 20
37.5375
 11
-21.6236
 21
37.4129
  0
LINE
  8
0
 10
-21.6236
 20
37.4129
 11
-21.7569
 21
37.2796
  0
LINE
  8
0
 10
-21.7569
 20
37.2796
 11
-21.8815
 21
37.1383
  0
LINE
  8
0
 10
-21.8815
 20
37.1383
 11
-21.997
 21
36.9893
  0
LINE
  8
0
 10
-21.997
 20
36.9893
 11
-22.103
 21
36.8335
  0
LINE
  8
0
 10
-22.103
 20
36.8335
 11
-22.1989
 21
36.6712
  0
LINE
  8
0
 10
-22.1989
 20
36.6712
 11
-22.2845
 21
36.5033
  0
LINE
  8
0
 10
-22.2845
 20
36.5033
 11
-22.3593
 21
36.3304
  0
LINE
  8
0
 10
-22.3593
 20
36.3304
 11
-22.4232
 21
36.153
  0
LINE
  8
0
 10
-22.4232
 20
36.153
 11
-22.4757
 21
35.9721
  0
LINE
  8
0
 10
-22.4757
 20
35.9721
 11
-22.5169
 21
35.7881
  0
LINE
  8
0
 10
-22.5169
 20
35.7881
 11
-22.5463
 21
35.602
  0
LINE
  8
0
 10
-22.5463
 20
35.602
 11
-22.5641
 21
35.4144
  0
LINE
  8
0
 10
-22.5641
 20
35.4144
 11
-22.57
 21
35.226
  0
LINE
  8
0
 10
-22.57
 20
35.226
 11
-22.57
 21
-35.226
  0
LINE
  8
0
 10
-22.57
 20
-35.226
 11
-22.5641
 21
-35.4144
  0
LINE
  8
0
 10
-22.5641
 20
-35.4144
 11
-22.5463
 21
-35.602
  0
LINE
  8
0
 10
-22.5463
 20
-35.602
 11
-22.5169
 21
-35.7881
  0
LINE
  8
0
 10
-22.5169
 20
-35.7881
 11
-22.4757
 21
-35.9721
  0
LINE
  8
0
 10
-22.4757
 20
-35.9721
 11
-22.4232
 21
-36.153
  0
LINE
  8
0
 10
-22.4232
 20
-36.153
 11
-22.3593
 21
-36.3304
  0
LINE
  8
0
 10
-22.3593
 20
-36.3304
 11
-22.2845
 21
-36.5033
  0
LINE
  8
0
 10
-22.2845
 20
-36.5033
 11
-22.1989
 21
-36.6712
  0
LINE
  8
0
 10
-22.1989
 20
-36.6712
 11
-22.103
 21
-36.8335
  0
LINE
  8
0
 10
-22.103
 20
-36.8335
 11
-21.997
 21
-36.9893
  0
LINE
  8
0
 10
-21.997
 20
-36.9893
 11
-21.8815
 21
-37.1383
  0
LINE
  8
0
 10
-21.8815
 20
-37.1383
 11
-21.7569
 21
-37.2796
  0
LINE
  8
0
 10
-21.7569
 20
-37.2796
 11
-21.6236
 21
-37.4129
  0
LINE
  8
0
 10
-21.6236
 20
-37.4129
 11
-21.4823
 21
-37.5375
  0
LINE
  8
0
 10
-21.4823
 20
-37.5375
 11
-21.3333
 21
-37.653
  0
LINE
  8
0
 10
-21.3333
 20
-37.653
 11
-21.1775
 21
-37.759
  0
LINE
  8
0
 10
-21.1775
 20
-37.759
 11
-21.0153
 21
-37.8549
  0
LINE
  8
0
 10
-21.0153
 20
-37.8549
 11
-20.8473
 21
-37.9405
  0
LINE
  8
0
 10
-20.8473
 20
-37.9405
 11
-20.6744
 21
-38.0153
  0
LINE
  8
0
 10
-20.6744
 20
-38.0153
 11
-20.497
 21
-38.0792
  0
LINE
  8
0
 10
-20.497
 20
-38.0792
 11
-20.3161
 21
-38.1317
  0
LINE
  8
0
 10
-20.3161
 20
-38.1317
 11
-20.1321
 21
-38.1729
  0
LINE
  8
0
 10
-20.1321
 20
-38.1729
 11
-19.946
 21
-38.2023
  0
LINE
  8
0
 10
-19.946
 20
-38.2023
 11
-19.7584
 21
-38.2201
  0
LINE
  8
0
 10
-19.7584
 20
-38.2201
 11
-19.57
 21
-38.226
  0
LINE
  8
0
 10
-19.57
 20
-38.226
 11
-5
 21
-38.226
  0
LINE
  8
0
 10
-5
 20
-38.226
 11
-5
 21
-33.726
  0
LINE
  8
0
 10
-5
 20
-33.726
 11
-4.99802
 21
-33.6632
  0
LINE
  8
0
 10
-4.99802
 20
-33.6632
 11
-4.99211
 21
-33.6007
  0
LINE
  8
0
 10
-4.99211
 20
-33.6007
 11
-4.98228
 21
-33.5386
  0
LINE
  8
0
 10
-4.98228
 20
-33.5386
 11
-4.96858
 21
-33.4773
  0
LINE
  8
0
 10
-4.96858
 20
-33.4773
 11
-4.95105
 21
-33.417
  0
LINE
  8
0
 10
-4.95105
 20
-33.417
 11
-4.92976
 21
-33.3579
  0
LINE
  8
0
 10
-4.92976
 20
-33.3579
 11
-4.90482
 21
-33.3002
  0
LINE
  8
0
 10
-4.90482
 20
-33.3002
 11
-4.8763
 21
-33.2442
  0
LINE
  8
0
 10
-4.8763
 20
-33.2442
 11
-4.84431
 21
-33.1902
  0
LINE
  8
0
 10
-4.84431
 20
-33.1902
 11
-4.80901
 21
-33.1382
  0
LINE
  8
0
 10
-4.80901
 20
-33.1382
 11
-4.77051
 21
-33.0886
  0
LINE
  8
0
 10
-4.77051
 20
-33.0886
 11
-4.72896
 21
-33.0415
  0
LINE
  8
0
 10
-4.72896
 20
-33.0415
 11
-4.68454
 21
-32.997
  0
LINE
  8
0
 10
-4.68454
 20
-32.997
 11
-4.63742
 21
-32.9555
  0
LINE
  8
0
 10
-4.63742
 20
-32.9555
 11
-4.58778
 21
-32.917
  0
LINE
  8
0
 10
-4.58778
 20
-32.917
 11
-4.53581
 21
-32.8817
  0
LINE
  8
0
 10
-4.53581
 20
-32.8817
 11
-4.48175
 21
-32.8497
  0
LINE
  8
0
 10
-4.48175
 20
-32.8497
 11
-4.42577
 21
-32.8212
  0
LINE
  8
0
 10
-4.42577
 20
-32.8212
 11
-4.36812
 21
-32.7962
  0
LINE
  8
0
 10
-4.36812
 20
-32.7962
 11
-4.30901
 21
-32.7749
  0
LINE
  8
0
 10
-4.30901
 20
-32.7749
 11
-4.24869
 21
-32.7574
  0
LINE
  8
0
 10
-4.24869
 20
-32.7574
 11
-4.18738
 21
-32.7437
  0
LINE
  8
0
 10
-4.18738
 20
-32.7437
 11
-4.12532
 21
-32.7339
  0
LINE
  8
0
 10
-4.12532
 20
-32.7339
 11
-4.06279
 21
-32.728
  0
LINE
  8
0
 10
-4.06279
 20
-32.728
 11
-4
 21
-32.726
  0
LINE
  8
0
 10
-4
 20
-32.726
 11
4
 21
-32.726
  0
LINE
  8
0
 10
4
 20
-32.726
 11
4.06279
 21
-32.728
  0
LINE
  8
0
 10
4.06279
 20
-32.728
 11
4.12532
 21
-32.7339
  0
LINE
  8
0
 10
4.12532
 20
-32.7339
 11
4.18738
 21
-32.7437
  0
LINE
  8
0
 10
4.18738
 20
-32.7437
 11
4.24869
 21
-32.7574
  0
LINE
  8
0
 10
4.24869
 20
-32.7574
 11
4.30901
 21
-32.7749
  0
LINE
  8
0
 10
4.30901
 20
-32.7749
 11
4.36812
 21
-32.7962
  0
LINE
  8
0
 10
4.36812
 20
-32.7962
 11
4.42577
 21
-32.8212
  0
LINE
  8
0
 10
4.42577
 20
-32.8212
 11
4.48175
 21
-32.8497
  0
LINE
  8
0
 10
4.48175
 20
-32.8497
 11
4.53581
 21
-32.8817
  0
LINE
  8
0
 10
4.53581
 20
-32.8817
 11
4.58778
 21
-32.917
  0
LINE
  8
0
 10
4.58778
 20
-32.917
 11
4.63742
 21
-32.9555
  0
LINE
  8
0
 10
4.63742
 20
-32.9555
 11
4.68454
 21
-32.997
  0
LINE
  8
0
 10
4.68454
 20
-32.997
 11
4.72896
 21
-33.0415
  0
LINE
  8
0
 10
4.72896
 20
-33.0415
 11
4.77051
 21
-33.0886
  0
LINE
  8
0
 10
4.77051
 20
-33.0886
 11
4.80901
 21
-33.1382
  0
LINE
  8
0
 10
4.80901
 20
-33.1382
 11
4.84431
 21
-33.1902
  0
LINE
  8
0
 10
4.84431
 20
-33.1902
 11
4.8763
 21
-33.2442
  0
LINE
  8
0
 10
4.8763
 20
-33.2442
 11
4.90482
 21
-33.3002
  0
LINE
  8
0
 10
4.90482
 20
-33.3002
 11
4.92976
 21
-33.3579
  0
LINE
  8
0
 10
4.92976
 20
-33.3579
 11
4.95105
 21
-33.417
  0
LINE
  8
0
 10
4.95105
 20
-33.417
 11
4.96858
 21
-33.4773
  0
LINE
  8
0
 10
4.96858
 20
-33.4773
 11
4.98228
 21
-33.5386
  0
LINE
  8
0
 10
4.98228
 20
-33.5386
 11
4.99211
 21
-33.6007
  0
LINE
  8
0
 10
4.99211
 20
-33.6007
 11
4.99802
 21
-33.6632
  0
LINE
  8
0
 10
4.99802
 20
-33.6632
 11
5
 21
-33.726
  0
LINE
  8
0
 10
5
 20
-33.726
 11
5
 21
-38.226
  0
LINE
  8
0
 10
5
 20
-38.226
 11
19.57
 21
-38.226
  0
LINE
  8
0
 10
19.57
 20
-38.226
 11
19.7584
 21
-38.2201
  0
LINE
  8
0
 10
19.4758
 20
33.729
 11
19.382
 21
33.7378
  0
LINE
  8
0
 10
19.382
 20
33.7378
 11
19.2889
 21
33.7526
  0
LINE
  8
0
 10
19.2889
 20
33.7526
 11
19.197
 21
33.7731
  0
LINE
  8
0
 10
19.197
 20
33.7731
 11
19.1065
 21
33.7994
  0
LINE
  8
0
 10
19.1065
 20
33.7994
 11
19.0178
 21
33.8313
  0
LINE
  8
0
 10
19.0178
 20
33.8313
 11
18.9313
 21
33.8688
  0
LINE
  8
0
 10
18.9313
 20
33.8688
 11
18.8474
 21
33.9115
  0
LINE
  8
0
 10
18.8474
 20
33.9115
 11
18.7663
 21
33.9595
  0
LINE
  8
0
 10
18.7663
 20
33.9595
 11
18.6883
 21
34.0125
  0
LINE
  8
0
 10
18.6883
 20
34.0125
 11
18.6139
 21
34.0702
  0
LINE
  8
0
 10
18.6139
 20
34.0702
 11
18.5432
 21
34.1325
  0
LINE
  8
0
 10
18.5432
 20
34.1325
 11
18.4765
 21
34.1992
  0
LINE
  8
0
 10
18.4765
 20
34.1992
 11
18.4142
 21
34.2699
  0
LINE
  8
0
 10
18.4142
 20
34.2699
 11
18.3565
 21
34.3443
  0
LINE
  8
0
 10
18.3565
 20
34.3443
 11
18.3035
 21
34.4223
  0
LINE
  8
0
 10
18.3035
 20
34.4223
 11
18.2555
 21
34.5034
  0
LINE
  8
0
 10
18.2555
 20
34.5034
 11
18.2128
 21
34.5873
  0
LINE
  8
0
 10
18.2128
 20
34.5873
 11
18.1753
 21
34.6738
  0
LINE
  8
0
 10
18.1753
 20
34.6738
 11
18.1434
 21
34.7625
  0
LINE
  8
0
 10
18.1434
 20
34.7625
 11
18.1171
 21
34.853
  0
LINE
  8
0
 10
18.1171
 20
34.853
 11
18.0966
 21
34.9449
  0
LINE
  8
0
 10
18.0966
 20
34.9449
 11
18.0818
 21
35.038
  0
LINE
  8
0
 10
18.0818
 20
35.038
 11
18.073
 21
35.1318
  0
LINE
  8
0
 10
18.073
 20
35.1318
 11
18.07
 21
35.226
  0
LINE
  8
0
 10
18.07
 20
35.226
 11
18.073
 21
35.3202
  0
LINE
  8
0
 10
18.073
 20
35.3202
 11
18.0818
 21
35.414
  0
LINE
  8
0
 10
18.0818
 20
35.414
 11
18.0966
 21
35.5071
  0
LINE
  8
0
 10
18.0966
 20
35.5071
 11
18.1171
 21
35.599
  0
LINE
  8
0
 10
18.1171
 20
35.599
 11
18.1434
 21
35.6895
  0
LINE
  8
0
 10
18.1434
 20
35.6895
 11
18.1753
 21
35.7782
  0
LINE
  8
0
 10
18.1753
 20
35.7782
 11
18.2128
 21
35.8647
  0
LINE
  8
0
 10
18.2128
 20
35.8647
 11
18.2555
 21
35.9486
  0
LINE
  8
0
 10
18.2555
 20
35.9486
 11
18.3035
 21
36.0297
  0
LINE
  8
0
 10
18.3035
 20
36.0297
 11
18.3565
 21
36.1077
  0
LINE
  8
0
 10
18.3565
 20
36.1077
 11
18.4142
 21
36.1821
  0
LINE
  8
0
 10
18.4142
 20
36.1821
 11
18.4765
 21
36.2528
  0
LINE
  8
0
 10
18.4765
 20
36.2528
 11
18.5432
 21
36.3194
  0
LINE
  8
0
 10
18.5432
 20
36.3194
 11
18.6139
 21
36.3818
  0
LINE
  8
0
 10
18.6139
 20
36.3818
 11
18.6883
 21
36.4395
  0
LINE
  8
0
 10
18.6883
 20
36.4395
 11
18.7663
 21
36.4925
  0
LINE
  8
0
 10
18.7663
 20
36.4925
 11
18.8474
 21
36.5405
  0
LINE
  8
0
 10
18.8474
 20
36.5405
 11
18.9313
 21
36.5832
  0
LINE
  8
0
 10
18.9313
 20
36.5832
 11
19.0178
 21
36.6207
  0
LINE
  8
0
 10
19.0178
 20
36.6207
 11
19.1065
 21
36.6526
  0
LINE
  8
0
 10
19.1065
 20
36.6526
 11
19.197
 21
36.6789
  0
LINE
  8
0
 10
19.197
 20
36.6789
 11
19.2889
 21
36.6994
  0
LINE
  8
0
 10
19.2889
 20
36.6994
 11
19.382
 21
36.7142
  0
LINE
  8
0
 10
19.382
 20
36.7142
 11
19.4758
 21
36.723
  0
LINE
  8
0
 10
19.4758
 20
36.723
 11
19.57
 21
36.726
  0
LINE
  8
0
 10
19.57
 20
36.726
 11
19.6642
 21
36.723
  0
LINE
  8
0
 10
19.6642
 20
36.723
 11
19.758
 21
36.7142
  0
LINE
  8
0
 10
19.758
 20
36.7142
 11
19.8511
 21
36.6994
  0
LINE
  8
0
 10
19.8511
 20
36.6994
 11
19.943
 21
36.6789
  0
LINE
  8
0
 10
19.943
 20
36.6789
 11
20.0335
 21
36.6526
  0
LINE
  8
0
 10
20.0335
 20
36.6526
 11
20.1222
 21
36.6207
  0
LINE
  8
0
 10
20.1222
 20
36.6207
 11
20.2087
 21
36.5832
  0
LINE
  8
0
 10
20.2087
 20
36.5832
 11
20.2926
 21
36.5405
  0
LINE
  8
0
 10
20.2926
 20
36.5405
 11
20.3737
 21
36.4925
  0
LINE
  8
0
 10
20.3737
 20
36.4925
 11
20.4517
 21
36.4395
  0
LINE
  8
0
 10
20.4517
 20
36.4395
 11
20.5261
 21
36.3818
  0
LINE
  8
0
 10
20.5261
 20
36.3818
 11
20.5968
 21
36.3194
  0
LINE
  8
0
 10
20.5968
 20
36.3194
 11
20.6635
 21
36.2528
  0
LINE
  8
0
 10
20.6635
 20
36.2528
 11
20.7258
 21
36.1821
  0
LINE
  8
0
 10
20.7258
 20
36.1821
 11
20.7835
 21
36.1077
  0
LINE
  8
0
 10
20.7835
 20
36.1077
 11
20.8365
 21
36.0297
  0
LINE
  8
0
 10
20.8365
 20
36.0297
 11
20.8844
 21
35.9486
  0
LINE
  8
0
 10
20.8844
 20
35.9486
 11
20.9272
 21
35.8647
  0
LINE
  8
0
 10
20.9272
 20
35.8647
 11
20.9647
 21
35.7782
  0
LINE
  8
0
 10
20.9647
 20
35.7782
 11
20.9966
 21
35.6895
  0
LINE
  8
0
 10
20.9966
 20
35.6895
 11
21.0229
 21
35.599
  0
LINE
  8
0
 10
21.0229
 20
35.599
 11
21.0434
 21
35.5071
  0
LINE
  8
0
 10
21.0434
 20
35.5071
 11
21.0582
 21
35.414
  0
LINE
  8
0
 10
21.0582
 20
35.414
 11
21.067
 21
35.3202
  0
LINE
  8
0
 10
21.067
 20
35.3202
 11
21.07
 21
35.226
  0
LINE
  8
0
 10
21.07
 20
35.226
 11
21.067
 21
35.1318
  0
LINE
  8
0
 10
21.067
 20
35.1318
 11
21.0582
 21
35.038
  0
LINE
  8
0
 10
21.0582
 20
35.038
 11
21.0434
 21
34.9449
  0
LINE
  8
0
 10
21.0434
 20
34.9449
 11
21.0229
 21
34.853
  0
LINE
  8
0
 10
21.0229
 20
34.853
 11
20.9966
 21
34.7625
  0
LINE
  8
0
 10
20.9966
 20
34.7625
 11
20.9647
 21
34.6738
  0
LINE
  8
0
 10
20.9647
 20
34.6738
 11
20.9272
 21
34.5873
  0
LINE
  8
0
 10
20.9272
 20
34.5873
 11
20.8844
 21
34.5034
  0
LINE
  8
0
 10
20.8844
 20
34.5034
 11
20.8365
 21
34.4223
  0
LINE
  8
0
 10
20.8365
 20
34.4223
 11
20.7835
 21
34.3443
  0
LINE
  8
0
 10
20.7835
 20
34.3443
 11
20.7258
 21
34.2699
  0
LINE
  8
0
 10
20.7258
 20
34.2699
 11
20.6635
 21
34.1992
  0
LINE
  8
0
 10
20.6635
 20
34.1992
 11
20.5968
 21
34.1325
  0
LINE
  8
0
 10
20.5968
 20
34.1325
 11
20.5261
 21
34.0702
  0
LINE
  8
0
 10
20.5261
 20
34.0702
 11
20.4517
 21
34.0125
  0
LINE
  8
0
 10
20.4517
 20
34.0125
 11
20.3737
 21
33.9595
  0
LINE
  8
0
 10
20.3737
 20
33.9595
 11
20.2926
 21
33.9115
  0
LINE
  8
0
 10
20.2926
 20
33.9115
 11
20.2087
 21
33.8688
  0
LINE
  8
0
 10
20.2087
 20
33.8688
 11
20.1222
 21
33.8313
  0
LINE
  8
0
 10
20.1222
 20
33.8313
 11
20.0335
 21
33.7994
  0
LINE
  8
0
 10
20.0335
 20
33.7994
 11
19.943
 21
33.7731
  0
LINE
  8
0
 10
19.943
 20
33.7731
 11
19.8511
 21
33.7526
  0
LINE
  8
0
 10
19.8511
 20
33.7526
 11
19.758
 21
33.7378
  0
LINE
  8
0
 10
19.758
 20
33.7378
 11
19.6642
 21
33.729
  0
LINE
  8
0
 10
19.6642
 20
33.729
 11
19.57
 21
33.726
  0
LINE
  8
0
 10
19.57
 20
33.726
 11
19.4758
 21
33.729
  0
LINE
  8
0
 10
-19.6642
 20
33.729
 11
-19.758
 21
33.7378
  0
LINE
  8
0
 10
-19.758
 20
33.7378
 11
-19.8511
 21
33.7526
  0
LINE
  8
0
 10
-19.8511
 20
33.7526
 11
-19.943
 21
33.7731
  0
LINE
  8
0
 10
-19.943
 20
33.7731
 11
-20.0335
 21
33.7994
  0
LINE
  8
0
 10
-20.0335
 20
33.7994
 11
-20.1222
 21
33.8313
  0
LINE
  8
0
 10
-20.1222
 20
33.8313
 11
-20.2087
 21
33.8688
  0
LINE
  8
0
 10
-20.2087
 20
33.8688
 11
-20.2926
 21
33.9115
  0
LINE
  8
0
 10
-20.2926
 20
33.9115
 11
-20.3737
 21
33.9595
  0
LINE
  8
0
 10
-20.3737
 20
33.9595
 11
-20.4517
 21
34.0125
  0
LINE
  8
0
 10
-20.4517
 20
34.0125
 11
-20.5261
 21
34.0702
  0
LINE
  8
0
 10
-20.5261
 20
34.0702
 11
-20.5968
 21
34.1325
  0
LINE
  8
0
 10
-20.5968
 20
34.1325
 11
-20.6635
 21
34.1992
  0
LINE
  8
0
 10
-20.6635
 20
34.1992
 11
-20.7258
 21
34.2699
  0
LINE
  8
0
 10
-20.7258
 20
34.2699
 11
-20.7835
 21
34.3443
  0
LINE
  8
0
 10
-20.7835
 20
34.3443
 11
-20.8365
 21
34.4223
  0
LINE
  8
0
 10
-20.8365
 20
34.4223
 11
-20.8844
 21
34.5034
  0
LINE
  8
0
 10
-20.8844
 20
34.5034
 11
-20.9272
 21
34.5873
  0
LINE
  8
0
 10
-20.9272
 20
34.5873
 11
-20.9647
 21
34.6738
  0
LINE
  8
0
 10
-20.9647
 20
34.6738
 11
-20.9966
 21
34.7625
  0
LINE
  8
0
 10
-20.9966
 20
34.7625
 11
-21.0229
 21
34.853
  0
LINE
  8
0
 10
-21.0229
 20
34.853
 11
-21.0434
 21
34.9449
  0
LINE
  8
0
 10
-21.0434
 20
34.9449
 11
-21.0582
 21
35.038
  0
LINE
  8
0
 10
-21.0582
 20
35.038
 11
-21.067
 21
35.1318
  0
LINE
  8
0
 10
-21.067
 20
35.1318
 11
-21.07
 21
35.226
  0
LINE
  8
0
 10
-21.07
 20
35.226
 11
-21.067
 21
35.3202
  0
LINE
  8
0
 10
-21.067
 20
35.3202
 11
-21.0582
 21
35.414
  0
LINE
  8
0
 10
-21.0582
 20
35.414
 11
-21.0434
 21
35.5071
  0
LINE
  8
0
 10
-21.0434
 20
35.5071
 11
-21.0229
 21
35.599
  0
LINE
  8
0
 10
-21.0229
 20
35.599
 11
-20.9966
 21
35.6895
  0
LINE
  8
0
 10
-20.9966
 20
35.6895
 11
-20.9647
 21
35.7782
  0
LINE
  8
0
 10
-20.9647
 20
35.7782
 11
-20.9272
 21
35.8647
  0
LINE
  8
0
 10
-20.9272
 20
35.8647
 11
-20.8844
 21
35.9486
  0
LINE
  8
0
 10
-20.8844
 20
35.9486
 11
-20.8365
 21
36.0297
  0
LINE
  8
0
 10
-20.8365
 20
36.0297
 11
-20.7835
 21
36.1077
  0
LINE
  8
0
 10
-20.7835
 20
36.1077
 11
-20.7258
 21
36.1821
  0
LINE
  8
0
 10
-20.7258
 20
36.1821
 11
-20.6635
 21
36.2528
  0
LINE
  8
0
 10
-20.6635
 20
36.2528
 11
-20.5968
 21
36.3194
  0
LINE
  8
0
 10
-20.5968
 20
36.3194
 11
-20.5261
 21
36.3818
  0
LINE
  8
0
 10
-20.5261
 20
36.3818
 11
-20.4517
 21
36.4395
  0
LINE
  8
0
 10
-20.4517
 20
36.4395
 11
-20.3737
 21
36.4925
  0
LINE
  8
0
 10
-20.3737
 20
36.4925
 11
-20.2926
 21
36.5405
  0
LINE
  8
0
 10
-20.2926
 20
36.5405
 11
-20.2087
 21
36.5832
  0
LINE
  8
0
 10
-20.2087
 20
36.5832
 11
-20.1222
 21
36.6207
  0
LINE
  8
0
 10
-20.1222
 20
36.6207
 11
-20.0335
 21
36.6526
  0
LINE
  8
0
 10
-20.0335
 20
36.6526
 11
-19.943
 21
36.6789
  0
LINE
  8
0
 10
-19.943
 20
36.6789
 11
-19.8511
 21
36.6994
  0
LINE
  8
0
 10
-19.8511
 20
36.6994
 11
-19.758
 21
36.7142
  0
LINE
  8
0
 10
-19.758
 20
36.7142
 11
-19.6642
 21
36.723
  0
LINE
  8
0
 10
-19.6642
 20
36.723
 11
-19.57
 21
36.726
  0
LINE
  8
0
 10
-19.57
 20
36.726
 11
-19.4758
 21
36.723
  0
LINE
  8
0
 10
-19.4758
 20
36.723
 11
-19.382
 21
36.7142
  0
LINE
  8
0
 10
-19.382
 20
36.7142
 11
-19.2889
 21
36.6994
  0
LINE
  8
0
 10
-19.2889
 20
36.6994
 11
-19.197
 21
36.6789
  0
LINE
  8
0
 10
-19.197
 20
36.6789
 11
-19.1065
 21
36.6526
  0
LINE
  8
0
 10
-19.1065
 20
36.6526
 11
-19.0178
 21
36.6207
  0
LINE
  8
0
 10
-19.0178
 20
36.6207
 11
-18.9313
 21
36.5832
  0
LINE
  8
0
 10
-18.9313
 20
36.5832
 11
-18.8474
 21
36.5405
  0
LINE
  8
0
 10
-18.8474
 20
36.5405
 11
-18.7663
 21
36.4925
  0
LINE
  8
0
 10
-18.7663
 20
36.4925
 11
-18.6883
 21
36.4395
  0
LINE
  8
0
 10
-18.6883
 20
36.4395
 11
-18.6139
 21
36.3818
  0
LINE
  8
0
 10
-18.6139
 20
36.3818
 11
-18.5432
 21
36.3194
  0
LINE
  8
0
 10
-18.5432
 20
36.3194
 11
-18.4765
 21
36.2528
  0
LINE
  8
0
 10
-18.4765
 20
36.2528
 11
-18.4142
 21
36.1821
  0
LINE
  8
0
 10
-18.4142
 20
36.1821
 11
-18.3565
 21
36.1077
  0
LINE
  8
0
 10
-18.3565
 20
36.1077
 11
-18.3035
 21
36.0297
  0
LINE
  8
0
 10
-18.3035
 20
36.0297
 11
-18.2555
 21
35.9486
  0
LINE
  8
0
 10
-18.2555
 20
35.9486
 11
-18.2128
 21
35.8647
  0
LINE
  8
0
 10
-18.2128
 20
35.8647
 11
-18.1753
 21
35.7782
  0
LINE
  8
0
 10
-18.1753
 20
35.7782
 11
-18.1434
 21
35.6895
  0
LINE
  8
0
 10
-18.1434
 20
35.6895
 11
-18.1171
 21
35.599
  0
LINE
  8
0
 10
-18.1171
 20
35.599
 11
-18.0966
 21
35.5071
  0
LINE
  8
0
 10
-18.0966
 20
35.5071
 11
-18.0818
 21
35.414
  0
LINE
  8
0
 10
-18.0818
 20
35.414
 11
-18.073
 21
35.3202
  0
LINE
  8
0
 10
-18.073
 20
35.3202
 11
-18.07
 21
35.226
  0
LINE
  8
0
 10
-18.07
 20
35.226
 11
-18.073
 21
35.1318
  0
LINE
  8
0
 10
-18.073
 20
35.1318
 11
-18.0818
 21
35.038
  0
LINE
  8
0
 10
-18.0818
 20
35.038
 11
-18.0966
 21
34.9449
  0
LINE
  8
0
 10
-18.0966
 20
34.9449
 11
-18.1171
 21
34.853
  0
LINE
  8
0
 10
-18.1171
 20
34.853
 11
-18.1434
 21
34.7625
  0
LINE
  8
0
 10
-18.1434
 20
34.7625
 11
-18.1753
 21
34.6738
  0
LINE
  8
0
 10
-18.1753
 20
34.6738
 11
-18.2128
 21
34.5873
  0
LINE
  8
0
 10
-18.2128
 20
34.5873
 11
-18.2555
 21
34.5034
  0
LINE
  8
0
 10
-18.2555
 20
34.5034
 11
-18.3035
 21
34.4223
  0
LINE
  8
0
 10
-18.3035
 20
34.4223
 11
-18.3565
 21
34.3443
  0
LINE
  8
0
 10
-18.3565
 20
34.3443
 11
-18.4142
 21
34.2699
  0
LINE
  8
0
 10
-18.4142
 20
34.2699
 11
-18.4765
 21
34.1992
  0
LINE
  8
0
 10
-18.4765
 20
34.1992
 11
-18.5432
 21
34.1325
  0
LINE
  8
0
 10
-18.5432
 20
34.1325
 11
-18.6139
 21
34.0702
  0
LINE
  8
0
 10
-18.6139
 20
34.0702
 11
-18.6883
 21
34.0125
  0
LINE
  8
0
 10
-18.6883
 20
34.0125
 11
-18.7663
 21
33.9595
  0
LINE
  8
0
 10
-18.7663
 20
33.9595
 11
-18.8474
 21
33.9115
  0
LINE
  8
0
 10
-18.8474
 20
33.9115
 11
-18.9313
 21
33.8688
  0
LINE
  8
0
 10
-18.9313
 20
33.8688
 11
-19.0178
 21
33.8313
  0
LINE
  8
0
 10
-19.0178
 20
33.8313
 11
-19.1065
 21
33.7994
  0
LINE
  8
0
 10
-19.1065
 20
33.7994
 11
-19.197
 21
33.7731
  0
LINE
  8
0
 10
-19.197
 20
33.7731
 11
-19.2889
 21
33.7526
  0
LINE
  8
0
 10
-19.2889
 20
33.7526
 11
-19.382
 21
33.7378
  0
LINE
  8
0
 10
-19.382
 20
33.7378
 11
-19.4758
 21
33.729
  0
LINE
  8
0
 10
-19.4758
 20
33.729
 11
-19.57
 21
33.726
  0
LINE
  8
0
 10
-19.57
 20
33.726
 11
-19.6642
 21
33.729
  0
LINE
  8
0
 10
-7.56999
 20
18.426
 11
-7.58884
 21
18.4266
  0
LINE
  8
0
 10
-7.58884
 20
18.4266
 11
-7.60759
 21
18.4284
  0
LINE
  8
0
 10
-7.60759
 20
18.4284
 11
-7.62621
 21
18.4313
  0
LINE
  8
0
 10
-7.62621
 20
18.4313
 11
-7.64459
 21
18.4354
  0
LINE
  8
0
 10
-7.64459
 20
18.4354
 11
-7.6627
 21
18.4407
  0
LINE
  8
0
 10
-7.6627
 20
18.4407
 11
-7.68044
 21
18.4471
  0
LINE
  8
0
 10
-7.68044
 20
18.4471
 11
-7.69772
 21
18.4545
  0
LINE
  8
0
 10
-7.69772
 20
18.4545
 11
-7.71452
 21
18.4631
  0
LINE
  8
0
 10
-7.71452
 20
18.4631
 11
-7.73074
 21
18.4727
  0
LINE
  8
0
 10
-7.73074
 20
18.4727
 11
-7.74632
 21
18.4833
  0
LINE
  8
0
 10
-7.74632
 20
18.4833
 11
-7.76122
 21
18.4948
  0
LINE
  8
0
 10
-7.76122
 20
18.4948
 11
-7.77536
 21
18.5073
  0
LINE
  8
0
 10
-7.77536
 20
18.5073
 11
-7.78868
 21
18.5206
  0
LINE
  8
0
 10
-7.78868
 20
18.5206
 11
-7.80115
 21
18.5348
  0
LINE
  8
0
 10
-7.80115
 20
18.5348
 11
-7.8127
 21
18.5497
  0
LINE
  8
0
 10
-7.8127
 20
18.5497
 11
-7.82329
 21
18.5652
  0
LINE
  8
0
 10
-7.82329
 20
18.5652
 11
-7.83289
 21
18.5815
  0
LINE
  8
0
 10
-7.83289
 20
18.5815
 11
-7.84145
 21
18.5983
  0
LINE
  8
0
 10
-7.84145
 20
18.5983
 11
-7.84892
 21
18.6156
  0
LINE
  8
0
 10
-7.84892
 20
18.6156
 11
-7.85532
 21
18.6333
  0
LINE
  8
0
 10
-7.85532
 20
18.6333
 11
-7.86057
 21
18.6514
  0
LINE
  8
0
 10
-7.86057
 20
18.6514
 11
-7.86469
 21
18.6698
  0
LINE
  8
0
 10
-7.86469
 20
18.6698
 11
-7.86763
 21
18.6884
  0
LINE
  8
0
 10
-7.86763
 20
18.6884
 11
-7.8694
 21
18.7072
  0
LINE
  8
0
 10
-7.8694
 20
18.7072
 11
-7.87
 21
18.726
  0
LINE
  8
0
 10
-7.87
 20
18.726
 11
-7.87
 21
32.726
  0
LINE
  8
0
 10
-7.87
 20
32.726
 11
-7.8694
 21
32.7448
  0
LINE
  8
0
 10
-7.8694
 20
32.7448
 11
-7.86763
 21
32.7636
  0
LINE
  8
0
 10
-7.86763
 20
32.7636
 11
-7.86469
 21
32.7822
  0
LINE
  8
0
 10
-7.86469
 20
32.7822
 11
-7.86057
 21
32.8006
  0
LINE
  8
0
 10
-7.86057
 20
32.8006
 11
-7.85532
 21
32.8187
  0
LINE
  8
0
 10
-7.85532
 20
32.8187
 11
-7.84892
 21
32.8364
  0
LINE
  8
0
 10
-7.84892
 20
32.8364
 11
-7.84145
 21
32.8537
  0
LINE
  8
0
 10
-7.84145
 20
32.8537
 11
-7.83289
 21
32.8705
  0
LINE
  8
0
 10
-7.83289
 20
32.8705
 11
-7.82329
 21
32.8867
  0
LINE
  8
0
 10
-7.82329
 20
32.8867
 11
-7.8127
 21
32.9023
  0
LINE
  8
0
 10
-7.8127
 20
32.9023
 11
-7.80115
 21
32.9172
  0
LINE
  8
0
 10
-7.80115
 20
32.9172
 11
-7.78868
 21
32.9314
  0
LINE
  8
0
 10
-7.78868
 20
32.9314
 11
-7.77536
 21
32.9447
  0
LINE
  8
0
 10
-7.77536
 20
32.9447
 11
-7.76122
 21
32.9572
  0
LINE
  8
0
 10
-7.76122
 20
32.9572
 11
-7.74632
 21
32.9687
  0
LINE
  8
0
 10
-7.74632
 20
32.9687
 11
-7.73074
 21
32.9793
  0
LINE
  8
0
 10
-7.73074
 20
32.9793
 11
-7.71452
 21
32.9889
  0
LINE
  8
0
 10
-7.71452
 20
32.9889
 11
-7.69772
 21
32.9974
  0
LINE
  8
0
 10
-7.69772
 20
32.9974
 11
-7.68044
 21
33.0049
  0
LINE
  8
0
 10
-7.68044
 20
33.0049
 11
-7.6627
 21
33.0113
  0
LINE
  8
0
 10
-7.6627
 20
33.0113
 11
-7.64459
 21
33.0166
  0
LINE
  8
0
 10
-7.64459
 20
33.0166
 11
-7.62621
 21
33.0207
  0
LINE
  8
0
 10
-7.62621
 20
33.0207
 11
-7.60759
 21
33.0236
  0
LINE
  8
0
 10
-7.60759
 20
33.0236
 11
-7.58884
 21
33.0254
  0
LINE
  8
0
 10
-7.58884
 20
33.0254
 11
-7.56999
 21
33.026
  0
LINE
  8
0
 10
-7.56999
 20
33.026
 11
6.42999
 21
33.026
  0
LINE
  8
0
 10
6.42999
 20
33.026
 11
6.44882
 21
33.0254
  0
LINE
  8
0
 10
6.44882
 20
33.0254
 11
6.46759
 21
33.0236
  0
LINE
  8
0
 10
6.46759
 20
33.0236
 11
6.48621
 21
33.0207
  0
LINE
  8
0
 10
6.48621
 20
33.0207
 11
6.50459
 21
33.0166
  0
LINE
  8
0
 10
6.50459
 20
33.0166
 11
6.52271
 21
33.0113
  0
LINE
  8
0
 10
6.52271
 20
33.0113
 11
6.54044
 21
33.0049
  0
LINE
  8
0
 10
6.54044
 20
33.0049
 11
6.55772
 21
32.9974
  0
LINE
  8
0
 10
6.55772
 20
32.9974
 11
6.57452
 21
32.9889
  0
LINE
  8
0
 10
6.57452
 20
32.9889
 11
6.59074
 21
32.9793
  0
LINE
  8
0
 10
6.59074
 20
32.9793
 11
6.60632
 21
32.9687
  0
LINE
  8
0
 10
6.60632
 20
32.9687
 11
6.62122
 21
32.9572
  0
LINE
  8
0
 10
6.62122
 20
32.9572
 11
6.63536
 21
32.9447
  0
LINE
  8
0
 10
6.63536
 20
32.9447
 11
6.64868
 21
32.9314
  0
LINE
  8
0
 10
6.64868
 20
32.9314
 11
6.66115
 21
32.9172
  0
LINE
  8
0
 10
6.66115
 20
32.9172
 11
6.6727
 21
32.9023
  0
LINE
  8
0
 10
6.6727
 20
32.9023
 11
6.68329
 21
32.8867
  0
LINE
  8
0
 10
6.68329
 20
32.8867
 11
6.69289
 21
32.8705
  0
LINE
  8
0
 10
6.69289
 20
32.8705
 11
6.70145
 21
32.8537
  0
LINE
  8
0
 10
6.70145
 20
32.8537
 11
6.70892
 21
32.8364
  0
LINE
  8
0
 10
6.70892
 20
32.8364
 11
6.71532
 21
32.8187
  0
LINE
  8
0
 10
6.71532
 20
32.8187
 11
6.72057
 21
32.8006
  0
LINE
  8
0
 10
6.72057
 20
32.8006
 11
6.72469
 21
32.7822
  0
LINE
  8
0
 10
6.72469
 20
32.7822
 11
6.72763
 21
32.7636
  0
LINE
  8
0
 10
6.72763
 20
32.7636
 11
6.7294
 21
32.7448
  0
LINE
  8
0
 10
6.7294
 20
32.7448
 11
6.73
 21
32.726
  0
LINE
  8
0
 10
6.73
 20
32.726
 11
6.73
 21
18.726
  0
LINE
  8
0
 10
6.73
 20
18.726
 11
6.7294
 21
18.7072
  0
LINE
  8
0
 10
6.7294
 20
18.7072
 11
6.72763
 21
18.6884
  0
LINE
  8
0
 10
6.72763
 20
18.6884
 11
6.72469
 21
18.6698
  0
LINE
  8
0
 10
6.72469
 20
18.6698
 11
6.72057
 21
18.6514
  0
LINE
  8
0
 10
6.72057
 20
18.6514
 11
6.71532
 21
18.6333
  0
LINE
  8
0
 10
6.71532
 20
18.6333
 11
6.70892
 21
18.6156
  0
LINE
  8
0
 10
6.70892
 20
18.6156
 11
6.70145
 21
18.5983
  0
LINE
  8
0
 10
6.70145
 20
18.5983
 11
6.69289
 21
18.5815
  0
LINE
  8
0
 10
6.69289
 20
18.5815
 11
6.68329
 21
18.5652
  0
LINE
  8
0
 10
6.68329
 20
18.5652
 11
6.6727
 21
18.5497
  0
LINE
  8
0
 10
6.6727
 20
18.5497
 11
6.66115
 21
18.5348
  0
LINE
  8
0
 10
6.66115
 20
18.5348
 11
6.64868
 21
18.5206
  0
LINE
  8
0
 10
6.64868
 20
18.5206
 11
6.63536
 21
18.5073
  0
LINE
  8
0
 10
6.63536
 20
18.5073
 11
6.62122
 21
18.4948
  0
LINE
  8
0
 10
6.62122
 20
18.4948
 11
6.60632
 21
18.4833
  0
LINE
  8
0
 10
6.60632
 20
18.4833
 11
6.59074
 21
18.4727
  0
LINE
  8
0
 10
6.59074
 20
18.4727
 11
6.57452
 21
18.4631
  0
LINE
  8
0
 10
6.57452
 20
18.4631
 11
6.55772
 21
18.4545
  0
LINE
  8
0
 10
6.55772
 20
18.4545
 11
6.54044
 21
18.4471
  0
LINE
  8
0
 10
6.54044
 20
18.4471
 11
6.52271
 21
18.4407
  0
LINE
  8
0
 10
6.52271
 20
18.4407
 11
6.50459
 21
18.4354
  0
LINE
  8
0
 10
6.50459
 20
18.4354
 11
6.48621
 21
18.4313
  0
LINE
  8
0
 10
6.48621
 20
18.4313
 11
6.46759
 21
18.4284
  0
LINE
  8
0
 10
6.46759
 20
18.4284
 11
6.44882
 21
18.4266
  0
LINE
  8
0
 10
6.44882
 20
18.4266
 11
6.42999
 21
18.426
  0
LINE
  8
0
 10
6.42999
 20
18.426
 11
-7.56999
 21
18.426
  0
LINE
  8
0
 10
-17.07
 20
-0.57399
 11
-17.0888
 21
-0.573395
  0
LINE
  8
0
 10
-17.0888
 20
-0.573395
 11
-17.1076
 21
-0.571625
  0
LINE
  8
0
 10
-17.1076
 20
-0.571625
 11
-17.1262
 21
-0.56868
  0
LINE
  8
0
 10
-17.1262
 20
-0.56868
 11
-17.1446
 21
-0.56456
  0
LINE
  8
0
 10
-17.1446
 20
-0.56456
 11
-17.1627
 21
-0.559311
  0
LINE
  8
0
 10
-17.1627
 20
-0.559311
 11
-17.1804
 21
-0.552933
  0
LINE
  8
0
 10
-17.1804
 20
-0.552933
 11
-17.1977
 21
-0.545441
  0
LINE
  8
0
 10
-17.1977
 20
-0.545441
 11
-17.2145
 21
-0.53688
  0
LINE
  8
0
 10
-17.2145
 20
-0.53688
 11
-17.2307
 21
-0.527298
  0
LINE
  8
0
 10
-17.2307
 20
-0.527298
 11
-17.2463
 21
-0.516693
  0
LINE
  8
0
 10
-17.2463
 20
-0.516693
 11
-17.2612
 21
-0.505142
  0
LINE
  8
0
 10
-17.2612
 20
-0.505142
 11
-17.2754
 21
-0.492676
  0
LINE
  8
0
 10
-17.2754
 20
-0.492676
 11
-17.2887
 21
-0.479355
  0
LINE
  8
0
 10
-17.2887
 20
-0.479355
 11
-17.3011
 21
-0.465225
  0
LINE
  8
0
 10
-17.3011
 20
-0.465225
 11
-17.3127
 21
-0.450333
  0
LINE
  8
0
 10
-17.3127
 20
-0.450333
 11
-17.3233
 21
-0.434738
  0
LINE
  8
0
 10
-17.3233
 20
-0.434738
 11
-17.3329
 21
-0.418518
  0
LINE
  8
0
 10
-17.3329
 20
-0.418518
 11
-17.3414
 21
-0.401733
  0
LINE
  8
0
 10
-17.3414
 20
-0.401733
 11
-17.3489
 21
-0.38443
  0
LINE
  8
0
 10
-17.3489
 20
-0.38443
 11
-17.3553
 21
-0.366699
  0
LINE
  8
0
 10
-17.3553
 20
-0.366699
 11
-17.3606
 21
-0.348602
  0
LINE
  8
0
 10
-17.3606
 20
-0.348602
 11
-17.3647
 21
-0.3302
  0
LINE
  8
0
 10
-17.3647
 20
-0.3302
 11
-17.3676
 21
-0.3116
  0
LINE
  8
0
 10
-17.3676
 20
-0.3116
 11
-17.3694
 21
-0.292831
  0
LINE
  8
0
 10
-17.3694
 20
-0.292831
 11
-17.37
 21
-0.273987
  0
LINE
  8
0
 10
-17.37
 20
-0.273987
 11
-17.37
 21
13.726
  0
LINE
  8
0
 10
-17.37
 20
13.726
 11
-17.3694
 21
13.7448
  0
LINE
  8
0
 10
-17.3694
 20
13.7448
 11
-17.3676
 21
13.7636
  0
LINE
  8
0
 10
-17.3676
 20
13.7636
 11
-17.3647
 21
13.7822
  0
LINE
  8
0
 10
-17.3647
 20
13.7822
 11
-17.3606
 21
13.8006
  0
LINE
  8
0
 10
-17.3606
 20
13.8006
 11
-17.3553
 21
13.8187
  0
LINE
  8
0
 10
-17.3553
 20
13.8187
 11
-17.3489
 21
13.8364
  0
LINE
  8
0
 10
-17.3489
 20
13.8364
 11
-17.3414
 21
13.8537
  0
LINE
  8
0
 10
-17.3414
 20
13.8537
 11
-17.3329
 21
13.8705
  0
LINE
  8
0
 10
-17.3329
 20
13.8705
 11
-17.3233
 21
13.8867
  0
LINE
  8
0
 10
-17.3233
 20
13.8867
 11
-17.3127
 21
13.9023
  0
LINE
  8
0
 10
-17.3127
 20
13.9023
 11
-17.3011
 21
13.9172
  0
LINE
  8
0
 10
-17.3011
 20
13.9172
 11
-17.2887
 21
13.9314
  0
LINE
  8
0
 10
-17.2887
 20
13.9314
 11
-17.2754
 21
13.9447
  0
LINE
  8
0
 10
-17.2754
 20
13.9447
 11
-17.2612
 21
13.9572
  0
LINE
  8
0
 10
-17.2612
 20
13.9572
 11
-17.2463
 21
13.9687
  0
LINE
  8
0
 10
-17.2463
 20
13.9687
 11
-17.2307
 21
13.9793
  0
LINE
  8
0
 10
-17.2307
 20
13.9793
 11
-17.2145
 21
13.9889
  0
LINE
  8
0
 10
-17.2145
 20
13.9889
 11
-17.1977
 21
13.9974
  0
LINE
  8
0
 10
-17.1977
 20
13.9974
 11
-17.1804
 21
14.0049
  0
LINE
  8
0
 10
-17.1804
 20
14.0049
 11
-17.1627
 21
14.0113
  0
LINE
  8
0
 10
-17.1627
 20
14.0113
 11
-17.1446
 21
14.0166
  0
LINE
  8
0
 10
-17.1446
 20
14.0166
 11
-17.1262
 21
14.0207
  0
LINE
  8
0
 10
-17.1262
 20
14.0207
 11
-17.1076
 21
14.0236
  0
LINE
  8
0
 10
-17.1076
 20
14.0236
 11
-17.0888
 21
14.0254
  0
LINE
  8
0
 10
-17.0888
 20
14.0254
 11
-17.07
 21
14.026
  0
LINE
  8
0
 10
-17.07
 20
14.026
 11
-3.06999
 21
14.026
  0
LINE
  8
0
 10
-3.06999
 20
14.026
 11
-3.05116
 21
14.0254
  0
LINE
  8
0
 10
-3.05116
 20
14.0254
 11
-3.03239
 21
14.0236
  0
LINE
  8
0
 10
-3.03239
 20
14.0236
 11
-3.01378
 21
14.0207
  0
LINE
  8
0
 10
-3.01378
 20
14.0207
 11
-2.99539
 21
14.0166
  0
LINE
  8
0
 10
-2.99539
 20
14.0166
 11
-2.97728
 21
14.0113
  0
LINE
  8
0
 10
-2.97728
 20
14.0113
 11
-2.95955
 21
14.0049
  0
LINE
  8
0
 10
-2.95955
 20
14.0049
 11
-2.94226
 21
13.9974
  0
LINE
  8
0
 10
-2.94226
 20
13.9974
 11
-2.92546
 21
13.9889
  0
LINE
  8
0
 10
-2.92546
 20
13.9889
 11
-2.90924
 21
13.9793
  0
LINE
  8
0
 10
-2.90924
 20
13.9793
 11
-2.89366
 21
13.9687
  0
LINE
  8
0
 10
-2.89366
 20
13.9687
 11
-2.87877
 21
13.9572
  0
LINE
  8
0
 10
-2.87877
 20
13.9572
 11
-2.86462
 21
13.9447
  0
LINE
  8
0
 10
-2.86462
 20
13.9447
 11
-2.8513
 21
13.9314
  0
LINE
  8
0
 10
-2.8513
 20
13.9314
 11
-2.83884
 21
13.9172
  0
LINE
  8
0
 10
-2.83884
 20
13.9172
 11
-2.82729
 21
13.9023
  0
LINE
  8
0
 10
-2.82729
 20
13.9023
 11
-2.8167
 21
13.8867
  0
LINE
  8
0
 10
-2.8167
 20
13.8867
 11
-2.8071
 21
13.8705
  0
LINE
  8
0
 10
-2.8071
 20
13.8705
 11
-2.79854
 21
13.8537
  0
LINE
  8
0
 10
-2.79854
 20
13.8537
 11
-2.79106
 21
13.8364
  0
LINE
  8
0
 10
-2.79106
 20
13.8364
 11
-2.78467
 21
13.8187
  0
LINE
  8
0
 10
-2.78467
 20
13.8187
 11
-2.77942
 21
13.8006
  0
LINE
  8
0
 10
-2.77942
 20
13.8006
 11
-2.7753
 21
13.7822
  0
LINE
  8
0
 10
-2.7753
 20
13.7822
 11
-2.77235
 21
13.7636
  0
LINE
  8
0
 10
-2.77235
 20
13.7636
 11
-2.77058
 21
13.7448
  0
LINE
  8
0
 10
-2.77058
 20
13.7448
 11
-2.76999
 21
13.726
  0
LINE
  8
0
 10
-2.76999
 20
13.726
 11
-2.76999
 21
-0.273987
  0
LINE
  8
0
 10
-2.76999
 20
-0.273987
 11
-2.77058
 21
-0.292831
  0
LINE
  8
0
 10
-2.77058
 20
-0.292831
 11
-2.77235
 21
-0.3116
  0
LINE
  8
0
 10
-2.77235
 20
-0.3116
 11
-2.7753
 21
-0.3302
  0
LINE
  8
0
 10
-2.7753
 20
-0.3302
 11
-2.77942
 21
-0.348602
  0
LINE
  8
0
 10
-2.77942
 20
-0.348602
 11
-2.78467
 21
-0.366699
  0
LINE
  8
0
 10
-2.78467
 20
-0.366699
 11
-2.79106
 21
-0.38443
  0
LINE
  8
0
 10
-2.79106
 20
-0.38443
 11
-2.79854
 21
-0.401733
  0
LINE
  8
0
 10
-2.79854
 20
-0.401733
 11
-2.8071
 21
-0.418518
  0
LINE
  8
0
 10
-2.8071
 20
-0.418518
 11
-2.8167
 21
-0.434738
  0
LINE
  8
0
 10
-2.8167
 20
-0.434738
 11
-2.82729
 21
-0.450333
  0
LINE
  8
0
 10
-2.82729
 20
-0.450333
 11
-2.83884
 21
-0.465225
  0
LINE
  8
0
 10
-2.83884
 20
-0.465225
 11
-2.8513
 21
-0.479355
  0
LINE
  8
0
 10
-2.8513
 20
-0.479355
 11
-2.86462
 21
-0.492676
  0
LINE
  8
0
 10
-2.86462
 20
-0.492676
 11
-2.87877
 21
-0.505142
  0
LINE
  8
0
 10
-2.87877
 20
-0.505142
 11
-2.89366
 21
-0.516693
  0
LINE
  8
0
 10
-2.89366
 20
-0.516693
 11
-2.90924
 21
-0.527298
  0
LINE
  8
0
 10
-2.90924
 20
-0.527298
 11
-2.92546
 21
-0.53688
  0
LINE
  8
0
 10
-2.92546
 20
-0.53688
 11
-2.94226
 21
-0.545441
  0
LINE
  8
0
 10
-2.94226
 20
-0.545441
 11
-2.95955
 21
-0.552933
  0
LINE
  8
0
 10
-2.95955
 20
-0.552933
 11
-2.97728
 21
-0.559311
  0
LINE
  8
0
 10
-2.97728
 20
-0.559311
 11
-2.99539
 21
-0.56456
  0
LINE
  8
0
 10
-2.99539
 20
-0.56456
 11
-3.01378
 21
-0.56868
  0
LINE
  8
0
 10
-3.01378
 20
-0.56868
 11
-3.03239
 21
-0.571625
  0
LINE
  8
0
 10
-3.03239
 20
-0.571625
 11
-3.05116
 21
-0.573395
  0
LINE
  8
0
 10
-3.05116
 20
-0.573395
 11
-3.06999
 21
-0.57399
  0
LINE
  8
0
 10
-3.06999
 20
-0.57399
 11
-17.07
 21
-0.57399
  0
LINE
  8
0
 10
1.92999
 20
-0.57399
 11
1.91115
 21
-0.573395
  0
LINE
  8
0
 10
1.91115
 20
-0.573395
 11
1.8924
 21
-0.571625
  0
LINE
  8
0
 10
1.8924
 20
-0.571625
 11
1.87378
 21
-0.56868
  0
LINE
  8
0
 10
1.87378
 20
-0.56868
 11
1.85539
 21
-0.56456
  0
LINE
  8
0
 10
1.85539
 20
-0.56456
 11
1.83728
 21
-0.559311
  0
LINE
  8
0
 10
1.83728
 20
-0.559311
 11
1.81955
 21
-0.552933
  0
LINE
  8
0
 10
1.81955
 20
-0.552933
 11
1.80226
 21
-0.545441
  0
LINE
  8
0
 10
1.80226
 20
-0.545441
 11
1.78546
 21
-0.53688
  0
LINE
  8
0
 10
1.78546
 20
-0.53688
 11
1.76924
 21
-0.527298
  0
LINE
  8
0
 10
1.76924
 20
-0.527298
 11
1.75366
 21
-0.516693
  0
LINE
  8
0
 10
1.75366
 20
-0.516693
 11
1.73877
 21
-0.505142
  0
LINE
  8
0
 10
1.73877
 20
-0.505142
 11
1.72462
 21
-0.492676
  0
LINE
  8
0
 10
1.72462
 20
-0.492676
 11
1.7113
 21
-0.479355
  0
LINE
  8
0
 10
1.7113
 20
-0.479355
 11
1.69884
 21
-0.465225
  0
LINE
  8
0
 10
1.69884
 20
-0.465225
 11
1.68729
 21
-0.450333
  0
LINE
  8
0
 10
1.68729
 20
-0.450333
 11
1.6767
 21
-0.434738
  0
LINE
  8
0
 10
1.6767
 20
-0.434738
 11
1.6671
 21
-0.418518
  0
LINE
  8
0
 10
1.6671
 20
-0.418518
 11
1.65854
 21
-0.401733
  0
LINE
  8
0
 10
1.65854
 20
-0.401733
 11
1.65106
 21
-0.38443
  0
LINE
  8
0
 10
1.65106
 20
-0.38443
 11
1.64467
 21
-0.366699
  0
LINE
  8
0
 10
1.64467
 20
-0.366699
 11
1.63942
 21
-0.348602
  0
LINE
  8
0
 10
1.63942
 20
-0.348602
 11
1.6353
 21
-0.3302
  0
LINE
  8
0
 10
1.6353
 20
-0.3302
 11
1.63235
 21
-0.3116
  0
LINE
  8
0
 10
1.63235
 20
-0.3116
 11
1.63058
 21
-0.292831
  0
LINE
  8
0
 10
1.63058
 20
-0.292831
 11
1.62999
 21
-0.273987
  0
LINE
  8
0
 10
1.62999
 20
-0.273987
 11
1.62999
 21
13.726
  0
LINE
  8
0
 10
1.62999
 20
13.726
 11
1.63058
 21
13.7448
  0
LINE
  8
0
 10
1.63058
 20
13.7448
 11
1.63235
 21
13.7636
  0
LINE
  8
0
 10
1.63235
 20
13.7636
 11
1.6353
 21
13.7822
  0
LINE
  8
0
 10
1.6353
 20
13.7822
 11
1.63942
 21
13.8006
  0
LINE
  8
0
 10
1.63942
 20
13.8006
 11
1.64467
 21
13.8187
  0
LINE
  8
0
 10
1.64467
 20
13.8187
 11
1.65106
 21
13.8364
  0
LINE
  8
0
 10
1.65106
 20
13.8364
 11
1.65854
 21
13.8537
  0
LINE
  8
0
 10
1.65854
 20
13.8537
 11
1.6671
 21
13.8705
  0
LINE
  8
0
 10
1.6671
 20
13.8705
 11
1.6767
 21
13.8867
  0
LINE
  8
0
 10
1.6767
 20
13.8867
 11
1.68729
 21
13.9023
  0
LINE
  8
0
 10
1.68729
 20
13.9023
 11
1.69884
 21
13.9172
  0
LINE
  8
0
 10
1.69884
 20
13.9172
 11
1.7113
 21
13.9314
  0
LINE
  8
0
 10
1.7113
 20
13.9314
 11
1.72462
 21
13.9447
  0
LINE
  8
0
 10
1.72462
 20
13.9447
 11
1.73877
 21
13.9572
  0
LINE
  8
0
 10
1.73877
 20
13.9572
 11
1.75366
 21
13.9687
  0
LINE
  8
0
 10
1.75366
 20
13.9687
 11
1.76924
 21
13.9793
  0
LINE
  8
0
 10
1.76924
 20
13.9793
 11
1.78546
 21
13.9889
  0
LINE
  8
0
 10
1.78546
 20
13.9889
 11
1.80226
 21
13.9974
  0
LINE
  8
0
 10
1.80226
 20
13.9974
 11
1.81955
 21
14.0049
  0
LINE
  8
0
 10
1.81955
 20
14.0049
 11
1.83728
 21
14.0113
  0
LINE
  8
0
 10
1.83728
 20
14.0113
 11
1.85539
 21
14.0166
  0
LINE
  8
0
 10
1.85539
 20
14.0166
 11
1.87378
 21
14.0207
  0
LINE
  8
0
 10
1.87378
 20
14.0207
 11
1.8924
 21
14.0236
  0
LINE
  8
0
 10
1.8924
 20
14.0236
 11
1.91115
 21
14.0254
  0
LINE
  8
0
 10
1.91115
 20
14.0254
 11
1.92999
 21
14.026
  0
LINE
  8
0
 10
1.92999
 20
14.026
 11
15.93
 21
14.026
  0
LINE
  8
0
 10
15.93
 20
14.026
 11
15.9488
 21
14.0254
  0
LINE
  8
0
 10
15.9488
 20
14.0254
 11
15.9676
 21
14.0236
  0
LINE
  8
0
 10
15.9676
 20
14.0236
 11
15.9862
 21
14.0207
  0
LINE
  8
0
 10
15.9862
 20
14.0207
 11
16.0046
 21
14.0166
  0
LINE
  8
0
 10
16.0046
 20
14.0166
 11
16.0227
 21
14.0113
  0
LINE
  8
0
 10
16.0227
 20
14.0113
 11
16.0404
 21
14.0049
  0
LINE
  8
0
 10
16.0404
 20
14.0049
 11
16.0577
 21
13.9974
  0
LINE
  8
0
 10
16.0577
 20
13.9974
 11
16.0745
 21
13.9889
  0
LINE
  8
0
 10
16.0745
 20
13.9889
 11
16.0907
 21
13.9793
  0
LINE
  8
0
 10
16.0907
 20
13.9793
 11
16.1063
 21
13.9687
  0
LINE
  8
0
 10
16.1063
 20
13.9687
 11
16.1212
 21
13.9572
  0
LINE
  8
0
 10
16.1212
 20
13.9572
 11
16.1354
 21
13.9447
  0
LINE
  8
0
 10
16.1354
 20
13.9447
 11
16.1487
 21
13.9314
  0
LINE
  8
0
 10
16.1487
 20
13.9314
 11
16.1611
 21
13.9172
  0
LINE
  8
0
 10
16.1611
 20
13.9172
 11
16.1727
 21
13.9023
  0
LINE
  8
0
 10
16.1727
 20
13.9023
 11
16.1833
 21
13.8867
  0
LINE
  8
0
 10
16.1833
 20
13.8867
 11
16.1929
 21
13.8705
  0
LINE
  8
0
 10
16.1929
 20
13.8705
 11
16.2014
 21
13.8537
  0
LINE
  8
0
 10
16.2014
 20
13.8537
 11
16.2089
 21
13.8364
  0
LINE
  8
0
 10
16.2089
 20
13.8364
 11
16.2153
 21
13.8187
  0
LINE
  8
0
 10
16.2153
 20
13.8187
 11
16.2206
 21
13.8006
  0
LINE
  8
0
 10
16.2206
 20
13.8006
 11
16.2247
 21
13.7822
  0
LINE
  8
0
 10
16.2247
 20
13.7822
 11
16.2276
 21
13.7636
  0
LINE
  8
0
 10
16.2276
 20
13.7636
 11
16.2294
 21
13.7448
  0
LINE
  8
0
 10
16.2294
 20
13.7448
 11
16.23
 21
13.726
  0
LINE
  8
0
 10
16.23
 20
13.726
 11
16.23
 21
-0.273987
  0
LINE
  8
0
 10
16.23
 20
-0.273987
 11
16.2294
 21
-0.292831
  0
LINE
  8
0
 10
16.2294
 20
-0.292831
 11
16.2276
 21
-0.3116
  0
LINE
  8
0
 10
16.2276
 20
-0.3116
 11
16.2247
 21
-0.3302
  0
LINE
  8
0
 10
16.2247
 20
-0.3302
 11
16.2206
 21
-0.348602
  0
LINE
  8
0
 10
16.2206
 20
-0.348602
 11
16.2153
 21
-0.366699
  0
LINE
  8
0
 10
16.2153
 20
-0.366699
 11
16.2089
 21
-0.38443
  0
LINE
  8
0
 10
16.2089
 20
-0.38443
 11
16.2014
 21
-0.401733
  0
LINE
  8
0
 10
16.2014
 20
-0.401733
 11
16.1929
 21
-0.418518
  0
LINE
  8
0
 10
16.1929
 20
-0.418518
 11
16.1833
 21
-0.434738
  0
LINE
  8
0
 10
16.1833
 20
-0.434738
 11
16.1727
 21
-0.450333
  0
LINE
  8
0
 10
16.1727
 20
-0.450333
 11
16.1611
 21
-0.465225
  0
LINE
  8
0
 10
16.1611
 20
-0.465225
 11
16.1487
 21
-0.479355
  0
LINE
  8
0
 10
16.1487
 20
-0.479355
 11
16.1354
 21
-0.492676
  0
LINE
  8
0
 10
16.1354
 20
-0.492676
 11
16.1212
 21
-0.505142
  0
LINE
  8
0
 10
16.1212
 20
-0.505142
 11
16.1063
 21
-0.516693
  0
LINE
  8
0
 10
16.1063
 20
-0.516693
 11
16.0907
 21
-0.527298
  0
LINE
  8
0
 10
16.0907
 20
-0.527298
 11
16.0745
 21
-0.53688
  0
LINE
  8
0
 10
16.0745
 20
-0.53688
 11
16.0577
 21
-0.545441
  0
LINE
  8
0
 10
16.0577
 20
-0.545441
 11
16.0404
 21
-0.552933
  0
LINE
  8
0
 10
16.0404
 20
-0.552933
 11
16.0227
 21
-0.559311
  0
LINE
  8
0
 10
16.0227
 20
-0.559311
 11
16.0046
 21
-0.56456
  0
LINE
  8
0
 10
16.0046
 20
-0.56456
 11
15.9862
 21
-0.56868
  0
LINE
  8
0
 10
15.9862
 20
-0.56868
 11
15.9676
 21
-0.571625
  0
LINE
  8
0
 10
15.9676
 20
-0.571625
 11
15.9488
 21
-0.573395
  0
LINE
  8
0
 10
15.9488
 20
-0.573395
 11
15.93
 21
-0.57399
  0
LINE
  8
0
 10
15.93
 20
-0.57399
 11
1.92999
 21
-0.57399
  0
LINE
  8
0
 10
-7.5
 20
-25.113
 11
-7.56279
 21
-25.111
  0
LINE
  8
0
 10
-7.56279
 20
-25.111
 11
-7.62532
 21
-25.1051
  0
LINE
  8
0
 10
-7.62532
 20
-25.1051
 11
-7.68738
 21
-25.0953
  0
LINE
  8
0
 10
-7.68738
 20
-25.0953
 11
-7.74869
 21
-25.0816
  0
LINE
  8
0
 10
-7.74869
 20
-25.0816
 11
-7.80901
 21
-25.064
  0
LINE
  8
0
 10
-7.80901
 20
-25.064
 11
-7.86812
 21
-25.0428
  0
LINE
  8
0
 10
-7.86812
 20
-25.0428
 11
-7.92577
 21
-25.0178
  0
LINE
  8
0
 10
-7.92577
 20
-25.0178
 11
-7.98175
 21
-24.9893
  0
LINE
  8
0
 10
-7.98175
 20
-24.9893
 11
-8.03581
 21
-24.9573
  0
LINE
  8
0
 10
-8.03581
 20
-24.9573
 11
-8.08778
 21
-24.922
  0
LINE
  8
0
 10
-8.08778
 20
-24.922
 11
-8.13742
 21
-24.8835
  0
LINE
  8
0
 10
-8.13742
 20
-24.8835
 11
-8.18454
 21
-24.8419
  0
LINE
  8
0
 10
-8.18454
 20
-24.8419
 11
-8.22896
 21
-24.7975
  0
LINE
  8
0
 10
-8.22896
 20
-24.7975
 11
-8.27051
 21
-24.7504
  0
LINE
  8
0
 10
-8.27051
 20
-24.7504
 11
-8.30901
 21
-24.7008
  0
LINE
  8
0
 10
-8.30901
 20
-24.7008
 11
-8.34431
 21
-24.6488
  0
LINE
  8
0
 10
-8.34431
 20
-24.6488
 11
-8.3763
 21
-24.5947
  0
LINE
  8
0
 10
-8.3763
 20
-24.5947
 11
-8.40482
 21
-24.5388
  0
LINE
  8
0
 10
-8.40482
 20
-24.5388
 11
-8.42976
 21
-24.4811
  0
LINE
  8
0
 10
-8.42976
 20
-24.4811
 11
-8.45105
 21
-24.422
  0
LINE
  8
0
 10
-8.45105
 20
-24.422
 11
-8.46858
 21
-24.3617
  0
LINE
  8
0
 10
-8.46858
 20
-24.3617
 11
-8.48228
 21
-24.3004
  0
LINE
  8
0
 10
-8.48228
 20
-24.3004
 11
-8.49211
 21
-24.2383
  0
LINE
  8
0
 10
-8.49211
 20
-24.2383
 11
-8.49802
 21
-24.1758
  0
LINE
  8
0
 10
-8.49802
 20
-24.1758
 11
-8.5
 21
-24.113
  0
LINE
  8
0
 10
-8.5
 20
-24.113
 11
-8.5
 21
-11.113
  0
LINE
  8
0
 10
-8.5
 20
-11.113
 11
-8.49802
 21
-11.0502
  0
LINE
  8
0
 10
-8.49802
 20
-11.0502
 11
-8.49211
 21
-10.9877
  0
LINE
  8
0
 10
-8.49211
 20
-10.9877
 11
-8.48228
 21
-10.9256
  0
LINE
  8
0
 10
-8.48228
 20
-10.9256
 11
-8.46858
 21
-10.8643
  0
LINE
  8
0
 10
-8.46858
 20
-10.8643
 11
-8.45105
 21
-10.804
  0
LINE
  8
0
 10
-8.45105
 20
-10.804
 11
-8.42976
 21
-10.7449
  0
LINE
  8
0
 10
-8.42976
 20
-10.7449
 11
-8.40482
 21
-10.6872
  0
LINE
  8
0
 10
-8.40482
 20
-10.6872
 11
-8.3763
 21
-10.6312
  0
LINE
  8
0
 10
-8.3763
 20
-10.6312
 11
-8.34431
 21
-10.5772
  0
LINE
  8
0
 10
-8.34431
 20
-10.5772
 11
-8.30901
 21
-10.5252
  0
LINE
  8
0
 10
-8.30901
 20
-10.5252
 11
-8.27051
 21
-10.4756
  0
LINE
  8
0
 10
-8.27051
 20
-10.4756
 11
-8.22896
 21
-10.4285
  0
LINE
  8
0
 10
-8.22896
 20
-10.4285
 11
-8.18454
 21
-10.384
  0
LINE
  8
0
 10
-8.18454
 20
-10.384
 11
-8.13742
 21
-10.3425
  0
LINE
  8
0
 10
-8.13742
 20
-10.3425
 11
-8.08778
 21
-10.304
  0
LINE
  8
0
 10
-8.08778
 20
-10.304
 11
-8.03581
 21
-10.2687
  0
LINE
  8
0
 10
-8.03581
 20
-10.2687
 11
-7.98175
 21
-10.2367
  0
LINE
  8
0
 10
-7.98175
 20
-10.2367
 11
-7.92577
 21
-10.2082
  0
LINE
  8
0
 10
-7.92577
 20
-10.2082
 11
-7.86812
 21
-10.1832
  0
LINE
  8
0
 10
-7.86812
 20
-10.1832
 11
-7.80901
 21
-10.1619
  0
LINE
  8
0
 10
-7.80901
 20
-10.1619
 11
-7.74869
 21
-10.1444
  0
LINE
  8
0
 10
-7.74869
 20
-10.1444
 11
-7.68738
 21
-10.1307
  0
LINE
  8
0
 10
-7.68738
 20
-10.1307
 11
-7.62532
 21
-10.1209
  0
LINE
  8
0
 10
-7.62532
 20
-10.1209
 11
-7.56279
 21
-10.115
  0
LINE
  8
0
 10
-7.56279
 20
-10.115
 11
-7.5
 21
-10.113
  0
LINE
  8
0
 10
-7.5
 20
-10.113
 11
-4.5
 21
-10.113
  0
LINE
  8
0
 10
-4.5
 20
-10.113
 11
-4.5
 21
-6.30649
  0
LINE
  8
0
 10
-4.5
 20
-6.30649
 11
-4.49802
 21
-6.2437
  0
LINE
  8
0
 10
-4.49802
 20
-6.2437
 11
-4.49211
 21
-6.18117
  0
LINE
  8
0
 10
-4.49211
 20
-6.18117
 11
-4.48228
 21
-6.11911
  0
LINE
  8
0
 10
-4.48228
 20
-6.11911
 11
-4.46858
 21
-6.0578
  0
LINE
  8
0
 10
-4.46858
 20
-6.0578
 11
-4.45105
 21
-5.99748
  0
LINE
  8
0
 10
-4.45105
 20
-5.99748
 11
-4.42976
 21
-5.93837
  0
LINE
  8
0
 10
-4.42976
 20
-5.93837
 11
-4.40482
 21
-5.88072
  0
LINE
  8
0
 10
-4.40482
 20
-5.88072
 11
-4.3763
 21
-5.82474
  0
LINE
  8
0
 10
-4.3763
 20
-5.82474
 11
-4.34431
 21
-5.77068
  0
LINE
  8
0
 10
-4.34431
 20
-5.77068
 11
-4.30901
 21
-5.7187
  0
LINE
  8
0
 10
-4.30901
 20
-5.7187
 11
-4.27051
 21
-5.66907
  0
LINE
  8
0
 10
-4.27051
 20
-5.66907
 11
-4.22896
 21
-5.62195
  0
LINE
  8
0
 10
-4.22896
 20
-5.62195
 11
-4.18454
 21
-5.57753
  0
LINE
  8
0
 10
-4.18454
 20
-5.57753
 11
-4.13742
 21
-5.53598
  0
LINE
  8
0
 10
-4.13742
 20
-5.53598
 11
-4.08778
 21
-5.49748
  0
LINE
  8
0
 10
-4.08778
 20
-5.49748
 11
-4.03581
 21
-5.46217
  0
LINE
  8
0
 10
-4.03581
 20
-5.46217
 11
-3.98175
 21
-5.43019
  0
LINE
  8
0
 10
-3.98175
 20
-5.43019
 11
-3.92577
 21
-5.40167
  0
LINE
  8
0
 10
-3.92577
 20
-5.40167
 11
-3.86812
 21
-5.37672
  0
LINE
  8
0
 10
-3.86812
 20
-5.37672
 11
-3.80901
 21
-5.35544
  0
LINE
  8
0
 10
-3.80901
 20
-5.35544
 11
-3.74869
 21
-5.33791
  0
LINE
  8
0
 10
-3.74869
 20
-5.33791
 11
-3.68738
 21
-5.3242
  0
LINE
  8
0
 10
-3.68738
 20
-5.3242
 11
-3.62532
 21
-5.31438
  0
LINE
  8
0
 10
-3.62532
 20
-5.31438
 11
-3.56279
 21
-5.30847
  0
LINE
  8
0
 10
-3.56279
 20
-5.30847
 11
-3.5
 21
-5.30649
  0
LINE
  8
0
 10
-3.5
 20
-5.30649
 11
3.5
 21
-5.30649
  0
LINE
  8
0
 10
3.5
 20
-5.30649
 11
3.56279
 21
-5.30847
  0
LINE
  8
0
 10
3.56279
 20
-5.30847
 11
3.62532
 21
-5.31438
  0
LINE
  8
0
 10
3.62532
 20
-5.31438
 11
3.68738
 21
-5.3242
  0
LINE
  8
0
 10
3.68738
 20
-5.3242
 11
3.74869
 21
-5.33791
  0
LINE
  8
0
 10
3.74869
 20
-5.33791
 11
3.80901
 21
-5.35544
  0
LINE
  8
0
 10
3.80901
 20
-5.35544
 11
3.86812
 21
-5.37672
  0
LINE
  8
0
 10
3.86812
 20
-5.37672
 11
3.92577
 21
-5.40167
  0
LINE
  8
0
 10
3.92577
 20
-5.40167
 11
3.98175
 21
-5.43019
  0
LINE
  8
0
 10
3.98175
 20
-5.43019
 11
4.03581
 21
-5.46217
  0
LINE
  8
0
 10
4.03581
 20
-5.46217
 11
4.08778
 21
-5.49748
  0
LINE
  8
0
 10
4.08778
 20
-5.49748
 11
4.13742
 21
-5.53598
  0
LINE
  8
0
 10
4.13742
 20
-5.53598
 11
4.18454
 21
-5.57753
  0
LINE
  8
0
 10
4.18454
 20
-5.57753
 11
4.22896
 21
-5.62195
  0
LINE
  8
0
 10
4.22896
 20
-5.62195
 11
4.27051
 21
-5.66907
  0
LINE
  8
0
 10
4.27051
 20
-5.66907
 11
4.30901
 21
-5.7187
  0
LINE
  8
0
 10
4.30901
 20
-5.7187
 11
4.34431
 21
-5.77068
  0
LINE
  8
0
 10
4.34431
 20
-5.77068
 11
4.3763
 21
-5.82474
  0
LINE
  8
0
 10
4.3763
 20
-5.82474
 11
4.40482
 21
-5.88072
  0
LINE
  8
0
 10
4.40482
 20
-5.88072
 11
4.42976
 21
-5.93837
  0
LINE
  8
0
 10
4.42976
 20
-5.93837
 11
4.45105
 21
-5.99748
  0
LINE
  8
0
 10
4.45105
 20
-5.99748
 11
4.46858
 21
-6.0578
  0
LINE
  8
0
 10
4.46858
 20
-6.0578
 11
4.48228
 21
-6.11911
  0
LINE
  8
0
 10
4.48228
 20
-6.11911
 11
4.49211
 21
-6.18117
  0
LINE
  8
0
 10
4.49211
 20
-6.18117
 11
4.49802
 21
-6.2437
  0
LINE
  8
0
 10
4.49802
 20
-6.2437
 11
4.5
 21
-6.30649
  0
LINE
  8
0
 10
4.5
 20
-6.30649
 11
4.5
 21
-10.113
  0
LINE
  8
0
 10
4.5
 20
-10.113
 11
7.5
 21
-10.113
  0
LINE
  8
0
 10
7.5
 20
-10.113
 11
7.56279
 21
-10.115
  0
LINE
  8
0
 10
7.56279
 20
-10.115
 11
7.62532
 21
-10.1209
  0
LINE
  8
0
 10
7.62532
 20
-10.1209
 11
7.68738
 21
-10.1307
  0
LINE
  8
0
 10
7.68738
 20
-10.1307
 11
7.74869
 21
-10.1444
  0
LINE
  8
0
 10
7.74869
 20
-10.1444
 11
7.80901
 21
-10.1619
  0
LINE
  8
0
 10
7.80901
 20
-10.1619
 11
7.86812
 21
-10.1832
  0
LINE
  8
0
 10
7.86812
 20
-10.1832
 11
7.92577
 21
-10.2082
  0
LINE
  8
0
 10
7.92577
 20
-10.2082
 11
7.98175
 21
-10.2367
  0
LINE
  8
0
 10
7.98175
 20
-10.2367
 11
8.03581
 21
-10.2687
  0
LINE
  8
0
 10
8.03581
 20
-10.2687
 11
8.08778
 21
-10.304
  0
LINE
  8
0
 10
8.08778
 20
-10.304
 11
8.13742
 21
-10.3425
  0
LINE
  8
0
 10
8.13742
 20
-10.3425
 11
8.18454
 21
-10.384
  0
LINE
  8
0
 10
8.18454
 20
-10.384
 11
8.22896
 21
-10.4285
  0
LINE
  8
0
 10
8.22896
 20
-10.4285
 11
8.27051
 21
-10.4756
  0
LINE
  8
0
 10
8.27051
 20
-10.4756
 11
8.30901
 21
-10.5252
  0
LINE
  8
0
 10
8.30901
 20
-10.5252
 11
8.34431
 21
-10.5772
  0
LINE
  8
0
 10
8.34431
 20
-10.5772
 11
8.3763
 21
-10.6312
  0
LINE
  8
0
 10
8.3763
 20
-10.6312
 11
8.40482
 21
-10.6872
  0
LINE
  8
0
 10
8.40482
 20
-10.6872
 11
8.42976
 21
-10.7449
  0
LINE
  8
0
 10
8.42976
 20
-10.7449
 11
8.45105
 21
-10.804
  0
LINE
  8
0
 10
8.45105
 20
-10.804
 11
8.46858
 21
-10.8643
  0
LINE
  8
0
 10
8.46858
 20
-10.8643
 11
8.48228
 21
-10.9256
  0
LINE
  8
0
 10
8.48228
 20
-10.9256
 11
8.49211
 21
-10.9877
  0
LINE
  8
0
 10
8.49211
 20
-10.9877
 11
8.49802
 21
-11.0502
  0
LINE
  8
0
 10
8.49802
 20
-11.0502
 11
8.5
 21
-11.113
  0
LINE
  8
0
 10
8.5
 20
-11.113
 11
8.5
 21
-24.113
  0
LINE
  8
0
 10
8.5
 20
-24.113
 11
8.49802
 21
-24.1758
  0
LINE
  8
0
 10
8.49802
 20
-24.1758
 11
8.49211
 21
-24.2383
  0
LINE
  8
0
 10
8.49211
 20
-24.2383
 11
8.48228
 21
-24.3004
  0
LINE
  8
0
 10
8.48228
 20
-24.3004
 11
8.46858
 21
-24.3617
  0
LINE
  8
0
 10
8.46858
 20
-24.3617
 11
8.45105
 21
-24.422
  0
LINE
  8
0
 10
8.45105
 20
-24.422
 11
8.42976
 21
-24.4811
  0
LINE
  8
0
 10
8.42976
 20
-24.4811
 11
8.40482
 21
-24.5388
  0
LINE
  8
0
 10
8.40482
 20
-24.5388
 11
8.3763
 21
-24.5947
  0
LINE
  8
0
 10
8.3763
 20
-24.5947
 11
8.34431
 21
-24.6488
  0
LINE
  8
0
 10
8.34431
 20
-24.6488
 11
8.30901
 21
-24.7008
  0
LINE
  8
0
 10
8.30901
 20
-24.7008
 11
8.27051
 21
-24.7504
  0
LINE
  8
0
 10
8.27051
 20
-24.7504
 11
8.22896
 21
-24.7975
  0
LINE
  8
0
 10
8.22896
 20
-24.7975
 11
8.18454
 21
-24.8419
  0
LINE
  8
0
 10
8.18454
 20
-24.8419
 11
8.13742
 21
-24.8835
  0
LINE
  8
0
 10
8.13742
 20
-24.8835
 11
8.08778
 21
-24.922
  0
LINE
  8
0
 10
8.08778
 20
-24.922
 11
8.03581
 21
-24.9573
  0
LINE
  8
0
 10
8.03581
 20
-24.9573
 11
7.98175
 21
-24.9893
  0
LINE
  8
0
 10
7.98175
 20
-24.9893
 11
7.92577
 21
-25.0178
  0
LINE
  8
0
 10
7.92577
 20
-25.0178
 11
7.86812
 21
-25.0428
  0
LINE
  8
0
 10
7.86812
 20
-25.0428
 11
7.80901
 21
-25.064
  0
LINE
  8
0
 10
7.80901
 20
-25.064
 11
7.74869
 21
-25.0816
  0
LINE
  8
0
 10
7.74869
 20
-25.0816
 11
7.68738
 21
-25.0953
  0
LINE
  8
0
 10
7.68738
 20
-25.0953
 11
7.62532
 21
-25.1051
  0
LINE
  8
0
 10
7.62532
 20
-25.1051
 11
7.56279
 21
-25.111
  0
LINE
  8
0
 10
7.56279
 20
-25.111
 11
7.5
 21
-25.113
  0
LINE
  8
0
 10
7.5
 20
-25.113
 11
-7.5
 21
-25.113
  0
LINE
  8
0
 10
-19.6642
 20
-36.723
 11
-19.758
 21
-36.7142
  0
LINE
  8
0
 10
-19.758
 20
-36.7142
 11
-19.8511
 21
-36.6994
  0
LINE
  8
0
 10
-19.8511
 20
-36.6994
 11
-19.943
 21
-36.6789
  0
LINE
  8
0
 10
-19.943
 20
-36.6789
 11
-20.0335
 21
-36.6526
  0
LINE
  8
0
 10
-20.0335
 20
-36.6526
 11
-20.1222
 21
-36.6207
  0
LINE
  8
0
 10
-20.1222
 20
-36.6207
 11
-20.2087
 21
-36.5832
  0
LINE
  8
0
 10
-20.2087
 20
-36.5832
 11
-20.2926
 21
-36.5405
  0
LINE
  8
0
 10
-20.2926
 20
-36.5405
 11
-20.3737
 21
-36.4925
  0
LINE
  8
0
 10
-20.3737
 20
-36.4925
 11
-20.4517
 21
-36.4395
  0
LINE
  8
0
 10
-20.4517
 20
-36.4395
 11
-20.5261
 21
-36.3818
  0
LINE
  8
0
 10
-20.5261
 20
-36.3818
 11
-20.5968
 21
-36.3194
  0
LINE
  8
0
 10
-20.5968
 20
-36.3194
 11
-20.6635
 21
-36.2528
  0
LINE
  8
0
 10
-20.6635
 20
-36.2528
 11
-20.7258
 21
-36.1821
  0
LINE
  8
0
 10
-20.7258
 20
-36.1821
 11
-20.7835
 21
-36.1077
  0
LINE
  8
0
 10
-20.7835
 20
-36.1077
 11
-20.8365
 21
-36.0297
  0
LINE
  8
0
 10
-20.8365
 20
-36.0297
 11
-20.8844
 21
-35.9486
  0
LINE
  8
0
 10
-20.8844
 20
-35.9486
 11
-20.9272
 21
-35.8647
  0
LINE
  8
0
 10
-20.9272
 20
-35.8647
 11
-20.9647
 21
-35.7782
  0
LINE
  8
0
 10
-20.9647
 20
-35.7782
 11
-20.9966
 21
-35.6895
  0
LINE
  8
0
 10
-20.9966
 20
-35.6895
 11
-21.0229
 21
-35.599
  0
LINE
  8
0
 10
-21.0229
 20
-35.599
 11
-21.0434
 21
-35.5071
  0
LINE
  8
0
 10
-21.0434
 20
-35.5071
 11
-21.0582
 21
-35.414
  0
LINE
  8
0
 10
-21.0582
 20
-35.414
 11
-21.067
 21
-35.3202
  0
LINE
  8
0
 10
-21.067
 20
-35.3202
 11
-21.07
 21
-35.226
  0
LINE
  8
0
 10
-21.07
 20
-35.226
 11
-21.067
 21
-35.1318
  0
LINE
  8
0
 10
-21.067
 20
-35.1318
 11
-21.0582
 21
-35.038
  0
LINE
  8
0
 10
-21.0582
 20
-35.038
 11
-21.0434
 21
-34.9449
  0
LINE
  8
0
 10
-21.0434
 20
-34.9449
 11
-21.0229
 21
-34.853
  0
LINE
  8
0
 10
-21.0229
 20
-34.853
 11
-20.9966
 21
-34.7625
  0
LINE
  8
0
 10
-20.9966
 20
-34.7625
 11
-20.9647
 21
-34.6738
  0
LINE
  8
0
 10
-20.9647
 20
-34.6738
 11
-20.9272
 21
-34.5873
  0
LINE
  8
0
 10
-20.9272
 20
-34.5873
 11
-20.8844
 21
-34.5034
  0
LINE
  8
0
 10
-20.8844
 20
-34.5034
 11
-20.8365
 21
-34.4223
  0
LINE
  8
0
 10
-20.8365
 20
-34.4223
 11
-20.7835
 21
-34.3443
  0
LINE
  8
0
 10
-20.7835
 20
-34.3443
 11
-20.7258
 21
-34.2699
  0
LINE
  8
0
 10
-20.7258
 20
-34.2699
 11
-20.6635
 21
-34.1992
  0
LINE
  8
0
 10
-20.6635
 20
-34.1992
 11
-20.5968
 21
-34.1325
  0
LINE
  8
0
 10
-20.5968
 20
-34.1325
 11
-20.5261
 21
-34.0702
  0
LINE
  8
0
 10
-20.5261
 20
-34.0702
 11
-20.4517
 21
-34.0125
  0
LINE
  8
0
 10
-20.4517
 20
-34.0125
 11
-20.3737
 21
-33.9595
  0
LINE
  8
0
 10
-20.3737
 20
-33.9595
 11
-20.2926
 21
-33.9115
  0
LINE
  8
0
 10
-20.2926
 20
-33.9115
 11
-20.2087
 21
-33.8688
  0
LINE
  8
0
 10
-20.2087
 20
-33.8688
 11
-20.1222
 21
-33.8313
  0
LINE
  8
0
 10
-20.1222
 20
-33.8313
 11
-20.0335
 21
-33.7994
  0
LINE
  8
0
 10
-20.0335
 20
-33.7994
 11
-19.943
 21
-33.7731
  0
LINE
  8
0
 10
-19.943
 20
-33.7731
 11
-19.8511
 21
-33.7526
  0
LINE
  8
0
 10
-19.8511
 20
-33.7526
 11
-19.758
 21
-33.7378
  0
LINE
  8
0
 10
-19.758
 20
-33.7378
 11
-19.6642
 21
-33.729
  0
LINE
  8
0
 10
-19.6642
 20
-33.729
 11
-19.57
 21
-33.726
  0
LINE
  8
0
 10
-19.57
 20
-33.726
 11
-19.4758
 21
-33.729
  0
LINE
  8
0
 10
-19.4758
 20
-33.729
 11
-19.382
 21
-33.7378
  0
LINE
  8
0
 10
-19.382
 20
-33.7378
 11
-19.2889
 21
-33.7526
  0
LINE
  8
0
 10
-19.2889
 20
-33.7526
 11
-19.197
 21
-33.7731
  0
LINE
  8
0
 10
-19.197
 20
-33.7731
 11
-19.1065
 21
-33.7994
  0
LINE
  8
0
 10
-19.1065
 20
-33.7994
 11
-19.0178
 21
-33.8313
  0
LINE
  8
0
 10
-19.0178
 20
-33.8313
 11
-18.9313
 21
-33.8688
  0
LINE
  8
0
 10
-18.9313
 20
-33.8688
 11
-18.8474
 21
-33.9115
  0
LINE
  8
0
 10
-18.8474
 20
-33.9115
 11
-18.7663
 21
-33.9595
  0
LINE
  8
0
 10
-18.7663
 20
-33.9595
 11
-18.6883
 21
-34.0125
  0
LINE
  8
0
 10
-18.6883
 20
-34.0125
 11
-18.6139
 21
-34.0702
  0
LINE
  8
0
 10
-18.6139
 20
-34.0702
 11
-18.5432
 21
-34.1325
  0
LINE
  8
0
 10
-18.5432
 20
-34.1325
 11
-18.4765
 21
-34.1992
  0
LINE
  8
0
 10
-18.4765
 20
-34.1992
 11
-18.4142
 21
-34.2699
  0
LINE
  8
0
 10
-18.4142
 20
-34.2699
 11
-18.3565
 21
-34.3443
  0
LINE
  8
0
 10
-18.3565
 20
-34.3443
 11
-18.3035
 21
-34.4223
  0
LINE
  8
0
 10
-18.3035
 20
-34.4223
 11
-18.2555
 21
-34.5034
  0
LINE
  8
0
 10
-18.2555
 20
-34.5034
 11
-18.2128
 21
-34.5873
  0
LINE
  8
0
 10
-18.2128
 20
-34.5873
 11
-18.1753
 21
-34.6738
  0
LINE
  8
0
 10
-18.1753
 20
-34.6738
 11
-18.1434
 21
-34.7625
  0
LINE
  8
0
 10
-18.1434
 20
-34.7625
 11
-18.1171
 21
-34.853
  0
LINE
  8
0
 10
-18.1171
 20
-34.853
 11
-18.0966
 21
-34.9449
  0
LINE
  8
0
 10
-18.0966
 20
-34.9449
 11
-18.0818
 21
-35.038
  0
LINE
  8
0
 10
-18.0818
 20
-35.038
 11
-18.073
 21
-35.1318
  0
LINE
  8
0
 10
-18.073
 20
-35.1318
 11
-18.07
 21
-35.226
  0
LINE
  8
0
 10
-18.07
 20
-35.226
 11
-18.073
 21
-35.3202
  0
LINE
  8
0
 10
-18.073
 20
-35.3202
 11
-18.0818
 21
-35.414
  0
LINE
  8
0
 10
-18.0818
 20
-35.414
 11
-18.0966
 21
-35.5071
  0
LINE
  8
0
 10
-18.0966
 20
-35.5071
 11
-18.1171
 21
-35.599
  0
LINE
  8
0
 10
-18.1171
 20
-35.599
 11
-18.1434
 21
-35.6895
  0
LINE
  8
0
 10
-18.1434
 20
-35.6895
 11
-18.1753
 21
-35.7782
  0
LINE
  8
0
 10
-18.1753
 20
-35.7782
 11
-18.2128
 21
-35.8647
  0
LINE
  8
0
 10
-18.2128
 20
-35.8647
 11
-18.2555
 21
-35.9486
  0
LINE
  8
0
 10
-18.2555
 20
-35.9486
 11
-18.3035
 21
-36.0297
  0
LINE
  8
0
 10
-18.3035
 20
-36.0297
 11
-18.3565
 21
-36.1077
  0
LINE
  8
0
 10
-18.3565
 20
-36.1077
 11
-18.4142
 21
-36.1821
  0
LINE
  8
0
 10
-18.4142
 20
-36.1821
 11
-18.4765
 21
-36.2528
  0
LINE
  8
0
 10
-18.4765
 20
-36.2528
 11
-18.5432
 21
-36.3194
  0
LINE
  8
0
 10
-18.5432
 20
-36.3194
 11
-18.6139
 21
-36.3818
  0
LINE
  8
0
 10
-18.6139
 20
-36.3818
 11
-18.6883
 21
-36.4395
  0
LINE
  8
0
 10
-18.6883
 20
-36.4395
 11
-18.7663
 21
-36.4925
  0
LINE
  8
0
 10
-18.7663
 20
-36.4925
 11
-18.8474
 21
-36.5405
  0
LINE
  8
0
 10
-18.8474
 20
-36.5405
 11
-18.9313
 21
-36.5832
  0
LINE
  8
0
 10
-18.9313
 20
-36.5832
 11
-19.0178
 21
-36.6207
  0
LINE
  8
0
 10
-19.0178
 20
-36.6207
 11
-19.1065
 21
-36.6526
  0
LINE
  8
0
 10
-19.1065
 20
-36.6526
 11
-19.197
 21
-36.6789
  0
LINE
  8
0
 10
-19.197
 20
-36.6789
 11
-19.2889
 21
-36.6994
  0
LINE
  8
0
 10
-19.2889
 20
-36.6994
 11
-19.382
 21
-36.7142
  0
LINE
  8
0
 10
-19.382
 20
-36.7142
 11
-19.4758
 21
-36.723
  0
LINE
  8
0
 10
-19.4758
 20
-36.723
 11
-19.57
 21
-36.726
  0
LINE
  8
0
 10
-19.57
 20
-36.726
 11
-19.6642
 21
-36.723
  0
LINE
  8
0
 10
19.4758
 20
-36.723
 11
19.382
 21
-36.7142
  0
LINE
  8
0
 10
19.382
 20
-36.7142
 11
19.2889
 21
-36.6994
  0
LINE
  8
0
 10
19.2889
 20
-36.6994
 11
19.197
 21
-36.6789
  0
LINE
  8
0
 10
19.197
 20
-36.6789
 11
19.1065
 21
-36.6526
  0
LINE
  8
0
 10
19.1065
 20
-36.6526
 11
19.0178
 21
-36.6207
  0
LINE
  8
0
 10
19.0178
 20
-36.6207
 11
18.9313
 21
-36.5832
  0
LINE
  8
0
 10
18.9313
 20
-36.5832
 11
18.8474
 21
-36.5405
  0
LINE
  8
0
 10
18.8474
 20
-36.5405
 11
18.7663
 21
-36.4925
  0
LINE
  8
0
 10
18.7663
 20
-36.4925
 11
18.6883
 21
-36.4395
  0
LINE
  8
0
 10
18.6883
 20
-36.4395
 11
18.6139
 21
-36.3818
  0
LINE
  8
0
 10
18.6139
 20
-36.3818
 11
18.5432
 21
-36.3194
  0
LINE
  8
0
 10
18.5432
 20
-36.3194
 11
18.4765
 21
-36.2528
  0
LINE
  8
0
 10
18.4765
 20
-36.2528
 11
18.4142
 21
-36.1821
  0
LINE
  8
0
 10
18.4142
 20
-36.1821
 11
18.3565
 21
-36.1077
  0
LINE
  8
0
 10
18.3565
 20
-36.1077
 11
18.3035
 21
-36.0297
  0
LINE
  8
0
 10
18.3035
 20
-36.0297
 11
18.2555
 21
-35.9486
  0
LINE
  8
0
 10
18.2555
 20
-35.9486
 11
18.2128
 21
-35.8647
  0
LINE
  8
0
 10
18.2128
 20
-35.8647
 11
18.1753
 21
-35.7782
  0
LINE
  8
0
 10
18.1753
 20
-35.7782
 11
18.1434
 21
-35.6895
  0
LINE
  8
0
 10
18.1434
 20
-35.6895
 11
18.1171
 21
-35.599
  0
LINE
  8
0
 10
18.1171
 20
-35.599
 11
18.0966
 21
-35.5071
  0
LINE
  8
0
 10
18.0966
 20
-35.5071
 11
18.0818
 21
-35.414
  0
LINE
  8
0
 10
18.0818
 20
-35.414
 11
18.073
 21
-35.3202
  0
LINE
  8
0
 10
18.073
 20
-35.3202
 11
18.07
 21
-35.226
  0
LINE
  8
0
 10
18.07
 20
-35.226
 11
18.073
 21
-35.1318
  0
LINE
  8
0
 10
18.073
 20
-35.1318
 11
18.0818
 21
-35.038
  0
LINE
  8
0
 10
18.0818
 20
-35.038
 11
18.0966
 21
-34.9449
  0
LINE
  8
0
 10
18.0966
 20
-34.9449
 11
18.1171
 21
-34.853
  0
LINE
  8
0
 10
18.1171
 20
-34.853
 11
18.1434
 21
-34.7625
  0
LINE
  8
0
 10
18.1434
 20
-34.7625
 11
18.1753
 21
-34.6738
  0
LINE
  8
0
 10
18.1753
 20
-34.6738
 11
18.2128
 21
-34.5873
  0
LINE
  8
0
 10
18.2128
 20
-34.5873
 11
18.2555
 21
-34.5034
  0
LINE
  8
0
 10
18.2555
 20
-34.5034
 11
18.3035
 21
-34.4223
  0
LINE
  8
0
 10
18.3035
 20
-34.4223
 11
18.3565
 21
-34.3443
  0
LINE
  8
0
 10
18.3565
 20
-34.3443
 11
18.4142
 21
-34.2699
  0
LINE
  8
0
 10
18.4142
 20
-34.2699
 11
18.4765
 21
-34.1992
  0
LINE
  8
0
 10
18.4765
 20
-34.1992
 11
18.5432
 21
-34.1325
  0
LINE
  8
0
 10
18.5432
 20
-34.1325
 11
18.6139
 21
-34.0702
  0
LINE
  8
0
 10
18.6139
 20
-34.0702
 11
18.6883
 21
-34.0125
  0
LINE
  8
0
 10
18.6883
 20
-34.0125
 11
18.7663
 21
-33.9595
  0
LINE
  8
0
 10
18.7663
 20
-33.9595
 11
18.8474
 21
-33.9115
  0
LINE
  8
0
 10
18.8474
 20
-33.9115
 11
18.9313
 21
-33.8688
  0
LINE
  8
0
 10
18.9313
 20
-33.8688
 11
19.0178
 21
-33.8313
  0
LINE
  8
0
 10
19.0178
 20
-33.8313
 11
19.1065
 21
-33.7994
  0
LINE
  8
0
 10
19.1065
 20
-33.7994
 11
19.197
 21
-33.7731
  0
LINE
  8
0
 10
19.197
 20
-33.7731
 11
19.2889
 21
-33.7526
  0
LINE
  8
0
 10
19.2889
 20
-33.7526
 11
19.382
 21
-33.7378
  0
LINE
  8
0
 10
19.382
 20
-33.7378
 11
19.4758
 21
-33.729
  0
LINE
  8
0
 10
19.4758
 20
-33.729
 11
19.57
 21
-33.726
  0
LINE
  8
0
 10
19.57
 20
-33.726
 11
19.6642
 21
-33.729
  0
LINE
  8
0
 10
19.6642
 20
-33.729
 11
19.758
 21
-33.7378
  0
LINE
  8
0
 10
19.758
 20
-33.7378
 11
19.8511
 21
-33.7526
  0
LINE
  8
0
 10
19.8511
 20
-33.7526
 11
19.943
 21
-33.7731
  0
LINE
  8
0
 10
19.943
 20
-33.7731
 11
20.0335
 21
-33.7994
  0
LINE
  8
0
 10
20.0335
 20
-33.7994
 11
20.1222
 21
-33.8313
  0
LINE
  8
0
 10
20.1222
 20
-33.8313
 11
20.2087
 21
-33.8688
  0
LINE
  8
0
 10
20.2087
 20
-33.8688
 11
20.2926
 21
-33.9115
  0
LINE
  8
0
 10
20.2926
 20
-33.9115
 11
20.3737
 21
-33.9595
  0
LINE
  8
0
 10
20.3737
 20
-33.9595
 11
20.4517
 21
-34.0125
  0
LINE
  8
0
 10
20.4517
 20
-34.0125
 11
20.5261
 21
-34.0702
  0
LINE
  8
0
 10
20.5261
 20
-34.0702
 11
20.5968
 21
-34.1325
  0
LINE
  8
0
 10
20.5968
 20
-34.1325
 11
20.6635
 21
-34.1992
  0
LINE
  8
0
 10
20.6635
 20
-34.1992
 11
20.7258
 21
-34.2699
  0
LINE
  8
0
 10
20.7258
 20
-34.2699
 11
20.7835
 21
-34.3443
  0
LINE
  8
0
 10
20.7835
 20
-34.3443
 11
20.8365
 21
-34.4223
  0
LINE
  8
0
 10
20.8365
 20
-34.4223
 11
20.8844
 21
-34.5034
  0
LINE
  8
0
 10
20.8844
 20
-34.5034
 11
20.9272
 21
-34.5873
  0
LINE
  8
0
 10
20.9272
 20
-34.5873
 11
20.9647
 21
-34.6738
  0
LINE
  8
0
 10
20.9647
 20
-34.6738
 11
20.9966
 21
-34.7625
  0
LINE
  8
0
 10
20.9966
 20
-34.7625
 11
21.0229
 21
-34.853
  0
LINE
  8
0
 10
21.0229
 20
-34.853
 11
21.0434
 21
-34.9449
  0
LINE
  8
0
 10
21.0434
 20
-34.9449
 11
21.0582
 21
-35.038
  0
LINE
  8
0
 10
21.0582
 20
-35.038
 11
21.067
 21
-35.1318
  0
LINE
  8
0
 10
21.067
 20
-35.1318
 11
21.07
 21
-35.226
  0
LINE
  8
0
 10
21.07
 20
-35.226
 11
21.067
 21
-35.3202
  0
LINE
  8
0
 10
21.067
 20
-35.3202
 11
21.0582
 21
-35.414
  0
LINE
  8
0
 10
21.0582
 20
-35.414
 11
21.0434
 21
-35.5071
  0
LINE
  8
0
 10
21.0434
 20
-35.5071
 11
21.0229
 21
-35.599
  0
LINE
  8
0
 10
21.0229
 20
-35.599
 11
20.9966
 21
-35.6895
  0
LINE
  8
0
 10
20.9966
 20
-35.6895
 11
20.9647
 21
-35.7782
  0
LINE
  8
0
 10
20.9647
 20
-35.7782
 11
20.9272
 21
-35.8647
  0
LINE
  8
0
 10
20.9272
 20
-35.8647
 11
20.8844
 21
-35.9486
  0
LINE
  8
0
 10
20.8844
 20
-35.9486
 11
20.8365
 21
-36.0297
  0
LINE
  8
0
 10
20.8365
 20
-36.0297
 11
20.7835
 21
-36.1077
  0
LINE
  8
0
 10
20.7835
 20
-36.1077
 11
20.7258
 21
-36.1821
  0
LINE
  8
0
 10
20.7258
 20
-36.1821
 11
20.6635
 21
-36.2528
  0
LINE
  8
0
 10
20.6635
 20
-36.2528
 11
20.5968
 21
-36.3194
  0
LINE
  8
0
 10
20.5968
 20
-36.3194
 11
20.5261
 21
-36.3818
  0
LINE
  8
0
 10
20.5261
 20
-36.3818
 11
20.4517
 21
-36.4395
  0
LINE
  8
0
 10
20.4517
 20
-36.4395
 11
20.3737
 21
-36.4925
  0
LINE
  8
0
 10
20.3737
 20
-36.4925
 11
20.2926
 21
-36.5405
  0
LINE
  8
0
 10
20.2926
 20
-36.5405
 11
20.2087
 21
-36.5832
  0
LINE
  8
0
 10
20.2087
 20
-36.5832
 11
20.1222
 21
-36.6207
  0
LINE
  8
0
 10
20.1222
 20
-36.6207
 11
20.0335
 21
-36.6526
  0
LINE
  8
0
 10
20.0335
 20
-36.6526
 11
19.943
 21
-36.6789
  0
LINE
  8
0
 10
19.943
 20
-36.6789
 11
19.8511
 21
-36.6994
  0
LINE
  8
0
 10
19.8511
 20
-36.6994
 11
19.758
 21
-36.7142
  0
LINE
  8
0
 10
19.758
 20
-36.7142
 11
19.6642
 21
-36.723
  0
LINE
  8
0
 10
19.6642
 20
-36.723
 11
19.57
 21
-36.726
  0
LINE
  8
0
 10
19.57
 20
-36.726
 11
19.4758
 21
-36.723
  0
ENDSEC
  0
SECTION
  2
OBJECTS
  0
DICTIONARY
  0
ENDSEC
  0
EOF
