M48
; DRILL file {KiCad 5.1.8-db9833491~88~ubuntu20.10.1} date Thu Nov 26 22:31:13 2020
; FORMAT={-:-/ absolute / inch / decimal}
; #@! TF.CreationDate,2020-11-26T22:31:13-06:00
; #@! TF.GenerationSoftware,Kicad,Pcbnew,5.1.8-db9833491~88~ubuntu20.10.1
; #@! TF.FileFunction,Plated,1,2,PTH
FMAT,2
INCH
T1C0.0157
T2C0.0236
T3C0.0394
T4C0.0591
T5C0.0866
%
G90
G05
T1
X1.25Y-1.93
X1.25Y-2.25
X1.25Y-2.55
X1.25Y-3.33
X1.3Y-2.02
X1.3Y-2.38
X1.32Y-1.82
X1.33Y-1.87
X1.35Y-2.23
X1.36Y-1.93
X1.43Y-2.2
X1.465Y-1.965
X1.465Y-2.035
X1.47Y-2.1415
X1.5Y-1.5
X1.5Y-1.75
X1.51Y-2.17
X1.535Y-1.965
X1.535Y-2.035
X1.55Y-1.4
X1.55Y-1.75
X1.66Y-1.93
X1.66Y-2.02
X1.66Y-2.06
X1.66Y-2.1
X1.6612Y-1.9716
X1.67Y-1.88
X1.67Y-2.29
X1.7Y-1.325
X1.8Y-1.8285
X1.825Y-2.275
X1.85Y-1.75
X1.87Y-2.09
X1.8906Y-1.91
X1.93Y-1.91
X1.93Y-2.1
X1.97Y-1.86
X1.98Y-1.12
X2.0Y-2.125
X2.07Y-2.17
X2.1Y-1.275
X2.2Y-1.275
X2.2Y-2.15
X2.22Y-1.12
X2.25Y-1.55
X2.28Y-2.2
X2.37Y-2.06
X2.375Y-1.3
X2.5Y-1.6
X2.55Y-1.9
X2.6Y-2.0
X2.7Y-2.15
X2.85Y-1.9
X2.85Y-2.55
T3
X1.8244Y-1.5016
X1.8244Y-1.6984
X2.3953Y-1.5016
X2.3953Y-1.6
X2.3953Y-1.6984
T4
X2.35Y-2.5
X2.6Y-2.4
X1.95Y-3.3
X2.2Y-3.2
X1.55Y-2.5
X1.8Y-2.4
X1.45Y-1.1
X1.45Y-1.2
X1.55Y-1.15
X1.55Y-1.25
T5
X1.3Y-3.78
X1.3Y-1.0
X2.86Y-1.0
X2.86Y-3.78
T2
G00X1.9888Y-0.9544
M15
G01X1.9888Y-0.9308
M16
G05
G00X2.2112Y-0.9544
M15
G01X2.2112Y-0.9308
M16
G05
T0
M30
