%TF.GenerationSoftware,KiCad,Pcbnew,5.1.8-db9833491~88~ubuntu20.10.1*%
%TF.CreationDate,2020-11-26T22:30:36-06:00*%
%TF.ProjectId,micropad,6d696372-6f70-4616-942e-6b696361645f,rev?*%
%TF.SameCoordinates,Original*%
%TF.FileFunction,Copper,L2,Bot*%
%TF.FilePolarity,Positive*%
%FSLAX46Y46*%
G04 Gerber Fmt 4.6, Leading zero omitted, Abs format (unit mm)*
G04 Created by KiCad (PCBNEW 5.1.8-db9833491~88~ubuntu20.10.1) date 2020-11-26 22:30:36*
%MOMM*%
%LPD*%
G01*
G04 APERTURE LIST*
%TA.AperFunction,ComponentPad*%
%ADD10C,1.850000*%
%TD*%
%TA.AperFunction,ComponentPad*%
%ADD11C,3.500000*%
%TD*%
%TA.AperFunction,ComponentPad*%
%ADD12O,1.000000X1.700000*%
%TD*%
%TA.AperFunction,ComponentPad*%
%ADD13C,1.524000*%
%TD*%
%TA.AperFunction,WasherPad*%
%ADD14R,2.600000X1.800000*%
%TD*%
%TA.AperFunction,ComponentPad*%
%ADD15C,2.200000*%
%TD*%
%TA.AperFunction,ViaPad*%
%ADD16C,0.800000*%
%TD*%
%TA.AperFunction,Conductor*%
%ADD17C,0.400000*%
%TD*%
%TA.AperFunction,Conductor*%
%ADD18C,0.250000*%
%TD*%
%TA.AperFunction,Conductor*%
%ADD19C,0.254000*%
%TD*%
%TA.AperFunction,Conductor*%
%ADD20C,0.100000*%
%TD*%
G04 APERTURE END LIST*
D10*
%TO.P,J1,4*%
%TO.N,GND*%
X39370000Y-31750000D03*
%TO.P,J1,3*%
%TO.N,/SWCLK*%
X36830000Y-30480000D03*
%TO.P,J1,2*%
%TO.N,/SWDIO*%
X39370000Y-29210000D03*
%TO.P,J1,1*%
%TO.N,+3V3*%
X36830000Y-27940000D03*
%TD*%
D11*
%TO.P,H4,1*%
%TO.N,N/C*%
X72644000Y-96012000D03*
%TD*%
%TO.P,H3,1*%
%TO.N,N/C*%
X72644000Y-25400000D03*
%TD*%
%TO.P,H2,1*%
%TO.N,N/C*%
X33020000Y-96012000D03*
%TD*%
%TO.P,H1,1*%
%TO.N,N/C*%
X33020000Y-25400000D03*
%TD*%
D12*
%TO.P,J3,0*%
%TO.N,N/C*%
X56165000Y-23942000D03*
X50515000Y-23942000D03*
%TD*%
D13*
%TO.P,S1,1*%
%TO.N,Net-(R4-Pad1)*%
X60840000Y-43140000D03*
%TO.P,S1,2*%
%TO.N,GND*%
X60840000Y-40640000D03*
%TO.P,S1,3*%
%TO.N,Net-(R6-Pad2)*%
X60840000Y-38140000D03*
%TO.P,S1,4*%
%TO.N,GND*%
X46340000Y-43140000D03*
%TO.P,S1,5*%
%TO.N,/ENC_BTN*%
X46340000Y-38140000D03*
D14*
%TO.P,S1,*%
%TO.N,*%
X53340000Y-44390000D03*
X53340000Y-36890000D03*
%TD*%
D15*
%TO.P,SW1,2*%
%TO.N,+3V3*%
X49530000Y-83820000D03*
%TO.P,SW1,1*%
%TO.N,/BOOT*%
X55880000Y-81280000D03*
%TD*%
%TO.P,SW2,1*%
%TO.N,Net-(SW2-Pad1)*%
X45720000Y-60960000D03*
%TO.P,SW2,2*%
%TO.N,+3V3*%
X39370000Y-63500000D03*
%TD*%
%TO.P,SW3,2*%
%TO.N,+3V3*%
X59690000Y-63500000D03*
%TO.P,SW3,1*%
%TO.N,Net-(SW3-Pad1)*%
X66040000Y-60960000D03*
%TD*%
D16*
%TO.N,+3V3*%
X72390000Y-64770000D03*
X31750000Y-64770000D03*
X31750000Y-84582000D03*
X31750000Y-57150000D03*
X42418000Y-58166000D03*
X34544000Y-49022000D03*
X31750000Y-49022000D03*
X72390000Y-48260000D03*
X64770000Y-48260000D03*
%TO.N,GND*%
X37211000Y-49911000D03*
X38989000Y-49911000D03*
X38989000Y-51689000D03*
X37211000Y-51689000D03*
X38100000Y-44450000D03*
X50800000Y-53975000D03*
X46355000Y-57785000D03*
X60325000Y-33020000D03*
X43180000Y-33655000D03*
X45720000Y-46445000D03*
X39370000Y-35560000D03*
X63500000Y-40640000D03*
X66040000Y-50800000D03*
X33020000Y-51308000D03*
X33528000Y-46228000D03*
X56388000Y-28448000D03*
X50292000Y-28448000D03*
%TO.N,/ENC_A*%
X42164000Y-53340000D03*
X47498000Y-53086000D03*
X46990000Y-44450000D03*
X39370000Y-44450000D03*
%TO.N,/ENC_B*%
X42164000Y-52324000D03*
X60198000Y-52324000D03*
%TO.N,/LED_USR*%
X42164000Y-51308000D03*
X50038000Y-47244000D03*
X53340000Y-32385000D03*
X55880000Y-32385000D03*
%TO.N,+5V*%
X55880000Y-54610000D03*
X68580000Y-54610000D03*
%TO.N,/USB_DM*%
X49022000Y-48514000D03*
X42194206Y-50077512D03*
%TO.N,/USB_DP*%
X48021997Y-48514000D03*
X42164000Y-49022000D03*
%TO.N,/BOOT*%
X33782000Y-47498000D03*
X42418000Y-47752000D03*
%TO.N,Net-(R4-Pad1)*%
X38100000Y-38100000D03*
%TO.N,/ENC_BTN*%
X36322000Y-55880000D03*
X57912000Y-55880000D03*
X57150000Y-39370000D03*
%TO.N,Net-(SW2-Pad1)*%
X33020000Y-60452000D03*
%TO.N,Net-(SW3-Pad1)*%
X34290000Y-56642000D03*
%TO.N,/APA_MOSI*%
X38354000Y-55118000D03*
X52578000Y-55118000D03*
%TO.N,/APA_SCK*%
X49022000Y-53340000D03*
X37338000Y-54393000D03*
%TD*%
D17*
%TO.N,+3V3*%
X71120000Y-63500000D02*
X72390000Y-64770000D01*
X59690000Y-63500000D02*
X71120000Y-63500000D01*
X33020000Y-63500000D02*
X31750000Y-64770000D01*
X39370000Y-63500000D02*
X33020000Y-63500000D01*
X32512000Y-83820000D02*
X31750000Y-84582000D01*
X49530000Y-83820000D02*
X32512000Y-83820000D01*
D18*
X41148000Y-58166000D02*
X32766000Y-58166000D01*
X32766000Y-58166000D02*
X31750000Y-57150000D01*
X42418000Y-58166000D02*
X41148000Y-58166000D01*
X34544000Y-49022000D02*
X31750000Y-49022000D01*
X72390000Y-48260000D02*
X64770000Y-48260000D01*
%TO.N,GND*%
X63500000Y-40640000D02*
X60840000Y-40640000D01*
D17*
X33401000Y-51689000D02*
X33020000Y-51308000D01*
X37211000Y-51689000D02*
X33401000Y-51689000D01*
D18*
%TO.N,/ENC_A*%
X47244000Y-53340000D02*
X47498000Y-53086000D01*
X42164000Y-53340000D02*
X47244000Y-53340000D01*
X39370000Y-44450000D02*
X46990000Y-44450000D01*
%TO.N,/ENC_B*%
X42164000Y-52324000D02*
X60198000Y-52324000D01*
%TO.N,/LED_USR*%
X50038000Y-48571002D02*
X50038000Y-47244000D01*
X47301002Y-51308000D02*
X50038000Y-48571002D01*
X42164000Y-51308000D02*
X47301002Y-51308000D01*
X53340000Y-32385000D02*
X55880000Y-32385000D01*
%TO.N,+5V*%
X55880000Y-54610000D02*
X68580000Y-54610000D01*
%TO.N,/USB_DM*%
X49022000Y-48586999D02*
X49022000Y-48514000D01*
X46808999Y-50800000D02*
X49022000Y-48586999D01*
X42916694Y-50800000D02*
X46808999Y-50800000D01*
X42194206Y-50077512D02*
X42916694Y-50800000D01*
%TO.N,/USB_DP*%
X46186007Y-50349990D02*
X43491990Y-50349990D01*
X42926000Y-49784000D02*
X42164000Y-49022000D01*
X43491990Y-50349990D02*
X42926000Y-49784000D01*
X48021997Y-48514000D02*
X46186007Y-50349990D01*
%TO.N,/BOOT*%
X42164000Y-47498000D02*
X42418000Y-47752000D01*
X33782000Y-47498000D02*
X42164000Y-47498000D01*
%TO.N,Net-(R4-Pad1)*%
X59646999Y-41946999D02*
X60840000Y-43140000D01*
X41946999Y-41946999D02*
X59646999Y-41946999D01*
X38100000Y-38100000D02*
X41946999Y-41946999D01*
%TO.N,/ENC_BTN*%
X36322000Y-55880000D02*
X57912000Y-55880000D01*
X55920000Y-38140000D02*
X57150000Y-39370000D01*
X46340000Y-38140000D02*
X55920000Y-38140000D01*
%TO.N,Net-(SW2-Pad1)*%
X33528000Y-60960000D02*
X33020000Y-60452000D01*
X45720000Y-60960000D02*
X33528000Y-60960000D01*
%TO.N,Net-(SW3-Pad1)*%
X61722000Y-56642000D02*
X66040000Y-60960000D01*
X34290000Y-56642000D02*
X61722000Y-56642000D01*
%TO.N,/APA_MOSI*%
X38354000Y-55118000D02*
X52578000Y-55118000D01*
%TO.N,/APA_SCK*%
X47969000Y-54393000D02*
X37338000Y-54393000D01*
X49022000Y-53340000D02*
X47969000Y-54393000D01*
%TD*%
D19*
%TO.N,GND*%
X49461324Y-23155553D02*
X49396423Y-23369501D01*
X49380000Y-23536248D01*
X49380000Y-24347751D01*
X49396423Y-24514498D01*
X49461324Y-24728446D01*
X49566716Y-24925623D01*
X49708551Y-25098449D01*
X49881377Y-25240284D01*
X50078553Y-25345676D01*
X50292501Y-25410577D01*
X50515000Y-25432491D01*
X50737498Y-25410577D01*
X50951446Y-25345676D01*
X51148623Y-25240284D01*
X51321449Y-25098449D01*
X51463284Y-24925623D01*
X51568676Y-24728447D01*
X51633577Y-24514499D01*
X51650000Y-24347752D01*
X51650000Y-23536249D01*
X51633577Y-23369502D01*
X51568676Y-23155553D01*
X51555606Y-23131100D01*
X55124394Y-23131100D01*
X55111324Y-23155553D01*
X55046423Y-23369501D01*
X55030000Y-23536248D01*
X55030000Y-24347751D01*
X55046423Y-24514498D01*
X55111324Y-24728446D01*
X55216716Y-24925623D01*
X55358551Y-25098449D01*
X55531377Y-25240284D01*
X55728553Y-25345676D01*
X55942501Y-25410577D01*
X56165000Y-25432491D01*
X56387498Y-25410577D01*
X56601446Y-25345676D01*
X56798623Y-25240284D01*
X56971449Y-25098449D01*
X57113284Y-24925623D01*
X57218676Y-24728447D01*
X57283577Y-24514499D01*
X57300000Y-24347752D01*
X57300000Y-23536249D01*
X57283577Y-23369502D01*
X57218676Y-23155553D01*
X57205606Y-23131100D01*
X71889303Y-23131100D01*
X71514279Y-23286440D01*
X71123651Y-23547450D01*
X70791450Y-23879651D01*
X70530440Y-24270279D01*
X70350654Y-24704321D01*
X70259000Y-25165098D01*
X70259000Y-25634902D01*
X70350654Y-26095679D01*
X70530440Y-26529721D01*
X70791450Y-26920349D01*
X71123651Y-27252550D01*
X71514279Y-27513560D01*
X71948321Y-27693346D01*
X72409098Y-27785000D01*
X72878902Y-27785000D01*
X73339679Y-27693346D01*
X73773721Y-27513560D01*
X74164349Y-27252550D01*
X74496550Y-26920349D01*
X74757560Y-26529721D01*
X74929301Y-26115101D01*
X74929300Y-95296896D01*
X74757560Y-94882279D01*
X74496550Y-94491651D01*
X74164349Y-94159450D01*
X73773721Y-93898440D01*
X73339679Y-93718654D01*
X72878902Y-93627000D01*
X72409098Y-93627000D01*
X71948321Y-93718654D01*
X71514279Y-93898440D01*
X71123651Y-94159450D01*
X70791450Y-94491651D01*
X70530440Y-94882279D01*
X70350654Y-95316321D01*
X70259000Y-95777098D01*
X70259000Y-96246902D01*
X70350654Y-96707679D01*
X70530440Y-97141721D01*
X70791450Y-97532349D01*
X70922101Y-97663000D01*
X34741899Y-97663000D01*
X34872550Y-97532349D01*
X35133560Y-97141721D01*
X35313346Y-96707679D01*
X35405000Y-96246902D01*
X35405000Y-95777098D01*
X35313346Y-95316321D01*
X35133560Y-94882279D01*
X34872550Y-94491651D01*
X34540349Y-94159450D01*
X34149721Y-93898440D01*
X33715679Y-93718654D01*
X33254902Y-93627000D01*
X32785098Y-93627000D01*
X32324321Y-93718654D01*
X31890279Y-93898440D01*
X31499651Y-94159450D01*
X31167450Y-94491651D01*
X31109300Y-94578678D01*
X31109300Y-86100475D01*
X50705000Y-86100475D01*
X50705000Y-86619525D01*
X50806261Y-87128601D01*
X51004893Y-87608141D01*
X51293262Y-88039715D01*
X51660285Y-88406738D01*
X52091859Y-88695107D01*
X52571399Y-88893739D01*
X53080475Y-88995000D01*
X53599525Y-88995000D01*
X54108601Y-88893739D01*
X54588141Y-88695107D01*
X55019715Y-88406738D01*
X55386738Y-88039715D01*
X55675107Y-87608141D01*
X55873739Y-87128601D01*
X55975000Y-86619525D01*
X55975000Y-86100475D01*
X55873739Y-85591399D01*
X55675107Y-85111859D01*
X55386738Y-84680285D01*
X55019715Y-84313262D01*
X54588141Y-84024893D01*
X54108601Y-83826261D01*
X53599525Y-83725000D01*
X53080475Y-83725000D01*
X52571399Y-83826261D01*
X52091859Y-84024893D01*
X51660285Y-84313262D01*
X51293262Y-84680285D01*
X51004893Y-85111859D01*
X50806261Y-85591399D01*
X50705000Y-86100475D01*
X31109300Y-86100475D01*
X31109300Y-85398682D01*
X31259744Y-85499205D01*
X31448102Y-85577226D01*
X31648061Y-85617000D01*
X31851939Y-85617000D01*
X32051898Y-85577226D01*
X32240256Y-85499205D01*
X32409774Y-85385937D01*
X32553937Y-85241774D01*
X32667205Y-85072256D01*
X32745226Y-84883898D01*
X32774092Y-84738776D01*
X32857868Y-84655000D01*
X48001262Y-84655000D01*
X48182337Y-84925998D01*
X48424002Y-85167663D01*
X48708169Y-85357537D01*
X49023919Y-85488325D01*
X49359117Y-85555000D01*
X49700883Y-85555000D01*
X50036081Y-85488325D01*
X50351831Y-85357537D01*
X50635998Y-85167663D01*
X50877663Y-84925998D01*
X51067537Y-84641831D01*
X51198325Y-84326081D01*
X51265000Y-83990883D01*
X51265000Y-83649117D01*
X51198325Y-83313919D01*
X51067537Y-82998169D01*
X50877663Y-82714002D01*
X50635998Y-82472337D01*
X50351831Y-82282463D01*
X50036081Y-82151675D01*
X49700883Y-82085000D01*
X49359117Y-82085000D01*
X49023919Y-82151675D01*
X48708169Y-82282463D01*
X48424002Y-82472337D01*
X48182337Y-82714002D01*
X48001262Y-82985000D01*
X32553018Y-82985000D01*
X32512000Y-82980960D01*
X32470982Y-82985000D01*
X32470981Y-82985000D01*
X32348311Y-82997082D01*
X32190913Y-83044828D01*
X32045854Y-83122364D01*
X31918709Y-83226709D01*
X31892563Y-83258569D01*
X31593224Y-83557908D01*
X31448102Y-83586774D01*
X31259744Y-83664795D01*
X31109300Y-83765318D01*
X31109300Y-81109117D01*
X54145000Y-81109117D01*
X54145000Y-81450883D01*
X54211675Y-81786081D01*
X54342463Y-82101831D01*
X54532337Y-82385998D01*
X54774002Y-82627663D01*
X55058169Y-82817537D01*
X55373919Y-82948325D01*
X55709117Y-83015000D01*
X56050883Y-83015000D01*
X56386081Y-82948325D01*
X56701831Y-82817537D01*
X56985998Y-82627663D01*
X57227663Y-82385998D01*
X57417537Y-82101831D01*
X57548325Y-81786081D01*
X57615000Y-81450883D01*
X57615000Y-81109117D01*
X57548325Y-80773919D01*
X57417537Y-80458169D01*
X57227663Y-80174002D01*
X56985998Y-79932337D01*
X56701831Y-79742463D01*
X56386081Y-79611675D01*
X56050883Y-79545000D01*
X55709117Y-79545000D01*
X55373919Y-79611675D01*
X55058169Y-79742463D01*
X54774002Y-79932337D01*
X54532337Y-80174002D01*
X54342463Y-80458169D01*
X54211675Y-80773919D01*
X54145000Y-81109117D01*
X31109300Y-81109117D01*
X31109300Y-65586682D01*
X31259744Y-65687205D01*
X31448102Y-65765226D01*
X31648061Y-65805000D01*
X31851939Y-65805000D01*
X31975235Y-65780475D01*
X40545000Y-65780475D01*
X40545000Y-66299525D01*
X40646261Y-66808601D01*
X40844893Y-67288141D01*
X41133262Y-67719715D01*
X41500285Y-68086738D01*
X41931859Y-68375107D01*
X42411399Y-68573739D01*
X42920475Y-68675000D01*
X43439525Y-68675000D01*
X43948601Y-68573739D01*
X44428141Y-68375107D01*
X44859715Y-68086738D01*
X45226738Y-67719715D01*
X45515107Y-67288141D01*
X45713739Y-66808601D01*
X45815000Y-66299525D01*
X45815000Y-65780475D01*
X45713739Y-65271399D01*
X45515107Y-64791859D01*
X45226738Y-64360285D01*
X44859715Y-63993262D01*
X44428141Y-63704893D01*
X43948601Y-63506261D01*
X43439525Y-63405000D01*
X42920475Y-63405000D01*
X42411399Y-63506261D01*
X41931859Y-63704893D01*
X41500285Y-63993262D01*
X41133262Y-64360285D01*
X40844893Y-64791859D01*
X40646261Y-65271399D01*
X40545000Y-65780475D01*
X31975235Y-65780475D01*
X32051898Y-65765226D01*
X32240256Y-65687205D01*
X32409774Y-65573937D01*
X32553937Y-65429774D01*
X32667205Y-65260256D01*
X32745226Y-65071898D01*
X32774093Y-64926775D01*
X33365868Y-64335000D01*
X37841262Y-64335000D01*
X38022337Y-64605998D01*
X38264002Y-64847663D01*
X38548169Y-65037537D01*
X38863919Y-65168325D01*
X39199117Y-65235000D01*
X39540883Y-65235000D01*
X39876081Y-65168325D01*
X40191831Y-65037537D01*
X40475998Y-64847663D01*
X40717663Y-64605998D01*
X40907537Y-64321831D01*
X41038325Y-64006081D01*
X41105000Y-63670883D01*
X41105000Y-63329117D01*
X41038325Y-62993919D01*
X40907537Y-62678169D01*
X40717663Y-62394002D01*
X40475998Y-62152337D01*
X40191831Y-61962463D01*
X39876081Y-61831675D01*
X39540883Y-61765000D01*
X39199117Y-61765000D01*
X38863919Y-61831675D01*
X38548169Y-61962463D01*
X38264002Y-62152337D01*
X38022337Y-62394002D01*
X37841262Y-62665000D01*
X33061015Y-62665000D01*
X33019999Y-62660960D01*
X32978983Y-62665000D01*
X32978981Y-62665000D01*
X32856311Y-62677082D01*
X32698913Y-62724828D01*
X32553854Y-62802364D01*
X32426709Y-62906709D01*
X32400558Y-62938574D01*
X31593225Y-63745907D01*
X31448102Y-63774774D01*
X31259744Y-63852795D01*
X31109300Y-63953318D01*
X31109300Y-60350061D01*
X31985000Y-60350061D01*
X31985000Y-60553939D01*
X32024774Y-60753898D01*
X32102795Y-60942256D01*
X32216063Y-61111774D01*
X32360226Y-61255937D01*
X32529744Y-61369205D01*
X32718102Y-61447226D01*
X32918061Y-61487000D01*
X32977329Y-61487000D01*
X32987999Y-61500001D01*
X33103724Y-61594974D01*
X33235753Y-61665546D01*
X33379014Y-61709003D01*
X33490667Y-61720000D01*
X33490676Y-61720000D01*
X33527999Y-61723676D01*
X33565322Y-61720000D01*
X44156852Y-61720000D01*
X44182463Y-61781831D01*
X44372337Y-62065998D01*
X44614002Y-62307663D01*
X44898169Y-62497537D01*
X45213919Y-62628325D01*
X45549117Y-62695000D01*
X45890883Y-62695000D01*
X46226081Y-62628325D01*
X46541831Y-62497537D01*
X46825998Y-62307663D01*
X47067663Y-62065998D01*
X47257537Y-61781831D01*
X47388325Y-61466081D01*
X47455000Y-61130883D01*
X47455000Y-60789117D01*
X47388325Y-60453919D01*
X47257537Y-60138169D01*
X47067663Y-59854002D01*
X46825998Y-59612337D01*
X46541831Y-59422463D01*
X46226081Y-59291675D01*
X45890883Y-59225000D01*
X45549117Y-59225000D01*
X45213919Y-59291675D01*
X44898169Y-59422463D01*
X44614002Y-59612337D01*
X44372337Y-59854002D01*
X44182463Y-60138169D01*
X44156852Y-60200000D01*
X34025151Y-60200000D01*
X34015226Y-60150102D01*
X33937205Y-59961744D01*
X33823937Y-59792226D01*
X33679774Y-59648063D01*
X33510256Y-59534795D01*
X33321898Y-59456774D01*
X33121939Y-59417000D01*
X32918061Y-59417000D01*
X32718102Y-59456774D01*
X32529744Y-59534795D01*
X32360226Y-59648063D01*
X32216063Y-59792226D01*
X32102795Y-59961744D01*
X32024774Y-60150102D01*
X31985000Y-60350061D01*
X31109300Y-60350061D01*
X31109300Y-57966682D01*
X31259744Y-58067205D01*
X31448102Y-58145226D01*
X31648061Y-58185000D01*
X31710199Y-58185000D01*
X32202201Y-58677003D01*
X32225999Y-58706001D01*
X32254997Y-58729799D01*
X32341723Y-58800974D01*
X32473753Y-58871546D01*
X32617014Y-58915003D01*
X32728667Y-58926000D01*
X32728677Y-58926000D01*
X32766000Y-58929676D01*
X32803322Y-58926000D01*
X41714289Y-58926000D01*
X41758226Y-58969937D01*
X41927744Y-59083205D01*
X42116102Y-59161226D01*
X42316061Y-59201000D01*
X42519939Y-59201000D01*
X42719898Y-59161226D01*
X42908256Y-59083205D01*
X43077774Y-58969937D01*
X43221937Y-58825774D01*
X43335205Y-58656256D01*
X43413226Y-58467898D01*
X43453000Y-58267939D01*
X43453000Y-58064061D01*
X43413226Y-57864102D01*
X43335205Y-57675744D01*
X43221937Y-57506226D01*
X43117711Y-57402000D01*
X61407199Y-57402000D01*
X64397286Y-60392088D01*
X64371675Y-60453919D01*
X64305000Y-60789117D01*
X64305000Y-61130883D01*
X64371675Y-61466081D01*
X64502463Y-61781831D01*
X64692337Y-62065998D01*
X64934002Y-62307663D01*
X65218169Y-62497537D01*
X65533919Y-62628325D01*
X65718297Y-62665000D01*
X61218738Y-62665000D01*
X61037663Y-62394002D01*
X60795998Y-62152337D01*
X60511831Y-61962463D01*
X60196081Y-61831675D01*
X59860883Y-61765000D01*
X59519117Y-61765000D01*
X59183919Y-61831675D01*
X58868169Y-61962463D01*
X58584002Y-62152337D01*
X58342337Y-62394002D01*
X58152463Y-62678169D01*
X58021675Y-62993919D01*
X57955000Y-63329117D01*
X57955000Y-63670883D01*
X58021675Y-64006081D01*
X58152463Y-64321831D01*
X58342337Y-64605998D01*
X58584002Y-64847663D01*
X58868169Y-65037537D01*
X59183919Y-65168325D01*
X59519117Y-65235000D01*
X59860883Y-65235000D01*
X60196081Y-65168325D01*
X60511831Y-65037537D01*
X60795998Y-64847663D01*
X61037663Y-64605998D01*
X61218738Y-64335000D01*
X61478547Y-64335000D01*
X61453262Y-64360285D01*
X61164893Y-64791859D01*
X60966261Y-65271399D01*
X60865000Y-65780475D01*
X60865000Y-66299525D01*
X60966261Y-66808601D01*
X61164893Y-67288141D01*
X61453262Y-67719715D01*
X61820285Y-68086738D01*
X62251859Y-68375107D01*
X62731399Y-68573739D01*
X63240475Y-68675000D01*
X63759525Y-68675000D01*
X64268601Y-68573739D01*
X64748141Y-68375107D01*
X65179715Y-68086738D01*
X65546738Y-67719715D01*
X65835107Y-67288141D01*
X66033739Y-66808601D01*
X66135000Y-66299525D01*
X66135000Y-65780475D01*
X66033739Y-65271399D01*
X65835107Y-64791859D01*
X65546738Y-64360285D01*
X65521453Y-64335000D01*
X70774133Y-64335000D01*
X71365908Y-64926775D01*
X71394774Y-65071898D01*
X71472795Y-65260256D01*
X71586063Y-65429774D01*
X71730226Y-65573937D01*
X71899744Y-65687205D01*
X72088102Y-65765226D01*
X72288061Y-65805000D01*
X72491939Y-65805000D01*
X72691898Y-65765226D01*
X72880256Y-65687205D01*
X73049774Y-65573937D01*
X73193937Y-65429774D01*
X73307205Y-65260256D01*
X73385226Y-65071898D01*
X73425000Y-64871939D01*
X73425000Y-64668061D01*
X73385226Y-64468102D01*
X73307205Y-64279744D01*
X73193937Y-64110226D01*
X73049774Y-63966063D01*
X72880256Y-63852795D01*
X72691898Y-63774774D01*
X72546775Y-63745908D01*
X71739446Y-62938579D01*
X71713291Y-62906709D01*
X71586146Y-62802364D01*
X71441087Y-62724828D01*
X71283689Y-62677082D01*
X71161019Y-62665000D01*
X71161018Y-62665000D01*
X71120000Y-62660960D01*
X71078982Y-62665000D01*
X66361703Y-62665000D01*
X66546081Y-62628325D01*
X66861831Y-62497537D01*
X67145998Y-62307663D01*
X67387663Y-62065998D01*
X67577537Y-61781831D01*
X67708325Y-61466081D01*
X67775000Y-61130883D01*
X67775000Y-60789117D01*
X67708325Y-60453919D01*
X67577537Y-60138169D01*
X67387663Y-59854002D01*
X67145998Y-59612337D01*
X66861831Y-59422463D01*
X66546081Y-59291675D01*
X66210883Y-59225000D01*
X65869117Y-59225000D01*
X65533919Y-59291675D01*
X65472088Y-59317286D01*
X62285804Y-56131003D01*
X62262001Y-56101999D01*
X62146276Y-56007026D01*
X62014247Y-55936454D01*
X61870986Y-55892997D01*
X61759333Y-55882000D01*
X61759322Y-55882000D01*
X61722000Y-55878324D01*
X61684678Y-55882000D01*
X58947000Y-55882000D01*
X58947000Y-55778061D01*
X58907226Y-55578102D01*
X58829205Y-55389744D01*
X58816013Y-55370000D01*
X67876289Y-55370000D01*
X67920226Y-55413937D01*
X68089744Y-55527205D01*
X68278102Y-55605226D01*
X68478061Y-55645000D01*
X68681939Y-55645000D01*
X68881898Y-55605226D01*
X69070256Y-55527205D01*
X69239774Y-55413937D01*
X69383937Y-55269774D01*
X69497205Y-55100256D01*
X69575226Y-54911898D01*
X69615000Y-54711939D01*
X69615000Y-54508061D01*
X69575226Y-54308102D01*
X69497205Y-54119744D01*
X69383937Y-53950226D01*
X69239774Y-53806063D01*
X69070256Y-53692795D01*
X68881898Y-53614774D01*
X68681939Y-53575000D01*
X68478061Y-53575000D01*
X68278102Y-53614774D01*
X68089744Y-53692795D01*
X67920226Y-53806063D01*
X67876289Y-53850000D01*
X56583711Y-53850000D01*
X56539774Y-53806063D01*
X56370256Y-53692795D01*
X56181898Y-53614774D01*
X55981939Y-53575000D01*
X55778061Y-53575000D01*
X55578102Y-53614774D01*
X55389744Y-53692795D01*
X55220226Y-53806063D01*
X55076063Y-53950226D01*
X54962795Y-54119744D01*
X54884774Y-54308102D01*
X54845000Y-54508061D01*
X54845000Y-54711939D01*
X54884774Y-54911898D01*
X54962795Y-55100256D01*
X54975987Y-55120000D01*
X53613000Y-55120000D01*
X53613000Y-55016061D01*
X53573226Y-54816102D01*
X53495205Y-54627744D01*
X53381937Y-54458226D01*
X53237774Y-54314063D01*
X53068256Y-54200795D01*
X52879898Y-54122774D01*
X52679939Y-54083000D01*
X52476061Y-54083000D01*
X52276102Y-54122774D01*
X52087744Y-54200795D01*
X51918226Y-54314063D01*
X51874289Y-54358000D01*
X49209404Y-54358000D01*
X49323898Y-54335226D01*
X49512256Y-54257205D01*
X49681774Y-54143937D01*
X49825937Y-53999774D01*
X49939205Y-53830256D01*
X50017226Y-53641898D01*
X50057000Y-53441939D01*
X50057000Y-53238061D01*
X50026356Y-53084000D01*
X59494289Y-53084000D01*
X59538226Y-53127937D01*
X59707744Y-53241205D01*
X59896102Y-53319226D01*
X60096061Y-53359000D01*
X60299939Y-53359000D01*
X60499898Y-53319226D01*
X60688256Y-53241205D01*
X60857774Y-53127937D01*
X61001937Y-52983774D01*
X61115205Y-52814256D01*
X61193226Y-52625898D01*
X61233000Y-52425939D01*
X61233000Y-52222061D01*
X61193226Y-52022102D01*
X61115205Y-51833744D01*
X61001937Y-51664226D01*
X60857774Y-51520063D01*
X60688256Y-51406795D01*
X60499898Y-51328774D01*
X60299939Y-51289000D01*
X60096061Y-51289000D01*
X59896102Y-51328774D01*
X59707744Y-51406795D01*
X59538226Y-51520063D01*
X59494289Y-51564000D01*
X48119803Y-51564000D01*
X50549004Y-49134800D01*
X50578001Y-49111003D01*
X50672974Y-48995278D01*
X50743546Y-48863249D01*
X50787003Y-48719988D01*
X50798000Y-48608335D01*
X50798000Y-48608327D01*
X50801676Y-48571002D01*
X50798000Y-48533677D01*
X50798000Y-48158061D01*
X63735000Y-48158061D01*
X63735000Y-48361939D01*
X63774774Y-48561898D01*
X63852795Y-48750256D01*
X63966063Y-48919774D01*
X64110226Y-49063937D01*
X64279744Y-49177205D01*
X64468102Y-49255226D01*
X64668061Y-49295000D01*
X64871939Y-49295000D01*
X65071898Y-49255226D01*
X65260256Y-49177205D01*
X65429774Y-49063937D01*
X65473711Y-49020000D01*
X71686289Y-49020000D01*
X71730226Y-49063937D01*
X71899744Y-49177205D01*
X72088102Y-49255226D01*
X72288061Y-49295000D01*
X72491939Y-49295000D01*
X72691898Y-49255226D01*
X72880256Y-49177205D01*
X73049774Y-49063937D01*
X73193937Y-48919774D01*
X73307205Y-48750256D01*
X73385226Y-48561898D01*
X73425000Y-48361939D01*
X73425000Y-48158061D01*
X73385226Y-47958102D01*
X73307205Y-47769744D01*
X73193937Y-47600226D01*
X73049774Y-47456063D01*
X72880256Y-47342795D01*
X72691898Y-47264774D01*
X72491939Y-47225000D01*
X72288061Y-47225000D01*
X72088102Y-47264774D01*
X71899744Y-47342795D01*
X71730226Y-47456063D01*
X71686289Y-47500000D01*
X65473711Y-47500000D01*
X65429774Y-47456063D01*
X65260256Y-47342795D01*
X65071898Y-47264774D01*
X64871939Y-47225000D01*
X64668061Y-47225000D01*
X64468102Y-47264774D01*
X64279744Y-47342795D01*
X64110226Y-47456063D01*
X63966063Y-47600226D01*
X63852795Y-47769744D01*
X63774774Y-47958102D01*
X63735000Y-48158061D01*
X50798000Y-48158061D01*
X50798000Y-47947711D01*
X50841937Y-47903774D01*
X50955205Y-47734256D01*
X51033226Y-47545898D01*
X51073000Y-47345939D01*
X51073000Y-47142061D01*
X51033226Y-46942102D01*
X50955205Y-46753744D01*
X50841937Y-46584226D01*
X50697774Y-46440063D01*
X50528256Y-46326795D01*
X50339898Y-46248774D01*
X50139939Y-46209000D01*
X49936061Y-46209000D01*
X49736102Y-46248774D01*
X49547744Y-46326795D01*
X49378226Y-46440063D01*
X49234063Y-46584226D01*
X49120795Y-46753744D01*
X49042774Y-46942102D01*
X49003000Y-47142061D01*
X49003000Y-47345939D01*
X49029467Y-47479000D01*
X48920061Y-47479000D01*
X48720102Y-47518774D01*
X48531744Y-47596795D01*
X48521999Y-47603307D01*
X48512253Y-47596795D01*
X48323895Y-47518774D01*
X48123936Y-47479000D01*
X47920058Y-47479000D01*
X47720099Y-47518774D01*
X47531741Y-47596795D01*
X47362223Y-47710063D01*
X47218060Y-47854226D01*
X47104792Y-48023744D01*
X47026771Y-48212102D01*
X46986997Y-48412061D01*
X46986997Y-48474198D01*
X45871206Y-49589990D01*
X43806792Y-49589990D01*
X43489803Y-49273002D01*
X43489799Y-49272997D01*
X43199000Y-48982198D01*
X43199000Y-48920061D01*
X43159226Y-48720102D01*
X43087286Y-48546425D01*
X43221937Y-48411774D01*
X43335205Y-48242256D01*
X43413226Y-48053898D01*
X43453000Y-47853939D01*
X43453000Y-47650061D01*
X43413226Y-47450102D01*
X43335205Y-47261744D01*
X43221937Y-47092226D01*
X43077774Y-46948063D01*
X42908256Y-46834795D01*
X42719898Y-46756774D01*
X42519939Y-46717000D01*
X42316061Y-46717000D01*
X42207455Y-46738603D01*
X42201333Y-46738000D01*
X42201322Y-46738000D01*
X42164000Y-46734324D01*
X42126678Y-46738000D01*
X34485711Y-46738000D01*
X34441774Y-46694063D01*
X34272256Y-46580795D01*
X34083898Y-46502774D01*
X33883939Y-46463000D01*
X33680061Y-46463000D01*
X33480102Y-46502774D01*
X33291744Y-46580795D01*
X33122226Y-46694063D01*
X32978063Y-46838226D01*
X32864795Y-47007744D01*
X32786774Y-47196102D01*
X32747000Y-47396061D01*
X32747000Y-47599939D01*
X32786774Y-47799898D01*
X32864795Y-47988256D01*
X32978063Y-48157774D01*
X33082289Y-48262000D01*
X32453711Y-48262000D01*
X32409774Y-48218063D01*
X32240256Y-48104795D01*
X32051898Y-48026774D01*
X31851939Y-47987000D01*
X31648061Y-47987000D01*
X31448102Y-48026774D01*
X31259744Y-48104795D01*
X31109300Y-48205318D01*
X31109300Y-37998061D01*
X37065000Y-37998061D01*
X37065000Y-38201939D01*
X37104774Y-38401898D01*
X37182795Y-38590256D01*
X37296063Y-38759774D01*
X37440226Y-38903937D01*
X37609744Y-39017205D01*
X37798102Y-39095226D01*
X37998061Y-39135000D01*
X38060199Y-39135000D01*
X41383199Y-42458001D01*
X41406998Y-42487000D01*
X41522723Y-42581973D01*
X41654752Y-42652545D01*
X41798013Y-42696002D01*
X41909666Y-42706999D01*
X41909675Y-42706999D01*
X41946998Y-42710675D01*
X41984321Y-42706999D01*
X45008076Y-42706999D01*
X44950977Y-42937135D01*
X44938090Y-43212017D01*
X44979078Y-43484133D01*
X45053258Y-43690000D01*
X40073711Y-43690000D01*
X40029774Y-43646063D01*
X39860256Y-43532795D01*
X39671898Y-43454774D01*
X39471939Y-43415000D01*
X39268061Y-43415000D01*
X39068102Y-43454774D01*
X38879744Y-43532795D01*
X38710226Y-43646063D01*
X38566063Y-43790226D01*
X38452795Y-43959744D01*
X38374774Y-44148102D01*
X38335000Y-44348061D01*
X38335000Y-44551939D01*
X38374774Y-44751898D01*
X38452795Y-44940256D01*
X38566063Y-45109774D01*
X38710226Y-45253937D01*
X38879744Y-45367205D01*
X39068102Y-45445226D01*
X39268061Y-45485000D01*
X39471939Y-45485000D01*
X39671898Y-45445226D01*
X39860256Y-45367205D01*
X40029774Y-45253937D01*
X40073711Y-45210000D01*
X46286289Y-45210000D01*
X46330226Y-45253937D01*
X46499744Y-45367205D01*
X46688102Y-45445226D01*
X46888061Y-45485000D01*
X47091939Y-45485000D01*
X47291898Y-45445226D01*
X47480256Y-45367205D01*
X47649774Y-45253937D01*
X47793937Y-45109774D01*
X47907205Y-44940256D01*
X47985226Y-44751898D01*
X48025000Y-44551939D01*
X48025000Y-44348061D01*
X47985226Y-44148102D01*
X47907205Y-43959744D01*
X47793937Y-43790226D01*
X47649774Y-43646063D01*
X47646732Y-43644030D01*
X47662756Y-43609952D01*
X47692517Y-43490000D01*
X51401928Y-43490000D01*
X51401928Y-45290000D01*
X51414188Y-45414482D01*
X51450498Y-45534180D01*
X51509463Y-45644494D01*
X51588815Y-45741185D01*
X51685506Y-45820537D01*
X51795820Y-45879502D01*
X51915518Y-45915812D01*
X52040000Y-45928072D01*
X54640000Y-45928072D01*
X54764482Y-45915812D01*
X54884180Y-45879502D01*
X54994494Y-45820537D01*
X55091185Y-45741185D01*
X55170537Y-45644494D01*
X55229502Y-45534180D01*
X55265812Y-45414482D01*
X55278072Y-45290000D01*
X55278072Y-43490000D01*
X55265812Y-43365518D01*
X55229502Y-43245820D01*
X55170537Y-43135506D01*
X55091185Y-43038815D01*
X54994494Y-42959463D01*
X54884180Y-42900498D01*
X54764482Y-42864188D01*
X54640000Y-42851928D01*
X52040000Y-42851928D01*
X51915518Y-42864188D01*
X51795820Y-42900498D01*
X51685506Y-42959463D01*
X51588815Y-43038815D01*
X51509463Y-43135506D01*
X51450498Y-43245820D01*
X51414188Y-43365518D01*
X51401928Y-43490000D01*
X47692517Y-43490000D01*
X47729023Y-43342865D01*
X47741910Y-43067983D01*
X47700922Y-42795867D01*
X47668900Y-42706999D01*
X59332198Y-42706999D01*
X59473628Y-42848430D01*
X59443000Y-43002408D01*
X59443000Y-43277592D01*
X59496686Y-43547490D01*
X59601995Y-43801727D01*
X59754880Y-44030535D01*
X59949465Y-44225120D01*
X60178273Y-44378005D01*
X60432510Y-44483314D01*
X60702408Y-44537000D01*
X60977592Y-44537000D01*
X61247490Y-44483314D01*
X61501727Y-44378005D01*
X61730535Y-44225120D01*
X61925120Y-44030535D01*
X62078005Y-43801727D01*
X62183314Y-43547490D01*
X62237000Y-43277592D01*
X62237000Y-43002408D01*
X62183314Y-42732510D01*
X62078005Y-42478273D01*
X61925120Y-42249465D01*
X61730535Y-42054880D01*
X61501727Y-41901995D01*
X61474599Y-41890758D01*
X61558980Y-41845656D01*
X61625960Y-41605565D01*
X60840000Y-40819605D01*
X60825858Y-40833748D01*
X60646253Y-40654143D01*
X60660395Y-40640000D01*
X61019605Y-40640000D01*
X61805565Y-41425960D01*
X62045656Y-41358980D01*
X62162756Y-41109952D01*
X62229023Y-40842865D01*
X62241910Y-40567983D01*
X62200922Y-40295867D01*
X62107636Y-40036977D01*
X62045656Y-39921020D01*
X61805565Y-39854040D01*
X61019605Y-40640000D01*
X60660395Y-40640000D01*
X59874435Y-39854040D01*
X59634344Y-39921020D01*
X59517244Y-40170048D01*
X59450977Y-40437135D01*
X59438090Y-40712017D01*
X59479078Y-40984133D01*
X59552177Y-41186999D01*
X42261801Y-41186999D01*
X39135000Y-38060199D01*
X39135000Y-38002408D01*
X44943000Y-38002408D01*
X44943000Y-38277592D01*
X44996686Y-38547490D01*
X45101995Y-38801727D01*
X45254880Y-39030535D01*
X45449465Y-39225120D01*
X45678273Y-39378005D01*
X45932510Y-39483314D01*
X46202408Y-39537000D01*
X46477592Y-39537000D01*
X46747490Y-39483314D01*
X47001727Y-39378005D01*
X47230535Y-39225120D01*
X47425120Y-39030535D01*
X47512341Y-38900000D01*
X55605199Y-38900000D01*
X56115000Y-39409802D01*
X56115000Y-39471939D01*
X56154774Y-39671898D01*
X56232795Y-39860256D01*
X56346063Y-40029774D01*
X56490226Y-40173937D01*
X56659744Y-40287205D01*
X56848102Y-40365226D01*
X57048061Y-40405000D01*
X57251939Y-40405000D01*
X57451898Y-40365226D01*
X57640256Y-40287205D01*
X57809774Y-40173937D01*
X57953937Y-40029774D01*
X58067205Y-39860256D01*
X58145226Y-39671898D01*
X58185000Y-39471939D01*
X58185000Y-39268061D01*
X58145226Y-39068102D01*
X58067205Y-38879744D01*
X57953937Y-38710226D01*
X57809774Y-38566063D01*
X57640256Y-38452795D01*
X57451898Y-38374774D01*
X57251939Y-38335000D01*
X57189802Y-38335000D01*
X56857210Y-38002408D01*
X59443000Y-38002408D01*
X59443000Y-38277592D01*
X59496686Y-38547490D01*
X59601995Y-38801727D01*
X59754880Y-39030535D01*
X59949465Y-39225120D01*
X60178273Y-39378005D01*
X60205401Y-39389242D01*
X60121020Y-39434344D01*
X60054040Y-39674435D01*
X60840000Y-40460395D01*
X61625960Y-39674435D01*
X61558980Y-39434344D01*
X61468467Y-39391782D01*
X61501727Y-39378005D01*
X61730535Y-39225120D01*
X61925120Y-39030535D01*
X62078005Y-38801727D01*
X62183314Y-38547490D01*
X62237000Y-38277592D01*
X62237000Y-38002408D01*
X62183314Y-37732510D01*
X62078005Y-37478273D01*
X61925120Y-37249465D01*
X61730535Y-37054880D01*
X61501727Y-36901995D01*
X61247490Y-36796686D01*
X60977592Y-36743000D01*
X60702408Y-36743000D01*
X60432510Y-36796686D01*
X60178273Y-36901995D01*
X59949465Y-37054880D01*
X59754880Y-37249465D01*
X59601995Y-37478273D01*
X59496686Y-37732510D01*
X59443000Y-38002408D01*
X56857210Y-38002408D01*
X56483804Y-37629003D01*
X56460001Y-37599999D01*
X56344276Y-37505026D01*
X56212247Y-37434454D01*
X56068986Y-37390997D01*
X55957333Y-37380000D01*
X55957322Y-37380000D01*
X55920000Y-37376324D01*
X55882678Y-37380000D01*
X55278072Y-37380000D01*
X55278072Y-35990000D01*
X55265812Y-35865518D01*
X55229502Y-35745820D01*
X55170537Y-35635506D01*
X55091185Y-35538815D01*
X54994494Y-35459463D01*
X54884180Y-35400498D01*
X54764482Y-35364188D01*
X54640000Y-35351928D01*
X52040000Y-35351928D01*
X51915518Y-35364188D01*
X51795820Y-35400498D01*
X51685506Y-35459463D01*
X51588815Y-35538815D01*
X51509463Y-35635506D01*
X51450498Y-35745820D01*
X51414188Y-35865518D01*
X51401928Y-35990000D01*
X51401928Y-37380000D01*
X47512341Y-37380000D01*
X47425120Y-37249465D01*
X47230535Y-37054880D01*
X47001727Y-36901995D01*
X46747490Y-36796686D01*
X46477592Y-36743000D01*
X46202408Y-36743000D01*
X45932510Y-36796686D01*
X45678273Y-36901995D01*
X45449465Y-37054880D01*
X45254880Y-37249465D01*
X45101995Y-37478273D01*
X44996686Y-37732510D01*
X44943000Y-38002408D01*
X39135000Y-38002408D01*
X39135000Y-37998061D01*
X39095226Y-37798102D01*
X39017205Y-37609744D01*
X38903937Y-37440226D01*
X38759774Y-37296063D01*
X38590256Y-37182795D01*
X38401898Y-37104774D01*
X38201939Y-37065000D01*
X37998061Y-37065000D01*
X37798102Y-37104774D01*
X37609744Y-37182795D01*
X37440226Y-37296063D01*
X37296063Y-37440226D01*
X37182795Y-37609744D01*
X37104774Y-37798102D01*
X37065000Y-37998061D01*
X31109300Y-37998061D01*
X31109300Y-32789419D01*
X34895000Y-32789419D01*
X34895000Y-33170581D01*
X34969361Y-33544419D01*
X35115225Y-33896566D01*
X35326987Y-34213491D01*
X35596509Y-34483013D01*
X35913434Y-34694775D01*
X36265581Y-34840639D01*
X36639419Y-34915000D01*
X37020581Y-34915000D01*
X37394419Y-34840639D01*
X37746566Y-34694775D01*
X38063491Y-34483013D01*
X38333013Y-34213491D01*
X38544775Y-33896566D01*
X38690639Y-33544419D01*
X38761450Y-33188427D01*
X38831223Y-33222048D01*
X39128757Y-33298873D01*
X39435562Y-33316176D01*
X39739848Y-33273292D01*
X40029921Y-33171868D01*
X40185607Y-33088653D01*
X40272312Y-32831917D01*
X39370000Y-31929605D01*
X39355858Y-31943748D01*
X39176253Y-31764143D01*
X39190395Y-31750000D01*
X39549605Y-31750000D01*
X40451917Y-32652312D01*
X40708653Y-32565607D01*
X40842048Y-32288777D01*
X40843523Y-32283061D01*
X52305000Y-32283061D01*
X52305000Y-32486939D01*
X52344774Y-32686898D01*
X52422795Y-32875256D01*
X52536063Y-33044774D01*
X52680226Y-33188937D01*
X52849744Y-33302205D01*
X53038102Y-33380226D01*
X53238061Y-33420000D01*
X53441939Y-33420000D01*
X53641898Y-33380226D01*
X53830256Y-33302205D01*
X53999774Y-33188937D01*
X54043711Y-33145000D01*
X55176289Y-33145000D01*
X55220226Y-33188937D01*
X55389744Y-33302205D01*
X55578102Y-33380226D01*
X55778061Y-33420000D01*
X55981939Y-33420000D01*
X56181898Y-33380226D01*
X56370256Y-33302205D01*
X56539774Y-33188937D01*
X56683937Y-33044774D01*
X56797205Y-32875256D01*
X56875226Y-32686898D01*
X56915000Y-32486939D01*
X56915000Y-32283061D01*
X56875226Y-32083102D01*
X56797205Y-31894744D01*
X56683937Y-31725226D01*
X56539774Y-31581063D01*
X56370256Y-31467795D01*
X56181898Y-31389774D01*
X55981939Y-31350000D01*
X55778061Y-31350000D01*
X55578102Y-31389774D01*
X55389744Y-31467795D01*
X55220226Y-31581063D01*
X55176289Y-31625000D01*
X54043711Y-31625000D01*
X53999774Y-31581063D01*
X53830256Y-31467795D01*
X53641898Y-31389774D01*
X53441939Y-31350000D01*
X53238061Y-31350000D01*
X53038102Y-31389774D01*
X52849744Y-31467795D01*
X52680226Y-31581063D01*
X52536063Y-31725226D01*
X52422795Y-31894744D01*
X52344774Y-32083102D01*
X52305000Y-32283061D01*
X40843523Y-32283061D01*
X40918873Y-31991243D01*
X40936176Y-31684438D01*
X40893292Y-31380152D01*
X40791868Y-31090079D01*
X40708653Y-30934393D01*
X40451917Y-30847688D01*
X39549605Y-31750000D01*
X39190395Y-31750000D01*
X39176253Y-31735858D01*
X39355858Y-31556253D01*
X39370000Y-31570395D01*
X40272312Y-30668083D01*
X40221394Y-30517313D01*
X40364442Y-30421731D01*
X40581731Y-30204442D01*
X40752454Y-29948937D01*
X40870050Y-29665035D01*
X40930000Y-29363647D01*
X40930000Y-29056353D01*
X40870050Y-28754965D01*
X40752454Y-28471063D01*
X40581731Y-28215558D01*
X40420751Y-28054578D01*
X40475998Y-28017663D01*
X40717663Y-27775998D01*
X40907537Y-27491831D01*
X41038325Y-27176081D01*
X41105000Y-26840883D01*
X41105000Y-26499117D01*
X41038325Y-26163919D01*
X40907537Y-25848169D01*
X40717663Y-25564002D01*
X40475998Y-25322337D01*
X40191831Y-25132463D01*
X39876081Y-25001675D01*
X39540883Y-24935000D01*
X39199117Y-24935000D01*
X38863919Y-25001675D01*
X38548169Y-25132463D01*
X38264002Y-25322337D01*
X38022337Y-25564002D01*
X37832463Y-25848169D01*
X37701675Y-26163919D01*
X37635000Y-26499117D01*
X37635000Y-26601688D01*
X37568937Y-26557546D01*
X37285035Y-26439950D01*
X36983647Y-26380000D01*
X36676353Y-26380000D01*
X36374965Y-26439950D01*
X36091063Y-26557546D01*
X35835558Y-26728269D01*
X35618269Y-26945558D01*
X35447546Y-27201063D01*
X35329950Y-27484965D01*
X35270000Y-27786353D01*
X35270000Y-28093647D01*
X35329950Y-28395035D01*
X35447546Y-28678937D01*
X35618269Y-28934442D01*
X35835558Y-29151731D01*
X35922764Y-29210000D01*
X35835558Y-29268269D01*
X35618269Y-29485558D01*
X35447546Y-29741063D01*
X35329950Y-30024965D01*
X35270000Y-30326353D01*
X35270000Y-30633647D01*
X35329950Y-30935035D01*
X35447546Y-31218937D01*
X35612728Y-31466150D01*
X35596509Y-31476987D01*
X35326987Y-31746509D01*
X35115225Y-32063434D01*
X34969361Y-32415581D01*
X34895000Y-32789419D01*
X31109300Y-32789419D01*
X31109300Y-26833322D01*
X31167450Y-26920349D01*
X31499651Y-27252550D01*
X31890279Y-27513560D01*
X32324321Y-27693346D01*
X32785098Y-27785000D01*
X33254902Y-27785000D01*
X33715679Y-27693346D01*
X34149721Y-27513560D01*
X34540349Y-27252550D01*
X34872550Y-26920349D01*
X35133560Y-26529721D01*
X35313346Y-26095679D01*
X35405000Y-25634902D01*
X35405000Y-25165098D01*
X35313346Y-24704321D01*
X35133560Y-24270279D01*
X34872550Y-23879651D01*
X34540349Y-23547450D01*
X34149721Y-23286440D01*
X33774697Y-23131100D01*
X49474394Y-23131100D01*
X49461324Y-23155553D01*
%TA.AperFunction,Conductor*%
D20*
G36*
X49461324Y-23155553D02*
G01*
X49396423Y-23369501D01*
X49380000Y-23536248D01*
X49380000Y-24347751D01*
X49396423Y-24514498D01*
X49461324Y-24728446D01*
X49566716Y-24925623D01*
X49708551Y-25098449D01*
X49881377Y-25240284D01*
X50078553Y-25345676D01*
X50292501Y-25410577D01*
X50515000Y-25432491D01*
X50737498Y-25410577D01*
X50951446Y-25345676D01*
X51148623Y-25240284D01*
X51321449Y-25098449D01*
X51463284Y-24925623D01*
X51568676Y-24728447D01*
X51633577Y-24514499D01*
X51650000Y-24347752D01*
X51650000Y-23536249D01*
X51633577Y-23369502D01*
X51568676Y-23155553D01*
X51555606Y-23131100D01*
X55124394Y-23131100D01*
X55111324Y-23155553D01*
X55046423Y-23369501D01*
X55030000Y-23536248D01*
X55030000Y-24347751D01*
X55046423Y-24514498D01*
X55111324Y-24728446D01*
X55216716Y-24925623D01*
X55358551Y-25098449D01*
X55531377Y-25240284D01*
X55728553Y-25345676D01*
X55942501Y-25410577D01*
X56165000Y-25432491D01*
X56387498Y-25410577D01*
X56601446Y-25345676D01*
X56798623Y-25240284D01*
X56971449Y-25098449D01*
X57113284Y-24925623D01*
X57218676Y-24728447D01*
X57283577Y-24514499D01*
X57300000Y-24347752D01*
X57300000Y-23536249D01*
X57283577Y-23369502D01*
X57218676Y-23155553D01*
X57205606Y-23131100D01*
X71889303Y-23131100D01*
X71514279Y-23286440D01*
X71123651Y-23547450D01*
X70791450Y-23879651D01*
X70530440Y-24270279D01*
X70350654Y-24704321D01*
X70259000Y-25165098D01*
X70259000Y-25634902D01*
X70350654Y-26095679D01*
X70530440Y-26529721D01*
X70791450Y-26920349D01*
X71123651Y-27252550D01*
X71514279Y-27513560D01*
X71948321Y-27693346D01*
X72409098Y-27785000D01*
X72878902Y-27785000D01*
X73339679Y-27693346D01*
X73773721Y-27513560D01*
X74164349Y-27252550D01*
X74496550Y-26920349D01*
X74757560Y-26529721D01*
X74929301Y-26115101D01*
X74929300Y-95296896D01*
X74757560Y-94882279D01*
X74496550Y-94491651D01*
X74164349Y-94159450D01*
X73773721Y-93898440D01*
X73339679Y-93718654D01*
X72878902Y-93627000D01*
X72409098Y-93627000D01*
X71948321Y-93718654D01*
X71514279Y-93898440D01*
X71123651Y-94159450D01*
X70791450Y-94491651D01*
X70530440Y-94882279D01*
X70350654Y-95316321D01*
X70259000Y-95777098D01*
X70259000Y-96246902D01*
X70350654Y-96707679D01*
X70530440Y-97141721D01*
X70791450Y-97532349D01*
X70922101Y-97663000D01*
X34741899Y-97663000D01*
X34872550Y-97532349D01*
X35133560Y-97141721D01*
X35313346Y-96707679D01*
X35405000Y-96246902D01*
X35405000Y-95777098D01*
X35313346Y-95316321D01*
X35133560Y-94882279D01*
X34872550Y-94491651D01*
X34540349Y-94159450D01*
X34149721Y-93898440D01*
X33715679Y-93718654D01*
X33254902Y-93627000D01*
X32785098Y-93627000D01*
X32324321Y-93718654D01*
X31890279Y-93898440D01*
X31499651Y-94159450D01*
X31167450Y-94491651D01*
X31109300Y-94578678D01*
X31109300Y-86100475D01*
X50705000Y-86100475D01*
X50705000Y-86619525D01*
X50806261Y-87128601D01*
X51004893Y-87608141D01*
X51293262Y-88039715D01*
X51660285Y-88406738D01*
X52091859Y-88695107D01*
X52571399Y-88893739D01*
X53080475Y-88995000D01*
X53599525Y-88995000D01*
X54108601Y-88893739D01*
X54588141Y-88695107D01*
X55019715Y-88406738D01*
X55386738Y-88039715D01*
X55675107Y-87608141D01*
X55873739Y-87128601D01*
X55975000Y-86619525D01*
X55975000Y-86100475D01*
X55873739Y-85591399D01*
X55675107Y-85111859D01*
X55386738Y-84680285D01*
X55019715Y-84313262D01*
X54588141Y-84024893D01*
X54108601Y-83826261D01*
X53599525Y-83725000D01*
X53080475Y-83725000D01*
X52571399Y-83826261D01*
X52091859Y-84024893D01*
X51660285Y-84313262D01*
X51293262Y-84680285D01*
X51004893Y-85111859D01*
X50806261Y-85591399D01*
X50705000Y-86100475D01*
X31109300Y-86100475D01*
X31109300Y-85398682D01*
X31259744Y-85499205D01*
X31448102Y-85577226D01*
X31648061Y-85617000D01*
X31851939Y-85617000D01*
X32051898Y-85577226D01*
X32240256Y-85499205D01*
X32409774Y-85385937D01*
X32553937Y-85241774D01*
X32667205Y-85072256D01*
X32745226Y-84883898D01*
X32774092Y-84738776D01*
X32857868Y-84655000D01*
X48001262Y-84655000D01*
X48182337Y-84925998D01*
X48424002Y-85167663D01*
X48708169Y-85357537D01*
X49023919Y-85488325D01*
X49359117Y-85555000D01*
X49700883Y-85555000D01*
X50036081Y-85488325D01*
X50351831Y-85357537D01*
X50635998Y-85167663D01*
X50877663Y-84925998D01*
X51067537Y-84641831D01*
X51198325Y-84326081D01*
X51265000Y-83990883D01*
X51265000Y-83649117D01*
X51198325Y-83313919D01*
X51067537Y-82998169D01*
X50877663Y-82714002D01*
X50635998Y-82472337D01*
X50351831Y-82282463D01*
X50036081Y-82151675D01*
X49700883Y-82085000D01*
X49359117Y-82085000D01*
X49023919Y-82151675D01*
X48708169Y-82282463D01*
X48424002Y-82472337D01*
X48182337Y-82714002D01*
X48001262Y-82985000D01*
X32553018Y-82985000D01*
X32512000Y-82980960D01*
X32470982Y-82985000D01*
X32470981Y-82985000D01*
X32348311Y-82997082D01*
X32190913Y-83044828D01*
X32045854Y-83122364D01*
X31918709Y-83226709D01*
X31892563Y-83258569D01*
X31593224Y-83557908D01*
X31448102Y-83586774D01*
X31259744Y-83664795D01*
X31109300Y-83765318D01*
X31109300Y-81109117D01*
X54145000Y-81109117D01*
X54145000Y-81450883D01*
X54211675Y-81786081D01*
X54342463Y-82101831D01*
X54532337Y-82385998D01*
X54774002Y-82627663D01*
X55058169Y-82817537D01*
X55373919Y-82948325D01*
X55709117Y-83015000D01*
X56050883Y-83015000D01*
X56386081Y-82948325D01*
X56701831Y-82817537D01*
X56985998Y-82627663D01*
X57227663Y-82385998D01*
X57417537Y-82101831D01*
X57548325Y-81786081D01*
X57615000Y-81450883D01*
X57615000Y-81109117D01*
X57548325Y-80773919D01*
X57417537Y-80458169D01*
X57227663Y-80174002D01*
X56985998Y-79932337D01*
X56701831Y-79742463D01*
X56386081Y-79611675D01*
X56050883Y-79545000D01*
X55709117Y-79545000D01*
X55373919Y-79611675D01*
X55058169Y-79742463D01*
X54774002Y-79932337D01*
X54532337Y-80174002D01*
X54342463Y-80458169D01*
X54211675Y-80773919D01*
X54145000Y-81109117D01*
X31109300Y-81109117D01*
X31109300Y-65586682D01*
X31259744Y-65687205D01*
X31448102Y-65765226D01*
X31648061Y-65805000D01*
X31851939Y-65805000D01*
X31975235Y-65780475D01*
X40545000Y-65780475D01*
X40545000Y-66299525D01*
X40646261Y-66808601D01*
X40844893Y-67288141D01*
X41133262Y-67719715D01*
X41500285Y-68086738D01*
X41931859Y-68375107D01*
X42411399Y-68573739D01*
X42920475Y-68675000D01*
X43439525Y-68675000D01*
X43948601Y-68573739D01*
X44428141Y-68375107D01*
X44859715Y-68086738D01*
X45226738Y-67719715D01*
X45515107Y-67288141D01*
X45713739Y-66808601D01*
X45815000Y-66299525D01*
X45815000Y-65780475D01*
X45713739Y-65271399D01*
X45515107Y-64791859D01*
X45226738Y-64360285D01*
X44859715Y-63993262D01*
X44428141Y-63704893D01*
X43948601Y-63506261D01*
X43439525Y-63405000D01*
X42920475Y-63405000D01*
X42411399Y-63506261D01*
X41931859Y-63704893D01*
X41500285Y-63993262D01*
X41133262Y-64360285D01*
X40844893Y-64791859D01*
X40646261Y-65271399D01*
X40545000Y-65780475D01*
X31975235Y-65780475D01*
X32051898Y-65765226D01*
X32240256Y-65687205D01*
X32409774Y-65573937D01*
X32553937Y-65429774D01*
X32667205Y-65260256D01*
X32745226Y-65071898D01*
X32774093Y-64926775D01*
X33365868Y-64335000D01*
X37841262Y-64335000D01*
X38022337Y-64605998D01*
X38264002Y-64847663D01*
X38548169Y-65037537D01*
X38863919Y-65168325D01*
X39199117Y-65235000D01*
X39540883Y-65235000D01*
X39876081Y-65168325D01*
X40191831Y-65037537D01*
X40475998Y-64847663D01*
X40717663Y-64605998D01*
X40907537Y-64321831D01*
X41038325Y-64006081D01*
X41105000Y-63670883D01*
X41105000Y-63329117D01*
X41038325Y-62993919D01*
X40907537Y-62678169D01*
X40717663Y-62394002D01*
X40475998Y-62152337D01*
X40191831Y-61962463D01*
X39876081Y-61831675D01*
X39540883Y-61765000D01*
X39199117Y-61765000D01*
X38863919Y-61831675D01*
X38548169Y-61962463D01*
X38264002Y-62152337D01*
X38022337Y-62394002D01*
X37841262Y-62665000D01*
X33061015Y-62665000D01*
X33019999Y-62660960D01*
X32978983Y-62665000D01*
X32978981Y-62665000D01*
X32856311Y-62677082D01*
X32698913Y-62724828D01*
X32553854Y-62802364D01*
X32426709Y-62906709D01*
X32400558Y-62938574D01*
X31593225Y-63745907D01*
X31448102Y-63774774D01*
X31259744Y-63852795D01*
X31109300Y-63953318D01*
X31109300Y-60350061D01*
X31985000Y-60350061D01*
X31985000Y-60553939D01*
X32024774Y-60753898D01*
X32102795Y-60942256D01*
X32216063Y-61111774D01*
X32360226Y-61255937D01*
X32529744Y-61369205D01*
X32718102Y-61447226D01*
X32918061Y-61487000D01*
X32977329Y-61487000D01*
X32987999Y-61500001D01*
X33103724Y-61594974D01*
X33235753Y-61665546D01*
X33379014Y-61709003D01*
X33490667Y-61720000D01*
X33490676Y-61720000D01*
X33527999Y-61723676D01*
X33565322Y-61720000D01*
X44156852Y-61720000D01*
X44182463Y-61781831D01*
X44372337Y-62065998D01*
X44614002Y-62307663D01*
X44898169Y-62497537D01*
X45213919Y-62628325D01*
X45549117Y-62695000D01*
X45890883Y-62695000D01*
X46226081Y-62628325D01*
X46541831Y-62497537D01*
X46825998Y-62307663D01*
X47067663Y-62065998D01*
X47257537Y-61781831D01*
X47388325Y-61466081D01*
X47455000Y-61130883D01*
X47455000Y-60789117D01*
X47388325Y-60453919D01*
X47257537Y-60138169D01*
X47067663Y-59854002D01*
X46825998Y-59612337D01*
X46541831Y-59422463D01*
X46226081Y-59291675D01*
X45890883Y-59225000D01*
X45549117Y-59225000D01*
X45213919Y-59291675D01*
X44898169Y-59422463D01*
X44614002Y-59612337D01*
X44372337Y-59854002D01*
X44182463Y-60138169D01*
X44156852Y-60200000D01*
X34025151Y-60200000D01*
X34015226Y-60150102D01*
X33937205Y-59961744D01*
X33823937Y-59792226D01*
X33679774Y-59648063D01*
X33510256Y-59534795D01*
X33321898Y-59456774D01*
X33121939Y-59417000D01*
X32918061Y-59417000D01*
X32718102Y-59456774D01*
X32529744Y-59534795D01*
X32360226Y-59648063D01*
X32216063Y-59792226D01*
X32102795Y-59961744D01*
X32024774Y-60150102D01*
X31985000Y-60350061D01*
X31109300Y-60350061D01*
X31109300Y-57966682D01*
X31259744Y-58067205D01*
X31448102Y-58145226D01*
X31648061Y-58185000D01*
X31710199Y-58185000D01*
X32202201Y-58677003D01*
X32225999Y-58706001D01*
X32254997Y-58729799D01*
X32341723Y-58800974D01*
X32473753Y-58871546D01*
X32617014Y-58915003D01*
X32728667Y-58926000D01*
X32728677Y-58926000D01*
X32766000Y-58929676D01*
X32803322Y-58926000D01*
X41714289Y-58926000D01*
X41758226Y-58969937D01*
X41927744Y-59083205D01*
X42116102Y-59161226D01*
X42316061Y-59201000D01*
X42519939Y-59201000D01*
X42719898Y-59161226D01*
X42908256Y-59083205D01*
X43077774Y-58969937D01*
X43221937Y-58825774D01*
X43335205Y-58656256D01*
X43413226Y-58467898D01*
X43453000Y-58267939D01*
X43453000Y-58064061D01*
X43413226Y-57864102D01*
X43335205Y-57675744D01*
X43221937Y-57506226D01*
X43117711Y-57402000D01*
X61407199Y-57402000D01*
X64397286Y-60392088D01*
X64371675Y-60453919D01*
X64305000Y-60789117D01*
X64305000Y-61130883D01*
X64371675Y-61466081D01*
X64502463Y-61781831D01*
X64692337Y-62065998D01*
X64934002Y-62307663D01*
X65218169Y-62497537D01*
X65533919Y-62628325D01*
X65718297Y-62665000D01*
X61218738Y-62665000D01*
X61037663Y-62394002D01*
X60795998Y-62152337D01*
X60511831Y-61962463D01*
X60196081Y-61831675D01*
X59860883Y-61765000D01*
X59519117Y-61765000D01*
X59183919Y-61831675D01*
X58868169Y-61962463D01*
X58584002Y-62152337D01*
X58342337Y-62394002D01*
X58152463Y-62678169D01*
X58021675Y-62993919D01*
X57955000Y-63329117D01*
X57955000Y-63670883D01*
X58021675Y-64006081D01*
X58152463Y-64321831D01*
X58342337Y-64605998D01*
X58584002Y-64847663D01*
X58868169Y-65037537D01*
X59183919Y-65168325D01*
X59519117Y-65235000D01*
X59860883Y-65235000D01*
X60196081Y-65168325D01*
X60511831Y-65037537D01*
X60795998Y-64847663D01*
X61037663Y-64605998D01*
X61218738Y-64335000D01*
X61478547Y-64335000D01*
X61453262Y-64360285D01*
X61164893Y-64791859D01*
X60966261Y-65271399D01*
X60865000Y-65780475D01*
X60865000Y-66299525D01*
X60966261Y-66808601D01*
X61164893Y-67288141D01*
X61453262Y-67719715D01*
X61820285Y-68086738D01*
X62251859Y-68375107D01*
X62731399Y-68573739D01*
X63240475Y-68675000D01*
X63759525Y-68675000D01*
X64268601Y-68573739D01*
X64748141Y-68375107D01*
X65179715Y-68086738D01*
X65546738Y-67719715D01*
X65835107Y-67288141D01*
X66033739Y-66808601D01*
X66135000Y-66299525D01*
X66135000Y-65780475D01*
X66033739Y-65271399D01*
X65835107Y-64791859D01*
X65546738Y-64360285D01*
X65521453Y-64335000D01*
X70774133Y-64335000D01*
X71365908Y-64926775D01*
X71394774Y-65071898D01*
X71472795Y-65260256D01*
X71586063Y-65429774D01*
X71730226Y-65573937D01*
X71899744Y-65687205D01*
X72088102Y-65765226D01*
X72288061Y-65805000D01*
X72491939Y-65805000D01*
X72691898Y-65765226D01*
X72880256Y-65687205D01*
X73049774Y-65573937D01*
X73193937Y-65429774D01*
X73307205Y-65260256D01*
X73385226Y-65071898D01*
X73425000Y-64871939D01*
X73425000Y-64668061D01*
X73385226Y-64468102D01*
X73307205Y-64279744D01*
X73193937Y-64110226D01*
X73049774Y-63966063D01*
X72880256Y-63852795D01*
X72691898Y-63774774D01*
X72546775Y-63745908D01*
X71739446Y-62938579D01*
X71713291Y-62906709D01*
X71586146Y-62802364D01*
X71441087Y-62724828D01*
X71283689Y-62677082D01*
X71161019Y-62665000D01*
X71161018Y-62665000D01*
X71120000Y-62660960D01*
X71078982Y-62665000D01*
X66361703Y-62665000D01*
X66546081Y-62628325D01*
X66861831Y-62497537D01*
X67145998Y-62307663D01*
X67387663Y-62065998D01*
X67577537Y-61781831D01*
X67708325Y-61466081D01*
X67775000Y-61130883D01*
X67775000Y-60789117D01*
X67708325Y-60453919D01*
X67577537Y-60138169D01*
X67387663Y-59854002D01*
X67145998Y-59612337D01*
X66861831Y-59422463D01*
X66546081Y-59291675D01*
X66210883Y-59225000D01*
X65869117Y-59225000D01*
X65533919Y-59291675D01*
X65472088Y-59317286D01*
X62285804Y-56131003D01*
X62262001Y-56101999D01*
X62146276Y-56007026D01*
X62014247Y-55936454D01*
X61870986Y-55892997D01*
X61759333Y-55882000D01*
X61759322Y-55882000D01*
X61722000Y-55878324D01*
X61684678Y-55882000D01*
X58947000Y-55882000D01*
X58947000Y-55778061D01*
X58907226Y-55578102D01*
X58829205Y-55389744D01*
X58816013Y-55370000D01*
X67876289Y-55370000D01*
X67920226Y-55413937D01*
X68089744Y-55527205D01*
X68278102Y-55605226D01*
X68478061Y-55645000D01*
X68681939Y-55645000D01*
X68881898Y-55605226D01*
X69070256Y-55527205D01*
X69239774Y-55413937D01*
X69383937Y-55269774D01*
X69497205Y-55100256D01*
X69575226Y-54911898D01*
X69615000Y-54711939D01*
X69615000Y-54508061D01*
X69575226Y-54308102D01*
X69497205Y-54119744D01*
X69383937Y-53950226D01*
X69239774Y-53806063D01*
X69070256Y-53692795D01*
X68881898Y-53614774D01*
X68681939Y-53575000D01*
X68478061Y-53575000D01*
X68278102Y-53614774D01*
X68089744Y-53692795D01*
X67920226Y-53806063D01*
X67876289Y-53850000D01*
X56583711Y-53850000D01*
X56539774Y-53806063D01*
X56370256Y-53692795D01*
X56181898Y-53614774D01*
X55981939Y-53575000D01*
X55778061Y-53575000D01*
X55578102Y-53614774D01*
X55389744Y-53692795D01*
X55220226Y-53806063D01*
X55076063Y-53950226D01*
X54962795Y-54119744D01*
X54884774Y-54308102D01*
X54845000Y-54508061D01*
X54845000Y-54711939D01*
X54884774Y-54911898D01*
X54962795Y-55100256D01*
X54975987Y-55120000D01*
X53613000Y-55120000D01*
X53613000Y-55016061D01*
X53573226Y-54816102D01*
X53495205Y-54627744D01*
X53381937Y-54458226D01*
X53237774Y-54314063D01*
X53068256Y-54200795D01*
X52879898Y-54122774D01*
X52679939Y-54083000D01*
X52476061Y-54083000D01*
X52276102Y-54122774D01*
X52087744Y-54200795D01*
X51918226Y-54314063D01*
X51874289Y-54358000D01*
X49209404Y-54358000D01*
X49323898Y-54335226D01*
X49512256Y-54257205D01*
X49681774Y-54143937D01*
X49825937Y-53999774D01*
X49939205Y-53830256D01*
X50017226Y-53641898D01*
X50057000Y-53441939D01*
X50057000Y-53238061D01*
X50026356Y-53084000D01*
X59494289Y-53084000D01*
X59538226Y-53127937D01*
X59707744Y-53241205D01*
X59896102Y-53319226D01*
X60096061Y-53359000D01*
X60299939Y-53359000D01*
X60499898Y-53319226D01*
X60688256Y-53241205D01*
X60857774Y-53127937D01*
X61001937Y-52983774D01*
X61115205Y-52814256D01*
X61193226Y-52625898D01*
X61233000Y-52425939D01*
X61233000Y-52222061D01*
X61193226Y-52022102D01*
X61115205Y-51833744D01*
X61001937Y-51664226D01*
X60857774Y-51520063D01*
X60688256Y-51406795D01*
X60499898Y-51328774D01*
X60299939Y-51289000D01*
X60096061Y-51289000D01*
X59896102Y-51328774D01*
X59707744Y-51406795D01*
X59538226Y-51520063D01*
X59494289Y-51564000D01*
X48119803Y-51564000D01*
X50549004Y-49134800D01*
X50578001Y-49111003D01*
X50672974Y-48995278D01*
X50743546Y-48863249D01*
X50787003Y-48719988D01*
X50798000Y-48608335D01*
X50798000Y-48608327D01*
X50801676Y-48571002D01*
X50798000Y-48533677D01*
X50798000Y-48158061D01*
X63735000Y-48158061D01*
X63735000Y-48361939D01*
X63774774Y-48561898D01*
X63852795Y-48750256D01*
X63966063Y-48919774D01*
X64110226Y-49063937D01*
X64279744Y-49177205D01*
X64468102Y-49255226D01*
X64668061Y-49295000D01*
X64871939Y-49295000D01*
X65071898Y-49255226D01*
X65260256Y-49177205D01*
X65429774Y-49063937D01*
X65473711Y-49020000D01*
X71686289Y-49020000D01*
X71730226Y-49063937D01*
X71899744Y-49177205D01*
X72088102Y-49255226D01*
X72288061Y-49295000D01*
X72491939Y-49295000D01*
X72691898Y-49255226D01*
X72880256Y-49177205D01*
X73049774Y-49063937D01*
X73193937Y-48919774D01*
X73307205Y-48750256D01*
X73385226Y-48561898D01*
X73425000Y-48361939D01*
X73425000Y-48158061D01*
X73385226Y-47958102D01*
X73307205Y-47769744D01*
X73193937Y-47600226D01*
X73049774Y-47456063D01*
X72880256Y-47342795D01*
X72691898Y-47264774D01*
X72491939Y-47225000D01*
X72288061Y-47225000D01*
X72088102Y-47264774D01*
X71899744Y-47342795D01*
X71730226Y-47456063D01*
X71686289Y-47500000D01*
X65473711Y-47500000D01*
X65429774Y-47456063D01*
X65260256Y-47342795D01*
X65071898Y-47264774D01*
X64871939Y-47225000D01*
X64668061Y-47225000D01*
X64468102Y-47264774D01*
X64279744Y-47342795D01*
X64110226Y-47456063D01*
X63966063Y-47600226D01*
X63852795Y-47769744D01*
X63774774Y-47958102D01*
X63735000Y-48158061D01*
X50798000Y-48158061D01*
X50798000Y-47947711D01*
X50841937Y-47903774D01*
X50955205Y-47734256D01*
X51033226Y-47545898D01*
X51073000Y-47345939D01*
X51073000Y-47142061D01*
X51033226Y-46942102D01*
X50955205Y-46753744D01*
X50841937Y-46584226D01*
X50697774Y-46440063D01*
X50528256Y-46326795D01*
X50339898Y-46248774D01*
X50139939Y-46209000D01*
X49936061Y-46209000D01*
X49736102Y-46248774D01*
X49547744Y-46326795D01*
X49378226Y-46440063D01*
X49234063Y-46584226D01*
X49120795Y-46753744D01*
X49042774Y-46942102D01*
X49003000Y-47142061D01*
X49003000Y-47345939D01*
X49029467Y-47479000D01*
X48920061Y-47479000D01*
X48720102Y-47518774D01*
X48531744Y-47596795D01*
X48521999Y-47603307D01*
X48512253Y-47596795D01*
X48323895Y-47518774D01*
X48123936Y-47479000D01*
X47920058Y-47479000D01*
X47720099Y-47518774D01*
X47531741Y-47596795D01*
X47362223Y-47710063D01*
X47218060Y-47854226D01*
X47104792Y-48023744D01*
X47026771Y-48212102D01*
X46986997Y-48412061D01*
X46986997Y-48474198D01*
X45871206Y-49589990D01*
X43806792Y-49589990D01*
X43489803Y-49273002D01*
X43489799Y-49272997D01*
X43199000Y-48982198D01*
X43199000Y-48920061D01*
X43159226Y-48720102D01*
X43087286Y-48546425D01*
X43221937Y-48411774D01*
X43335205Y-48242256D01*
X43413226Y-48053898D01*
X43453000Y-47853939D01*
X43453000Y-47650061D01*
X43413226Y-47450102D01*
X43335205Y-47261744D01*
X43221937Y-47092226D01*
X43077774Y-46948063D01*
X42908256Y-46834795D01*
X42719898Y-46756774D01*
X42519939Y-46717000D01*
X42316061Y-46717000D01*
X42207455Y-46738603D01*
X42201333Y-46738000D01*
X42201322Y-46738000D01*
X42164000Y-46734324D01*
X42126678Y-46738000D01*
X34485711Y-46738000D01*
X34441774Y-46694063D01*
X34272256Y-46580795D01*
X34083898Y-46502774D01*
X33883939Y-46463000D01*
X33680061Y-46463000D01*
X33480102Y-46502774D01*
X33291744Y-46580795D01*
X33122226Y-46694063D01*
X32978063Y-46838226D01*
X32864795Y-47007744D01*
X32786774Y-47196102D01*
X32747000Y-47396061D01*
X32747000Y-47599939D01*
X32786774Y-47799898D01*
X32864795Y-47988256D01*
X32978063Y-48157774D01*
X33082289Y-48262000D01*
X32453711Y-48262000D01*
X32409774Y-48218063D01*
X32240256Y-48104795D01*
X32051898Y-48026774D01*
X31851939Y-47987000D01*
X31648061Y-47987000D01*
X31448102Y-48026774D01*
X31259744Y-48104795D01*
X31109300Y-48205318D01*
X31109300Y-37998061D01*
X37065000Y-37998061D01*
X37065000Y-38201939D01*
X37104774Y-38401898D01*
X37182795Y-38590256D01*
X37296063Y-38759774D01*
X37440226Y-38903937D01*
X37609744Y-39017205D01*
X37798102Y-39095226D01*
X37998061Y-39135000D01*
X38060199Y-39135000D01*
X41383199Y-42458001D01*
X41406998Y-42487000D01*
X41522723Y-42581973D01*
X41654752Y-42652545D01*
X41798013Y-42696002D01*
X41909666Y-42706999D01*
X41909675Y-42706999D01*
X41946998Y-42710675D01*
X41984321Y-42706999D01*
X45008076Y-42706999D01*
X44950977Y-42937135D01*
X44938090Y-43212017D01*
X44979078Y-43484133D01*
X45053258Y-43690000D01*
X40073711Y-43690000D01*
X40029774Y-43646063D01*
X39860256Y-43532795D01*
X39671898Y-43454774D01*
X39471939Y-43415000D01*
X39268061Y-43415000D01*
X39068102Y-43454774D01*
X38879744Y-43532795D01*
X38710226Y-43646063D01*
X38566063Y-43790226D01*
X38452795Y-43959744D01*
X38374774Y-44148102D01*
X38335000Y-44348061D01*
X38335000Y-44551939D01*
X38374774Y-44751898D01*
X38452795Y-44940256D01*
X38566063Y-45109774D01*
X38710226Y-45253937D01*
X38879744Y-45367205D01*
X39068102Y-45445226D01*
X39268061Y-45485000D01*
X39471939Y-45485000D01*
X39671898Y-45445226D01*
X39860256Y-45367205D01*
X40029774Y-45253937D01*
X40073711Y-45210000D01*
X46286289Y-45210000D01*
X46330226Y-45253937D01*
X46499744Y-45367205D01*
X46688102Y-45445226D01*
X46888061Y-45485000D01*
X47091939Y-45485000D01*
X47291898Y-45445226D01*
X47480256Y-45367205D01*
X47649774Y-45253937D01*
X47793937Y-45109774D01*
X47907205Y-44940256D01*
X47985226Y-44751898D01*
X48025000Y-44551939D01*
X48025000Y-44348061D01*
X47985226Y-44148102D01*
X47907205Y-43959744D01*
X47793937Y-43790226D01*
X47649774Y-43646063D01*
X47646732Y-43644030D01*
X47662756Y-43609952D01*
X47692517Y-43490000D01*
X51401928Y-43490000D01*
X51401928Y-45290000D01*
X51414188Y-45414482D01*
X51450498Y-45534180D01*
X51509463Y-45644494D01*
X51588815Y-45741185D01*
X51685506Y-45820537D01*
X51795820Y-45879502D01*
X51915518Y-45915812D01*
X52040000Y-45928072D01*
X54640000Y-45928072D01*
X54764482Y-45915812D01*
X54884180Y-45879502D01*
X54994494Y-45820537D01*
X55091185Y-45741185D01*
X55170537Y-45644494D01*
X55229502Y-45534180D01*
X55265812Y-45414482D01*
X55278072Y-45290000D01*
X55278072Y-43490000D01*
X55265812Y-43365518D01*
X55229502Y-43245820D01*
X55170537Y-43135506D01*
X55091185Y-43038815D01*
X54994494Y-42959463D01*
X54884180Y-42900498D01*
X54764482Y-42864188D01*
X54640000Y-42851928D01*
X52040000Y-42851928D01*
X51915518Y-42864188D01*
X51795820Y-42900498D01*
X51685506Y-42959463D01*
X51588815Y-43038815D01*
X51509463Y-43135506D01*
X51450498Y-43245820D01*
X51414188Y-43365518D01*
X51401928Y-43490000D01*
X47692517Y-43490000D01*
X47729023Y-43342865D01*
X47741910Y-43067983D01*
X47700922Y-42795867D01*
X47668900Y-42706999D01*
X59332198Y-42706999D01*
X59473628Y-42848430D01*
X59443000Y-43002408D01*
X59443000Y-43277592D01*
X59496686Y-43547490D01*
X59601995Y-43801727D01*
X59754880Y-44030535D01*
X59949465Y-44225120D01*
X60178273Y-44378005D01*
X60432510Y-44483314D01*
X60702408Y-44537000D01*
X60977592Y-44537000D01*
X61247490Y-44483314D01*
X61501727Y-44378005D01*
X61730535Y-44225120D01*
X61925120Y-44030535D01*
X62078005Y-43801727D01*
X62183314Y-43547490D01*
X62237000Y-43277592D01*
X62237000Y-43002408D01*
X62183314Y-42732510D01*
X62078005Y-42478273D01*
X61925120Y-42249465D01*
X61730535Y-42054880D01*
X61501727Y-41901995D01*
X61474599Y-41890758D01*
X61558980Y-41845656D01*
X61625960Y-41605565D01*
X60840000Y-40819605D01*
X60825858Y-40833748D01*
X60646253Y-40654143D01*
X60660395Y-40640000D01*
X61019605Y-40640000D01*
X61805565Y-41425960D01*
X62045656Y-41358980D01*
X62162756Y-41109952D01*
X62229023Y-40842865D01*
X62241910Y-40567983D01*
X62200922Y-40295867D01*
X62107636Y-40036977D01*
X62045656Y-39921020D01*
X61805565Y-39854040D01*
X61019605Y-40640000D01*
X60660395Y-40640000D01*
X59874435Y-39854040D01*
X59634344Y-39921020D01*
X59517244Y-40170048D01*
X59450977Y-40437135D01*
X59438090Y-40712017D01*
X59479078Y-40984133D01*
X59552177Y-41186999D01*
X42261801Y-41186999D01*
X39135000Y-38060199D01*
X39135000Y-38002408D01*
X44943000Y-38002408D01*
X44943000Y-38277592D01*
X44996686Y-38547490D01*
X45101995Y-38801727D01*
X45254880Y-39030535D01*
X45449465Y-39225120D01*
X45678273Y-39378005D01*
X45932510Y-39483314D01*
X46202408Y-39537000D01*
X46477592Y-39537000D01*
X46747490Y-39483314D01*
X47001727Y-39378005D01*
X47230535Y-39225120D01*
X47425120Y-39030535D01*
X47512341Y-38900000D01*
X55605199Y-38900000D01*
X56115000Y-39409802D01*
X56115000Y-39471939D01*
X56154774Y-39671898D01*
X56232795Y-39860256D01*
X56346063Y-40029774D01*
X56490226Y-40173937D01*
X56659744Y-40287205D01*
X56848102Y-40365226D01*
X57048061Y-40405000D01*
X57251939Y-40405000D01*
X57451898Y-40365226D01*
X57640256Y-40287205D01*
X57809774Y-40173937D01*
X57953937Y-40029774D01*
X58067205Y-39860256D01*
X58145226Y-39671898D01*
X58185000Y-39471939D01*
X58185000Y-39268061D01*
X58145226Y-39068102D01*
X58067205Y-38879744D01*
X57953937Y-38710226D01*
X57809774Y-38566063D01*
X57640256Y-38452795D01*
X57451898Y-38374774D01*
X57251939Y-38335000D01*
X57189802Y-38335000D01*
X56857210Y-38002408D01*
X59443000Y-38002408D01*
X59443000Y-38277592D01*
X59496686Y-38547490D01*
X59601995Y-38801727D01*
X59754880Y-39030535D01*
X59949465Y-39225120D01*
X60178273Y-39378005D01*
X60205401Y-39389242D01*
X60121020Y-39434344D01*
X60054040Y-39674435D01*
X60840000Y-40460395D01*
X61625960Y-39674435D01*
X61558980Y-39434344D01*
X61468467Y-39391782D01*
X61501727Y-39378005D01*
X61730535Y-39225120D01*
X61925120Y-39030535D01*
X62078005Y-38801727D01*
X62183314Y-38547490D01*
X62237000Y-38277592D01*
X62237000Y-38002408D01*
X62183314Y-37732510D01*
X62078005Y-37478273D01*
X61925120Y-37249465D01*
X61730535Y-37054880D01*
X61501727Y-36901995D01*
X61247490Y-36796686D01*
X60977592Y-36743000D01*
X60702408Y-36743000D01*
X60432510Y-36796686D01*
X60178273Y-36901995D01*
X59949465Y-37054880D01*
X59754880Y-37249465D01*
X59601995Y-37478273D01*
X59496686Y-37732510D01*
X59443000Y-38002408D01*
X56857210Y-38002408D01*
X56483804Y-37629003D01*
X56460001Y-37599999D01*
X56344276Y-37505026D01*
X56212247Y-37434454D01*
X56068986Y-37390997D01*
X55957333Y-37380000D01*
X55957322Y-37380000D01*
X55920000Y-37376324D01*
X55882678Y-37380000D01*
X55278072Y-37380000D01*
X55278072Y-35990000D01*
X55265812Y-35865518D01*
X55229502Y-35745820D01*
X55170537Y-35635506D01*
X55091185Y-35538815D01*
X54994494Y-35459463D01*
X54884180Y-35400498D01*
X54764482Y-35364188D01*
X54640000Y-35351928D01*
X52040000Y-35351928D01*
X51915518Y-35364188D01*
X51795820Y-35400498D01*
X51685506Y-35459463D01*
X51588815Y-35538815D01*
X51509463Y-35635506D01*
X51450498Y-35745820D01*
X51414188Y-35865518D01*
X51401928Y-35990000D01*
X51401928Y-37380000D01*
X47512341Y-37380000D01*
X47425120Y-37249465D01*
X47230535Y-37054880D01*
X47001727Y-36901995D01*
X46747490Y-36796686D01*
X46477592Y-36743000D01*
X46202408Y-36743000D01*
X45932510Y-36796686D01*
X45678273Y-36901995D01*
X45449465Y-37054880D01*
X45254880Y-37249465D01*
X45101995Y-37478273D01*
X44996686Y-37732510D01*
X44943000Y-38002408D01*
X39135000Y-38002408D01*
X39135000Y-37998061D01*
X39095226Y-37798102D01*
X39017205Y-37609744D01*
X38903937Y-37440226D01*
X38759774Y-37296063D01*
X38590256Y-37182795D01*
X38401898Y-37104774D01*
X38201939Y-37065000D01*
X37998061Y-37065000D01*
X37798102Y-37104774D01*
X37609744Y-37182795D01*
X37440226Y-37296063D01*
X37296063Y-37440226D01*
X37182795Y-37609744D01*
X37104774Y-37798102D01*
X37065000Y-37998061D01*
X31109300Y-37998061D01*
X31109300Y-32789419D01*
X34895000Y-32789419D01*
X34895000Y-33170581D01*
X34969361Y-33544419D01*
X35115225Y-33896566D01*
X35326987Y-34213491D01*
X35596509Y-34483013D01*
X35913434Y-34694775D01*
X36265581Y-34840639D01*
X36639419Y-34915000D01*
X37020581Y-34915000D01*
X37394419Y-34840639D01*
X37746566Y-34694775D01*
X38063491Y-34483013D01*
X38333013Y-34213491D01*
X38544775Y-33896566D01*
X38690639Y-33544419D01*
X38761450Y-33188427D01*
X38831223Y-33222048D01*
X39128757Y-33298873D01*
X39435562Y-33316176D01*
X39739848Y-33273292D01*
X40029921Y-33171868D01*
X40185607Y-33088653D01*
X40272312Y-32831917D01*
X39370000Y-31929605D01*
X39355858Y-31943748D01*
X39176253Y-31764143D01*
X39190395Y-31750000D01*
X39549605Y-31750000D01*
X40451917Y-32652312D01*
X40708653Y-32565607D01*
X40842048Y-32288777D01*
X40843523Y-32283061D01*
X52305000Y-32283061D01*
X52305000Y-32486939D01*
X52344774Y-32686898D01*
X52422795Y-32875256D01*
X52536063Y-33044774D01*
X52680226Y-33188937D01*
X52849744Y-33302205D01*
X53038102Y-33380226D01*
X53238061Y-33420000D01*
X53441939Y-33420000D01*
X53641898Y-33380226D01*
X53830256Y-33302205D01*
X53999774Y-33188937D01*
X54043711Y-33145000D01*
X55176289Y-33145000D01*
X55220226Y-33188937D01*
X55389744Y-33302205D01*
X55578102Y-33380226D01*
X55778061Y-33420000D01*
X55981939Y-33420000D01*
X56181898Y-33380226D01*
X56370256Y-33302205D01*
X56539774Y-33188937D01*
X56683937Y-33044774D01*
X56797205Y-32875256D01*
X56875226Y-32686898D01*
X56915000Y-32486939D01*
X56915000Y-32283061D01*
X56875226Y-32083102D01*
X56797205Y-31894744D01*
X56683937Y-31725226D01*
X56539774Y-31581063D01*
X56370256Y-31467795D01*
X56181898Y-31389774D01*
X55981939Y-31350000D01*
X55778061Y-31350000D01*
X55578102Y-31389774D01*
X55389744Y-31467795D01*
X55220226Y-31581063D01*
X55176289Y-31625000D01*
X54043711Y-31625000D01*
X53999774Y-31581063D01*
X53830256Y-31467795D01*
X53641898Y-31389774D01*
X53441939Y-31350000D01*
X53238061Y-31350000D01*
X53038102Y-31389774D01*
X52849744Y-31467795D01*
X52680226Y-31581063D01*
X52536063Y-31725226D01*
X52422795Y-31894744D01*
X52344774Y-32083102D01*
X52305000Y-32283061D01*
X40843523Y-32283061D01*
X40918873Y-31991243D01*
X40936176Y-31684438D01*
X40893292Y-31380152D01*
X40791868Y-31090079D01*
X40708653Y-30934393D01*
X40451917Y-30847688D01*
X39549605Y-31750000D01*
X39190395Y-31750000D01*
X39176253Y-31735858D01*
X39355858Y-31556253D01*
X39370000Y-31570395D01*
X40272312Y-30668083D01*
X40221394Y-30517313D01*
X40364442Y-30421731D01*
X40581731Y-30204442D01*
X40752454Y-29948937D01*
X40870050Y-29665035D01*
X40930000Y-29363647D01*
X40930000Y-29056353D01*
X40870050Y-28754965D01*
X40752454Y-28471063D01*
X40581731Y-28215558D01*
X40420751Y-28054578D01*
X40475998Y-28017663D01*
X40717663Y-27775998D01*
X40907537Y-27491831D01*
X41038325Y-27176081D01*
X41105000Y-26840883D01*
X41105000Y-26499117D01*
X41038325Y-26163919D01*
X40907537Y-25848169D01*
X40717663Y-25564002D01*
X40475998Y-25322337D01*
X40191831Y-25132463D01*
X39876081Y-25001675D01*
X39540883Y-24935000D01*
X39199117Y-24935000D01*
X38863919Y-25001675D01*
X38548169Y-25132463D01*
X38264002Y-25322337D01*
X38022337Y-25564002D01*
X37832463Y-25848169D01*
X37701675Y-26163919D01*
X37635000Y-26499117D01*
X37635000Y-26601688D01*
X37568937Y-26557546D01*
X37285035Y-26439950D01*
X36983647Y-26380000D01*
X36676353Y-26380000D01*
X36374965Y-26439950D01*
X36091063Y-26557546D01*
X35835558Y-26728269D01*
X35618269Y-26945558D01*
X35447546Y-27201063D01*
X35329950Y-27484965D01*
X35270000Y-27786353D01*
X35270000Y-28093647D01*
X35329950Y-28395035D01*
X35447546Y-28678937D01*
X35618269Y-28934442D01*
X35835558Y-29151731D01*
X35922764Y-29210000D01*
X35835558Y-29268269D01*
X35618269Y-29485558D01*
X35447546Y-29741063D01*
X35329950Y-30024965D01*
X35270000Y-30326353D01*
X35270000Y-30633647D01*
X35329950Y-30935035D01*
X35447546Y-31218937D01*
X35612728Y-31466150D01*
X35596509Y-31476987D01*
X35326987Y-31746509D01*
X35115225Y-32063434D01*
X34969361Y-32415581D01*
X34895000Y-32789419D01*
X31109300Y-32789419D01*
X31109300Y-26833322D01*
X31167450Y-26920349D01*
X31499651Y-27252550D01*
X31890279Y-27513560D01*
X32324321Y-27693346D01*
X32785098Y-27785000D01*
X33254902Y-27785000D01*
X33715679Y-27693346D01*
X34149721Y-27513560D01*
X34540349Y-27252550D01*
X34872550Y-26920349D01*
X35133560Y-26529721D01*
X35313346Y-26095679D01*
X35405000Y-25634902D01*
X35405000Y-25165098D01*
X35313346Y-24704321D01*
X35133560Y-24270279D01*
X34872550Y-23879651D01*
X34540349Y-23547450D01*
X34149721Y-23286440D01*
X33774697Y-23131100D01*
X49474394Y-23131100D01*
X49461324Y-23155553D01*
G37*
%TD.AperFunction*%
D19*
X46533748Y-43125858D02*
X46519605Y-43140000D01*
X46533748Y-43154143D01*
X46354143Y-43333748D01*
X46340000Y-43319605D01*
X46325858Y-43333748D01*
X46146253Y-43154143D01*
X46160395Y-43140000D01*
X46146253Y-43125858D01*
X46325858Y-42946253D01*
X46340000Y-42960395D01*
X46354143Y-42946253D01*
X46533748Y-43125858D01*
%TA.AperFunction,Conductor*%
D20*
G36*
X46533748Y-43125858D02*
G01*
X46519605Y-43140000D01*
X46533748Y-43154143D01*
X46354143Y-43333748D01*
X46340000Y-43319605D01*
X46325858Y-43333748D01*
X46146253Y-43154143D01*
X46160395Y-43140000D01*
X46146253Y-43125858D01*
X46325858Y-42946253D01*
X46340000Y-42960395D01*
X46354143Y-42946253D01*
X46533748Y-43125858D01*
G37*
%TD.AperFunction*%
D19*
X41360063Y-48362226D02*
X41246795Y-48531744D01*
X41168774Y-48720102D01*
X41129000Y-48920061D01*
X41129000Y-49123939D01*
X41168774Y-49323898D01*
X41246795Y-49512256D01*
X41286955Y-49572359D01*
X41277001Y-49587256D01*
X41198980Y-49775614D01*
X41159206Y-49975573D01*
X41159206Y-50179451D01*
X41198980Y-50379410D01*
X41277001Y-50567768D01*
X41345412Y-50670153D01*
X41246795Y-50817744D01*
X41168774Y-51006102D01*
X41129000Y-51206061D01*
X41129000Y-51409939D01*
X41168774Y-51609898D01*
X41246795Y-51798256D01*
X41258651Y-51816000D01*
X41246795Y-51833744D01*
X41168774Y-52022102D01*
X41129000Y-52222061D01*
X41129000Y-52425939D01*
X41168774Y-52625898D01*
X41246795Y-52814256D01*
X41258651Y-52832000D01*
X41246795Y-52849744D01*
X41168774Y-53038102D01*
X41129000Y-53238061D01*
X41129000Y-53441939D01*
X41167004Y-53633000D01*
X38041711Y-53633000D01*
X37997774Y-53589063D01*
X37828256Y-53475795D01*
X37639898Y-53397774D01*
X37439939Y-53358000D01*
X37236061Y-53358000D01*
X37036102Y-53397774D01*
X36847744Y-53475795D01*
X36678226Y-53589063D01*
X36534063Y-53733226D01*
X36420795Y-53902744D01*
X36342774Y-54091102D01*
X36303000Y-54291061D01*
X36303000Y-54494939D01*
X36342774Y-54694898D01*
X36404949Y-54845000D01*
X36220061Y-54845000D01*
X36020102Y-54884774D01*
X35831744Y-54962795D01*
X35662226Y-55076063D01*
X35518063Y-55220226D01*
X35404795Y-55389744D01*
X35326774Y-55578102D01*
X35287000Y-55778061D01*
X35287000Y-55882000D01*
X34993711Y-55882000D01*
X34949774Y-55838063D01*
X34780256Y-55724795D01*
X34591898Y-55646774D01*
X34391939Y-55607000D01*
X34188061Y-55607000D01*
X33988102Y-55646774D01*
X33799744Y-55724795D01*
X33630226Y-55838063D01*
X33486063Y-55982226D01*
X33372795Y-56151744D01*
X33294774Y-56340102D01*
X33255000Y-56540061D01*
X33255000Y-56743939D01*
X33294774Y-56943898D01*
X33372795Y-57132256D01*
X33486063Y-57301774D01*
X33590289Y-57406000D01*
X33080802Y-57406000D01*
X32785000Y-57110199D01*
X32785000Y-57048061D01*
X32745226Y-56848102D01*
X32667205Y-56659744D01*
X32553937Y-56490226D01*
X32409774Y-56346063D01*
X32240256Y-56232795D01*
X32051898Y-56154774D01*
X31851939Y-56115000D01*
X31648061Y-56115000D01*
X31448102Y-56154774D01*
X31259744Y-56232795D01*
X31109300Y-56333318D01*
X31109300Y-49838682D01*
X31259744Y-49939205D01*
X31448102Y-50017226D01*
X31648061Y-50057000D01*
X31851939Y-50057000D01*
X32051898Y-50017226D01*
X32240256Y-49939205D01*
X32409774Y-49825937D01*
X32453711Y-49782000D01*
X33840289Y-49782000D01*
X33884226Y-49825937D01*
X34053744Y-49939205D01*
X34242102Y-50017226D01*
X34442061Y-50057000D01*
X34645939Y-50057000D01*
X34845898Y-50017226D01*
X35034256Y-49939205D01*
X35203774Y-49825937D01*
X35347937Y-49681774D01*
X35461205Y-49512256D01*
X35539226Y-49323898D01*
X35579000Y-49123939D01*
X35579000Y-48920061D01*
X35539226Y-48720102D01*
X35461205Y-48531744D01*
X35347937Y-48362226D01*
X35243711Y-48258000D01*
X41464289Y-48258000D01*
X41360063Y-48362226D01*
%TA.AperFunction,Conductor*%
D20*
G36*
X41360063Y-48362226D02*
G01*
X41246795Y-48531744D01*
X41168774Y-48720102D01*
X41129000Y-48920061D01*
X41129000Y-49123939D01*
X41168774Y-49323898D01*
X41246795Y-49512256D01*
X41286955Y-49572359D01*
X41277001Y-49587256D01*
X41198980Y-49775614D01*
X41159206Y-49975573D01*
X41159206Y-50179451D01*
X41198980Y-50379410D01*
X41277001Y-50567768D01*
X41345412Y-50670153D01*
X41246795Y-50817744D01*
X41168774Y-51006102D01*
X41129000Y-51206061D01*
X41129000Y-51409939D01*
X41168774Y-51609898D01*
X41246795Y-51798256D01*
X41258651Y-51816000D01*
X41246795Y-51833744D01*
X41168774Y-52022102D01*
X41129000Y-52222061D01*
X41129000Y-52425939D01*
X41168774Y-52625898D01*
X41246795Y-52814256D01*
X41258651Y-52832000D01*
X41246795Y-52849744D01*
X41168774Y-53038102D01*
X41129000Y-53238061D01*
X41129000Y-53441939D01*
X41167004Y-53633000D01*
X38041711Y-53633000D01*
X37997774Y-53589063D01*
X37828256Y-53475795D01*
X37639898Y-53397774D01*
X37439939Y-53358000D01*
X37236061Y-53358000D01*
X37036102Y-53397774D01*
X36847744Y-53475795D01*
X36678226Y-53589063D01*
X36534063Y-53733226D01*
X36420795Y-53902744D01*
X36342774Y-54091102D01*
X36303000Y-54291061D01*
X36303000Y-54494939D01*
X36342774Y-54694898D01*
X36404949Y-54845000D01*
X36220061Y-54845000D01*
X36020102Y-54884774D01*
X35831744Y-54962795D01*
X35662226Y-55076063D01*
X35518063Y-55220226D01*
X35404795Y-55389744D01*
X35326774Y-55578102D01*
X35287000Y-55778061D01*
X35287000Y-55882000D01*
X34993711Y-55882000D01*
X34949774Y-55838063D01*
X34780256Y-55724795D01*
X34591898Y-55646774D01*
X34391939Y-55607000D01*
X34188061Y-55607000D01*
X33988102Y-55646774D01*
X33799744Y-55724795D01*
X33630226Y-55838063D01*
X33486063Y-55982226D01*
X33372795Y-56151744D01*
X33294774Y-56340102D01*
X33255000Y-56540061D01*
X33255000Y-56743939D01*
X33294774Y-56943898D01*
X33372795Y-57132256D01*
X33486063Y-57301774D01*
X33590289Y-57406000D01*
X33080802Y-57406000D01*
X32785000Y-57110199D01*
X32785000Y-57048061D01*
X32745226Y-56848102D01*
X32667205Y-56659744D01*
X32553937Y-56490226D01*
X32409774Y-56346063D01*
X32240256Y-56232795D01*
X32051898Y-56154774D01*
X31851939Y-56115000D01*
X31648061Y-56115000D01*
X31448102Y-56154774D01*
X31259744Y-56232795D01*
X31109300Y-56333318D01*
X31109300Y-49838682D01*
X31259744Y-49939205D01*
X31448102Y-50017226D01*
X31648061Y-50057000D01*
X31851939Y-50057000D01*
X32051898Y-50017226D01*
X32240256Y-49939205D01*
X32409774Y-49825937D01*
X32453711Y-49782000D01*
X33840289Y-49782000D01*
X33884226Y-49825937D01*
X34053744Y-49939205D01*
X34242102Y-50017226D01*
X34442061Y-50057000D01*
X34645939Y-50057000D01*
X34845898Y-50017226D01*
X35034256Y-49939205D01*
X35203774Y-49825937D01*
X35347937Y-49681774D01*
X35461205Y-49512256D01*
X35539226Y-49323898D01*
X35579000Y-49123939D01*
X35579000Y-48920061D01*
X35539226Y-48720102D01*
X35461205Y-48531744D01*
X35347937Y-48362226D01*
X35243711Y-48258000D01*
X41464289Y-48258000D01*
X41360063Y-48362226D01*
G37*
%TD.AperFunction*%
%TD*%
M02*
