%TF.GenerationSoftware,KiCad,Pcbnew,5.1.8-db9833491~88~ubuntu20.10.1*%
%TF.CreationDate,2020-11-26T22:30:36-06:00*%
%TF.ProjectId,micropad,6d696372-6f70-4616-942e-6b696361645f,rev?*%
%TF.SameCoordinates,Original*%
%TF.FileFunction,Legend,Bot*%
%TF.FilePolarity,Positive*%
%FSLAX46Y46*%
G04 Gerber Fmt 4.6, Leading zero omitted, Abs format (unit mm)*
G04 Created by KiCad (PCBNEW 5.1.8-db9833491~88~ubuntu20.10.1) date 2020-11-26 22:30:36*
%MOMM*%
%LPD*%
G01*
G04 APERTURE LIST*
%ADD10C,0.010000*%
G04 APERTURE END LIST*
D10*
%TO.C,G\u002A\u002A\u002A*%
G36*
X49276000Y-76575920D02*
G01*
X49147477Y-76425769D01*
X49024147Y-76311657D01*
X48860272Y-76201335D01*
X48776136Y-76156166D01*
X48669262Y-76105352D01*
X48581304Y-76071459D01*
X48492836Y-76051069D01*
X48384435Y-76040763D01*
X48236676Y-76037125D01*
X48097302Y-76036714D01*
X47905643Y-76038119D01*
X47767543Y-76044249D01*
X47664014Y-76057971D01*
X47576067Y-76082157D01*
X47484714Y-76119676D01*
X47453802Y-76133962D01*
X47180994Y-76300349D01*
X46954990Y-76518578D01*
X46779829Y-76781859D01*
X46659551Y-77083402D01*
X46598194Y-77416416D01*
X46590858Y-77584694D01*
X46620438Y-77944649D01*
X46707655Y-78267592D01*
X46850225Y-78549505D01*
X47045861Y-78786371D01*
X47292279Y-78974172D01*
X47419673Y-79041862D01*
X47545444Y-79096727D01*
X47657012Y-79132112D01*
X47779441Y-79153252D01*
X47937795Y-79165386D01*
X48029966Y-79169399D01*
X48240723Y-79172673D01*
X48400558Y-79162842D01*
X48530225Y-79138165D01*
X48579676Y-79123290D01*
X48787767Y-79033559D01*
X48979365Y-78913278D01*
X49132194Y-78777647D01*
X49187133Y-78708791D01*
X49276000Y-78578010D01*
X49276000Y-80336571D01*
X49856572Y-80336571D01*
X49856572Y-77573613D01*
X49245444Y-77573613D01*
X49215711Y-77872532D01*
X49127404Y-78130300D01*
X48981860Y-78344845D01*
X48780416Y-78514097D01*
X48570127Y-78619311D01*
X48428190Y-78651801D01*
X48247243Y-78662899D01*
X48057527Y-78652918D01*
X47889284Y-78622165D01*
X47856218Y-78611987D01*
X47638051Y-78502784D01*
X47458855Y-78335505D01*
X47315345Y-78108007D01*
X47255137Y-77975279D01*
X47220747Y-77862368D01*
X47205321Y-77737697D01*
X47201985Y-77585794D01*
X47209934Y-77389069D01*
X47236615Y-77237214D01*
X47276657Y-77125038D01*
X47417180Y-76874994D01*
X47590596Y-76689059D01*
X47799937Y-76565201D01*
X48048232Y-76501388D01*
X48221768Y-76491082D01*
X48461959Y-76509127D01*
X48657446Y-76566956D01*
X48828710Y-76672460D01*
X48930608Y-76764169D01*
X49096030Y-76973944D01*
X49199293Y-77213336D01*
X49243328Y-77489885D01*
X49245444Y-77573613D01*
X49856572Y-77573613D01*
X49856572Y-76018571D01*
X49276000Y-76018571D01*
X49276000Y-76575920D01*
G37*
X49276000Y-76575920D02*
X49147477Y-76425769D01*
X49024147Y-76311657D01*
X48860272Y-76201335D01*
X48776136Y-76156166D01*
X48669262Y-76105352D01*
X48581304Y-76071459D01*
X48492836Y-76051069D01*
X48384435Y-76040763D01*
X48236676Y-76037125D01*
X48097302Y-76036714D01*
X47905643Y-76038119D01*
X47767543Y-76044249D01*
X47664014Y-76057971D01*
X47576067Y-76082157D01*
X47484714Y-76119676D01*
X47453802Y-76133962D01*
X47180994Y-76300349D01*
X46954990Y-76518578D01*
X46779829Y-76781859D01*
X46659551Y-77083402D01*
X46598194Y-77416416D01*
X46590858Y-77584694D01*
X46620438Y-77944649D01*
X46707655Y-78267592D01*
X46850225Y-78549505D01*
X47045861Y-78786371D01*
X47292279Y-78974172D01*
X47419673Y-79041862D01*
X47545444Y-79096727D01*
X47657012Y-79132112D01*
X47779441Y-79153252D01*
X47937795Y-79165386D01*
X48029966Y-79169399D01*
X48240723Y-79172673D01*
X48400558Y-79162842D01*
X48530225Y-79138165D01*
X48579676Y-79123290D01*
X48787767Y-79033559D01*
X48979365Y-78913278D01*
X49132194Y-78777647D01*
X49187133Y-78708791D01*
X49276000Y-78578010D01*
X49276000Y-80336571D01*
X49856572Y-80336571D01*
X49856572Y-77573613D01*
X49245444Y-77573613D01*
X49215711Y-77872532D01*
X49127404Y-78130300D01*
X48981860Y-78344845D01*
X48780416Y-78514097D01*
X48570127Y-78619311D01*
X48428190Y-78651801D01*
X48247243Y-78662899D01*
X48057527Y-78652918D01*
X47889284Y-78622165D01*
X47856218Y-78611987D01*
X47638051Y-78502784D01*
X47458855Y-78335505D01*
X47315345Y-78108007D01*
X47255137Y-77975279D01*
X47220747Y-77862368D01*
X47205321Y-77737697D01*
X47201985Y-77585794D01*
X47209934Y-77389069D01*
X47236615Y-77237214D01*
X47276657Y-77125038D01*
X47417180Y-76874994D01*
X47590596Y-76689059D01*
X47799937Y-76565201D01*
X48048232Y-76501388D01*
X48221768Y-76491082D01*
X48461959Y-76509127D01*
X48657446Y-76566956D01*
X48828710Y-76672460D01*
X48930608Y-76764169D01*
X49096030Y-76973944D01*
X49199293Y-77213336D01*
X49243328Y-77489885D01*
X49245444Y-77573613D01*
X49856572Y-77573613D01*
X49856572Y-76018571D01*
X49276000Y-76018571D01*
X49276000Y-76575920D01*
G36*
X42889715Y-79175428D02*
G01*
X43470286Y-79175428D01*
X43470286Y-78617043D01*
X43561832Y-78742021D01*
X43743439Y-78930933D01*
X43979886Y-79081404D01*
X44112603Y-79138764D01*
X44278299Y-79180543D01*
X44487679Y-79204568D01*
X44713927Y-79210302D01*
X44930228Y-79197210D01*
X45109766Y-79164755D01*
X45129050Y-79159072D01*
X45414639Y-79033611D01*
X45659295Y-78851573D01*
X45859274Y-78618700D01*
X46010834Y-78340733D01*
X46110232Y-78023413D01*
X46153725Y-77672481D01*
X46155095Y-77601860D01*
X45563247Y-77601860D01*
X45531912Y-77870188D01*
X45524089Y-77902261D01*
X45424342Y-78175614D01*
X45279755Y-78391905D01*
X45090287Y-78551170D01*
X44855893Y-78653441D01*
X44576532Y-78698752D01*
X44502482Y-78701157D01*
X44336569Y-78695888D01*
X44207399Y-78671421D01*
X44080156Y-78620632D01*
X44059598Y-78610559D01*
X43837480Y-78461705D01*
X43665563Y-78266613D01*
X43547523Y-78034741D01*
X43487031Y-77775546D01*
X43487764Y-77498486D01*
X43536651Y-77264522D01*
X43648131Y-77003796D01*
X43805783Y-76796233D01*
X44005187Y-76645259D01*
X44241920Y-76554301D01*
X44488848Y-76526571D01*
X44775434Y-76554897D01*
X45018042Y-76640581D01*
X45218491Y-76784685D01*
X45378599Y-76988269D01*
X45425033Y-77072952D01*
X45528166Y-77340681D01*
X45563247Y-77601860D01*
X46155095Y-77601860D01*
X46155429Y-77584694D01*
X46123657Y-77239038D01*
X46031033Y-76921609D01*
X45881596Y-76639196D01*
X45679386Y-76398589D01*
X45428441Y-76206580D01*
X45292484Y-76133962D01*
X45198631Y-76092711D01*
X45113774Y-76065069D01*
X45019664Y-76048348D01*
X44898048Y-76039866D01*
X44730674Y-76036936D01*
X44631429Y-76036714D01*
X44439130Y-76037709D01*
X44301713Y-76042573D01*
X44201496Y-76054122D01*
X44120799Y-76075175D01*
X44041940Y-76108550D01*
X43978286Y-76140792D01*
X43835480Y-76230538D01*
X43691399Y-76344664D01*
X43624500Y-76408901D01*
X43470286Y-76572932D01*
X43470286Y-76018571D01*
X42889715Y-76018571D01*
X42889715Y-79175428D01*
G37*
X42889715Y-79175428D02*
X43470286Y-79175428D01*
X43470286Y-78617043D01*
X43561832Y-78742021D01*
X43743439Y-78930933D01*
X43979886Y-79081404D01*
X44112603Y-79138764D01*
X44278299Y-79180543D01*
X44487679Y-79204568D01*
X44713927Y-79210302D01*
X44930228Y-79197210D01*
X45109766Y-79164755D01*
X45129050Y-79159072D01*
X45414639Y-79033611D01*
X45659295Y-78851573D01*
X45859274Y-78618700D01*
X46010834Y-78340733D01*
X46110232Y-78023413D01*
X46153725Y-77672481D01*
X46155095Y-77601860D01*
X45563247Y-77601860D01*
X45531912Y-77870188D01*
X45524089Y-77902261D01*
X45424342Y-78175614D01*
X45279755Y-78391905D01*
X45090287Y-78551170D01*
X44855893Y-78653441D01*
X44576532Y-78698752D01*
X44502482Y-78701157D01*
X44336569Y-78695888D01*
X44207399Y-78671421D01*
X44080156Y-78620632D01*
X44059598Y-78610559D01*
X43837480Y-78461705D01*
X43665563Y-78266613D01*
X43547523Y-78034741D01*
X43487031Y-77775546D01*
X43487764Y-77498486D01*
X43536651Y-77264522D01*
X43648131Y-77003796D01*
X43805783Y-76796233D01*
X44005187Y-76645259D01*
X44241920Y-76554301D01*
X44488848Y-76526571D01*
X44775434Y-76554897D01*
X45018042Y-76640581D01*
X45218491Y-76784685D01*
X45378599Y-76988269D01*
X45425033Y-77072952D01*
X45528166Y-77340681D01*
X45563247Y-77601860D01*
X46155095Y-77601860D01*
X46155429Y-77584694D01*
X46123657Y-77239038D01*
X46031033Y-76921609D01*
X45881596Y-76639196D01*
X45679386Y-76398589D01*
X45428441Y-76206580D01*
X45292484Y-76133962D01*
X45198631Y-76092711D01*
X45113774Y-76065069D01*
X45019664Y-76048348D01*
X44898048Y-76039866D01*
X44730674Y-76036936D01*
X44631429Y-76036714D01*
X44439130Y-76037709D01*
X44301713Y-76042573D01*
X44201496Y-76054122D01*
X44120799Y-76075175D01*
X44041940Y-76108550D01*
X43978286Y-76140792D01*
X43835480Y-76230538D01*
X43691399Y-76344664D01*
X43624500Y-76408901D01*
X43470286Y-76572932D01*
X43470286Y-76018571D01*
X42889715Y-76018571D01*
X42889715Y-79175428D01*
G36*
X38862000Y-79175428D02*
G01*
X39442572Y-79175428D01*
X39442572Y-78617043D01*
X39527785Y-78732544D01*
X39705853Y-78918994D01*
X39932634Y-79070487D01*
X40082162Y-79137744D01*
X40250269Y-79180273D01*
X40461789Y-79204670D01*
X40689723Y-79210368D01*
X40907071Y-79196803D01*
X41086833Y-79163409D01*
X41101336Y-79159072D01*
X41386925Y-79033611D01*
X41631581Y-78851573D01*
X41831560Y-78618700D01*
X41983120Y-78340733D01*
X42082518Y-78023413D01*
X42126011Y-77672481D01*
X42127715Y-77584694D01*
X42118408Y-77483438D01*
X41529983Y-77483438D01*
X41529973Y-77716874D01*
X41479417Y-77957677D01*
X41386191Y-78186235D01*
X41258171Y-78382938D01*
X41113192Y-78521234D01*
X40919190Y-78626949D01*
X40693929Y-78685336D01*
X40474768Y-78701157D01*
X40308854Y-78695888D01*
X40179684Y-78671421D01*
X40052442Y-78620632D01*
X40031884Y-78610559D01*
X39808156Y-78459300D01*
X39629409Y-78252958D01*
X39538415Y-78088700D01*
X39495494Y-77969735D01*
X39471829Y-77833124D01*
X39463484Y-77654046D01*
X39463305Y-77615142D01*
X39479381Y-77362701D01*
X39532501Y-77155202D01*
X39630008Y-76971374D01*
X39729236Y-76844668D01*
X39915042Y-76685321D01*
X40136867Y-76579466D01*
X40380635Y-76528090D01*
X40632267Y-76532179D01*
X40877686Y-76592720D01*
X41102814Y-76710699D01*
X41149112Y-76745166D01*
X41273365Y-76876931D01*
X41386214Y-77056684D01*
X41474981Y-77259853D01*
X41526990Y-77461867D01*
X41529983Y-77483438D01*
X42118408Y-77483438D01*
X42095942Y-77239038D01*
X42003318Y-76921609D01*
X41853882Y-76639196D01*
X41651672Y-76398589D01*
X41400727Y-76206580D01*
X41264770Y-76133962D01*
X41168692Y-76091883D01*
X41081717Y-76063999D01*
X40984857Y-76047438D01*
X40859123Y-76039332D01*
X40685527Y-76036810D01*
X40621270Y-76036714D01*
X40433798Y-76037695D01*
X40299468Y-76042917D01*
X40198856Y-76055799D01*
X40112537Y-76079758D01*
X40021087Y-76118212D01*
X39942436Y-76156166D01*
X39769696Y-76257009D01*
X39623226Y-76372005D01*
X39571095Y-76425769D01*
X39442572Y-76575920D01*
X39442572Y-74784857D01*
X38862000Y-74784857D01*
X38862000Y-79175428D01*
G37*
X38862000Y-79175428D02*
X39442572Y-79175428D01*
X39442572Y-78617043D01*
X39527785Y-78732544D01*
X39705853Y-78918994D01*
X39932634Y-79070487D01*
X40082162Y-79137744D01*
X40250269Y-79180273D01*
X40461789Y-79204670D01*
X40689723Y-79210368D01*
X40907071Y-79196803D01*
X41086833Y-79163409D01*
X41101336Y-79159072D01*
X41386925Y-79033611D01*
X41631581Y-78851573D01*
X41831560Y-78618700D01*
X41983120Y-78340733D01*
X42082518Y-78023413D01*
X42126011Y-77672481D01*
X42127715Y-77584694D01*
X42118408Y-77483438D01*
X41529983Y-77483438D01*
X41529973Y-77716874D01*
X41479417Y-77957677D01*
X41386191Y-78186235D01*
X41258171Y-78382938D01*
X41113192Y-78521234D01*
X40919190Y-78626949D01*
X40693929Y-78685336D01*
X40474768Y-78701157D01*
X40308854Y-78695888D01*
X40179684Y-78671421D01*
X40052442Y-78620632D01*
X40031884Y-78610559D01*
X39808156Y-78459300D01*
X39629409Y-78252958D01*
X39538415Y-78088700D01*
X39495494Y-77969735D01*
X39471829Y-77833124D01*
X39463484Y-77654046D01*
X39463305Y-77615142D01*
X39479381Y-77362701D01*
X39532501Y-77155202D01*
X39630008Y-76971374D01*
X39729236Y-76844668D01*
X39915042Y-76685321D01*
X40136867Y-76579466D01*
X40380635Y-76528090D01*
X40632267Y-76532179D01*
X40877686Y-76592720D01*
X41102814Y-76710699D01*
X41149112Y-76745166D01*
X41273365Y-76876931D01*
X41386214Y-77056684D01*
X41474981Y-77259853D01*
X41526990Y-77461867D01*
X41529983Y-77483438D01*
X42118408Y-77483438D01*
X42095942Y-77239038D01*
X42003318Y-76921609D01*
X41853882Y-76639196D01*
X41651672Y-76398589D01*
X41400727Y-76206580D01*
X41264770Y-76133962D01*
X41168692Y-76091883D01*
X41081717Y-76063999D01*
X40984857Y-76047438D01*
X40859123Y-76039332D01*
X40685527Y-76036810D01*
X40621270Y-76036714D01*
X40433798Y-76037695D01*
X40299468Y-76042917D01*
X40198856Y-76055799D01*
X40112537Y-76079758D01*
X40021087Y-76118212D01*
X39942436Y-76156166D01*
X39769696Y-76257009D01*
X39623226Y-76372005D01*
X39571095Y-76425769D01*
X39442572Y-76575920D01*
X39442572Y-74784857D01*
X38862000Y-74784857D01*
X38862000Y-79175428D01*
G36*
X65008476Y-76025483D02*
G01*
X64802989Y-76051486D01*
X64652257Y-76090795D01*
X64466296Y-76190858D01*
X64289264Y-76339893D01*
X64145245Y-76515898D01*
X64098189Y-76596916D01*
X64035344Y-76721689D01*
X63981219Y-76615058D01*
X63874780Y-76458847D01*
X63722476Y-76303554D01*
X63547707Y-76171752D01*
X63481858Y-76133365D01*
X63400281Y-76092640D01*
X63325295Y-76065272D01*
X63239628Y-76048633D01*
X63126010Y-76040093D01*
X62967169Y-76037023D01*
X62846858Y-76036714D01*
X62649478Y-76038201D01*
X62508301Y-76044088D01*
X62406993Y-76056516D01*
X62329219Y-76077625D01*
X62258647Y-76109554D01*
X62248143Y-76115155D01*
X62019845Y-76279017D01*
X61838686Y-76496294D01*
X61761675Y-76635428D01*
X61667572Y-76835000D01*
X61656639Y-78005214D01*
X61645705Y-79175428D01*
X62230000Y-79175428D01*
X62230887Y-78241071D01*
X62232569Y-77978145D01*
X62236830Y-77730736D01*
X62243257Y-77510779D01*
X62251435Y-77330209D01*
X62260948Y-77200960D01*
X62269033Y-77143428D01*
X62350460Y-76919867D01*
X62480331Y-76750325D01*
X62658541Y-76634879D01*
X62884985Y-76573607D01*
X63052178Y-76562857D01*
X63299824Y-76588098D01*
X63504345Y-76667093D01*
X63676286Y-76804748D01*
X63743999Y-76884722D01*
X63809805Y-76977522D01*
X63861739Y-77070806D01*
X63901401Y-77174467D01*
X63930391Y-77298399D01*
X63950308Y-77452494D01*
X63962752Y-77646647D01*
X63969323Y-77890748D01*
X63971620Y-78194692D01*
X63971715Y-78293014D01*
X63971715Y-79175428D01*
X64546385Y-79175428D01*
X64560258Y-78150357D01*
X64565169Y-77827200D01*
X64571213Y-77567730D01*
X64579893Y-77363067D01*
X64592710Y-77204325D01*
X64611166Y-77082624D01*
X64636764Y-76989080D01*
X64671005Y-76914811D01*
X64715391Y-76850934D01*
X64771424Y-76788566D01*
X64794500Y-76765011D01*
X64934080Y-76654741D01*
X65097337Y-76589919D01*
X65302798Y-76564022D01*
X65368715Y-76562857D01*
X65627136Y-76590092D01*
X65842259Y-76674190D01*
X66020063Y-76818739D01*
X66166532Y-77027329D01*
X66177856Y-77048369D01*
X66275857Y-77234142D01*
X66298329Y-79175428D01*
X66910858Y-79175428D01*
X66910858Y-76018571D01*
X66294000Y-76018571D01*
X66294000Y-76579703D01*
X66205524Y-76449499D01*
X66092010Y-76324956D01*
X65933391Y-76205028D01*
X65755956Y-76107358D01*
X65622715Y-76058330D01*
X65445755Y-76027988D01*
X65231870Y-76017345D01*
X65008476Y-76025483D01*
G37*
X65008476Y-76025483D02*
X64802989Y-76051486D01*
X64652257Y-76090795D01*
X64466296Y-76190858D01*
X64289264Y-76339893D01*
X64145245Y-76515898D01*
X64098189Y-76596916D01*
X64035344Y-76721689D01*
X63981219Y-76615058D01*
X63874780Y-76458847D01*
X63722476Y-76303554D01*
X63547707Y-76171752D01*
X63481858Y-76133365D01*
X63400281Y-76092640D01*
X63325295Y-76065272D01*
X63239628Y-76048633D01*
X63126010Y-76040093D01*
X62967169Y-76037023D01*
X62846858Y-76036714D01*
X62649478Y-76038201D01*
X62508301Y-76044088D01*
X62406993Y-76056516D01*
X62329219Y-76077625D01*
X62258647Y-76109554D01*
X62248143Y-76115155D01*
X62019845Y-76279017D01*
X61838686Y-76496294D01*
X61761675Y-76635428D01*
X61667572Y-76835000D01*
X61656639Y-78005214D01*
X61645705Y-79175428D01*
X62230000Y-79175428D01*
X62230887Y-78241071D01*
X62232569Y-77978145D01*
X62236830Y-77730736D01*
X62243257Y-77510779D01*
X62251435Y-77330209D01*
X62260948Y-77200960D01*
X62269033Y-77143428D01*
X62350460Y-76919867D01*
X62480331Y-76750325D01*
X62658541Y-76634879D01*
X62884985Y-76573607D01*
X63052178Y-76562857D01*
X63299824Y-76588098D01*
X63504345Y-76667093D01*
X63676286Y-76804748D01*
X63743999Y-76884722D01*
X63809805Y-76977522D01*
X63861739Y-77070806D01*
X63901401Y-77174467D01*
X63930391Y-77298399D01*
X63950308Y-77452494D01*
X63962752Y-77646647D01*
X63969323Y-77890748D01*
X63971620Y-78194692D01*
X63971715Y-78293014D01*
X63971715Y-79175428D01*
X64546385Y-79175428D01*
X64560258Y-78150357D01*
X64565169Y-77827200D01*
X64571213Y-77567730D01*
X64579893Y-77363067D01*
X64592710Y-77204325D01*
X64611166Y-77082624D01*
X64636764Y-76989080D01*
X64671005Y-76914811D01*
X64715391Y-76850934D01*
X64771424Y-76788566D01*
X64794500Y-76765011D01*
X64934080Y-76654741D01*
X65097337Y-76589919D01*
X65302798Y-76564022D01*
X65368715Y-76562857D01*
X65627136Y-76590092D01*
X65842259Y-76674190D01*
X66020063Y-76818739D01*
X66166532Y-77027329D01*
X66177856Y-77048369D01*
X66275857Y-77234142D01*
X66298329Y-79175428D01*
X66910858Y-79175428D01*
X66910858Y-76018571D01*
X66294000Y-76018571D01*
X66294000Y-76579703D01*
X66205524Y-76449499D01*
X66092010Y-76324956D01*
X65933391Y-76205028D01*
X65755956Y-76107358D01*
X65622715Y-76058330D01*
X65445755Y-76027988D01*
X65231870Y-76017345D01*
X65008476Y-76025483D01*
G36*
X60125429Y-79175428D02*
G01*
X60742286Y-79175428D01*
X60742286Y-76018571D01*
X60125429Y-76018571D01*
X60125429Y-79175428D01*
G37*
X60125429Y-79175428D02*
X60742286Y-79175428D01*
X60742286Y-76018571D01*
X60125429Y-76018571D01*
X60125429Y-79175428D01*
G36*
X57821286Y-76037974D02*
G01*
X57608827Y-76039888D01*
X57452452Y-76045699D01*
X57335700Y-76057347D01*
X57242110Y-76076771D01*
X57155221Y-76105908D01*
X57118656Y-76120716D01*
X56970106Y-76190908D01*
X56829807Y-76271090D01*
X56712501Y-76351248D01*
X56632930Y-76421367D01*
X56605715Y-76469146D01*
X56627052Y-76520627D01*
X56682767Y-76607909D01*
X56754239Y-76703630D01*
X56902764Y-76890169D01*
X57045586Y-76777053D01*
X57272495Y-76637683D01*
X57522639Y-76553174D01*
X57782458Y-76523127D01*
X58038389Y-76547141D01*
X58276871Y-76624819D01*
X58484342Y-76755760D01*
X58554213Y-76821485D01*
X58704064Y-77020989D01*
X58795751Y-77247178D01*
X58833646Y-77512121D01*
X58835203Y-77597000D01*
X58804508Y-77893520D01*
X58715952Y-78146894D01*
X58569983Y-78356360D01*
X58367045Y-78521160D01*
X58256715Y-78580803D01*
X58034620Y-78649894D01*
X57784602Y-78668577D01*
X57527566Y-78639755D01*
X57284417Y-78566329D01*
X57076060Y-78451201D01*
X57024307Y-78409708D01*
X56944852Y-78345489D01*
X56886608Y-78308292D01*
X56874441Y-78304571D01*
X56834297Y-78328151D01*
X56761094Y-78389267D01*
X56690545Y-78455489D01*
X56607098Y-78544843D01*
X56569116Y-78615766D01*
X56580361Y-78681481D01*
X56644592Y-78755213D01*
X56765571Y-78850183D01*
X56812430Y-78884031D01*
X57042862Y-79022150D01*
X57289434Y-79113151D01*
X57568899Y-79161691D01*
X57852323Y-79173001D01*
X58026900Y-79167339D01*
X58190768Y-79154154D01*
X58319535Y-79135749D01*
X58365572Y-79124550D01*
X58675309Y-78991373D01*
X58936658Y-78805951D01*
X59146459Y-78572794D01*
X59301550Y-78296412D01*
X59398770Y-77981316D01*
X59434960Y-77632016D01*
X59435113Y-77598447D01*
X59402794Y-77244044D01*
X59310050Y-76924420D01*
X59159340Y-76643709D01*
X58953125Y-76406046D01*
X58693865Y-76215565D01*
X58575131Y-76153165D01*
X58474880Y-76106947D01*
X58391705Y-76074963D01*
X58308745Y-76054636D01*
X58209136Y-76043389D01*
X58076017Y-76038645D01*
X57892524Y-76037829D01*
X57821286Y-76037974D01*
G37*
X57821286Y-76037974D02*
X57608827Y-76039888D01*
X57452452Y-76045699D01*
X57335700Y-76057347D01*
X57242110Y-76076771D01*
X57155221Y-76105908D01*
X57118656Y-76120716D01*
X56970106Y-76190908D01*
X56829807Y-76271090D01*
X56712501Y-76351248D01*
X56632930Y-76421367D01*
X56605715Y-76469146D01*
X56627052Y-76520627D01*
X56682767Y-76607909D01*
X56754239Y-76703630D01*
X56902764Y-76890169D01*
X57045586Y-76777053D01*
X57272495Y-76637683D01*
X57522639Y-76553174D01*
X57782458Y-76523127D01*
X58038389Y-76547141D01*
X58276871Y-76624819D01*
X58484342Y-76755760D01*
X58554213Y-76821485D01*
X58704064Y-77020989D01*
X58795751Y-77247178D01*
X58833646Y-77512121D01*
X58835203Y-77597000D01*
X58804508Y-77893520D01*
X58715952Y-78146894D01*
X58569983Y-78356360D01*
X58367045Y-78521160D01*
X58256715Y-78580803D01*
X58034620Y-78649894D01*
X57784602Y-78668577D01*
X57527566Y-78639755D01*
X57284417Y-78566329D01*
X57076060Y-78451201D01*
X57024307Y-78409708D01*
X56944852Y-78345489D01*
X56886608Y-78308292D01*
X56874441Y-78304571D01*
X56834297Y-78328151D01*
X56761094Y-78389267D01*
X56690545Y-78455489D01*
X56607098Y-78544843D01*
X56569116Y-78615766D01*
X56580361Y-78681481D01*
X56644592Y-78755213D01*
X56765571Y-78850183D01*
X56812430Y-78884031D01*
X57042862Y-79022150D01*
X57289434Y-79113151D01*
X57568899Y-79161691D01*
X57852323Y-79173001D01*
X58026900Y-79167339D01*
X58190768Y-79154154D01*
X58319535Y-79135749D01*
X58365572Y-79124550D01*
X58675309Y-78991373D01*
X58936658Y-78805951D01*
X59146459Y-78572794D01*
X59301550Y-78296412D01*
X59398770Y-77981316D01*
X59434960Y-77632016D01*
X59435113Y-77598447D01*
X59402794Y-77244044D01*
X59310050Y-76924420D01*
X59159340Y-76643709D01*
X58953125Y-76406046D01*
X58693865Y-76215565D01*
X58575131Y-76153165D01*
X58474880Y-76106947D01*
X58391705Y-76074963D01*
X58308745Y-76054636D01*
X58209136Y-76043389D01*
X58076017Y-76038645D01*
X57892524Y-76037829D01*
X57821286Y-76037974D01*
G36*
X55154286Y-76557051D02*
G01*
X54942700Y-76345465D01*
X54729319Y-76170052D01*
X54504731Y-76062940D01*
X54259329Y-76019875D01*
X54204272Y-76018571D01*
X54065715Y-76018571D01*
X54065715Y-76562857D01*
X54219929Y-76565617D01*
X54464694Y-76604845D01*
X54687743Y-76709142D01*
X54879215Y-76871981D01*
X55029246Y-77086836D01*
X55040480Y-77108702D01*
X55154286Y-77336448D01*
X55154286Y-79175428D01*
X55771143Y-79175428D01*
X55771143Y-76018571D01*
X55154286Y-76018571D01*
X55154286Y-76557051D01*
G37*
X55154286Y-76557051D02*
X54942700Y-76345465D01*
X54729319Y-76170052D01*
X54504731Y-76062940D01*
X54259329Y-76019875D01*
X54204272Y-76018571D01*
X54065715Y-76018571D01*
X54065715Y-76562857D01*
X54219929Y-76565617D01*
X54464694Y-76604845D01*
X54687743Y-76709142D01*
X54879215Y-76871981D01*
X55029246Y-77086836D01*
X55040480Y-77108702D01*
X55154286Y-77336448D01*
X55154286Y-79175428D01*
X55771143Y-79175428D01*
X55771143Y-76018571D01*
X55154286Y-76018571D01*
X55154286Y-76557051D01*
G36*
X51924683Y-76034911D02*
G01*
X51791852Y-76048428D01*
X51685297Y-76071433D01*
X51581875Y-76109139D01*
X51458442Y-76166763D01*
X51439700Y-76175998D01*
X51157715Y-76352621D01*
X50931212Y-76575825D01*
X50761046Y-76844418D01*
X50648071Y-77157204D01*
X50613232Y-77330223D01*
X50592199Y-77678424D01*
X50636453Y-78007675D01*
X50742586Y-78311043D01*
X50907185Y-78581598D01*
X51126842Y-78812408D01*
X51398145Y-78996542D01*
X51444963Y-79020638D01*
X51565590Y-79078711D01*
X51662132Y-79117842D01*
X51754885Y-79142193D01*
X51864145Y-79155924D01*
X52010208Y-79163197D01*
X52158761Y-79166975D01*
X52362427Y-79169270D01*
X52513615Y-79164344D01*
X52632230Y-79150196D01*
X52738177Y-79124828D01*
X52808790Y-79101688D01*
X52981121Y-79035055D01*
X53116245Y-78964847D01*
X53242009Y-78873814D01*
X53386262Y-78744708D01*
X53388394Y-78742692D01*
X53593432Y-78500063D01*
X53737794Y-78218290D01*
X53820973Y-77898806D01*
X53842462Y-77543040D01*
X53842423Y-77542080D01*
X53248809Y-77542080D01*
X53240747Y-77767535D01*
X53201490Y-77970819D01*
X53171350Y-78052415D01*
X53026910Y-78294324D01*
X52841121Y-78478232D01*
X52617972Y-78601483D01*
X52361450Y-78661419D01*
X52248821Y-78667074D01*
X52092683Y-78658279D01*
X51937942Y-78635193D01*
X51847646Y-78611987D01*
X51624824Y-78499429D01*
X51440022Y-78325939D01*
X51324923Y-78154187D01*
X51274860Y-78057897D01*
X51243254Y-77973707D01*
X51225917Y-77879935D01*
X51218661Y-77754895D01*
X51217286Y-77597000D01*
X51219038Y-77425068D01*
X51227085Y-77303993D01*
X51245617Y-77212091D01*
X51278822Y-77127679D01*
X51324923Y-77039812D01*
X51478016Y-76823388D01*
X51666022Y-76667789D01*
X51893643Y-76570413D01*
X52165576Y-76528652D01*
X52250768Y-76526571D01*
X52516549Y-76560292D01*
X52753327Y-76658982D01*
X52955552Y-76818933D01*
X53117672Y-77036436D01*
X53171350Y-77141585D01*
X53225677Y-77323686D01*
X53248809Y-77542080D01*
X53842423Y-77542080D01*
X53839416Y-77469467D01*
X53788789Y-77132956D01*
X53676827Y-76834422D01*
X53502462Y-76571407D01*
X53400267Y-76460947D01*
X53184854Y-76278400D01*
X52958203Y-76148242D01*
X52706918Y-76065963D01*
X52417604Y-76027056D01*
X52106935Y-76025668D01*
X51924683Y-76034911D01*
G37*
X51924683Y-76034911D02*
X51791852Y-76048428D01*
X51685297Y-76071433D01*
X51581875Y-76109139D01*
X51458442Y-76166763D01*
X51439700Y-76175998D01*
X51157715Y-76352621D01*
X50931212Y-76575825D01*
X50761046Y-76844418D01*
X50648071Y-77157204D01*
X50613232Y-77330223D01*
X50592199Y-77678424D01*
X50636453Y-78007675D01*
X50742586Y-78311043D01*
X50907185Y-78581598D01*
X51126842Y-78812408D01*
X51398145Y-78996542D01*
X51444963Y-79020638D01*
X51565590Y-79078711D01*
X51662132Y-79117842D01*
X51754885Y-79142193D01*
X51864145Y-79155924D01*
X52010208Y-79163197D01*
X52158761Y-79166975D01*
X52362427Y-79169270D01*
X52513615Y-79164344D01*
X52632230Y-79150196D01*
X52738177Y-79124828D01*
X52808790Y-79101688D01*
X52981121Y-79035055D01*
X53116245Y-78964847D01*
X53242009Y-78873814D01*
X53386262Y-78744708D01*
X53388394Y-78742692D01*
X53593432Y-78500063D01*
X53737794Y-78218290D01*
X53820973Y-77898806D01*
X53842462Y-77543040D01*
X53842423Y-77542080D01*
X53248809Y-77542080D01*
X53240747Y-77767535D01*
X53201490Y-77970819D01*
X53171350Y-78052415D01*
X53026910Y-78294324D01*
X52841121Y-78478232D01*
X52617972Y-78601483D01*
X52361450Y-78661419D01*
X52248821Y-78667074D01*
X52092683Y-78658279D01*
X51937942Y-78635193D01*
X51847646Y-78611987D01*
X51624824Y-78499429D01*
X51440022Y-78325939D01*
X51324923Y-78154187D01*
X51274860Y-78057897D01*
X51243254Y-77973707D01*
X51225917Y-77879935D01*
X51218661Y-77754895D01*
X51217286Y-77597000D01*
X51219038Y-77425068D01*
X51227085Y-77303993D01*
X51245617Y-77212091D01*
X51278822Y-77127679D01*
X51324923Y-77039812D01*
X51478016Y-76823388D01*
X51666022Y-76667789D01*
X51893643Y-76570413D01*
X52165576Y-76528652D01*
X52250768Y-76526571D01*
X52516549Y-76560292D01*
X52753327Y-76658982D01*
X52955552Y-76818933D01*
X53117672Y-77036436D01*
X53171350Y-77141585D01*
X53225677Y-77323686D01*
X53248809Y-77542080D01*
X53842423Y-77542080D01*
X53839416Y-77469467D01*
X53788789Y-77132956D01*
X53676827Y-76834422D01*
X53502462Y-76571407D01*
X53400267Y-76460947D01*
X53184854Y-76278400D01*
X52958203Y-76148242D01*
X52706918Y-76065963D01*
X52417604Y-76027056D01*
X52106935Y-76025668D01*
X51924683Y-76034911D01*
G36*
X60266946Y-74810115D02*
G01*
X60159980Y-74886968D01*
X60101743Y-75017031D01*
X60089143Y-75147714D01*
X60112462Y-75317978D01*
X60183413Y-75433842D01*
X60303487Y-75496923D01*
X60424134Y-75510571D01*
X60542174Y-75497804D01*
X60641453Y-75466052D01*
X60660231Y-75455073D01*
X60739880Y-75359394D01*
X60783708Y-75223138D01*
X60784887Y-75072253D01*
X60774237Y-75021784D01*
X60708805Y-74890221D01*
X60597573Y-74812273D01*
X60436125Y-74784952D01*
X60424134Y-74784857D01*
X60266946Y-74810115D01*
G37*
X60266946Y-74810115D02*
X60159980Y-74886968D01*
X60101743Y-75017031D01*
X60089143Y-75147714D01*
X60112462Y-75317978D01*
X60183413Y-75433842D01*
X60303487Y-75496923D01*
X60424134Y-75510571D01*
X60542174Y-75497804D01*
X60641453Y-75466052D01*
X60660231Y-75455073D01*
X60739880Y-75359394D01*
X60783708Y-75223138D01*
X60784887Y-75072253D01*
X60774237Y-75021784D01*
X60708805Y-74890221D01*
X60597573Y-74812273D01*
X60436125Y-74784952D01*
X60424134Y-74784857D01*
X60266946Y-74810115D01*
G36*
X51771176Y-59508592D02*
G01*
X51160086Y-59508694D01*
X50613895Y-59508934D01*
X50128764Y-59509367D01*
X49700857Y-59510051D01*
X49326338Y-59511042D01*
X49001370Y-59512397D01*
X48722115Y-59514172D01*
X48484737Y-59516425D01*
X48285400Y-59519212D01*
X48120266Y-59522590D01*
X47985498Y-59526615D01*
X47877261Y-59531344D01*
X47791716Y-59536834D01*
X47725028Y-59543141D01*
X47673359Y-59550322D01*
X47632873Y-59558434D01*
X47599732Y-59567533D01*
X47570101Y-59577677D01*
X47561686Y-59580795D01*
X47374769Y-59681495D01*
X47196071Y-59832491D01*
X47048436Y-60012997D01*
X47003018Y-60089142D01*
X46993373Y-60109479D01*
X46984693Y-60134768D01*
X46976926Y-60168736D01*
X46970023Y-60215106D01*
X46963933Y-60277605D01*
X46958604Y-60359956D01*
X46953987Y-60465886D01*
X46950029Y-60599118D01*
X46946681Y-60763378D01*
X46943892Y-60962390D01*
X46941612Y-61199880D01*
X46939788Y-61479572D01*
X46938372Y-61805192D01*
X46937311Y-62180464D01*
X46936556Y-62609113D01*
X46936055Y-63094864D01*
X46935758Y-63641442D01*
X46935614Y-64252572D01*
X46935572Y-64931979D01*
X46935572Y-69868143D01*
X47014156Y-70014916D01*
X47110005Y-70154838D01*
X47240573Y-70295024D01*
X47384085Y-70415220D01*
X47518766Y-70495173D01*
X47539261Y-70503322D01*
X47634988Y-70556515D01*
X47702451Y-70647319D01*
X47728730Y-70704625D01*
X47791626Y-70815271D01*
X47887338Y-70939563D01*
X47967748Y-71023934D01*
X48008240Y-71063285D01*
X48043799Y-71098747D01*
X48078203Y-71130520D01*
X48115229Y-71158803D01*
X48158655Y-71183794D01*
X48212260Y-71205691D01*
X48279820Y-71224694D01*
X48365114Y-71241000D01*
X48471919Y-71254810D01*
X48604014Y-71266320D01*
X48765175Y-71275731D01*
X48959181Y-71283240D01*
X49189809Y-71289046D01*
X49460837Y-71293348D01*
X49776043Y-71296345D01*
X50139205Y-71298235D01*
X50554101Y-71299217D01*
X51024508Y-71299489D01*
X51554203Y-71299251D01*
X52146966Y-71298700D01*
X52806573Y-71298036D01*
X53174229Y-71297714D01*
X53751035Y-71297043D01*
X54308995Y-71295984D01*
X54843673Y-71294566D01*
X55350633Y-71292817D01*
X55825441Y-71290768D01*
X56263660Y-71288447D01*
X56660856Y-71285882D01*
X57012593Y-71283103D01*
X57314435Y-71280138D01*
X57561947Y-71277018D01*
X57750694Y-71273770D01*
X57876241Y-71270423D01*
X57934151Y-71267007D01*
X57936240Y-71266620D01*
X58169760Y-71174302D01*
X58378492Y-71016837D01*
X58556653Y-70799116D01*
X58624360Y-70684571D01*
X58634166Y-70663995D01*
X58642994Y-70638406D01*
X58650905Y-70604032D01*
X58657960Y-70557104D01*
X58664218Y-70493851D01*
X58669739Y-70410501D01*
X58674585Y-70303283D01*
X58678816Y-70168428D01*
X58682492Y-70002164D01*
X58685672Y-69800720D01*
X58688419Y-69560325D01*
X58690792Y-69277209D01*
X58692851Y-68947601D01*
X58694657Y-68567730D01*
X58696271Y-68133826D01*
X58697752Y-67642116D01*
X58699161Y-67088831D01*
X58700558Y-66470201D01*
X58701879Y-65842929D01*
X58703227Y-65152208D01*
X58704246Y-64530344D01*
X58704902Y-63973624D01*
X58705130Y-63538727D01*
X58419927Y-63538727D01*
X58419915Y-64052981D01*
X58419655Y-64629706D01*
X58419344Y-65272660D01*
X58419203Y-65755198D01*
X58419054Y-66435641D01*
X58418813Y-67047306D01*
X58418428Y-67593986D01*
X58417846Y-68079476D01*
X58417012Y-68507567D01*
X58415875Y-68882055D01*
X58414381Y-69206732D01*
X58412477Y-69485392D01*
X58410110Y-69721828D01*
X58407226Y-69919834D01*
X58403773Y-70083203D01*
X58399697Y-70215729D01*
X58394945Y-70321205D01*
X58389465Y-70403425D01*
X58383202Y-70466181D01*
X58376104Y-70513268D01*
X58368118Y-70548479D01*
X58359190Y-70575607D01*
X58351419Y-70593857D01*
X58235619Y-70773940D01*
X58068569Y-70913207D01*
X58002715Y-70951070D01*
X57981837Y-70959409D01*
X57949936Y-70966890D01*
X57903333Y-70973549D01*
X57838349Y-70979425D01*
X57751304Y-70984555D01*
X57638520Y-70988977D01*
X57496317Y-70992729D01*
X57321016Y-70995848D01*
X57108938Y-70998371D01*
X56856405Y-71000337D01*
X56559736Y-71001783D01*
X56215253Y-71002747D01*
X55819277Y-71003266D01*
X55368129Y-71003378D01*
X54858129Y-71003120D01*
X54285599Y-71002531D01*
X53646859Y-71001647D01*
X53137320Y-71000840D01*
X48380783Y-70993000D01*
X48237988Y-70894038D01*
X48135372Y-70808919D01*
X48050249Y-70714855D01*
X48030720Y-70685934D01*
X47966248Y-70576792D01*
X52621624Y-70567181D01*
X57277000Y-70557571D01*
X57422143Y-70479003D01*
X57588200Y-70362696D01*
X57748855Y-70205154D01*
X57876622Y-70034271D01*
X57898931Y-69995143D01*
X57908755Y-69974300D01*
X57917609Y-69948124D01*
X57925560Y-69912825D01*
X57932676Y-69864609D01*
X57939024Y-69799686D01*
X57944673Y-69714263D01*
X57949691Y-69604548D01*
X57954145Y-69466751D01*
X57958103Y-69297078D01*
X57961633Y-69091738D01*
X57964802Y-68846940D01*
X57967679Y-68558892D01*
X57970331Y-68223802D01*
X57972826Y-67837877D01*
X57975233Y-67397327D01*
X57977618Y-66898359D01*
X57980049Y-66337182D01*
X57982595Y-65710004D01*
X57984572Y-65206392D01*
X58002715Y-60544642D01*
X58153199Y-60680602D01*
X58191333Y-60712989D01*
X58225673Y-60740205D01*
X58256416Y-60766006D01*
X58283760Y-60794151D01*
X58307901Y-60828398D01*
X58329037Y-60872505D01*
X58347364Y-60930229D01*
X58363079Y-61005329D01*
X58376379Y-61101562D01*
X58387462Y-61222686D01*
X58396524Y-61372460D01*
X58403763Y-61554642D01*
X58409375Y-61772988D01*
X58413556Y-62031258D01*
X58416506Y-62333209D01*
X58418419Y-62682598D01*
X58419494Y-63083185D01*
X58419927Y-63538727D01*
X58705130Y-63538727D01*
X58705162Y-63478334D01*
X58704992Y-63040761D01*
X58704356Y-62657190D01*
X58703221Y-62323909D01*
X58701552Y-62037204D01*
X58699316Y-61793361D01*
X58696478Y-61588667D01*
X58693004Y-61419407D01*
X58688860Y-61281869D01*
X58684011Y-61172340D01*
X58678423Y-61087104D01*
X58672063Y-61022450D01*
X58664895Y-60974662D01*
X58656886Y-60940028D01*
X58656710Y-60939419D01*
X58575865Y-60758429D01*
X58448229Y-60581349D01*
X58352697Y-60488285D01*
X57730572Y-60488285D01*
X57729706Y-65033071D01*
X57729345Y-65603952D01*
X57728505Y-66156295D01*
X57727216Y-66685584D01*
X57725510Y-67187299D01*
X57723420Y-67656922D01*
X57720977Y-68089936D01*
X57718213Y-68481823D01*
X57715159Y-68828063D01*
X57711847Y-69124139D01*
X57708309Y-69365534D01*
X57704577Y-69547728D01*
X57700682Y-69666204D01*
X57696822Y-69715790D01*
X57616889Y-69914592D01*
X57483321Y-70087443D01*
X57311697Y-70218350D01*
X57141125Y-70286257D01*
X57090585Y-70289791D01*
X56971955Y-70293255D01*
X56789720Y-70296618D01*
X56548362Y-70299850D01*
X56252365Y-70302919D01*
X55906210Y-70305797D01*
X55514382Y-70308452D01*
X55081362Y-70310854D01*
X54611634Y-70312972D01*
X54109681Y-70314777D01*
X53579985Y-70316237D01*
X53027030Y-70317323D01*
X52460072Y-70318000D01*
X47897143Y-70321714D01*
X47897346Y-65740642D01*
X47897648Y-64971537D01*
X47898491Y-64274001D01*
X47899882Y-63647037D01*
X47901829Y-63089645D01*
X47904341Y-62600825D01*
X47907426Y-62179579D01*
X47911091Y-61824907D01*
X47915347Y-61535810D01*
X47920200Y-61311289D01*
X47925659Y-61150345D01*
X47931732Y-61051978D01*
X47936352Y-61019824D01*
X48004223Y-60879527D01*
X48119749Y-60738485D01*
X48261444Y-60618001D01*
X48407820Y-60539375D01*
X48427496Y-60532911D01*
X48467028Y-60525995D01*
X48538999Y-60519768D01*
X48646460Y-60514202D01*
X48792464Y-60509266D01*
X48980063Y-60504933D01*
X49212310Y-60501174D01*
X49492257Y-60497959D01*
X49822955Y-60495260D01*
X50207458Y-60493048D01*
X50648818Y-60491295D01*
X51150086Y-60489971D01*
X51714315Y-60489048D01*
X52344558Y-60488497D01*
X53043866Y-60488289D01*
X53153710Y-60488285D01*
X57730572Y-60488285D01*
X58352697Y-60488285D01*
X58292976Y-60430107D01*
X58129277Y-60326632D01*
X58115890Y-60320867D01*
X58001286Y-60259465D01*
X57964307Y-60216142D01*
X57676143Y-60216142D01*
X48350715Y-60252428D01*
X48178455Y-60337261D01*
X48046895Y-60419803D01*
X47919923Y-60526969D01*
X47881067Y-60568277D01*
X47847011Y-60606664D01*
X47816360Y-60640680D01*
X47788933Y-60674141D01*
X47764553Y-60710862D01*
X47743040Y-60754657D01*
X47724217Y-60809342D01*
X47707905Y-60878732D01*
X47693924Y-60966642D01*
X47682097Y-61076888D01*
X47672245Y-61213284D01*
X47664190Y-61379645D01*
X47657752Y-61579787D01*
X47652753Y-61817525D01*
X47649015Y-62096673D01*
X47646358Y-62421048D01*
X47644605Y-62794463D01*
X47643577Y-63220735D01*
X47643095Y-63703678D01*
X47642981Y-64247108D01*
X47643056Y-64854839D01*
X47643141Y-65530687D01*
X47643143Y-65650884D01*
X47643143Y-70256269D01*
X47525215Y-70183024D01*
X47437048Y-70108916D01*
X47343193Y-70001286D01*
X47298429Y-69937378D01*
X47189572Y-69764976D01*
X47189572Y-65044988D01*
X47189483Y-64355498D01*
X47189327Y-63734822D01*
X47189270Y-63179204D01*
X47189478Y-62684888D01*
X47190116Y-62248117D01*
X47191351Y-61865135D01*
X47193348Y-61532185D01*
X47196273Y-61245512D01*
X47200293Y-61001357D01*
X47205573Y-60795966D01*
X47212279Y-60625581D01*
X47220577Y-60486447D01*
X47230633Y-60374806D01*
X47242612Y-60286902D01*
X47256682Y-60218979D01*
X47273006Y-60167280D01*
X47291753Y-60128049D01*
X47313086Y-60097529D01*
X47337173Y-60071965D01*
X47364179Y-60047598D01*
X47394270Y-60020674D01*
X47412234Y-60003376D01*
X47442487Y-59971246D01*
X47468157Y-59942354D01*
X47493045Y-59916524D01*
X47520947Y-59893575D01*
X47555662Y-59873329D01*
X47600989Y-59855609D01*
X47660726Y-59840235D01*
X47738671Y-59827029D01*
X47838623Y-59815812D01*
X47964379Y-59806406D01*
X48119738Y-59798633D01*
X48308499Y-59792314D01*
X48534459Y-59787271D01*
X48801417Y-59783324D01*
X49113172Y-59780296D01*
X49473521Y-59778008D01*
X49886263Y-59776281D01*
X50355196Y-59774938D01*
X50884118Y-59773799D01*
X51476829Y-59772686D01*
X52137125Y-59771420D01*
X52357743Y-59770966D01*
X53052684Y-59769407D01*
X53678811Y-59767945D01*
X54239882Y-59766778D01*
X54739653Y-59766104D01*
X55181883Y-59766122D01*
X55570330Y-59767029D01*
X55908749Y-59769025D01*
X56200900Y-59772307D01*
X56450539Y-59777074D01*
X56661423Y-59783525D01*
X56837311Y-59791857D01*
X56981960Y-59802269D01*
X57099127Y-59814960D01*
X57192570Y-59830127D01*
X57266046Y-59847970D01*
X57323313Y-59868686D01*
X57368128Y-59892474D01*
X57404248Y-59919533D01*
X57435432Y-59950060D01*
X57465436Y-59984254D01*
X57498018Y-60022313D01*
X57516892Y-60043335D01*
X57676143Y-60216142D01*
X57964307Y-60216142D01*
X57934611Y-60181352D01*
X57911782Y-60129303D01*
X57826645Y-59974004D01*
X57692640Y-59818778D01*
X57530646Y-59683749D01*
X57361540Y-59589043D01*
X57344323Y-59582295D01*
X57314684Y-59571627D01*
X57283227Y-59562040D01*
X57246115Y-59553478D01*
X57199507Y-59545883D01*
X57139563Y-59539195D01*
X57062444Y-59533359D01*
X56964310Y-59528315D01*
X56841321Y-59524006D01*
X56689637Y-59520375D01*
X56505419Y-59517362D01*
X56284827Y-59514911D01*
X56024021Y-59512964D01*
X55719162Y-59511463D01*
X55366409Y-59510349D01*
X54961922Y-59509565D01*
X54501863Y-59509053D01*
X53982392Y-59508756D01*
X53399668Y-59508615D01*
X52749851Y-59508573D01*
X52451000Y-59508571D01*
X51771176Y-59508592D01*
G37*
X51771176Y-59508592D02*
X51160086Y-59508694D01*
X50613895Y-59508934D01*
X50128764Y-59509367D01*
X49700857Y-59510051D01*
X49326338Y-59511042D01*
X49001370Y-59512397D01*
X48722115Y-59514172D01*
X48484737Y-59516425D01*
X48285400Y-59519212D01*
X48120266Y-59522590D01*
X47985498Y-59526615D01*
X47877261Y-59531344D01*
X47791716Y-59536834D01*
X47725028Y-59543141D01*
X47673359Y-59550322D01*
X47632873Y-59558434D01*
X47599732Y-59567533D01*
X47570101Y-59577677D01*
X47561686Y-59580795D01*
X47374769Y-59681495D01*
X47196071Y-59832491D01*
X47048436Y-60012997D01*
X47003018Y-60089142D01*
X46993373Y-60109479D01*
X46984693Y-60134768D01*
X46976926Y-60168736D01*
X46970023Y-60215106D01*
X46963933Y-60277605D01*
X46958604Y-60359956D01*
X46953987Y-60465886D01*
X46950029Y-60599118D01*
X46946681Y-60763378D01*
X46943892Y-60962390D01*
X46941612Y-61199880D01*
X46939788Y-61479572D01*
X46938372Y-61805192D01*
X46937311Y-62180464D01*
X46936556Y-62609113D01*
X46936055Y-63094864D01*
X46935758Y-63641442D01*
X46935614Y-64252572D01*
X46935572Y-64931979D01*
X46935572Y-69868143D01*
X47014156Y-70014916D01*
X47110005Y-70154838D01*
X47240573Y-70295024D01*
X47384085Y-70415220D01*
X47518766Y-70495173D01*
X47539261Y-70503322D01*
X47634988Y-70556515D01*
X47702451Y-70647319D01*
X47728730Y-70704625D01*
X47791626Y-70815271D01*
X47887338Y-70939563D01*
X47967748Y-71023934D01*
X48008240Y-71063285D01*
X48043799Y-71098747D01*
X48078203Y-71130520D01*
X48115229Y-71158803D01*
X48158655Y-71183794D01*
X48212260Y-71205691D01*
X48279820Y-71224694D01*
X48365114Y-71241000D01*
X48471919Y-71254810D01*
X48604014Y-71266320D01*
X48765175Y-71275731D01*
X48959181Y-71283240D01*
X49189809Y-71289046D01*
X49460837Y-71293348D01*
X49776043Y-71296345D01*
X50139205Y-71298235D01*
X50554101Y-71299217D01*
X51024508Y-71299489D01*
X51554203Y-71299251D01*
X52146966Y-71298700D01*
X52806573Y-71298036D01*
X53174229Y-71297714D01*
X53751035Y-71297043D01*
X54308995Y-71295984D01*
X54843673Y-71294566D01*
X55350633Y-71292817D01*
X55825441Y-71290768D01*
X56263660Y-71288447D01*
X56660856Y-71285882D01*
X57012593Y-71283103D01*
X57314435Y-71280138D01*
X57561947Y-71277018D01*
X57750694Y-71273770D01*
X57876241Y-71270423D01*
X57934151Y-71267007D01*
X57936240Y-71266620D01*
X58169760Y-71174302D01*
X58378492Y-71016837D01*
X58556653Y-70799116D01*
X58624360Y-70684571D01*
X58634166Y-70663995D01*
X58642994Y-70638406D01*
X58650905Y-70604032D01*
X58657960Y-70557104D01*
X58664218Y-70493851D01*
X58669739Y-70410501D01*
X58674585Y-70303283D01*
X58678816Y-70168428D01*
X58682492Y-70002164D01*
X58685672Y-69800720D01*
X58688419Y-69560325D01*
X58690792Y-69277209D01*
X58692851Y-68947601D01*
X58694657Y-68567730D01*
X58696271Y-68133826D01*
X58697752Y-67642116D01*
X58699161Y-67088831D01*
X58700558Y-66470201D01*
X58701879Y-65842929D01*
X58703227Y-65152208D01*
X58704246Y-64530344D01*
X58704902Y-63973624D01*
X58705130Y-63538727D01*
X58419927Y-63538727D01*
X58419915Y-64052981D01*
X58419655Y-64629706D01*
X58419344Y-65272660D01*
X58419203Y-65755198D01*
X58419054Y-66435641D01*
X58418813Y-67047306D01*
X58418428Y-67593986D01*
X58417846Y-68079476D01*
X58417012Y-68507567D01*
X58415875Y-68882055D01*
X58414381Y-69206732D01*
X58412477Y-69485392D01*
X58410110Y-69721828D01*
X58407226Y-69919834D01*
X58403773Y-70083203D01*
X58399697Y-70215729D01*
X58394945Y-70321205D01*
X58389465Y-70403425D01*
X58383202Y-70466181D01*
X58376104Y-70513268D01*
X58368118Y-70548479D01*
X58359190Y-70575607D01*
X58351419Y-70593857D01*
X58235619Y-70773940D01*
X58068569Y-70913207D01*
X58002715Y-70951070D01*
X57981837Y-70959409D01*
X57949936Y-70966890D01*
X57903333Y-70973549D01*
X57838349Y-70979425D01*
X57751304Y-70984555D01*
X57638520Y-70988977D01*
X57496317Y-70992729D01*
X57321016Y-70995848D01*
X57108938Y-70998371D01*
X56856405Y-71000337D01*
X56559736Y-71001783D01*
X56215253Y-71002747D01*
X55819277Y-71003266D01*
X55368129Y-71003378D01*
X54858129Y-71003120D01*
X54285599Y-71002531D01*
X53646859Y-71001647D01*
X53137320Y-71000840D01*
X48380783Y-70993000D01*
X48237988Y-70894038D01*
X48135372Y-70808919D01*
X48050249Y-70714855D01*
X48030720Y-70685934D01*
X47966248Y-70576792D01*
X52621624Y-70567181D01*
X57277000Y-70557571D01*
X57422143Y-70479003D01*
X57588200Y-70362696D01*
X57748855Y-70205154D01*
X57876622Y-70034271D01*
X57898931Y-69995143D01*
X57908755Y-69974300D01*
X57917609Y-69948124D01*
X57925560Y-69912825D01*
X57932676Y-69864609D01*
X57939024Y-69799686D01*
X57944673Y-69714263D01*
X57949691Y-69604548D01*
X57954145Y-69466751D01*
X57958103Y-69297078D01*
X57961633Y-69091738D01*
X57964802Y-68846940D01*
X57967679Y-68558892D01*
X57970331Y-68223802D01*
X57972826Y-67837877D01*
X57975233Y-67397327D01*
X57977618Y-66898359D01*
X57980049Y-66337182D01*
X57982595Y-65710004D01*
X57984572Y-65206392D01*
X58002715Y-60544642D01*
X58153199Y-60680602D01*
X58191333Y-60712989D01*
X58225673Y-60740205D01*
X58256416Y-60766006D01*
X58283760Y-60794151D01*
X58307901Y-60828398D01*
X58329037Y-60872505D01*
X58347364Y-60930229D01*
X58363079Y-61005329D01*
X58376379Y-61101562D01*
X58387462Y-61222686D01*
X58396524Y-61372460D01*
X58403763Y-61554642D01*
X58409375Y-61772988D01*
X58413556Y-62031258D01*
X58416506Y-62333209D01*
X58418419Y-62682598D01*
X58419494Y-63083185D01*
X58419927Y-63538727D01*
X58705130Y-63538727D01*
X58705162Y-63478334D01*
X58704992Y-63040761D01*
X58704356Y-62657190D01*
X58703221Y-62323909D01*
X58701552Y-62037204D01*
X58699316Y-61793361D01*
X58696478Y-61588667D01*
X58693004Y-61419407D01*
X58688860Y-61281869D01*
X58684011Y-61172340D01*
X58678423Y-61087104D01*
X58672063Y-61022450D01*
X58664895Y-60974662D01*
X58656886Y-60940028D01*
X58656710Y-60939419D01*
X58575865Y-60758429D01*
X58448229Y-60581349D01*
X58352697Y-60488285D01*
X57730572Y-60488285D01*
X57729706Y-65033071D01*
X57729345Y-65603952D01*
X57728505Y-66156295D01*
X57727216Y-66685584D01*
X57725510Y-67187299D01*
X57723420Y-67656922D01*
X57720977Y-68089936D01*
X57718213Y-68481823D01*
X57715159Y-68828063D01*
X57711847Y-69124139D01*
X57708309Y-69365534D01*
X57704577Y-69547728D01*
X57700682Y-69666204D01*
X57696822Y-69715790D01*
X57616889Y-69914592D01*
X57483321Y-70087443D01*
X57311697Y-70218350D01*
X57141125Y-70286257D01*
X57090585Y-70289791D01*
X56971955Y-70293255D01*
X56789720Y-70296618D01*
X56548362Y-70299850D01*
X56252365Y-70302919D01*
X55906210Y-70305797D01*
X55514382Y-70308452D01*
X55081362Y-70310854D01*
X54611634Y-70312972D01*
X54109681Y-70314777D01*
X53579985Y-70316237D01*
X53027030Y-70317323D01*
X52460072Y-70318000D01*
X47897143Y-70321714D01*
X47897346Y-65740642D01*
X47897648Y-64971537D01*
X47898491Y-64274001D01*
X47899882Y-63647037D01*
X47901829Y-63089645D01*
X47904341Y-62600825D01*
X47907426Y-62179579D01*
X47911091Y-61824907D01*
X47915347Y-61535810D01*
X47920200Y-61311289D01*
X47925659Y-61150345D01*
X47931732Y-61051978D01*
X47936352Y-61019824D01*
X48004223Y-60879527D01*
X48119749Y-60738485D01*
X48261444Y-60618001D01*
X48407820Y-60539375D01*
X48427496Y-60532911D01*
X48467028Y-60525995D01*
X48538999Y-60519768D01*
X48646460Y-60514202D01*
X48792464Y-60509266D01*
X48980063Y-60504933D01*
X49212310Y-60501174D01*
X49492257Y-60497959D01*
X49822955Y-60495260D01*
X50207458Y-60493048D01*
X50648818Y-60491295D01*
X51150086Y-60489971D01*
X51714315Y-60489048D01*
X52344558Y-60488497D01*
X53043866Y-60488289D01*
X53153710Y-60488285D01*
X57730572Y-60488285D01*
X58352697Y-60488285D01*
X58292976Y-60430107D01*
X58129277Y-60326632D01*
X58115890Y-60320867D01*
X58001286Y-60259465D01*
X57964307Y-60216142D01*
X57676143Y-60216142D01*
X48350715Y-60252428D01*
X48178455Y-60337261D01*
X48046895Y-60419803D01*
X47919923Y-60526969D01*
X47881067Y-60568277D01*
X47847011Y-60606664D01*
X47816360Y-60640680D01*
X47788933Y-60674141D01*
X47764553Y-60710862D01*
X47743040Y-60754657D01*
X47724217Y-60809342D01*
X47707905Y-60878732D01*
X47693924Y-60966642D01*
X47682097Y-61076888D01*
X47672245Y-61213284D01*
X47664190Y-61379645D01*
X47657752Y-61579787D01*
X47652753Y-61817525D01*
X47649015Y-62096673D01*
X47646358Y-62421048D01*
X47644605Y-62794463D01*
X47643577Y-63220735D01*
X47643095Y-63703678D01*
X47642981Y-64247108D01*
X47643056Y-64854839D01*
X47643141Y-65530687D01*
X47643143Y-65650884D01*
X47643143Y-70256269D01*
X47525215Y-70183024D01*
X47437048Y-70108916D01*
X47343193Y-70001286D01*
X47298429Y-69937378D01*
X47189572Y-69764976D01*
X47189572Y-65044988D01*
X47189483Y-64355498D01*
X47189327Y-63734822D01*
X47189270Y-63179204D01*
X47189478Y-62684888D01*
X47190116Y-62248117D01*
X47191351Y-61865135D01*
X47193348Y-61532185D01*
X47196273Y-61245512D01*
X47200293Y-61001357D01*
X47205573Y-60795966D01*
X47212279Y-60625581D01*
X47220577Y-60486447D01*
X47230633Y-60374806D01*
X47242612Y-60286902D01*
X47256682Y-60218979D01*
X47273006Y-60167280D01*
X47291753Y-60128049D01*
X47313086Y-60097529D01*
X47337173Y-60071965D01*
X47364179Y-60047598D01*
X47394270Y-60020674D01*
X47412234Y-60003376D01*
X47442487Y-59971246D01*
X47468157Y-59942354D01*
X47493045Y-59916524D01*
X47520947Y-59893575D01*
X47555662Y-59873329D01*
X47600989Y-59855609D01*
X47660726Y-59840235D01*
X47738671Y-59827029D01*
X47838623Y-59815812D01*
X47964379Y-59806406D01*
X48119738Y-59798633D01*
X48308499Y-59792314D01*
X48534459Y-59787271D01*
X48801417Y-59783324D01*
X49113172Y-59780296D01*
X49473521Y-59778008D01*
X49886263Y-59776281D01*
X50355196Y-59774938D01*
X50884118Y-59773799D01*
X51476829Y-59772686D01*
X52137125Y-59771420D01*
X52357743Y-59770966D01*
X53052684Y-59769407D01*
X53678811Y-59767945D01*
X54239882Y-59766778D01*
X54739653Y-59766104D01*
X55181883Y-59766122D01*
X55570330Y-59767029D01*
X55908749Y-59769025D01*
X56200900Y-59772307D01*
X56450539Y-59777074D01*
X56661423Y-59783525D01*
X56837311Y-59791857D01*
X56981960Y-59802269D01*
X57099127Y-59814960D01*
X57192570Y-59830127D01*
X57266046Y-59847970D01*
X57323313Y-59868686D01*
X57368128Y-59892474D01*
X57404248Y-59919533D01*
X57435432Y-59950060D01*
X57465436Y-59984254D01*
X57498018Y-60022313D01*
X57516892Y-60043335D01*
X57676143Y-60216142D01*
X57964307Y-60216142D01*
X57934611Y-60181352D01*
X57911782Y-60129303D01*
X57826645Y-59974004D01*
X57692640Y-59818778D01*
X57530646Y-59683749D01*
X57361540Y-59589043D01*
X57344323Y-59582295D01*
X57314684Y-59571627D01*
X57283227Y-59562040D01*
X57246115Y-59553478D01*
X57199507Y-59545883D01*
X57139563Y-59539195D01*
X57062444Y-59533359D01*
X56964310Y-59528315D01*
X56841321Y-59524006D01*
X56689637Y-59520375D01*
X56505419Y-59517362D01*
X56284827Y-59514911D01*
X56024021Y-59512964D01*
X55719162Y-59511463D01*
X55366409Y-59510349D01*
X54961922Y-59509565D01*
X54501863Y-59509053D01*
X53982392Y-59508756D01*
X53399668Y-59508615D01*
X52749851Y-59508573D01*
X52451000Y-59508571D01*
X51771176Y-59508592D01*
%TD*%
M02*
