%TF.GenerationSoftware,KiCad,Pcbnew,5.1.8-db9833491~88~ubuntu20.10.1*%
%TF.CreationDate,2020-11-26T22:30:36-06:00*%
%TF.ProjectId,micropad,6d696372-6f70-4616-942e-6b696361645f,rev?*%
%TF.SameCoordinates,Original*%
%TF.FileFunction,Copper,L1,Top*%
%TF.FilePolarity,Positive*%
%FSLAX46Y46*%
G04 Gerber Fmt 4.6, Leading zero omitted, Abs format (unit mm)*
G04 Created by KiCad (PCBNEW 5.1.8-db9833491~88~ubuntu20.10.1) date 2020-11-26 22:30:36*
%MOMM*%
%LPD*%
G01*
G04 APERTURE LIST*
%TA.AperFunction,ComponentPad*%
%ADD10C,1.850000*%
%TD*%
%TA.AperFunction,ComponentPad*%
%ADD11C,3.500000*%
%TD*%
%TA.AperFunction,SMDPad,CuDef*%
%ADD12R,1.000000X1.250000*%
%TD*%
%TA.AperFunction,SMDPad,CuDef*%
%ADD13R,1.250000X1.000000*%
%TD*%
%TA.AperFunction,SMDPad,CuDef*%
%ADD14R,1.200000X1.200000*%
%TD*%
%TA.AperFunction,SMDPad,CuDef*%
%ADD15R,2.100000X1.600000*%
%TD*%
%TA.AperFunction,SMDPad,CuDef*%
%ADD16R,0.400000X1.350000*%
%TD*%
%TA.AperFunction,ComponentPad*%
%ADD17O,1.000000X1.700000*%
%TD*%
%TA.AperFunction,SMDPad,CuDef*%
%ADD18R,0.700000X1.300000*%
%TD*%
%TA.AperFunction,SMDPad,CuDef*%
%ADD19R,1.300000X0.700000*%
%TD*%
%TA.AperFunction,ComponentPad*%
%ADD20C,1.524000*%
%TD*%
%TA.AperFunction,WasherPad*%
%ADD21R,2.600000X1.800000*%
%TD*%
%TA.AperFunction,ComponentPad*%
%ADD22C,2.200000*%
%TD*%
%TA.AperFunction,SMDPad,CuDef*%
%ADD23R,2.000000X1.100000*%
%TD*%
%TA.AperFunction,SMDPad,CuDef*%
%ADD24R,2.000000X1.500000*%
%TD*%
%TA.AperFunction,SMDPad,CuDef*%
%ADD25R,2.000000X3.800000*%
%TD*%
%TA.AperFunction,SMDPad,CuDef*%
%ADD26R,1.725000X1.725000*%
%TD*%
%TA.AperFunction,SMDPad,CuDef*%
%ADD27R,0.250000X0.700000*%
%TD*%
%TA.AperFunction,SMDPad,CuDef*%
%ADD28R,0.700000X0.250000*%
%TD*%
%TA.AperFunction,SMDPad,CuDef*%
%ADD29R,0.750000X0.800000*%
%TD*%
%TA.AperFunction,ViaPad*%
%ADD30C,0.800000*%
%TD*%
%TA.AperFunction,Conductor*%
%ADD31C,0.250000*%
%TD*%
%TA.AperFunction,Conductor*%
%ADD32C,0.400000*%
%TD*%
G04 APERTURE END LIST*
D10*
%TO.P,J1,4*%
%TO.N,GND*%
X39370000Y-31750000D03*
%TO.P,J1,3*%
%TO.N,/SWCLK*%
X36830000Y-30480000D03*
%TO.P,J1,2*%
%TO.N,/SWDIO*%
X39370000Y-29210000D03*
%TO.P,J1,1*%
%TO.N,+3V3*%
X36830000Y-27940000D03*
%TD*%
D11*
%TO.P,H4,1*%
%TO.N,N/C*%
X72644000Y-96012000D03*
%TD*%
%TO.P,H3,1*%
%TO.N,N/C*%
X72644000Y-25400000D03*
%TD*%
%TO.P,H2,1*%
%TO.N,N/C*%
X33020000Y-96012000D03*
%TD*%
%TO.P,H1,1*%
%TO.N,N/C*%
X33020000Y-25400000D03*
%TD*%
D12*
%TO.P,C1,1*%
%TO.N,+3V3*%
X43720000Y-52070000D03*
%TO.P,C1,2*%
%TO.N,GND*%
X45720000Y-52070000D03*
%TD*%
%TO.P,C2,2*%
%TO.N,GND*%
X45720000Y-54610000D03*
%TO.P,C2,1*%
%TO.N,+3V3*%
X43720000Y-54610000D03*
%TD*%
%TO.P,C3,2*%
%TO.N,GND*%
X36830000Y-44450000D03*
%TO.P,C3,1*%
%TO.N,+3V3*%
X34830000Y-44450000D03*
%TD*%
%TO.P,C4,1*%
%TO.N,+3V3*%
X34830000Y-41910000D03*
%TO.P,C4,2*%
%TO.N,GND*%
X36830000Y-41910000D03*
%TD*%
D13*
%TO.P,C5,1*%
%TO.N,/ENC_A*%
X39370000Y-39370000D03*
%TO.P,C5,2*%
%TO.N,GND*%
X39370000Y-37370000D03*
%TD*%
%TO.P,C6,1*%
%TO.N,/ENC_B*%
X66040000Y-54070000D03*
%TO.P,C6,2*%
%TO.N,GND*%
X66040000Y-52070000D03*
%TD*%
D14*
%TO.P,D1,2*%
%TO.N,+3V3*%
X43180000Y-27940000D03*
%TO.P,D1,1*%
%TO.N,Net-(D1-Pad1)*%
X45380000Y-27940000D03*
%TD*%
%TO.P,D2,1*%
%TO.N,Net-(D2-Pad1)*%
X62060000Y-27940000D03*
%TO.P,D2,2*%
%TO.N,/LED_USR*%
X59860000Y-27940000D03*
%TD*%
D15*
%TO.P,J3,6*%
%TO.N,GND*%
X56440000Y-26392000D03*
X50240000Y-26392000D03*
D16*
%TO.P,J3,1*%
%TO.N,Net-(F1-Pad2)*%
X54640000Y-26617000D03*
%TO.P,J3,5*%
%TO.N,GND*%
X52040000Y-26617000D03*
%TO.P,J3,2*%
%TO.N,/USB_DM*%
X53990000Y-26617000D03*
%TO.P,J3,3*%
%TO.N,/USB_DP*%
X53340000Y-26617000D03*
%TO.P,J3,4*%
%TO.N,Net-(J3-Pad4)*%
X52690000Y-26617000D03*
D17*
%TO.P,J3,0*%
%TO.N,N/C*%
X56165000Y-23942000D03*
X50515000Y-23942000D03*
%TD*%
D18*
%TO.P,R1,2*%
%TO.N,GND*%
X45720000Y-48260000D03*
%TO.P,R1,1*%
%TO.N,/BOOT*%
X43820000Y-48260000D03*
%TD*%
%TO.P,R2,1*%
%TO.N,Net-(D1-Pad1)*%
X45080000Y-31750000D03*
%TO.P,R2,2*%
%TO.N,GND*%
X43180000Y-31750000D03*
%TD*%
%TO.P,R3,2*%
%TO.N,GND*%
X60010000Y-31750000D03*
%TO.P,R3,1*%
%TO.N,Net-(D2-Pad1)*%
X61910000Y-31750000D03*
%TD*%
D19*
%TO.P,R4,2*%
%TO.N,/ENC_A*%
X36830000Y-39370000D03*
%TO.P,R4,1*%
%TO.N,Net-(R4-Pad1)*%
X36830000Y-37470000D03*
%TD*%
%TO.P,R5,2*%
%TO.N,Net-(R4-Pad1)*%
X34290000Y-37470000D03*
%TO.P,R5,1*%
%TO.N,+3V3*%
X34290000Y-39370000D03*
%TD*%
%TO.P,R6,1*%
%TO.N,+3V3*%
X62230000Y-48260000D03*
%TO.P,R6,2*%
%TO.N,Net-(R6-Pad2)*%
X62230000Y-50160000D03*
%TD*%
%TO.P,R7,1*%
%TO.N,/ENC_B*%
X62230000Y-54610000D03*
%TO.P,R7,2*%
%TO.N,Net-(R6-Pad2)*%
X62230000Y-52710000D03*
%TD*%
D20*
%TO.P,S1,1*%
%TO.N,Net-(R4-Pad1)*%
X60840000Y-43140000D03*
%TO.P,S1,2*%
%TO.N,GND*%
X60840000Y-40640000D03*
%TO.P,S1,3*%
%TO.N,Net-(R6-Pad2)*%
X60840000Y-38140000D03*
%TO.P,S1,4*%
%TO.N,GND*%
X46340000Y-43140000D03*
%TO.P,S1,5*%
%TO.N,/ENC_BTN*%
X46340000Y-38140000D03*
D21*
%TO.P,S1,*%
%TO.N,*%
X53340000Y-44390000D03*
X53340000Y-36890000D03*
%TD*%
D22*
%TO.P,SW1,2*%
%TO.N,+3V3*%
X49530000Y-83820000D03*
%TO.P,SW1,1*%
%TO.N,/BOOT*%
X55880000Y-81280000D03*
%TD*%
%TO.P,SW2,1*%
%TO.N,Net-(SW2-Pad1)*%
X45720000Y-60960000D03*
%TO.P,SW2,2*%
%TO.N,+3V3*%
X39370000Y-63500000D03*
%TD*%
%TO.P,SW3,2*%
%TO.N,+3V3*%
X59690000Y-63500000D03*
%TO.P,SW3,1*%
%TO.N,Net-(SW3-Pad1)*%
X66040000Y-60960000D03*
%TD*%
D23*
%TO.P,U3,6*%
%TO.N,Net-(U3-Pad6)*%
X55740000Y-49100000D03*
%TO.P,U3,5*%
%TO.N,Net-(U3-Pad5)*%
X55740000Y-50800000D03*
%TO.P,U3,4*%
%TO.N,+5V*%
X55740000Y-52500000D03*
%TO.P,U3,3*%
%TO.N,GND*%
X50940000Y-52500000D03*
%TO.P,U3,2*%
%TO.N,/APA_SCK*%
X50940000Y-50800000D03*
%TO.P,U3,1*%
%TO.N,/APA_MOSI*%
X50940000Y-49100000D03*
%TD*%
D24*
%TO.P,U1,1*%
%TO.N,GND*%
X66090000Y-39610000D03*
%TO.P,U1,3*%
%TO.N,+5V*%
X66090000Y-44210000D03*
%TO.P,U1,2*%
%TO.N,+3V3*%
X66090000Y-41910000D03*
D25*
%TO.P,U1,4*%
%TO.N,N/C*%
X72390000Y-41910000D03*
%TD*%
D26*
%TO.P,U2,33*%
%TO.N,GND*%
X37236400Y-49936400D03*
X37236400Y-51661400D03*
X38961400Y-49936400D03*
X38961400Y-51661400D03*
D27*
%TO.P,U2,32*%
%TO.N,Net-(U2-Pad32)*%
X36348900Y-48398900D03*
%TO.P,U2,31*%
%TO.N,/BOOT*%
X36848900Y-48398900D03*
%TO.P,U2,30*%
%TO.N,Net-(U2-Pad30)*%
X37348900Y-48398900D03*
%TO.P,U2,29*%
%TO.N,Net-(U2-Pad29)*%
X37848900Y-48398900D03*
%TO.P,U2,28*%
%TO.N,Net-(U2-Pad28)*%
X38348900Y-48398900D03*
%TO.P,U2,27*%
%TO.N,Net-(U2-Pad27)*%
X38848900Y-48398900D03*
%TO.P,U2,26*%
%TO.N,Net-(U2-Pad26)*%
X39348900Y-48398900D03*
%TO.P,U2,25*%
%TO.N,Net-(U2-Pad25)*%
X39848900Y-48398900D03*
D28*
%TO.P,U2,24*%
%TO.N,/SWCLK*%
X40498900Y-49048900D03*
%TO.P,U2,23*%
%TO.N,/SWDIO*%
X40498900Y-49548900D03*
%TO.P,U2,22*%
%TO.N,/USB_DP*%
X40498900Y-50048900D03*
%TO.P,U2,21*%
%TO.N,/USB_DM*%
X40498900Y-50548900D03*
%TO.P,U2,20*%
%TO.N,/LED_USR*%
X40498900Y-51048900D03*
%TO.P,U2,19*%
%TO.N,/ENC_B*%
X40498900Y-51548900D03*
%TO.P,U2,18*%
%TO.N,/ENC_A*%
X40498900Y-52048900D03*
%TO.P,U2,17*%
%TO.N,+3V3*%
X40498900Y-52548900D03*
D27*
%TO.P,U2,16*%
%TO.N,Net-(U2-Pad16)*%
X39848900Y-53198900D03*
%TO.P,U2,15*%
%TO.N,Net-(U2-Pad15)*%
X39348900Y-53198900D03*
%TO.P,U2,14*%
%TO.N,Net-(U2-Pad14)*%
X38848900Y-53198900D03*
%TO.P,U2,13*%
%TO.N,/APA_MOSI*%
X38348900Y-53198900D03*
%TO.P,U2,12*%
%TO.N,Net-(U2-Pad12)*%
X37848900Y-53198900D03*
%TO.P,U2,11*%
%TO.N,/APA_SCK*%
X37348900Y-53198900D03*
%TO.P,U2,10*%
%TO.N,Net-(U2-Pad10)*%
X36848900Y-53198900D03*
%TO.P,U2,9*%
%TO.N,/ENC_BTN*%
X36348900Y-53198900D03*
D28*
%TO.P,U2,8*%
%TO.N,Net-(SW3-Pad1)*%
X35698900Y-52548900D03*
%TO.P,U2,7*%
%TO.N,Net-(SW2-Pad1)*%
X35698900Y-52048900D03*
%TO.P,U2,6*%
%TO.N,/BOOT*%
X35698900Y-51548900D03*
%TO.P,U2,5*%
%TO.N,+3V3*%
X35698900Y-51048900D03*
%TO.P,U2,4*%
%TO.N,Net-(U2-Pad4)*%
X35698900Y-50548900D03*
%TO.P,U2,3*%
%TO.N,Net-(U2-Pad3)*%
X35698900Y-50048900D03*
%TO.P,U2,2*%
%TO.N,Net-(U2-Pad2)*%
X35698900Y-49548900D03*
%TO.P,U2,1*%
%TO.N,+3V3*%
X35698900Y-49048900D03*
%TD*%
D29*
%TO.P,F1,1*%
%TO.N,+5V*%
X63500000Y-36830000D03*
%TO.P,F1,2*%
%TO.N,Net-(F1-Pad2)*%
X63500000Y-35330000D03*
%TD*%
D30*
%TO.N,+3V3*%
X72390000Y-64770000D03*
X31750000Y-64770000D03*
X31750000Y-84582000D03*
X31750000Y-57150000D03*
X42418000Y-58166000D03*
X34544000Y-49022000D03*
X31750000Y-49022000D03*
X72390000Y-48260000D03*
X64770000Y-48260000D03*
%TO.N,GND*%
X37211000Y-49911000D03*
X38989000Y-49911000D03*
X38989000Y-51689000D03*
X37211000Y-51689000D03*
X38100000Y-44450000D03*
X50800000Y-53975000D03*
X46355000Y-57785000D03*
X60325000Y-33020000D03*
X43180000Y-33655000D03*
X45720000Y-46445000D03*
X39370000Y-35560000D03*
X63500000Y-40640000D03*
X66040000Y-50800000D03*
X33020000Y-51308000D03*
X33528000Y-46228000D03*
X56388000Y-28448000D03*
X50292000Y-28448000D03*
%TO.N,/ENC_A*%
X42164000Y-53340000D03*
X47498000Y-53086000D03*
X46990000Y-44450000D03*
X39370000Y-44450000D03*
%TO.N,/ENC_B*%
X42164000Y-52324000D03*
X60198000Y-52324000D03*
%TO.N,/LED_USR*%
X42164000Y-51308000D03*
X50038000Y-47244000D03*
X53340000Y-32385000D03*
X55880000Y-32385000D03*
%TO.N,+5V*%
X55880000Y-54610000D03*
X68580000Y-54610000D03*
%TO.N,/USB_DM*%
X49022000Y-48514000D03*
X42194206Y-50077512D03*
%TO.N,/USB_DP*%
X48021997Y-48514000D03*
X42164000Y-49022000D03*
%TO.N,/BOOT*%
X33782000Y-47498000D03*
X42418000Y-47752000D03*
%TO.N,Net-(R4-Pad1)*%
X38100000Y-38100000D03*
%TO.N,/ENC_BTN*%
X36322000Y-55880000D03*
X57912000Y-55880000D03*
X57150000Y-39370000D03*
%TO.N,Net-(SW2-Pad1)*%
X33020000Y-60452000D03*
%TO.N,Net-(SW3-Pad1)*%
X34290000Y-56642000D03*
%TO.N,/APA_MOSI*%
X38354000Y-55118000D03*
X52578000Y-55118000D03*
%TO.N,/APA_SCK*%
X49022000Y-53340000D03*
X37338000Y-54393000D03*
%TD*%
D31*
%TO.N,+3V3*%
X35672000Y-49022000D02*
X35700000Y-49050000D01*
D32*
X31750000Y-50546000D02*
X31750000Y-49022000D01*
D31*
X43720000Y-54610000D02*
X43720000Y-52070000D01*
X42926000Y-54610000D02*
X42418000Y-55118000D01*
X43720000Y-54610000D02*
X42926000Y-54610000D01*
D32*
X31750000Y-54356000D02*
X31750000Y-50546000D01*
D31*
X34830000Y-44450000D02*
X34830000Y-41910000D01*
X32512000Y-44450000D02*
X31750000Y-45212000D01*
X34830000Y-44450000D02*
X32512000Y-44450000D01*
D32*
X31750000Y-45212000D02*
X31750000Y-30759998D01*
X31750000Y-49022000D02*
X31750000Y-45212000D01*
D31*
X40500000Y-53200000D02*
X42418000Y-55118000D01*
X40500000Y-52550000D02*
X40500000Y-53200000D01*
D32*
X31750000Y-57150000D02*
X31750000Y-54356000D01*
X31750000Y-84582000D02*
X31750000Y-57150000D01*
D31*
X42418000Y-55118000D02*
X42418000Y-58166000D01*
X35100000Y-51050000D02*
X35024999Y-50974999D01*
X35700000Y-51050000D02*
X35100000Y-51050000D01*
X34621999Y-49099999D02*
X34544000Y-49022000D01*
X34570900Y-49048900D02*
X34544000Y-49022000D01*
X35698900Y-49048900D02*
X34570900Y-49048900D01*
X34544000Y-50494000D02*
X34544000Y-49022000D01*
X35100000Y-51050000D02*
X34544000Y-50494000D01*
X64770000Y-48260000D02*
X62230000Y-48260000D01*
X34830000Y-39910000D02*
X34290000Y-39370000D01*
X34830000Y-41910000D02*
X34830000Y-39910000D01*
D32*
X31750000Y-30759998D02*
X33299998Y-29210000D01*
D31*
X66090000Y-41960000D02*
X66090000Y-41910000D01*
D32*
X72390000Y-48260000D02*
X72390000Y-64770000D01*
X66605685Y-41910000D02*
X66090000Y-41910000D01*
X72390000Y-47694315D02*
X66605685Y-41910000D01*
X72390000Y-48260000D02*
X72390000Y-47694315D01*
X35928001Y-88760001D02*
X31750000Y-84582000D01*
X72390000Y-70862002D02*
X54492001Y-88760001D01*
X54492001Y-88760001D02*
X35928001Y-88760001D01*
X72390000Y-64770000D02*
X72390000Y-70862002D01*
X35935000Y-29210000D02*
X37160000Y-27985000D01*
X33299998Y-29210000D02*
X35935000Y-29210000D01*
X41910000Y-26670000D02*
X43180000Y-27940000D01*
X40640000Y-24130000D02*
X41910000Y-25400000D01*
X37465000Y-24130000D02*
X40640000Y-24130000D01*
X36830000Y-24765000D02*
X37465000Y-24130000D01*
X41910000Y-25400000D02*
X41910000Y-26670000D01*
X36830000Y-27940000D02*
X36830000Y-24765000D01*
D31*
%TO.N,GND*%
X36830000Y-44450000D02*
X38100000Y-44450000D01*
X50940000Y-53835000D02*
X50800000Y-53975000D01*
X50940000Y-52500000D02*
X50940000Y-53835000D01*
X45720000Y-54610000D02*
X45720000Y-52070000D01*
X45720000Y-52070000D02*
X45720000Y-48260000D01*
X45720000Y-57150000D02*
X46355000Y-57785000D01*
X45720000Y-54610000D02*
X45720000Y-57150000D01*
X60010000Y-32705000D02*
X60325000Y-33020000D01*
X60010000Y-31750000D02*
X60010000Y-32705000D01*
X43180000Y-31750000D02*
X43180000Y-33655000D01*
X45720000Y-48260000D02*
X45720000Y-46445000D01*
X36830000Y-44450000D02*
X36830000Y-41910000D01*
X39370000Y-37370000D02*
X39370000Y-35560000D01*
X64530000Y-39610000D02*
X63500000Y-40640000D01*
X66090000Y-39610000D02*
X64530000Y-39610000D01*
X66040000Y-52070000D02*
X66040000Y-50800000D01*
X45720000Y-43760000D02*
X46340000Y-43140000D01*
X45720000Y-46445000D02*
X45720000Y-43760000D01*
D32*
X32620001Y-47135999D02*
X33528000Y-46228000D01*
X32620001Y-50908001D02*
X32620001Y-47135999D01*
X33020000Y-51308000D02*
X32620001Y-50908001D01*
X50240000Y-26392000D02*
X49808000Y-26392000D01*
X56440000Y-28396000D02*
X56388000Y-28448000D01*
X56440000Y-26392000D02*
X56440000Y-28396000D01*
X50240000Y-28396000D02*
X50292000Y-28448000D01*
X50240000Y-26392000D02*
X50240000Y-28396000D01*
X51815000Y-26392000D02*
X52040000Y-26617000D01*
X50240000Y-26392000D02*
X51815000Y-26392000D01*
D31*
%TO.N,/ENC_A*%
X42106998Y-53340000D02*
X42164000Y-53340000D01*
X41438999Y-52672001D02*
X42106998Y-53340000D01*
X41438999Y-52489409D02*
X41438999Y-52672001D01*
X40999590Y-52050000D02*
X41438999Y-52489409D01*
X40500000Y-52050000D02*
X40999590Y-52050000D01*
X36830000Y-39370000D02*
X39370000Y-39370000D01*
X39370000Y-39370000D02*
X39370000Y-41910000D01*
X46990000Y-52578000D02*
X46990000Y-44450000D01*
X47498000Y-53086000D02*
X46990000Y-52578000D01*
X39370000Y-41910000D02*
X39370000Y-44450000D01*
%TO.N,/ENC_B*%
X40500000Y-51550000D02*
X41136000Y-51550000D01*
X41910000Y-52324000D02*
X42164000Y-52324000D01*
X41136000Y-51550000D02*
X41910000Y-52324000D01*
X62230000Y-54356000D02*
X62230000Y-54610000D01*
X60198000Y-52324000D02*
X62230000Y-54356000D01*
X65500000Y-54610000D02*
X66040000Y-54070000D01*
X62230000Y-54610000D02*
X65500000Y-54610000D01*
%TO.N,Net-(D1-Pad1)*%
X45080000Y-28240000D02*
X45380000Y-27940000D01*
X45080000Y-31750000D02*
X45080000Y-28240000D01*
%TO.N,/LED_USR*%
X42160000Y-51050000D02*
X42164000Y-51054000D01*
X40500000Y-51050000D02*
X41152000Y-51050000D01*
X41152000Y-51050000D02*
X41340998Y-51050000D01*
X41906000Y-51050000D02*
X42164000Y-51308000D01*
X41152000Y-51050000D02*
X41906000Y-51050000D01*
X59860000Y-27940000D02*
X59334999Y-28465001D01*
X50038000Y-47244000D02*
X50038000Y-41967685D01*
X50038000Y-35687000D02*
X53340000Y-32385000D01*
X50038000Y-41967685D02*
X50038000Y-35687000D01*
X59860000Y-28405000D02*
X59860000Y-27940000D01*
X55880000Y-32385000D02*
X59860000Y-28405000D01*
%TO.N,Net-(D2-Pad1)*%
X61910000Y-28090000D02*
X62060000Y-27940000D01*
X61910000Y-31750000D02*
X61910000Y-28090000D01*
%TO.N,/SWCLK*%
X39914999Y-34834999D02*
X35469999Y-34834999D01*
X40620001Y-35540001D02*
X39914999Y-34834999D01*
X40620001Y-48927799D02*
X40620001Y-35540001D01*
X40498900Y-49048900D02*
X40620001Y-48927799D01*
X35469999Y-34834999D02*
X34290000Y-33655000D01*
X34290000Y-33655000D02*
X34290000Y-31115000D01*
X34925000Y-30480000D02*
X36830000Y-30480000D01*
X34290000Y-31115000D02*
X34925000Y-30480000D01*
%TO.N,/SWDIO*%
X41175001Y-30730001D02*
X39700000Y-29255000D01*
X41175001Y-49435001D02*
X41175001Y-30730001D01*
X41060002Y-49550000D02*
X41175001Y-49435001D01*
X40500000Y-49550000D02*
X41060002Y-49550000D01*
%TO.N,+5V*%
X56085000Y-52500000D02*
X55740000Y-52500000D01*
X55740000Y-54470000D02*
X55880000Y-54610000D01*
X55740000Y-52500000D02*
X55740000Y-54470000D01*
X68580000Y-46700000D02*
X66090000Y-44210000D01*
X68580000Y-54610000D02*
X68580000Y-46700000D01*
D32*
X64690000Y-44210000D02*
X66090000Y-44210000D01*
X62699999Y-42219999D02*
X64690000Y-44210000D01*
X62699999Y-37630001D02*
X62699999Y-42219999D01*
X63500000Y-36830000D02*
X62699999Y-37630001D01*
D31*
%TO.N,/USB_DM*%
X40500000Y-50550000D02*
X41652000Y-50550000D01*
X41721718Y-50550000D02*
X42194206Y-50077512D01*
X41652000Y-50550000D02*
X41721718Y-50550000D01*
X49022000Y-35103000D02*
X49022000Y-48514000D01*
X53990000Y-30135000D02*
X49022000Y-35103000D01*
X53990000Y-26617000D02*
X53990000Y-30135000D01*
%TO.N,/USB_DP*%
X40500000Y-50050000D02*
X41196412Y-50050000D01*
X42164000Y-49082412D02*
X42164000Y-49022000D01*
X41196412Y-50050000D02*
X42164000Y-49082412D01*
X48021997Y-35338005D02*
X48021997Y-48514000D01*
X53340000Y-30020002D02*
X48021997Y-35338005D01*
X53340000Y-26617000D02*
X53340000Y-30020002D01*
%TO.N,/BOOT*%
X33782000Y-50368410D02*
X33782000Y-47498000D01*
X34963590Y-51550000D02*
X33782000Y-50368410D01*
X35700000Y-51550000D02*
X34963590Y-51550000D01*
X43312000Y-47752000D02*
X43820000Y-48260000D01*
X42418000Y-47752000D02*
X43312000Y-47752000D01*
X55880000Y-69010998D02*
X55880000Y-81280000D01*
X44894999Y-58025997D02*
X55880000Y-69010998D01*
X44894999Y-48734999D02*
X44894999Y-58025997D01*
X44420000Y-48260000D02*
X44894999Y-48734999D01*
X43820000Y-48260000D02*
X44420000Y-48260000D01*
X36548000Y-47498000D02*
X33782000Y-47498000D01*
X36850000Y-47800000D02*
X36548000Y-47498000D01*
X36850000Y-48400000D02*
X36850000Y-47800000D01*
%TO.N,Net-(R4-Pad1)*%
X34290000Y-37470000D02*
X36830000Y-37470000D01*
X37470000Y-37470000D02*
X38100000Y-38100000D01*
X36830000Y-37470000D02*
X37470000Y-37470000D01*
%TO.N,Net-(R6-Pad2)*%
X62230000Y-52710000D02*
X62230000Y-50160000D01*
X61254999Y-49184999D02*
X62230000Y-50160000D01*
X59752999Y-47682999D02*
X61254999Y-49184999D01*
X59752999Y-39227001D02*
X59752999Y-47682999D01*
X60840000Y-38140000D02*
X59752999Y-39227001D01*
%TO.N,/ENC_BTN*%
X36350000Y-55852000D02*
X36322000Y-55880000D01*
X36350000Y-53200000D02*
X36350000Y-55852000D01*
X57912000Y-55880000D02*
X57912000Y-45720000D01*
X57912000Y-40132000D02*
X57912000Y-45720000D01*
X57150000Y-39370000D02*
X57912000Y-40132000D01*
%TO.N,Net-(SW2-Pad1)*%
X34435590Y-52050000D02*
X35700000Y-52050000D01*
X33020000Y-53465590D02*
X34435590Y-52050000D01*
X33020000Y-60452000D02*
X33020000Y-53465590D01*
%TO.N,Net-(SW3-Pad1)*%
X35700000Y-52550000D02*
X34572000Y-52550000D01*
X34290000Y-52832000D02*
X34290000Y-56642000D01*
X34572000Y-52550000D02*
X34290000Y-52832000D01*
%TO.N,/APA_MOSI*%
X38350000Y-55114000D02*
X38354000Y-55118000D01*
X38350000Y-53200000D02*
X38350000Y-55114000D01*
X51375002Y-49100000D02*
X50940000Y-49100000D01*
X52578000Y-50302998D02*
X51375002Y-49100000D01*
X52578000Y-55118000D02*
X52578000Y-50302998D01*
%TO.N,/APA_SCK*%
X49022000Y-51468000D02*
X49022000Y-53340000D01*
X49690000Y-50800000D02*
X49022000Y-51468000D01*
X50940000Y-50800000D02*
X49690000Y-50800000D01*
X37338000Y-53212000D02*
X37350000Y-53200000D01*
X37338000Y-54393000D02*
X37338000Y-53212000D01*
D32*
%TO.N,Net-(F1-Pad2)*%
X57136304Y-35330000D02*
X63500000Y-35330000D01*
X54640000Y-32833696D02*
X54640000Y-26617000D01*
X57136304Y-35330000D02*
X54640000Y-32833696D01*
%TD*%
M02*
