%TF.GenerationSoftware,KiCad,Pcbnew,5.1.8-db9833491~88~ubuntu20.10.1*%
%TF.CreationDate,2020-11-26T22:30:36-06:00*%
%TF.ProjectId,micropad,6d696372-6f70-4616-942e-6b696361645f,rev?*%
%TF.SameCoordinates,Original*%
%TF.FileFunction,Soldermask,Top*%
%TF.FilePolarity,Negative*%
%FSLAX46Y46*%
G04 Gerber Fmt 4.6, Leading zero omitted, Abs format (unit mm)*
G04 Created by KiCad (PCBNEW 5.1.8-db9833491~88~ubuntu20.10.1) date 2020-11-26 22:30:36*
%MOMM*%
%LPD*%
G01*
G04 APERTURE LIST*
%ADD10C,2.600000*%
%ADD11C,2.200000*%
%ADD12C,1.850000*%
%ADD13C,3.500000*%
%ADD14R,1.000000X1.250000*%
%ADD15R,1.250000X1.000000*%
%ADD16R,1.200000X1.200000*%
%ADD17R,2.100000X1.600000*%
%ADD18R,0.400000X1.350000*%
%ADD19O,1.000000X1.700000*%
%ADD20R,0.700000X1.300000*%
%ADD21R,1.300000X0.700000*%
%ADD22C,1.524000*%
%ADD23R,2.600000X1.800000*%
%ADD24C,4.000000*%
%ADD25R,2.000000X1.100000*%
%ADD26R,2.000000X1.500000*%
%ADD27R,2.000000X3.800000*%
%ADD28R,1.725000X1.725000*%
%ADD29R,0.250000X0.700000*%
%ADD30R,0.700000X0.250000*%
%ADD31R,0.750000X0.800000*%
G04 APERTURE END LIST*
D10*
%TO.C,J1*%
X36830000Y-32980000D03*
D11*
X39370000Y-26670000D03*
D12*
X39370000Y-31750000D03*
X36830000Y-30480000D03*
X39370000Y-29210000D03*
X36830000Y-27940000D03*
%TD*%
D13*
%TO.C,H4*%
X72644000Y-96012000D03*
%TD*%
%TO.C,H3*%
X72644000Y-25400000D03*
%TD*%
%TO.C,H2*%
X33020000Y-96012000D03*
%TD*%
%TO.C,H1*%
X33020000Y-25400000D03*
%TD*%
D14*
%TO.C,C1*%
X43720000Y-52070000D03*
X45720000Y-52070000D03*
%TD*%
%TO.C,C2*%
X45720000Y-54610000D03*
X43720000Y-54610000D03*
%TD*%
%TO.C,C3*%
X36830000Y-44450000D03*
X34830000Y-44450000D03*
%TD*%
%TO.C,C4*%
X34830000Y-41910000D03*
X36830000Y-41910000D03*
%TD*%
D15*
%TO.C,C5*%
X39370000Y-39370000D03*
X39370000Y-37370000D03*
%TD*%
%TO.C,C6*%
X66040000Y-54070000D03*
X66040000Y-52070000D03*
%TD*%
D16*
%TO.C,D1*%
X43180000Y-27940000D03*
X45380000Y-27940000D03*
%TD*%
%TO.C,D2*%
X62060000Y-27940000D03*
X59860000Y-27940000D03*
%TD*%
D17*
%TO.C,J3*%
X56440000Y-26392000D03*
X50240000Y-26392000D03*
D18*
X54640000Y-26617000D03*
X52040000Y-26617000D03*
X53990000Y-26617000D03*
X53340000Y-26617000D03*
X52690000Y-26617000D03*
D19*
X56165000Y-23942000D03*
X50515000Y-23942000D03*
%TD*%
D20*
%TO.C,R1*%
X45720000Y-48260000D03*
X43820000Y-48260000D03*
%TD*%
%TO.C,R2*%
X45080000Y-31750000D03*
X43180000Y-31750000D03*
%TD*%
%TO.C,R3*%
X60010000Y-31750000D03*
X61910000Y-31750000D03*
%TD*%
D21*
%TO.C,R4*%
X36830000Y-39370000D03*
X36830000Y-37470000D03*
%TD*%
%TO.C,R5*%
X34290000Y-37470000D03*
X34290000Y-39370000D03*
%TD*%
%TO.C,R6*%
X62230000Y-48260000D03*
X62230000Y-50160000D03*
%TD*%
%TO.C,R7*%
X62230000Y-54610000D03*
X62230000Y-52710000D03*
%TD*%
D22*
%TO.C,S1*%
X60840000Y-43140000D03*
X60840000Y-40640000D03*
X60840000Y-38140000D03*
X46340000Y-43140000D03*
X46340000Y-38140000D03*
D23*
X53340000Y-44390000D03*
X53340000Y-36890000D03*
%TD*%
D24*
%TO.C,SW1*%
X53340000Y-86360000D03*
D11*
X49530000Y-83820000D03*
X55880000Y-81280000D03*
%TD*%
%TO.C,SW2*%
X45720000Y-60960000D03*
X39370000Y-63500000D03*
D24*
X43180000Y-66040000D03*
%TD*%
%TO.C,SW3*%
X63500000Y-66040000D03*
D11*
X59690000Y-63500000D03*
X66040000Y-60960000D03*
%TD*%
D25*
%TO.C,U3*%
X55740000Y-49100000D03*
X55740000Y-50800000D03*
X55740000Y-52500000D03*
X50940000Y-52500000D03*
X50940000Y-50800000D03*
X50940000Y-49100000D03*
%TD*%
D26*
%TO.C,U1*%
X66090000Y-39610000D03*
X66090000Y-44210000D03*
X66090000Y-41910000D03*
D27*
X72390000Y-41910000D03*
%TD*%
D28*
%TO.C,U2*%
X37236400Y-49936400D03*
X37236400Y-51661400D03*
X38961400Y-49936400D03*
X38961400Y-51661400D03*
D29*
X36348900Y-48398900D03*
X36848900Y-48398900D03*
X37348900Y-48398900D03*
X37848900Y-48398900D03*
X38348900Y-48398900D03*
X38848900Y-48398900D03*
X39348900Y-48398900D03*
X39848900Y-48398900D03*
D30*
X40498900Y-49048900D03*
X40498900Y-49548900D03*
X40498900Y-50048900D03*
X40498900Y-50548900D03*
X40498900Y-51048900D03*
X40498900Y-51548900D03*
X40498900Y-52048900D03*
X40498900Y-52548900D03*
D29*
X39848900Y-53198900D03*
X39348900Y-53198900D03*
X38848900Y-53198900D03*
X38348900Y-53198900D03*
X37848900Y-53198900D03*
X37348900Y-53198900D03*
X36848900Y-53198900D03*
X36348900Y-53198900D03*
D30*
X35698900Y-52548900D03*
X35698900Y-52048900D03*
X35698900Y-51548900D03*
X35698900Y-51048900D03*
X35698900Y-50548900D03*
X35698900Y-50048900D03*
X35698900Y-49548900D03*
X35698900Y-49048900D03*
%TD*%
D31*
%TO.C,F1*%
X63500000Y-36830000D03*
X63500000Y-35330000D03*
%TD*%
M02*
