%TF.GenerationSoftware,KiCad,Pcbnew,5.1.9-73d0e3b20d~88~ubuntu20.10.1*%
%TF.CreationDate,2020-12-26T08:06:31-06:00*%
%TF.ProjectId,micropad,6d696372-6f70-4616-942e-6b696361645f,rev?*%
%TF.SameCoordinates,Original*%
%TF.FileFunction,Paste,Top*%
%TF.FilePolarity,Positive*%
%FSLAX46Y46*%
G04 Gerber Fmt 4.6, Leading zero omitted, Abs format (unit mm)*
G04 Created by KiCad (PCBNEW 5.1.9-73d0e3b20d~88~ubuntu20.10.1) date 2020-12-26 08:06:31*
%MOMM*%
%LPD*%
G01*
G04 APERTURE LIST*
%ADD10R,0.300000X0.760000*%
%ADD11R,1.000000X0.760000*%
%ADD12R,1.000000X1.250000*%
%ADD13R,1.250000X1.000000*%
%ADD14R,1.200000X1.200000*%
%ADD15R,0.700000X1.300000*%
%ADD16R,1.300000X0.700000*%
%ADD17R,2.000000X1.100000*%
%ADD18R,2.000000X1.500000*%
%ADD19R,2.000000X3.800000*%
%ADD20R,1.035000X1.035000*%
%ADD21R,0.250000X0.700000*%
%ADD22R,0.700000X0.250000*%
%ADD23R,0.750000X0.800000*%
G04 APERTURE END LIST*
D10*
%TO.C,J2*%
X56340000Y-30305000D03*
X55840000Y-30305000D03*
X55340000Y-30305000D03*
X54840000Y-30305000D03*
X54340000Y-30305000D03*
X53840000Y-30305000D03*
X52840000Y-30305000D03*
X52340000Y-30305000D03*
X51840000Y-30305000D03*
X51340000Y-30305000D03*
X50840000Y-30305000D03*
X50340000Y-30305000D03*
D11*
X56440000Y-29035000D03*
X50240000Y-29035000D03*
D10*
X55590000Y-29035000D03*
X55090000Y-29035000D03*
X54590000Y-29035000D03*
X54090000Y-29035000D03*
X53590000Y-29035000D03*
X53090000Y-29035000D03*
X52590000Y-29035000D03*
X52090000Y-29035000D03*
X51590000Y-29035000D03*
X51090000Y-29035000D03*
%TD*%
D12*
%TO.C,C1*%
X43720000Y-52070000D03*
X45720000Y-52070000D03*
%TD*%
%TO.C,C2*%
X45720000Y-54610000D03*
X43720000Y-54610000D03*
%TD*%
%TO.C,C3*%
X36830000Y-44450000D03*
X34830000Y-44450000D03*
%TD*%
%TO.C,C4*%
X34830000Y-41910000D03*
X36830000Y-41910000D03*
%TD*%
D13*
%TO.C,C5*%
X39370000Y-39370000D03*
X39370000Y-37370000D03*
%TD*%
%TO.C,C6*%
X66040000Y-54070000D03*
X66040000Y-52070000D03*
%TD*%
D14*
%TO.C,D1*%
X44790000Y-27940000D03*
X46990000Y-27940000D03*
%TD*%
%TO.C,D2*%
X62060000Y-27940000D03*
X59860000Y-27940000D03*
%TD*%
D15*
%TO.C,R1*%
X45720000Y-48260000D03*
X43820000Y-48260000D03*
%TD*%
%TO.C,R2*%
X46990000Y-31750000D03*
X45090000Y-31750000D03*
%TD*%
%TO.C,R3*%
X60010000Y-31750000D03*
X61910000Y-31750000D03*
%TD*%
D16*
%TO.C,R4*%
X36830000Y-39370000D03*
X36830000Y-37470000D03*
%TD*%
%TO.C,R5*%
X34290000Y-37470000D03*
X34290000Y-39370000D03*
%TD*%
%TO.C,R6*%
X62230000Y-48260000D03*
X62230000Y-50160000D03*
%TD*%
%TO.C,R7*%
X62230000Y-54610000D03*
X62230000Y-52710000D03*
%TD*%
D17*
%TO.C,U3*%
X55740000Y-49100000D03*
X55740000Y-50800000D03*
X55740000Y-52500000D03*
X50940000Y-52500000D03*
X50940000Y-50800000D03*
X50940000Y-49100000D03*
%TD*%
D18*
%TO.C,U1*%
X66090000Y-39610000D03*
X66090000Y-44210000D03*
X66090000Y-41910000D03*
D19*
X72390000Y-41910000D03*
%TD*%
D20*
%TO.C,U2*%
X37236400Y-49936400D03*
X37236400Y-51661400D03*
X38961400Y-49936400D03*
X38961400Y-51661400D03*
D21*
X36348900Y-48398900D03*
X36848900Y-48398900D03*
X37348900Y-48398900D03*
X37848900Y-48398900D03*
X38348900Y-48398900D03*
X38848900Y-48398900D03*
X39348900Y-48398900D03*
X39848900Y-48398900D03*
D22*
X40498900Y-49048900D03*
X40498900Y-49548900D03*
X40498900Y-50048900D03*
X40498900Y-50548900D03*
X40498900Y-51048900D03*
X40498900Y-51548900D03*
X40498900Y-52048900D03*
X40498900Y-52548900D03*
D21*
X39848900Y-53198900D03*
X39348900Y-53198900D03*
X38848900Y-53198900D03*
X38348900Y-53198900D03*
X37848900Y-53198900D03*
X37348900Y-53198900D03*
X36848900Y-53198900D03*
X36348900Y-53198900D03*
D22*
X35698900Y-52548900D03*
X35698900Y-52048900D03*
X35698900Y-51548900D03*
X35698900Y-51048900D03*
X35698900Y-50548900D03*
X35698900Y-50048900D03*
X35698900Y-49548900D03*
X35698900Y-49048900D03*
%TD*%
D23*
%TO.C,F1*%
X63500000Y-36830000D03*
X63500000Y-35330000D03*
%TD*%
D15*
%TO.C,R8*%
X65908000Y-31750000D03*
X64008000Y-31750000D03*
%TD*%
%TO.C,R9*%
X64008000Y-27940000D03*
X65908000Y-27940000D03*
%TD*%
M02*
